<svg xmlns="http://www.w3.org/2000/svg" width="84.208" height="84.207" viewBox="0 0 84.208 84.207">
  <g id="Grupo_1204927" data-name="Grupo 1204927" transform="translate(-872.726 -278.777)">
    <g id="Grupo_1188789" data-name="Grupo 1188789" transform="translate(583.726 -5835.222)">
      <rect id="Rectángulo_400898" data-name="Rectángulo 400898" width="75.49" height="75.489" rx="37.744" transform="translate(293.36 6118.358)" fill="#ffd907"/>
      <rect id="Rectángulo_400907" data-name="Rectángulo 400907" width="75.49" height="75.489" rx="37.744" transform="translate(293.36 6118.358)" fill="none"/>
      <g id="Grupo_1098742" data-name="Grupo 1098742" transform="translate(289 6114)">
        <g id="Rectángulo_400898-2" data-name="Rectángulo 400898" transform="translate(0)" fill="none" stroke="#fff" stroke-width="1" opacity="0.859">
          <rect width="84.208" height="84.207" rx="42.104" stroke="none"/>
          <rect x="0.5" y="0.5" width="83.208" height="83.207" rx="41.604" fill="none"/>
        </g>
        <g id="Rectángulo_400907-2" data-name="Rectángulo 400907" transform="translate(0)" fill="none" stroke="#0f1f33" stroke-linecap="round" stroke-width="1">
          <rect width="84.208" height="84.207" rx="42.104" stroke="none"/>
          <rect x="0.5" y="0.5" width="83.208" height="83.207" rx="41.604" fill="none"/>
        </g>
      </g>
      <g id="compliance_18594039" transform="translate(300.219 6121.356)">
        <g id="Grupo_1205088" data-name="Grupo 1205088" transform="translate(8.732 8.732)">
          <g id="Grupo_1205086" data-name="Grupo 1205086" transform="translate(0 0)">
            <path id="Trazado_1280394" data-name="Trazado 1280394" d="M16.671,68.633H47.934A1.673,1.673,0,0,1,49.605,70.3v41.221a1.673,1.673,0,0,1-1.671,1.671H16.671A1.675,1.675,0,0,1,15,111.525V70.3A1.673,1.673,0,0,1,16.671,68.633Z" transform="translate(-15 -63.027)" fill="#cad0d7" fill-rule="evenodd"/>
            <path id="Trazado_1280395" data-name="Trazado 1280395" d="M46.975,100.608H74.9v37.879H46.975Z" transform="translate(-43.633 -91.66)" fill="#f4f6f8" fill-rule="evenodd"/>
            <path id="Trazado_1280396" data-name="Trazado 1280396" d="M104.321,19.093a.523.523,0,0,1,.523-.523h3.877a3.569,3.569,0,1,1,7.137,0h3.877a.523.523,0,0,1,.523.523v4.855H104.321Z" transform="translate(-94.985 -15)" fill="#a9b0bb" fill-rule="evenodd"/>
            <path id="Trazado_1280397" data-name="Trazado 1280397" d="M86.2,135.211h4.373v4.373H86.2Z" transform="translate(-78.757 -122.647)" fill="#cad0d7" fill-rule="evenodd"/>
          </g>
          <g id="Grupo_1205087" data-name="Grupo 1205087" transform="translate(30.408 27.426)">
            <path id="Trazado_1280398" data-name="Trazado 1280398" d="M305.931,280.6a.523.523,0,0,1,.464-.519,14.323,14.323,0,0,0,6.522-2.677h5.788a14.342,14.342,0,0,0,6.522,2.679.521.521,0,0,1,.463.518c0,1.8,0,8.162,0,8.162,0,5.571-5.654,10.251-9.881,11.385-4.225-1.134-9.88-5.814-9.88-11.385Z" transform="translate(-305.931 -277.404)" fill="#66d4f1" fill-rule="evenodd"/>
            <path id="Trazado_1280399" data-name="Trazado 1280399" d="M357.3,340.607a.523.523,0,0,1,.523-.523h2.686a.522.522,0,0,1,.523.523v2.432h2.432a.523.523,0,0,1,.523.523v2.686a.523.523,0,0,1-.523.523h-2.432V349.2a.523.523,0,0,1-.523.523h-2.686a.523.523,0,0,1-.523-.523V346.77H354.87a.522.522,0,0,1-.523-.523v-2.686a.523.523,0,0,1,.523-.523H357.3Z" transform="translate(-349.287 -333.533)" fill="#c6ea94" fill-rule="evenodd"/>
          </g>
        </g>
        <path id="Trazado_1280400" data-name="Trazado 1280400" d="M44.068,57.214v.016a2.4,2.4,0,0,1-2.4,2.4H10.4a2.408,2.408,0,0,1-2.4-2.4V16.008a2.4,2.4,0,0,1,2.4-2.4h6.933V12.3a.732.732,0,0,1,.732-.732H21.8a4.3,4.3,0,0,1,8.477,0H34a.732.732,0,0,1,.732.732v1.3h6.93a2.4,2.4,0,0,1,2.4,2.4V36.591A16.387,16.387,0,0,0,45.7,35.562a.732.732,0,0,1,.425-.136h5.788a.731.731,0,0,1,.425.136,13.38,13.38,0,0,0,6.619,2.591.732.732,0,0,1,.674.729v8.633a11.554,11.554,0,0,1-3.561,7.865,15.845,15.845,0,0,1-6.862,4.226.731.731,0,0,1-.379,0,14.755,14.755,0,0,1-4.762-2.393ZM17.336,15.069H10.4a.94.94,0,0,0-.939.939V57.229a.942.942,0,0,0,.939.939H41.666a.94.94,0,0,0,.939-.939V56q-.326-.3-.636-.623a15.072,15.072,0,0,1-1.243-1.457v1.634a.732.732,0,0,1-.732.732H12.074a.732.732,0,0,1-.732-.732V17.679a.732.732,0,0,1,.732-.732h5.262ZM39.263,51.437a9.741,9.741,0,0,1-.856-3.921V38.883a.732.732,0,0,1,.674-.729l.182-.016V18.411H12.805V54.827H39.263ZM15.442,23.4l-.481-.312a.732.732,0,0,1,.481-1.341V21.3a.732.732,0,0,1,.732-.732h4.373a.731.731,0,0,1,.617.339L22,20.322a.732.732,0,1,1,.836,1.2l-1.556,1.082v3.063a.732.732,0,0,1-.732.732H16.173a.732.732,0,0,1-.732-.732Zm4.105-1.373H16.9v.578l.938.608ZM16.9,24.349v.589h2.91V23.623l-1.54,1.071a.732.732,0,0,1-.816.013ZM14.96,31.217a.732.732,0,0,1,.8-1.228l2.086,1.352L22,28.451a.732.732,0,1,1,.836,1.2l-4.56,3.171a.732.732,0,0,1-.816.013Zm11.074,9.936a.732.732,0,1,1,0-1.463h9.708a.732.732,0,1,1,0,1.463Zm0-10.236a.732.732,0,1,1,0-1.463h7.852a.732.732,0,1,1,0,1.463Zm0-7.677a.732.732,0,1,1,0-1.463h7.852a.732.732,0,1,1,0,1.463Zm0,15.354a.732.732,0,1,1,0-1.463h7.852a.732.732,0,1,1,0,1.463Zm0-12.8a.732.732,0,1,1,0-1.463h9.708a.732.732,0,1,1,0,1.463Zm0,7.677a.732.732,0,1,1,0-1.463h9.708a.732.732,0,1,1,0,1.463ZM14.96,39.346a.732.732,0,0,1,.8-1.228l2.086,1.352L22,36.58a.732.732,0,0,1,.836,1.2l-4.56,3.171a.732.732,0,0,1-.816.013Zm24.91.193v7.976a10.089,10.089,0,0,0,3.15,6.848,14.469,14.469,0,0,0,6,3.777,14.466,14.466,0,0,0,6-3.777,10.09,10.09,0,0,0,3.15-6.848V39.54a15.063,15.063,0,0,1-6.487-2.65H46.357a15.064,15.064,0,0,1-6.487,2.65Zm7.284,2.438h3.731a.732.732,0,0,1,.732.732v2.223H53.84a.732.732,0,0,1,.732.732v3.731a.732.732,0,0,1-.732.732H51.617v2.223a.732.732,0,0,1-.732.732H47.154a.732.732,0,0,1-.732-.732V50.126H44.2a.732.732,0,0,1-.732-.732V45.663a.732.732,0,0,1,.732-.732h2.223V42.709a.732.732,0,0,1,.732-.732Zm.732,1.463v2.223a.732.732,0,0,1-.732.732H44.931v2.268h2.223a.732.732,0,0,1,.732.732v2.223h2.268V49.394a.732.732,0,0,1,.732-.732h2.223V46.4H50.885a.732.732,0,0,1-.732-.732V43.44Zm-5.281-6.149V16.008a.94.94,0,0,0-.939-.939h-6.93v1.879h5.259a.732.732,0,0,1,.732.732V37.9A12.423,12.423,0,0,0,42.605,37.292ZM33.272,16.948V13.033H29.6a.732.732,0,0,1-.732-.732,2.837,2.837,0,1,0-5.674,0,.732.732,0,0,1-.732.732H18.8v3.914ZM26.14,11.36A1.045,1.045,0,1,1,25.1,12.4,1.046,1.046,0,0,1,26.14,11.36Z" transform="translate(0)" fill-rule="evenodd"/>
      </g>
    </g>
  </g>
</svg>
