<svg xmlns="http://www.w3.org/2000/svg" width="84.208" height="84.207" viewBox="0 0 84.208 84.207">
  <g id="Grupo_1204932" data-name="Grupo 1204932" transform="translate(-872.727 -278.777)">
    <g id="Grupo_1188789" data-name="Grupo 1188789" transform="translate(583.726 -5835.222)">
      <rect id="Rectángulo_400898" data-name="Rectángulo 400898" width="75.49" height="75.489" rx="37.744" transform="translate(293.36 6118.358)" fill="#ffd907"/>
      <rect id="Rectángulo_400907" data-name="Rectángulo 400907" width="75.49" height="75.489" rx="37.744" transform="translate(293.36 6118.358)" fill="none"/>
      <g id="Grupo_1098742" data-name="Grupo 1098742" transform="translate(289 6114)">
        <g id="Rectángulo_400898-2" data-name="Rectángulo 400898" transform="translate(0)" fill="none" stroke="#fff" stroke-width="1" opacity="0.859">
          <rect width="84.208" height="84.207" rx="42.104" stroke="none"/>
          <rect x="0.5" y="0.5" width="83.208" height="83.207" rx="41.604" fill="none"/>
        </g>
        <g id="Rectángulo_400907-2" data-name="Rectángulo 400907" transform="translate(0)" fill="none" stroke="#0f1f33" stroke-linecap="round" stroke-width="1">
          <rect width="84.208" height="84.207" rx="42.104" stroke="none"/>
          <rect x="0.5" y="0.5" width="83.208" height="83.207" rx="41.604" fill="none"/>
        </g>
      </g>
      <g id="walking-dog_2973014" transform="translate(304.361 6129.49)">
        <g id="Grupo_1205111" data-name="Grupo 1205111" transform="translate(1.834 1.834)">
          <g id="Grupo_1205090" data-name="Grupo 1205090" transform="translate(6.67)">
            <path id="Trazado_1280432" data-name="Trazado 1280432" d="M18.338,10.338H16.67A1.672,1.672,0,0,1,15,8.67a3.342,3.342,0,0,0-1.9.6L10,6.169A4.17,4.17,0,0,1,14.169,2h5.97a8.2,8.2,0,0,1,8.2,8.2,16.353,16.353,0,0,1-.592,4.352,2.49,2.49,0,0,0-1.909-.884h-.834V12.005a1.672,1.672,0,0,0-1.668-1.668h-5Z" transform="translate(-10 -2)" fill="#656d78"/>
          </g>
          <g id="Grupo_1205091" data-name="Grupo 1205091" transform="translate(5.003 4.169)">
            <path id="Trazado_1280433" data-name="Trazado 1280433" d="M10.5,14.5a2.49,2.49,0,0,0-1.909.884A16.353,16.353,0,0,1,8,11.035V9.7A3.013,3.013,0,0,1,9.668,7l3.1,3.1a3.319,3.319,0,0,0-1.434,2.735V14.5Z" transform="translate(-8 -7)" fill="#656d78"/>
          </g>
          <g id="Grupo_1205092" data-name="Grupo 1205092" transform="translate(0 23.796)">
            <path id="Trazado_1280434" data-name="Trazado 1280434" d="M8.67,46.765H2V45.214a13.606,13.606,0,0,1,8.721-12.69l2.118,4.236,4.169-3.335,4.169,3.335,2.5-5h1.668a11.709,11.709,0,0,0,5.2-1.217l2.943,6.62A21.277,21.277,0,0,1,25.846,40.8l-.5.125V56.77H8.67Z" transform="translate(-2 -30.54)" fill="#4fc1e9"/>
          </g>
          <g id="Grupo_1205093" data-name="Grupo 1205093" transform="translate(15.008 25.013)">
            <path id="Trazado_1280435" data-name="Trazado 1280435" d="M26.67,32l-2.5,5L20,33.668,23.335,32Z" transform="translate(-20 -32)" fill="#3bafda"/>
          </g>
          <g id="Grupo_1205094" data-name="Grupo 1205094" transform="translate(8.721 25.013)">
            <path id="Trazado_1280436" data-name="Trazado 1280436" d="M18.747,33.668,14.578,37,12.46,32.767A13.83,13.83,0,0,1,15.412,32Z" transform="translate(-12.46 -32)" fill="#3bafda"/>
          </g>
          <g id="Grupo_1205095" data-name="Grupo 1205095" transform="translate(21.678 11.673)">
            <path id="Trazado_1280437" data-name="Trazado 1280437" d="M30.743,16.884A2.5,2.5,0,0,1,28.834,21H28V16h.834a2.49,2.49,0,0,1,1.909.884Z" transform="translate(-28 -16)" fill="#f0d0b4"/>
          </g>
          <g id="Grupo_1205096" data-name="Grupo 1205096" transform="translate(11.673 21.611)">
            <path id="Trazado_1280438" data-name="Trazado 1280438" d="M21.82,27.92l.85,3.4-3.335,1.668L16,31.322l.85-3.4a5.229,5.229,0,0,0,.817.067H21A5.229,5.229,0,0,0,21.82,27.92Z" transform="translate(-16 -27.92)" fill="#f0d0b4"/>
          </g>
          <g id="Grupo_1205097" data-name="Grupo 1205097" transform="translate(8.338 6.67)">
            <path id="Trazado_1280439" data-name="Trazado 1280439" d="M15.335,10A1.672,1.672,0,0,0,17,11.668h6.67a1.672,1.672,0,0,1,1.668,1.668v6.67a5,5,0,0,1-4.185,4.936,5.229,5.229,0,0,1-.817.067H17a5.229,5.229,0,0,1-.817-.067A5,5,0,0,1,12,20.005v-6.67A3.347,3.347,0,0,1,15.335,10Z" transform="translate(-12 -10)" fill="#f0d0b4"/>
          </g>
          <g id="Grupo_1205098" data-name="Grupo 1205098" transform="translate(5.003 11.673)">
            <path id="Trazado_1280440" data-name="Trazado 1280440" d="M11.335,16v5H10.5a2.5,2.5,0,1,1,0-5Z" transform="translate(-8 -16)" fill="#f0d0b4"/>
          </g>
          <g id="Grupo_1205099" data-name="Grupo 1205099" transform="translate(0 40.021)">
            <path id="Trazado_1280441" data-name="Trazado 1280441" d="M2,50H8.67V60.005H2Z" transform="translate(-2 -50)" fill="#f0d0b4"/>
          </g>
          <g id="Grupo_1205100" data-name="Grupo 1205100" transform="translate(28.548 21.511)">
            <path id="Trazado_1280442" data-name="Trazado 1280442" d="M41.042,32.136v3A19.662,19.662,0,0,1,39.183,36.7l-2.943-6.62A11.786,11.786,0,0,0,39.375,27.8v.308A5.7,5.7,0,0,0,41.042,32.136Z" transform="translate(-36.24 -27.8)" fill="#f0d0b4"/>
          </g>
          <g id="Grupo_1205101" data-name="Grupo 1205101" transform="translate(33.351 6.67)">
            <path id="Trazado_1280443" data-name="Trazado 1280443" d="M48.67,12.5V16.67A21.244,21.244,0,0,1,46.6,25.842H45.335a5.426,5.426,0,0,0-3.06-3.644,11.545,11.545,0,0,0,1.392-5.528l-.817-.409a1.546,1.546,0,0,1,.692-2.927h.125V12.5a2.5,2.5,0,0,1,5,0Z" transform="translate(-42 -10)" fill="#f0d0b4"/>
          </g>
          <g id="Grupo_1205102" data-name="Grupo 1205102" transform="translate(30.016 37.519)">
            <path id="Trazado_1280444" data-name="Trazado 1280444" d="M58.01,56.5v3H38v-3A15.223,15.223,0,0,1,41.335,47a5.007,5.007,0,0,0,5,5h3.335a5.01,5.01,0,0,0,5-5,15.223,15.223,0,0,1,3.335,9.5Z" transform="translate(-38 -47)" fill="#cf9e76"/>
          </g>
          <g id="Grupo_1205103" data-name="Grupo 1205103" transform="translate(31.683 18.343)">
            <path id="Trazado_1280445" data-name="Trazado 1280445" d="M41.943,24.525A5.426,5.426,0,0,1,45,28.169,3.334,3.334,0,0,0,41.668,31.5,5.7,5.7,0,0,1,40,27.477V24l.8.158a5.225,5.225,0,0,1,1.142.367Z" transform="translate(-40 -24)" fill="#cf9e76"/>
          </g>
          <g id="Grupo_1205104" data-name="Grupo 1205104" transform="translate(43.356 18.343)">
            <path id="Trazado_1280446" data-name="Trazado 1280446" d="M59,24v3.477A5.7,5.7,0,0,1,57.335,31.5,3.334,3.334,0,0,0,54,28.169a5.439,5.439,0,0,1,4.2-4.01Z" transform="translate(-54 -24)" fill="#cf9e76"/>
          </g>
          <g id="Grupo_1205105" data-name="Grupo 1205105" transform="translate(33.351 22.512)">
            <path id="Trazado_1280447" data-name="Trazado 1280447" d="M47,37.338a4.4,4.4,0,0,0-3.335,4.269l.1.875h-.008A10.638,10.638,0,0,1,42,36.662V32.335A3.334,3.334,0,0,1,45.335,29h6.67a3.334,3.334,0,0,1,3.335,3.335v4.327a10.638,10.638,0,0,1-1.759,5.82h-.008a3.809,3.809,0,0,0,.1-.875,4.4,4.4,0,0,0-3.335-4.269V36.5a.836.836,0,0,0-.834-.834H47.836A.836.836,0,0,0,47,36.5Z" transform="translate(-42 -29)" fill="#ecc19c"/>
          </g>
          <g id="Grupo_1205106" data-name="Grupo 1205106" transform="translate(35.018 30.849)">
            <path id="Trazado_1280448" data-name="Trazado 1280448" d="M44.1,44.144l-.1-.875A4.4,4.4,0,0,1,47.335,39a1.668,1.668,0,0,0,3.335,0,4.4,4.4,0,0,1,3.335,4.269,3.81,3.81,0,0,1-.1.875,4.054,4.054,0,0,1-3.969,3.193H48.069a4.023,4.023,0,0,1-2.876-1.192C45.042,46,44.909,45.845,44.1,44.144Z" transform="translate(-44 -39)" fill="#dfb28b"/>
          </g>
          <g id="Grupo_1205107" data-name="Grupo 1205107" transform="translate(38.353 29.182)">
            <path id="Trazado_1280449" data-name="Trazado 1280449" d="M51.335,37.834v.834a1.668,1.668,0,0,1-3.335,0v-.834A.836.836,0,0,1,48.834,37H50.5A.836.836,0,0,1,51.335,37.834Z" transform="translate(-48 -37)" fill="#d3a06c"/>
          </g>
          <g id="Grupo_1205108" data-name="Grupo 1205108" transform="translate(33.351 33.751)">
            <path id="Trazado_1280450" data-name="Trazado 1280450" d="M47,51.251a5.007,5.007,0,0,1-5-5l.625-3.769h.008a10.463,10.463,0,0,0,1.126,2.243h.008c.809,1.7.942,1.859,1.092,2a4.023,4.023,0,0,0,2.876,1.192h.934a1.668,1.668,0,0,0,0,3.335Z" transform="translate(-42 -42.48)" fill="#fcd770"/>
          </g>
          <g id="Grupo_1205109" data-name="Grupo 1205109" transform="translate(40.021 33.751)">
            <path id="Trazado_1280451" data-name="Trazado 1280451" d="M56.045,42.48l.625,3.769a5.01,5.01,0,0,1-5,5H50a1.668,1.668,0,1,0,0-3.335h.934A4.054,4.054,0,0,0,54.9,44.723h.008a10.463,10.463,0,0,0,1.126-2.243Z" transform="translate(-50 -42.48)" fill="#fcd770"/>
          </g>
          <g id="Grupo_1205110" data-name="Grupo 1205110" transform="translate(38.353 39.187)">
            <circle id="Elipse_11532" data-name="Elipse 11532" cx="2" cy="2" r="2" transform="translate(-0.34 -0.174)" fill="#ffc729"/>
          </g>
        </g>
        <g id="Grupo_1205112" data-name="Grupo 1205112" transform="translate(1 1)">
          <circle id="Elipse_11533" data-name="Elipse 11533" cx="0.5" cy="0.5" r="0.5" transform="translate(11.847 11.847)"/>
          <ellipse id="Elipse_11534" data-name="Elipse 11534" cx="1" cy="0.5" rx="1" ry="0.5" transform="translate(17.847 11.847)"/>
          <path id="Trazado_1280452" data-name="Trazado 1280452" d="M23.67,21H22a1.669,1.669,0,0,1-1.668,1.668H17v1.668h3.335A3.338,3.338,0,0,0,23.67,21Z" transform="translate(-3.66 -4.325)"/>
          <ellipse id="Elipse_11535" data-name="Elipse 11535" cx="1" cy="0.5" rx="1" ry="0.5" transform="translate(36.847 27.847)"/>
          <circle id="Elipse_11536" data-name="Elipse 11536" cx="0.5" cy="0.5" r="0.5" transform="translate(43.847 27.847)"/>
          <path id="Trazado_1280453" data-name="Trazado 1280453" d="M49.3,39l-.549-3.357a11.28,11.28,0,0,0,.607-3.638V28a6.571,6.571,0,0,0,1.668-4.345v-4.5l-1.8.359a6.29,6.29,0,0,0-4.642,3.993H41.063a21.986,21.986,0,0,0,1.625-8.338V11.005a3.335,3.335,0,1,0-6.67,0v.109a2.38,2.38,0,0,0-.352,4.4l.339.169a10.868,10.868,0,0,1-.98,3.987c-.181-.054-.36-.114-.548-.152l-1.8-.359v3.82a10.747,10.747,0,0,1-7.5,3.033H20.828l-.491-1.965a5.845,5.845,0,0,0,3.942-4.7h.067a3.324,3.324,0,0,0,2.806-5.123,17.059,17.059,0,0,0,.529-4.183A9.047,9.047,0,0,0,18.644,1H12.673A5.008,5.008,0,0,0,7.7,5.514,3.827,3.827,0,0,0,6,8.7v1.336a17.054,17.054,0,0,0,.529,4.183,3.324,3.324,0,0,0,2.806,5.123H9.4a5.847,5.847,0,0,0,3.942,4.7l-.52,2.08A14.5,14.5,0,0,0,1,40.306V52.693H26.013V36.664a22.233,22.233,0,0,0,8.355-4.18,11.265,11.265,0,0,0,.589,3.161l-.562,3.376a16.1,16.1,0,0,0-3.379,9.839v3.833H52.693V48.861A16.109,16.109,0,0,0,49.3,39Zm-14.95-8.7c-.23.211-.461.423-.7.622l-2.2-4.943a12.406,12.406,0,0,0,1.387-.94A6.571,6.571,0,0,0,34.351,28v2.306Zm4.169-5.127h6.67a2.5,2.5,0,0,1,2.5,2.5v4.328a9.653,9.653,0,0,1-.441,2.881,5.2,5.2,0,0,0-2.894-2.8v-.241a1.669,1.669,0,0,0-1.668-1.668H41.021a1.669,1.669,0,0,0-1.668,1.668v.241a5.2,5.2,0,0,0-2.894,2.8,9.653,9.653,0,0,1-.441-2.881V27.68a2.5,2.5,0,0,1,2.5-2.5Zm4.271,15.008H40.918a3.236,3.236,0,0,1-3.233-3.233,3.557,3.557,0,0,1,1.939-3.163,2.5,2.5,0,0,0,1.4,1.239v1.822H39.353v1.668h5V36.852H42.688V35.031a2.5,2.5,0,0,0,1.4-1.239,3.555,3.555,0,0,1,1.939,3.162,3.236,3.236,0,0,1-3.233,3.233Zm-1.77-7.5v-.834h1.668v.834a.834.834,0,1,1-1.668,0Zm-1.442,8.98a2.372,2.372,0,0,0-.093,1.788,4.167,4.167,0,0,1-3.466-4.033l.188-1.131a4.913,4.913,0,0,0,3.371,3.376Zm1.442,1.025a.834.834,0,1,1,.834.834A.834.834,0,0,1,41.021,42.688Zm3.11-1.025A4.913,4.913,0,0,0,47.5,38.288l.188,1.131a4.169,4.169,0,0,1-3.466,4.033,2.372,2.372,0,0,0-.093-1.788ZM49.358,21.2v2.456a4.878,4.878,0,0,1-.489,2.107,4.164,4.164,0,0,0-2.549-2.075A4.615,4.615,0,0,1,49.358,21.2ZM36.412,14.022a.712.712,0,0,1,.318-1.349h.955V11.005a1.668,1.668,0,1,1,3.335,0v4.169a20.327,20.327,0,0,1-1.777,8.338h-.123a6.278,6.278,0,0,0-2.561-3.147,12.561,12.561,0,0,0,1.126-5.191v-.515ZM34.351,21.2a4.616,4.616,0,0,1,3.038,2.489,4.157,4.157,0,0,0-2.549,2.075,4.885,4.885,0,0,1-.489-2.108ZM15.3,28.677l-2.345,1.877L11.733,28.1a12.558,12.558,0,0,1,1.652-.387Zm5.072-1h1.788l-1.437,2.873-2.345-1.877Zm3.971-10.005V14.34a1.668,1.668,0,0,1,0,3.335ZM12.673,2.668h5.971a7.377,7.377,0,0,1,7.369,7.369,15.42,15.42,0,0,1-.288,2.943,3.308,3.308,0,0,0-1.379-.307v-.834a2.5,2.5,0,0,0-2.5-2.5H21.01V6H19.343V9.338H17.675V6H16.008V9.338h-.834A.834.834,0,0,1,14.34,8.5V6H12.673V7.754a4.083,4.083,0,0,0-.92.318l-2.4-2.4a3.339,3.339,0,0,1,3.318-3.006ZM7.67,8.7A2.167,2.167,0,0,1,8.4,7.076l2,2a4.137,4.137,0,0,0-1.062,2.761v.834a3.308,3.308,0,0,0-1.379.307,15.427,15.427,0,0,1-.288-2.943Zm0,7.307A1.669,1.669,0,0,1,9.338,14.34v3.335A1.669,1.669,0,0,1,7.67,16.008Zm3.335,2.5v-6.67a2.506,2.506,0,0,1,1.843-2.414,2.505,2.505,0,0,0,2.325,1.58h6.67a.834.834,0,0,1,.834.834v6.67a4.174,4.174,0,0,1-4.169,4.169H15.174A4.174,4.174,0,0,1,11.005,18.509Zm4.169,5.836h3.335c.061,0,.12-.008.181-.009l.515,2.064-2.364,1.182L14.478,26.4l.515-2.064C15.054,24.338,15.113,24.345,15.174,24.345ZM2.668,42.688h5v8.338h-5ZM24.345,32.683V51.026H9.338V36.018H7.67v5h-5v-.715a12.834,12.834,0,0,1,7.5-11.612l2.225,4.451,4.453-3.563,4.453,3.562,2.732-5.464h1.152a12.477,12.477,0,0,0,4.782-.945l2.325,5.229a20.558,20.558,0,0,1-6.272,2.967V32.683Zm26.68,18.343H32.683V48.861a14.436,14.436,0,0,1,2.067-7.4,5.842,5.842,0,0,0,5.437,3.731h3.335a5.842,5.842,0,0,0,5.437-3.731,14.436,14.436,0,0,1,2.067,7.4Z" transform="translate(-1 -1)"/>
        </g>
      </g>
    </g>
  </g>
</svg>
