<svg xmlns="http://www.w3.org/2000/svg" width="75.49" height="75.489" viewBox="0 0 75.49 75.489">
  <g id="Grupo_1204938" data-name="Grupo 1204938" transform="translate(-877.086 -283.136)">
    <g id="Grupo_1188789" data-name="Grupo 1188789" transform="translate(583.726 -5835.222)">
      <rect id="Rectángulo_400907" data-name="Rectángulo 400907" width="75.49" height="75.489" rx="37.744" transform="translate(293.36 6118.358)" fill="none"/>
      <g id="Grupo_1188790" data-name="Grupo 1188790" transform="translate(308.996 6131.602)">
        <path id="Trazado_876111" data-name="Trazado 876111" d="M69.077,252.374a17.421,17.421,0,0,1-1.886,4.784l-.655,1.135a.531.531,0,0,1-.414.269,11.2,11.2,0,0,0-.742,2.012l-3.93,14.941a.789.789,0,0,0,.763.99H97.879a.789.789,0,0,0,.763-.99l-3.93-14.941a11.2,11.2,0,0,0-.742-2.012.531.531,0,0,1-.414-.269l-.655-1.135a17.418,17.418,0,0,1-1.886-4.784H69.077Z" transform="translate(-57.937 -228.22)" fill="#c17d4f"/>
        <path id="Trazado_876112" data-name="Trazado 876112" d="M139.093,333.693a2.327,2.327,0,0,1-1.793-1.133l-.021-.035h0q-.075-.128-.151-.256h0a2.267,2.267,0,0,1-1.488,1.258,10.7,10.7,0,0,1-5.538,0,2.268,2.268,0,0,1-1.488-1.258h0c-.051.085-.173.291-.173.291a2.327,2.327,0,0,1-1.793,1.133,1.334,1.334,0,0,1-.554-.067l-.984,1.7a3.064,3.064,0,0,1-4.574.851q-.217-.174-.429-.357a.162.162,0,0,0-.263.163l.4,1.5a6.72,6.72,0,0,0,4.333,4.647,12.936,12.936,0,0,1-3.286-1.662.136.136,0,0,0-.208.147l.351,1.308a5.982,5.982,0,0,0,4.611,4.323l.03.006a5.565,5.565,0,0,0,5-1.534l.889-.889a3.1,3.1,0,0,0,.906-2.188,3.1,3.1,0,0,0,.906,2.188l.889.889a5.565,5.565,0,0,0,5,1.534l.03-.006a5.983,5.983,0,0,0,4.611-4.323l.351-1.308a.136.136,0,0,0-.208-.147,12.936,12.936,0,0,1-3.286,1.662,6.72,6.72,0,0,0,4.333-4.647l.4-1.5a.162.162,0,0,0-.263-.163q-.212.184-.429.357a3.064,3.064,0,0,1-4.574-.851l-.984-1.7a1.334,1.334,0,0,1-.554.067" transform="translate(-110.761 -300.469)" fill="#f9f6f9"/>
        <path id="Trazado_876113" data-name="Trazado 876113" d="M181.506,152.315a18.95,18.95,0,0,0-2.992-3.891l-.9-.9a1.762,1.762,0,0,1-.516-1.246v0a1.763,1.763,0,0,1-.516,1.246l-.9.9a18.947,18.947,0,0,0-2.91,3.75l-.1.175h0a2.327,2.327,0,0,1-1.793,1.133,1.336,1.336,0,0,1-1.065-.386,3.451,3.451,0,0,1-1.011-2.423l-.053-10.075a7.375,7.375,0,0,1,2.16-5.253,8.059,8.059,0,0,1,5.7-2.36h.985a8.059,8.059,0,0,1,5.7,2.36,7.375,7.375,0,0,1,2.16,5.253l-.053,10.075a3.452,3.452,0,0,1-1.011,2.423,1.335,1.335,0,0,1-1.065.386,2.327,2.327,0,0,1-1.793-1.133Z" transform="translate(-154.989 -120.258)" fill="#f9f6f9"/>
        <path id="Trazado_876114" data-name="Trazado 876114" d="M219.923,179.379H219.7a3.717,3.717,0,0,0-3.717,3.717v.121A1.018,1.018,0,0,0,217,184.235a.176.176,0,0,1,.152.088l.526.91a1.487,1.487,0,0,0,1.288.744h1.693a1.487,1.487,0,0,0,1.288-.744l.526-.91a.176.176,0,0,1,.152-.088,1.018,1.018,0,0,0,1.018-1.018V183.1A3.717,3.717,0,0,0,219.923,179.379Z" transform="translate(-197.701 -162.211)" fill="#665e66"/>
        <path id="Trazado_876115" data-name="Trazado 876115" d="M42.418,67.255a21.642,21.642,0,0,1-.737-5.6V51.378a3.543,3.543,0,0,1,.4-1.642A3.225,3.225,0,0,0,39.1,52.124a5.846,5.846,0,0,1-1.513,2.621l-1.974,1.974a10.619,10.619,0,0,0-3.11,7.509,4.52,4.52,0,0,0,1.324,3.2l4.5,4.5a1.892,1.892,0,0,1,.49.848l.576,2.15a.542.542,0,0,0,.993.131l.655-1.135a17.419,17.419,0,0,0,1.886-4.784Z" transform="translate(-31.781 -44.976)" fill="#985e33"/>
        <path id="Trazado_876116" data-name="Trazado 876116" d="M138.245,22.3a5.884,5.884,0,0,0-1.723-4.161L134.386,16a19.512,19.512,0,0,0-4.181,1.8,3.545,3.545,0,0,0-1.773,3.071V31.146a21.638,21.638,0,0,0,.737,5.6l1.423,5.311a3.382,3.382,0,0,0,1.747,2.147l-.049-9.395a7.375,7.375,0,0,1,2.16-5.253,8.056,8.056,0,0,1,2.512-1.7l1.081-4.034A5.885,5.885,0,0,0,138.245,22.3Z" transform="translate(-118.533 -14.469)" fill="#c17d4f"/>
        <path id="Trazado_876117" data-name="Trazado 876117" d="M217.2,274.014l-.9-.9a1.762,1.762,0,0,1-.516-1.225c0-.006,0-.013,0-.021h0l-.012.2a1.762,1.762,0,0,1-.5,1.045l-.9.9a18.95,18.95,0,0,0-2.841,3.635,2.267,2.267,0,0,0,1.488,1.258,10.7,10.7,0,0,0,2.769.365h0a10.7,10.7,0,0,0,2.769-.365,2.268,2.268,0,0,0,1.488-1.258A18.949,18.949,0,0,0,217.2,274.014Z" transform="translate(-193.67 -245.848)" fill="#e2dfe2"/>
        <path id="Trazado_876118" data-name="Trazado 876118" d="M371.114,67.255a21.643,21.643,0,0,0,.737-5.6V51.378a3.543,3.543,0,0,0-.4-1.642,3.225,3.225,0,0,1,2.988,2.388,5.846,5.846,0,0,0,1.513,2.621l1.974,1.974a10.619,10.619,0,0,1,3.11,7.509,4.52,4.52,0,0,1-1.324,3.2l-4.5,4.5a1.892,1.892,0,0,0-.49.848l-.576,2.15a.542.542,0,0,1-.993.131l-.655-1.135a17.419,17.419,0,0,1-1.886-4.784Z" transform="translate(-337.533 -44.976)" fill="#985e33"/>
        <path id="Trazado_876119" data-name="Trazado 876119" d="M281.045,22.3a5.884,5.884,0,0,1,1.723-4.161L284.9,16a19.512,19.512,0,0,1,4.181,1.8,3.545,3.545,0,0,1,1.773,3.071V31.146a21.638,21.638,0,0,1-.737,5.6L288.7,42.058A3.382,3.382,0,0,1,286.95,44.2L287,34.81a7.375,7.375,0,0,0-2.16-5.253,8.057,8.057,0,0,0-2.512-1.7l-1.081-4.034A5.883,5.883,0,0,1,281.045,22.3Z" transform="translate(-256.539 -14.469)" fill="#c17d4f"/>
        <path id="Trazado_876120" data-name="Trazado 876120" d="M334.34,20.665a19.517,19.517,0,0,0-3.25-1.5,3.546,3.546,0,0,1,1.194,2.654V32.1a21.647,21.647,0,0,1-.3,3.573,7.372,7.372,0,0,1,.267,2L332.2,47.07a3.383,3.383,0,0,0,1.747-2.147l1.423-5.311a21.642,21.642,0,0,0,.737-5.6V23.736A3.546,3.546,0,0,0,334.34,20.665Z" transform="translate(-301.794 -17.333)" fill="#b16e3d"/>
        <path id="Trazado_876121" data-name="Trazado 876121" d="M203.15,8.314a19.511,19.511,0,0,0-5.575-.814h-1.361a19.51,19.51,0,0,0-5.575.814l2.135,2.135a5.884,5.884,0,0,1,1.523,5.684l-1.081,4.034a8.058,8.058,0,0,1,3.186-.657h.492v0h.492a8.056,8.056,0,0,1,3.186.657l-1.081-4.034a5.884,5.884,0,0,1,1.523-5.684Z" transform="translate(-174.785 -6.782)" fill="#e2dfe2"/>
        <path id="Trazado_876122" data-name="Trazado 876122" d="M370.61,247.136l.149-.554Z" transform="translate(-337.532 -222.982)" fill="#8b818e"/>
        <g id="Grupo_1188727" data-name="Grupo 1188727" transform="translate(3.486 24.154)">
          <path id="Trazado_876123" data-name="Trazado 876123" d="M128.256,256.044l0,.68a3.452,3.452,0,0,0,1.008,2.42,1.328,1.328,0,0,0,1.055.389,2.327,2.327,0,0,0,1.764-1.067l0-.508a3.383,3.383,0,0,1-1.747-2.147l-.92-3.435a17.418,17.418,0,0,1-1.267,3.612Z" transform="translate(-121.764 -252.376)" fill="#b16e3d"/>
          <path id="Trazado_876124" data-name="Trazado 876124" d="M98.641,275.516l-3.93-14.941a11.2,11.2,0,0,0-.742-2.012.531.531,0,0,1-.414-.269l-.655-1.135a17.42,17.42,0,0,1-1.886-4.784l-.92,3.435a3.4,3.4,0,0,1-.152.444,11.2,11.2,0,0,1,.941,2.407l1.818,6.911a7.191,7.191,0,0,1-6.954,9.02H61.692l-.243.924a.789.789,0,0,0,.763.99H97.878A.789.789,0,0,0,98.641,275.516Z" transform="translate(-61.422 -252.375)" fill="#b16e3d"/>
          <path id="Trazado_876125" data-name="Trazado 876125" d="M128.256,256.044l0,.68a3.452,3.452,0,0,0,1.008,2.42,1.328,1.328,0,0,0,1.055.389,2.327,2.327,0,0,0,1.764-1.067l0-.508a3.383,3.383,0,0,1-1.747-2.147l-.92-3.435a17.418,17.418,0,0,1-1.267,3.612Z" transform="translate(-121.764 -252.376)" fill="#b16e3d"/>
        </g>
        <path id="Trazado_876126" data-name="Trazado 876126" d="M384.274,370.793q.014-.051.028-.1l.4-1.5a.162.162,0,0,0-.263-.163q-.212.184-.429.357l-.091.07Z" transform="translate(-349.57 -333.67)" fill="#e2dfe2"/>
        <path id="Trazado_876127" data-name="Trazado 876127" d="M63.921,9.261a5.133,5.133,0,0,1-1.327-2.3,3.922,3.922,0,0,0-3.251-2.883A4.257,4.257,0,0,0,57.9,2.71,20.23,20.23,0,0,0,47.787,0H46.426A20.23,20.23,0,0,0,36.311,2.71a4.258,4.258,0,0,0-1.441,1.369,3.922,3.922,0,0,0-3.251,2.883,5.135,5.135,0,0,1-1.327,2.3l-1.974,1.974A11.262,11.262,0,0,0,25,19.251a5.2,5.2,0,0,0,1.534,3.7l4.5,4.5a1.175,1.175,0,0,1,.3.526l.576,2.15a1.259,1.259,0,0,0,.329.569,11.953,11.953,0,0,0-.493,1.474l-3.93,14.941A1.507,1.507,0,0,0,29.274,49H64.94a1.506,1.506,0,0,0,1.457-1.89l-3.93-14.941a11.94,11.94,0,0,0-.493-1.474,1.259,1.259,0,0,0,.329-.569l.576-2.15a1.174,1.174,0,0,1,.3-.526l4.5-4.5a5.2,5.2,0,0,0,1.534-3.7,11.262,11.262,0,0,0-3.32-8.016ZM58.6,6.4V16.678a20.933,20.933,0,0,1-.713,5.415L56.462,27.4a2.665,2.665,0,0,1-.328.744l.009-1.731a.718.718,0,1,0-1.436-.007c-.028,5.319-.01,1.916-.021,4a2.718,2.718,0,0,1-.8,1.919.617.617,0,0,1-.493.178,1.612,1.612,0,0,1-1.239-.783,19.691,19.691,0,0,0-3.124-4.068l-.9-.9a1.037,1.037,0,0,1-.306-.738c0-.177,0,.6,0-1.537h.129a2.211,2.211,0,0,0,1.91-1.1l.387-.671a1.739,1.739,0,0,0,1.4-1.7v-.121A4.44,4.44,0,0,0,47.22,16.45h-.226a4.44,4.44,0,0,0-4.435,4.435v.121a1.739,1.739,0,0,0,1.4,1.7l.387.671a2.211,2.211,0,0,0,1.91,1.1h.129V26.02a1.038,1.038,0,0,1-.306.739l-.9.9a19.692,19.692,0,0,0-3.123,4.068,1.613,1.613,0,0,1-1.24.783.616.616,0,0,1-.493-.178,2.717,2.717,0,0,1-.8-1.919c-.007-1.266-.044-8.338-.053-10.075a7.009,7.009,0,0,1,7.141-6.892H47.6a7.008,7.008,0,0,1,7.14,6.892l-.014,2.637a.718.718,0,0,0,1.436.007l.014-2.637a8.144,8.144,0,0,0-2.37-5.765,8.783,8.783,0,0,0-2.416-1.715l-.992-3.7a5.153,5.153,0,0,1,1.337-4.99l1.829-1.829a18.812,18.812,0,0,1,3.621,1.608A2.835,2.835,0,0,1,58.6,6.4ZM45.78,19.6a.718.718,0,0,0-.718.718v.986h-.768a.3.3,0,0,1-.3-.3v-.121a3,3,0,0,1,3-3h.226a3,3,0,0,1,3,3v.121a.3.3,0,0,1-.3.3h-.768V20.32a.718.718,0,0,0-1.436,0v1.01a1.414,1.414,0,0,0,.911,1.32l-.008.013a.772.772,0,0,1-.666.385H46.26a.772.772,0,0,1-.666-.385l-.008-.013a1.414,1.414,0,0,0,.911-1.32V20.32a.718.718,0,0,0-.718-.718Zm1.327,8.163c.089.091-.323-.323.909.909a18.247,18.247,0,0,1,2.511,3.137,1.542,1.542,0,0,1-.836.554,10.025,10.025,0,0,1-5.167,0,1.541,1.541,0,0,1-.836-.554A18.253,18.253,0,0,1,46.2,28.674C47.412,27.46,47.03,27.843,47.107,27.765Zm.681-26.329a18.783,18.783,0,0,1,4.184.472L50.72,3.159a6.587,6.587,0,0,0-1.709,6.377l.733,2.736A8.833,8.833,0,0,0,47.6,12.01h-.985a8.833,8.833,0,0,0-2.145.263L45.2,9.536a6.585,6.585,0,0,0-1.709-6.377L42.242,1.907a18.784,18.784,0,0,1,4.184-.472Zm-15.742,25-4.5-4.5a3.777,3.777,0,0,1-1.114-2.689,9.836,9.836,0,0,1,2.9-7l1.974-1.974a6.573,6.573,0,0,0,1.7-2.942,2.5,2.5,0,0,1,1.22-1.554,4.234,4.234,0,0,0-.046.623v4.9a.718.718,0,0,0,1.436,0V6.4a2.836,2.836,0,0,1,1.414-2.449A18.817,18.817,0,0,1,40.65,2.345l1.829,1.829a5.154,5.154,0,0,1,1.337,4.991l-.992,3.7a8.786,8.786,0,0,0-2.416,1.715,8.145,8.145,0,0,0-2.37,5.765l.041,7.8a2.661,2.661,0,0,1-.328-.743l-.917-3.423-.005-.02-.5-1.867a20.93,20.93,0,0,1-.713-5.415V14.655a.718.718,0,1,0-1.436,0v2.023a22.367,22.367,0,0,0,.762,5.787l.456,1.7A16.689,16.689,0,0,1,33.63,28.58l-.443.768-.466-1.74A2.612,2.612,0,0,0,32.045,26.437Zm32.964,21.04a.071.071,0,0,1-.069.089H29.274a.071.071,0,0,1-.069-.089l3.93-14.941a10.516,10.516,0,0,1,.569-1.613,1.258,1.258,0,0,0,.515-.491l.655-1.135a18.127,18.127,0,0,0,1.217-2.546l.274,1.024a4.107,4.107,0,0,0,1.725,2.376v.269a4.145,4.145,0,0,0,1.221,2.927l.052.05L38.725,34.5a2.347,2.347,0,0,1-3.5.65c-.136-.109-.273-.223-.408-.34a.88.88,0,0,0-1.427.892l.4,1.5a7.556,7.556,0,0,0,1.058,2.309.858.858,0,0,0-.219.823l.351,1.308a6.668,6.668,0,0,0,7.439,4.875.718.718,0,0,0-.24-1.415,5.227,5.227,0,0,1-5.78-3.719,13.353,13.353,0,0,0,2.191.961.718.718,0,0,0,.456-1.361,5.982,5.982,0,0,1-3.868-4.152l-.014-.052a3.779,3.779,0,0,0,4.805-1.562l.736-1.274a2.083,2.083,0,0,0,.245-.007,3.052,3.052,0,0,0,1.909-.911,3,3,0,0,0,1.294.724,11.416,11.416,0,0,0,5.91,0,3,3,0,0,0,1.294-.724,3.053,3.053,0,0,0,1.909.911,2.077,2.077,0,0,0,.245.008l.736,1.274a3.779,3.779,0,0,0,4.806,1.562l-.014.052a5.982,5.982,0,0,1-3.868,4.152.718.718,0,0,0,.456,1.361,13.359,13.359,0,0,0,2.191-.961,5.3,5.3,0,0,1-4.054,3.7,4.838,4.838,0,0,1-4.352-1.337l-.889-.889a2.361,2.361,0,0,1-.7-1.681.718.718,0,0,0-1.436,0,2.361,2.361,0,0,1-.7,1.681l-.889.889a.718.718,0,0,0,1.015,1.015l.889-.889a3.859,3.859,0,0,0,.4-.468,3.866,3.866,0,0,0,.4.468l.889.889a6.283,6.283,0,0,0,4.442,1.848,6.716,6.716,0,0,0,6.4-4.964l.351-1.309a.857.857,0,0,0-.219-.822,7.556,7.556,0,0,0,1.058-2.309l.4-1.5a.88.88,0,0,0-1.427-.892c-.134.116-.271.231-.407.34a2.347,2.347,0,0,1-3.5-.65L54.85,33.4l.052-.05a4.145,4.145,0,0,0,1.221-2.926v-.269a4.107,4.107,0,0,0,1.725-2.376l.274-1.024A18.125,18.125,0,0,0,59.34,29.3L60,30.433a1.257,1.257,0,0,0,.515.491,10.522,10.522,0,0,1,.569,1.613ZM66.666,21.94l-4.5,4.5a2.613,2.613,0,0,0-.675,1.17l-.466,1.74-.443-.768a16.69,16.69,0,0,1-1.767-4.415l.456-1.7a22.367,22.367,0,0,0,.762-5.787V6.4a4.238,4.238,0,0,0-.046-.623,2.5,2.5,0,0,1,1.22,1.554,6.572,6.572,0,0,0,1.7,2.942L64.88,12.25a9.836,9.836,0,0,1,2.9,7,3.778,3.778,0,0,1-1.114,2.689Z" transform="translate(-24.998 0)"/>
        <path id="Trazado_876128" data-name="Trazado 876128" d="M301.169,63.309a2.168,2.168,0,0,0-2.038,1.436.718.718,0,1,0,1.352.482.728.728,0,0,1,1.2-.27l1.4,1.4a3.313,3.313,0,0,1,.977,2.358v.942a.718.718,0,1,0,1.436,0V68.72a4.74,4.74,0,0,0-1.4-3.374l-1.4-1.4A2.149,2.149,0,0,0,301.169,63.309Z" transform="translate(-272.857 -57.25)"/>
        <path id="Trazado_876129" data-name="Trazado 876129" d="M146.651,70.378a.718.718,0,0,0,.718-.718v-.942a3.313,3.313,0,0,1,.977-2.358l1.4-1.4a.728.728,0,0,1,1.2.27.718.718,0,0,0,1.352-.482,2.164,2.164,0,0,0-3.568-.8l-1.4,1.4a4.74,4.74,0,0,0-1.4,3.374v.942A.718.718,0,0,0,146.651,70.378Z" transform="translate(-134.358 -57.249)"/>
      </g>
    </g>
  </g>
</svg>
