<svg xmlns="http://www.w3.org/2000/svg" width="84.208" height="84.207" viewBox="0 0 84.208 84.207">
  <g id="Grupo_1204799" data-name="Grupo 1204799" transform="translate(-872.726 -278.777)">
    <g id="Grupo_1188789" data-name="Grupo 1188789" transform="translate(583.726 -5835.222)">
      <rect id="Rectángulo_400898" data-name="Rectángulo 400898" width="75.49" height="75.489" rx="37.744" transform="translate(293.36 6118.358)" fill="#ffd907"/>
      <rect id="Rectángulo_400907" data-name="Rectángulo 400907" width="75.49" height="75.489" rx="37.744" transform="translate(293.36 6118.358)" fill="none"/>
      <g id="Grupo_1098742" data-name="Grupo 1098742" transform="translate(289 6114)">
        <g id="Rectángulo_400898-2" data-name="Rectángulo 400898" transform="translate(0)" fill="none" stroke="#fff" stroke-width="1" opacity="0.859">
          <rect width="84.208" height="84.207" rx="42.104" stroke="none"/>
          <rect x="0.5" y="0.5" width="83.208" height="83.207" rx="41.604" fill="none"/>
        </g>
        <g id="Rectángulo_400907-2" data-name="Rectángulo 400907" transform="translate(0)" fill="none" stroke="#0f1f33" stroke-linecap="round" stroke-width="1">
          <rect width="84.208" height="84.207" rx="42.104" stroke="none"/>
          <rect x="0.5" y="0.5" width="83.208" height="83.207" rx="41.604" fill="none"/>
        </g>
      </g>
      <g id="_053---Bear-Market" data-name="053---Bear-Market" transform="translate(305.454 6130.43)">
        <g id="Icons" transform="translate(2.564 0.861)">
          <path id="Rectangle-path" d="M1,50H45.46v6.84H1Z" transform="translate(-0.145 -7.25)" fill="#f57c00"/>
          <path id="Rectangle-path-2" data-name="Rectangle-path" d="M1,50H42.9v6.84H1Z" transform="translate(-0.145 -7.25)" fill="#ff9801"/>
          <path id="Shape" d="M50.086,47.71v1.71H32.9A19.118,19.118,0,0,0,36.85,46H48.376A1.71,1.71,0,0,1,50.086,47.71Z" transform="translate(-4.77 -6.67)" fill="#783e22"/>
          <path id="Shape-2" data-name="Shape" d="M47.521,47.71v1.71H32.9A19.118,19.118,0,0,0,36.85,46h8.96A1.71,1.71,0,0,1,47.521,47.71Z" transform="translate(-4.77 -6.67)" fill="sienna"/>
          <path id="Shape-3" data-name="Shape" d="M18.237,49.42H1V47.71A1.71,1.71,0,0,1,2.71,46H14.253A18.81,18.81,0,0,0,18.237,49.42Z" transform="translate(-0.145 -6.67)" fill="sienna"/>
          <path id="Shape-4" data-name="Shape" d="M34.52,33.84s1.71,2.565,1.71,4.275c0,5.985-8.456,10.089-10.6,11.012a1.206,1.206,0,0,1-.975,0l-.8-.359C20.934,47.383,14,43.51,14,38.115c0-1.71,1.71-4.275,1.71-4.275A3.164,3.164,0,0,1,14,31.275c0-1.9.47-3.335,1.411-3.942A1.992,1.992,0,0,1,16.565,27a4.566,4.566,0,0,1,2.48.949,7.31,7.31,0,0,1,.941.761,3,3,0,0,1,1.077-.607,4.275,4.275,0,0,1,1.488-.248,2.428,2.428,0,0,1,1.283.359,2.967,2.967,0,0,1,.641.5.9.9,0,0,0,1.283,0,3.069,3.069,0,0,1,.855-.607,2.386,2.386,0,0,1,1.069-.248,4.429,4.429,0,0,1,.941.094,3.369,3.369,0,0,1,1.625.761,7.5,7.5,0,0,1,2.009-1.377A3.523,3.523,0,0,1,33.665,27c1.71,0,2.565,1.71,2.565,4.275A3.164,3.164,0,0,1,34.52,33.84Z" transform="translate(-2.03 -3.915)" fill="#91562d"/>
          <path id="Shape-5" data-name="Shape" d="M30.55,42.226c0,2.514-1.71,5.13-4.275,5.13S22,44.791,22,42.226a3.942,3.942,0,0,1,.5-1.71,6.207,6.207,0,0,1,2.36-2.428,2.565,2.565,0,0,1,2.839,0,6.507,6.507,0,0,1,2.36,2.428A3.942,3.942,0,0,1,30.55,42.226Z" transform="translate(-3.19 -5.46)" fill="#dfc49c"/>
          <path id="Shape-6" data-name="Shape" d="M27.985,42.278a5.24,5.24,0,0,1-2.993,4.9A5.238,5.238,0,0,1,22,42.278a5.31,5.31,0,0,1,2.565-4,2.693,2.693,0,0,1,.41-.257,2.693,2.693,0,0,1,.41.257A5.31,5.31,0,0,1,27.985,42.278Z" transform="translate(-3.19 -5.513)" fill="#ffe0b2"/>
          <path id="Shape-7" data-name="Shape" d="M10.42,19.7V41.723H7V19.7a3.822,3.822,0,0,0,1.71-3.2A3.822,3.822,0,0,0,10.42,19.7Z" transform="translate(-1.015 -2.392)" fill="#624421"/>
          <path id="Shape-8" data-name="Shape" d="M46.42,19.7V41.723H43V19.7a3.822,3.822,0,0,0,1.71-3.2A3.822,3.822,0,0,0,46.42,19.7Z" transform="translate(-6.235 -2.392)" fill="#624421"/>
          <path id="Shape-9" data-name="Shape" d="M4.412,0A1.71,1.71,0,0,0,2.787,1.163L0,9.405v4.7a3.848,3.848,0,0,0,7.7,0v-4.7L9.405,0Z" transform="translate(0 0)" fill="#f44335"/>
          <path id="Shape-10" data-name="Shape" d="M10.71,0,9,9.405v4.7a3.848,3.848,0,0,0,7.7,0v-4.7L17.55,0Z" transform="translate(-1.305 0)" fill="#f5f5f5"/>
          <path id="Shape-11" data-name="Shape" d="M18.855,0,18,9.405v4.7a3.848,3.848,0,1,0,7.7,0V0Z" transform="translate(-2.61 0)" fill="#f44335"/>
          <path id="Shape-12" data-name="Shape" d="M33.84,0H27V14.108a3.848,3.848,0,0,0,7.7,0v-4.7Z" transform="translate(-3.915 0)" fill="#f5f5f5"/>
          <path id="Shape-13" data-name="Shape" d="M41.84,0H35l.855,9.405v4.7a3.848,3.848,0,0,0,7.7,0v-4.7Z" transform="translate(-5.075 0)" fill="#f44335"/>
          <path id="Shape-14" data-name="Shape" d="M49.618,1.163A1.71,1.71,0,0,0,47.993,0H43l1.71,9.405v4.7a3.848,3.848,0,0,0,7.7,0v-4.7Z" transform="translate(-6.235 0)" fill="#f5f5f5"/>
          <path id="Shape-15" data-name="Shape" d="M50.03,1.163A1.71,1.71,0,0,0,48.405,0H45.84a1.71,1.71,0,0,1,1.625,1.163l2.787,8.242v4.7a3.83,3.83,0,0,1-2.565,3.608,3.753,3.753,0,0,0,1.283.239,3.839,3.839,0,0,0,3.848-3.848v-4.7Z" transform="translate(-6.647 0)" fill="#cfd8dc"/>
        </g>
        <g id="Layer_4" transform="translate(-0.004 0.04)">
          <path id="Shape-16" data-name="Shape" d="M51.445,49.6h-1.71V41.9a2.565,2.565,0,0,0-2.565-2.565H44.605V19.491a4.7,4.7,0,0,0,5.985-4.523V10.24c0-.205.2.428-2.83-8.49A2.565,2.565,0,0,0,45.332.04H7.977A2.565,2.565,0,0,0,5.549,1.716c-2.984,8.841-2.839,8.311-2.839,8.55v4.728A4.7,4.7,0,0,0,8.7,19.517V39.336H6.13A2.565,2.565,0,0,0,3.565,41.9v7.7H1.855a.855.855,0,0,0,0,1.71h49.59a.855.855,0,0,0,0-1.71Zm-8.55-31V39.336h-1.71c0-21.674,0-20.717.051-20.785a5.326,5.326,0,0,0,.8-.855,5.19,5.19,0,0,0,.855.9ZM37.312,39.336a8.037,8.037,0,0,0,1.308-4.275,9.3,9.3,0,0,0-1.411-4.036,3.668,3.668,0,0,0,1.411-2.8c0-5.284-3.42-6.464-6.9-3.651a5.027,5.027,0,0,0-2.505-.624,3.848,3.848,0,0,0-2.565,1.1,3.565,3.565,0,0,0-2.565-1.1,5.027,5.027,0,0,0-2.505.624c-3.42-2.8-6.9-1.71-6.9,3.651a3.668,3.668,0,0,0,1.411,2.8,9.3,9.3,0,0,0-1.411,4.036A8.046,8.046,0,0,0,16,39.336H13.825V19.491a4.677,4.677,0,0,0,5.13-1.83,4.685,4.685,0,0,0,7.7,0,4.685,4.685,0,0,0,7.7,0,4.677,4.677,0,0,0,5.13,1.83V39.336ZM16.39,35.061a9.408,9.408,0,0,1,1.565-3.8.855.855,0,0,0-.325-1.231,2.351,2.351,0,0,1-1.24-1.8c0-1.026.162-3.42,1.71-3.42a4.95,4.95,0,0,1,2.813,1.462.855.855,0,0,0,1.206,0,2.933,2.933,0,0,1,1.967-.607,1.847,1.847,0,0,1,1.317.607,1.8,1.8,0,0,0,2.5,0,1.847,1.847,0,0,1,1.317-.607,2.941,2.941,0,0,1,1.958.607.855.855,0,0,0,1.214,0A4.95,4.95,0,0,1,35.2,24.8c1.548,0,1.71,2.394,1.71,3.42a2.309,2.309,0,0,1-1.24,1.8.855.855,0,0,0-.325,1.24,9.408,9.408,0,0,1,1.565,3.8c0,5.729-9.055,9.781-10.081,10.26a.368.368,0,0,1-.3,0c-1.043-.479-10.14-4.549-10.14-10.26ZM41.1,15.644a2.907,2.907,0,0,1-.6,1.206,2.984,2.984,0,0,1-5.3-1.881V11.121h5.985C41.185,15.276,41.185,15.156,41.1,15.644Zm-15.3-.675a2.993,2.993,0,1,1-5.985,0V11.121H25.8Zm1.71-3.848H33.49v3.848a2.993,2.993,0,1,1-5.985,0Zm7.618-1.71-.693-7.7h5.19l1.394,7.7Zm-1.71,0H27.505v-7.7h5.207Zm-7.618,0H19.9l.693-7.7H25.8Zm-7.618,0H12.286l1.394-7.7h5.19Zm-6.062,1.71H18.1v3.848a2.993,2.993,0,0,1-5.9.675c-.137-.564-.086-.658-.086-4.523ZM48.88,14.968a2.993,2.993,0,0,1-5.9.675c-.137-.564-.085-.658-.085-4.523H48.88ZM46.136,2.3l2.411,7.114h-5.8l-1.394-7.7h3.967a.855.855,0,0,1,.812.581ZM7.165,2.3a.855.855,0,0,1,.855-.581h3.924l-1.394,7.7h-5.8ZM4.42,14.968V11.121h5.985c0,3.933.1,4.275-.316,5.13A2.984,2.984,0,0,1,4.42,14.968Zm5.985,3.625a5.609,5.609,0,0,0,.855-.923,5.258,5.258,0,0,0,.855.923V39.336h-1.71Zm-5.13,31v-5.13H18.1a.855.855,0,0,0,0-1.71H5.275V41.9a.855.855,0,0,1,.855-.855H17.288a26.716,26.716,0,0,0,8.55,5.814,2.129,2.129,0,0,0,1.65,0,26.513,26.513,0,0,0,8.55-5.814H47.17a.855.855,0,0,1,.855.855v.855H35.2a.855.855,0,0,0,0,1.71H48.025V49.6Z" transform="translate(-0.996 -0.04)"/>
          <path id="Shape-17" data-name="Shape" d="M23.855,38.71h1.71a.855.855,0,1,0,0-1.71h-1.71a.855.855,0,1,0,0,1.71Z" transform="translate(-4.186 -5.399)"/>
          <path id="Shape-18" data-name="Shape" d="M35.855,38.71h1.71a.855.855,0,0,0,0-1.71h-1.71a.855.855,0,0,0,0,1.71Z" transform="translate(-5.926 -5.399)"/>
          <path id="Shape-19" data-name="Shape" d="M25.6,40.4A4.6,4.6,0,0,0,25,42.55a6.755,6.755,0,0,0,1.206,3.83v.051a4.634,4.634,0,0,0,7.746,0v-.051a6.755,6.755,0,0,0,1.308-3.83,4.6,4.6,0,0,0-.6-2.155,9.594,9.594,0,0,0-3.617-3.42,2.565,2.565,0,0,1,1.18-1.385.855.855,0,0,0-.77-1.522,4.489,4.489,0,0,0-1.325,1.094A4.489,4.489,0,0,0,28.8,34.094a.855.855,0,0,0-.77,1.522A2.565,2.565,0,0,1,29.215,37c-1.436.958-2.71,1.676-3.617,3.394Zm2.565,5.634a4.215,4.215,0,0,1,1.967-.915,4.215,4.215,0,0,1,1.992.915,2.89,2.89,0,0,1-3.984,0Zm1.967-7.584c1.257.855,2.317,1.419,3.018,2.745a3.027,3.027,0,0,1,.4,1.359,5.241,5.241,0,0,1-.445,2.078,8.55,8.55,0,0,0-1.778-.983.855.855,0,0,1,.513-.239.855.855,0,1,0,0-1.71,2.565,2.565,0,0,0-1.71.727,2.565,2.565,0,0,0-1.71-.727.855.855,0,1,0,0,1.71.855.855,0,0,1,.513.239,8.55,8.55,0,0,0-1.778.983,5.241,5.241,0,0,1-.445-2.078,3.027,3.027,0,0,1,.4-1.359A7.689,7.689,0,0,1,30.13,38.446Z" transform="translate(-4.476 -4.964)"/>
          <path id="Shape-20" data-name="Shape" d="M2.957,42.3a.855.855,0,0,0,1.214,0l1.71-1.71a.859.859,0,0,0-1.214-1.214l-.248.257V34.855a.855.855,0,1,0-1.71,0v4.779l-.248-.257a.859.859,0,1,0-1.214,1.214Z" transform="translate(-0.996 -4.964)"/>
          <path id="Shape-21" data-name="Shape" d="M58.667,39.378l-.248.257V34.855a.855.855,0,1,0-1.71,0v4.779l-.248-.257a.859.859,0,0,0-1.214,1.214c1.864,1.864,1.855,1.958,2.317,1.958s.487-.128,2.317-1.958a.859.859,0,0,0-1.214-1.214Z" transform="translate(-8.826 -4.964)"/>
        </g>
      </g>
    </g>
  </g>
</svg>
