<svg xmlns="http://www.w3.org/2000/svg" width="94.157" height="91.333" viewBox="0 0 94.157 91.333">
  <g id="Grupo_1188752" data-name="Grupo 1188752" transform="translate(-852.024 -5765)">
    <circle id="Elipse_11503" data-name="Elipse 11503" cx="37.5" cy="37.5" r="37.5" transform="translate(862.781 5775)" fill="#ffd907"/>
    <g id="Grupo_1188737" data-name="Grupo 1188737" transform="translate(852.024 5757.319)">
      <g id="Grupo_1188749" data-name="Grupo 1188749" transform="translate(1.379 9.06)">
        <g id="Grupo_1188748" data-name="Grupo 1188748" transform="translate(0 0)">
          <g id="Grupo_1188738" data-name="Grupo 1188738" transform="translate(45.88 4.166)">
            <g id="Grupo_1188737-2" data-name="Grupo 1188737" transform="translate(0 0)">
              <circle id="Elipse_11501" data-name="Elipse 11501" cx="22.76" cy="22.76" r="22.76" fill="#eaf9fa"/>
              <path id="Trazado_876130" data-name="Trazado 876130" d="M334.113,40.369A22.766,22.766,0,0,1,317.966,82.28a22.762,22.762,0,1,0,16.147-41.911Z" transform="translate(-306.751 -39.903)" fill="#d4f2f6"/>
            </g>
          </g>
          <g id="Grupo_1188747" data-name="Grupo 1188747">
            <g id="Grupo_1188746" data-name="Grupo 1188746" transform="translate(0 24.809)">
              <path id="Trazado_876131" data-name="Trazado 876131" d="M85.571,383.04a8.466,8.466,0,0,0-5.889-10.2,8.559,8.559,0,0,0-.359-1.006,8.224,8.224,0,0,1-7.774,5.572h0a8.286,8.286,0,0,1-2.008-.248l-.132-.033-.1.094a8.221,8.221,0,0,1-11.438,0l-.1-.094-.132.033a8.21,8.21,0,0,1-6.111-.855,8.18,8.18,0,0,1-3.672-4.47,8.562,8.562,0,0,0-.359,1.006,8.466,8.466,0,0,0-5.889,10.2,8.467,8.467,0,0,0-.969,10.576,2.737,2.737,0,0,0,2.283,1.2h41.33a2.738,2.738,0,0,0,2.283-1.2,8.468,8.468,0,0,0-.969-10.576Z" transform="translate(-33.393 -331.054)" fill="#f6a96c"/>
              <g id="Grupo_1188739" data-name="Grupo 1188739" transform="translate(5.835 40.78)">
                <path id="Trazado_876132" data-name="Trazado 876132" d="M85.572,383.04a8.466,8.466,0,0,0-5.889-10.2,8.569,8.569,0,0,0-.359-1.006,8.178,8.178,0,0,1-2.066,3.259,8.089,8.089,0,0,1-5.7,13.836H39.23a8.426,8.426,0,0,0,1.415,4.687,2.737,2.737,0,0,0,2.283,1.2h41.33a2.738,2.738,0,0,0,2.283-1.2,8.467,8.467,0,0,0-.969-10.576Z" transform="translate(-39.23 -371.834)" fill="#ea9b58"/>
              </g>
              <g id="Grupo_1188745" data-name="Grupo 1188745">
                <g id="Grupo_1188743" data-name="Grupo 1188743" transform="translate(8.025)">
                  <path id="Trazado_876133" data-name="Trazado 876133" d="M90.864,177.387V160.278a.707.707,0,0,1,.707-.707c.131,0,.26.006.39.01a8.5,8.5,0,0,0-2.558-1.223,8.466,8.466,0,0,0-10.2-5.889,8.466,8.466,0,0,0-11.779,0,8.466,8.466,0,0,0-10.2,5.889,8.5,8.5,0,0,0-2.558,1.223c.13,0,.259-.01.39-.01a.707.707,0,0,1,.707.707v17.109a6.242,6.242,0,0,1-4.622,6.019,8.466,8.466,0,0,0,6.083,7.131,8.467,8.467,0,0,0,10.2,5.889,8.466,8.466,0,0,0,11.779,0,8.466,8.466,0,0,0,10.2-5.889,8.466,8.466,0,0,0,6.083-7.132,6.241,6.241,0,0,1-4.622-6.019Z" transform="translate(-51.14 -150.085)" fill="#f6a96c"/>
                  <g id="Grupo_1188740" data-name="Grupo 1188740" transform="translate(6.305 30.907)">
                    <path id="Trazado_876134" data-name="Trazado 876134" d="M119.769,318.149a23.9,23.9,0,0,1-34.342,10.213,8.463,8.463,0,0,0,9.978,5.222,8.466,8.466,0,0,0,11.779,0,8.466,8.466,0,0,0,10.2-5.889,8.468,8.468,0,0,0,6.059-6.946,6.428,6.428,0,0,1-3.674-2.6Z" transform="translate(-85.427 -318.149)" fill="#ea9b58"/>
                  </g>
                  <g id="Grupo_1188742" data-name="Grupo 1188742" transform="translate(12.919 22.536)">
                    <g id="Grupo_1188741" data-name="Grupo 1188741">
                      <ellipse id="Elipse_11502" data-name="Elipse 11502" cx="9.254" cy="8.08" rx="9.254" ry="8.08" fill="#fed2a4"/>
                      <path id="Trazado_876135" data-name="Trazado 876135" d="M142.188,275.591a7.4,7.4,0,0,1,1.849,4.846c0,4.462-4.143,8.08-9.254,8.08a10.418,10.418,0,0,1-3.341-.545,9.742,9.742,0,0,0,7.405,3.234c5.111,0,9.254-3.617,9.254-8.08A8.192,8.192,0,0,0,142.188,275.591Z" transform="translate(-129.593 -275.046)" fill="#ffbd86"/>
                    </g>
                  </g>
                </g>
                <g id="Grupo_1188744" data-name="Grupo 1188744" transform="translate(0 9.301)">
                  <path id="Trazado_876136" data-name="Trazado 876136" d="M13.916,225.079A6.416,6.416,0,0,1,7.5,218.663V212.6a11.941,11.941,0,0,1,11.941-11.941.891.891,0,0,1,.891.891v17.109A6.416,6.416,0,0,1,13.916,225.079Z" transform="translate(-7.5 -200.663)" fill="#ea9b58"/>
                  <path id="Trazado_876137" data-name="Trazado 876137" d="M24.324,200.663a11.94,11.94,0,0,0-3.383.489v14.775a6.414,6.414,0,0,1-7.458,6.33,6.416,6.416,0,0,0,11.731-3.594V201.554A.891.891,0,0,0,24.324,200.663Z" transform="translate(-12.384 -200.663)" fill="#d88a55"/>
                  <path id="Trazado_876138" data-name="Trazado 876138" d="M272.557,225.079a6.416,6.416,0,0,0,6.416-6.416V212.6a11.941,11.941,0,0,0-11.941-11.941.891.891,0,0,0-.891.891v17.109A6.416,6.416,0,0,0,272.557,225.079Z" transform="translate(-218.576 -200.663)" fill="#ea9b58"/>
                  <path id="Trazado_876139" data-name="Trazado 876139" d="M279.672,216.835v12.29a6.421,6.421,0,0,1-7.7,6.287,6.416,6.416,0,0,0,11.76-3.551V225.8a11.909,11.909,0,0,0-4.06-8.967Z" transform="translate(-223.335 -213.861)" fill="#d88a55"/>
                </g>
              </g>
            </g>
            <path id="Trazado_876140" data-name="Trazado 876140" d="M88.247,25.005a5.525,5.525,0,1,0-8.99-4.59H53.982a5.526,5.526,0,1,0-8.989,4.59,5.525,5.525,0,1,0,8.989,4.59H79.258a5.526,5.526,0,1,0,8.99-4.59Z" transform="translate(-36.422 -15.182)" fill="#efe2dd"/>
          </g>
        </g>
        <path id="Trazado_876141" data-name="Trazado 876141" d="M88.247,25.005a5.525,5.525,0,0,0-5.185-9.551V23.5a1.845,1.845,0,0,1-1.845,1.845h-36.6A5.524,5.524,0,1,0,53.981,29.6H79.257a5.526,5.526,0,1,0,8.99-4.591Z" transform="translate(-36.421 -15.182)" fill="#e1d3ce"/>
      </g>
      <g id="Grupo_1188750" data-name="Grupo 1188750" transform="translate(0 7.681)">
        <path id="Trazado_876142" data-name="Trazado 876142" d="M70.019,11.847a23.982,23.982,0,0,0-13.524,4.141,6.906,6.906,0,0,0-13.463-3.074H30.126a1.379,1.379,0,0,0,0,2.759H44.215a1.379,1.379,0,0,0,1.377-1.307,4.146,4.146,0,1,1,6.745,3.446,1.379,1.379,0,0,0,0,2.145A4.146,4.146,0,1,1,45.593,23.4a1.379,1.379,0,0,0-1.377-1.307H18.94A1.379,1.379,0,0,0,17.562,23.4a4.146,4.146,0,1,1-6.745-3.446,1.379,1.379,0,0,0,0-2.145,4.146,4.146,0,1,1,6.745-3.446,1.379,1.379,0,0,0,1.377,1.307h4.73a1.379,1.379,0,0,0,0-2.759H20.123a6.906,6.906,0,1,0-12.107,5.97,6.906,6.906,0,1,0,12.106,5.97H43.032a6.905,6.905,0,0,0,3.756,4.574,24.128,24.128,0,0,0-.908,6.559c0,.326.008.651.021.975a9.924,9.924,0,0,0-1.452-1.023,9.8,9.8,0,0,0-6.582-1.179,9.847,9.847,0,0,0-12.579,0,9.846,9.846,0,0,0-10.894,6.29,9.889,9.889,0,0,0-1.58.754A13.334,13.334,0,0,0,0,55.112v6.059a7.8,7.8,0,0,0,7.8,7.8c.19,0,.378-.009.564-.023a9.854,9.854,0,0,0,5.053,6.045A9.845,9.845,0,0,0,8.105,85.456,9.847,9.847,0,0,0,7.481,97.2a4.1,4.1,0,0,0,3.431,1.817H39.874a1.379,1.379,0,0,0,0-2.759H10.913a1.352,1.352,0,0,1-1.135-.588,7.088,7.088,0,0,1,.812-8.853,1.38,1.38,0,0,0,.347-1.293,7.086,7.086,0,0,1,4.323-8.336A9.848,9.848,0,0,0,25.288,81.7a9.846,9.846,0,0,0,12.579,0A9.848,9.848,0,0,0,47.9,77.185a7.086,7.086,0,0,1,4.323,8.336,1.379,1.379,0,0,0,.346,1.294,7.088,7.088,0,0,1,.812,8.853,1.352,1.352,0,0,1-1.135.588H46.33a1.379,1.379,0,1,0,0,2.759h5.912A4.1,4.1,0,0,0,55.673,97.2a9.847,9.847,0,0,0-.624-11.741,9.844,9.844,0,0,0-5.307-10.467A9.853,9.853,0,0,0,54.8,68.944c.187.013.374.023.564.023a7.8,7.8,0,0,0,7.8-7.8V59.133a24.141,24.141,0,1,0,6.864-47.285ZM7.8,66.208a5.042,5.042,0,0,1-5.037-5.037V55.112a10.574,10.574,0,0,1,10.073-10.55v16.61A5.042,5.042,0,0,1,7.8,66.208Zm52.6-5.037a5.037,5.037,0,1,1-10.073,0V56.115a1.379,1.379,0,1,0-2.759,0v5.057a7.8,7.8,0,0,0,4.555,7.087A7.08,7.08,0,0,1,47.288,73a1.379,1.379,0,0,0-.947.947,7.087,7.087,0,0,1-8.54,4.931,1.378,1.378,0,0,0-1.294.346,7.087,7.087,0,0,1-9.861,0,1.377,1.377,0,0,0-1.294-.347,7.087,7.087,0,0,1-8.54-4.931A1.379,1.379,0,0,0,15.866,73a7.081,7.081,0,0,1-4.831-4.738,7.8,7.8,0,0,0,4.555-7.087V44.062a2.273,2.273,0,0,0-.054-.486c.11-.037.219-.076.33-.108a1.379,1.379,0,0,0,.947-.947,7.087,7.087,0,0,1,8.54-4.931,1.379,1.379,0,0,0,1.294-.346,7.087,7.087,0,0,1,9.861,0,1.38,1.38,0,0,0,1.293.347,7.087,7.087,0,0,1,8.54,4.93,1.379,1.379,0,0,0,.947.947c.111.032.22.07.33.108a2.262,2.262,0,0,0-.054.486v5.6a1.379,1.379,0,1,0,2.759,0v-5.1A10.574,10.574,0,0,1,60.4,55.112v6.059ZM89.183,45.458l-2.056-1.187a1.379,1.379,0,0,0-1.379,2.389L87.8,47.845a21.556,21.556,0,0,1-5.923,5.923l-1.185-2.052A1.379,1.379,0,0,0,78.3,53.095l1.187,2.056A21.22,21.22,0,0,1,71.4,57.321V54.945a1.379,1.379,0,1,0-2.759,0v2.377a21.239,21.239,0,0,1-5.485-1.082V55.112A13.334,13.334,0,0,0,50.341,41.8a9.89,9.89,0,0,0-1.043-.536,21.366,21.366,0,0,1-.613-3.9h2.376a1.379,1.379,0,0,0,0-2.759H48.687a21.3,21.3,0,0,1,.782-4.526c.088,0,.176.006.264.006A6.906,6.906,0,0,0,55.85,19.977a21.527,21.527,0,0,1,2.3-1.781l1.19,2.061a1.379,1.379,0,0,0,2.389-1.379l-1.193-2.066a21.237,21.237,0,0,1,8.1-2.161v2.377a1.379,1.379,0,1,0,2.759,0V14.651a21.224,21.224,0,0,1,8.092,2.171L78.3,18.878a1.379,1.379,0,1,0,2.389,1.379L81.878,18.2A21.555,21.555,0,0,1,87.8,24.127l-2.052,1.185A1.379,1.379,0,1,0,87.127,27.7l2.056-1.187a21.222,21.222,0,0,1,2.171,8.093H88.977a1.379,1.379,0,0,0,0,2.759h2.376a21.222,21.222,0,0,1-2.171,8.093Z" transform="translate(0 -7.681)"/>
        <path id="Trazado_876143" data-name="Trazado 876143" d="M385.941,96.6H376V85.026a1.379,1.379,0,1,0-2.759,0V97.982a1.379,1.379,0,0,0,1.379,1.379h11.321a1.379,1.379,0,1,0,0-2.758Z" transform="translate(-304.6 -69.677)"/>
        <path id="Trazado_876144" data-name="Trazado 876144" d="M128.742,231.876a1.379,1.379,0,0,0,1.379-1.379v-2.139a1.379,1.379,0,0,0-2.759,0V230.5A1.379,1.379,0,0,0,128.742,231.876Z" transform="translate(-103.941 -186.649)"/>
        <path id="Trazado_876145" data-name="Trazado 876145" d="M202.433,231.876a1.379,1.379,0,0,0,1.379-1.379v-2.139a1.379,1.379,0,0,0-2.759,0V230.5A1.379,1.379,0,0,0,202.433,231.876Z" transform="translate(-164.08 -186.649)"/>
        <path id="Trazado_876146" data-name="Trazado 876146" d="M124.522,265.128c-5.863,0-10.633,4.243-10.633,9.459s4.77,9.459,10.633,9.459,10.633-4.243,10.633-9.459S130.385,265.128,124.522,265.128Zm0,16.159c-4.342,0-7.875-3.006-7.875-6.7,0-3.023,2.366-5.584,5.6-6.415a1.379,1.379,0,0,0,.979,2.35h2.583a1.379,1.379,0,0,0,.979-2.35c3.238.831,5.6,3.392,5.6,6.415C132.4,278.281,128.864,281.287,124.522,281.287Z" transform="translate(-92.945 -217.783)"/>
      </g>
    </g>
  </g>
</svg>
