<svg xmlns="http://www.w3.org/2000/svg" width="84.208" height="84.207" viewBox="0 0 84.208 84.207">
  <g id="Grupo_1204438" data-name="Grupo 1204438" transform="translate(-872.726 -278.777)">
    <g id="Grupo_1188789" data-name="Grupo 1188789" transform="translate(583.726 -5835.222)">
      <rect id="Rectángulo_400898" data-name="Rectángulo 400898" width="75.49" height="75.489" rx="37.744" transform="translate(293.36 6118.358)" fill="#ffd907"/>
      <rect id="Rectángulo_400907" data-name="Rectángulo 400907" width="75.49" height="75.489" rx="37.744" transform="translate(293.36 6118.358)" fill="none"/>
      <g id="Grupo_1098742" data-name="Grupo 1098742" transform="translate(289 6114)">
        <g id="Rectángulo_400898-2" data-name="Rectángulo 400898" transform="translate(0)" fill="none" stroke="#fff" stroke-width="1" opacity="0.859">
          <rect width="84.208" height="84.207" rx="42.104" stroke="none"/>
          <rect x="0.5" y="0.5" width="83.208" height="83.207" rx="41.604" fill="none"/>
        </g>
        <g id="Rectángulo_400907-2" data-name="Rectángulo 400907" transform="translate(0)" fill="none" stroke="#0f1f33" stroke-linecap="round" stroke-width="1">
          <rect width="84.208" height="84.207" rx="42.104" stroke="none"/>
          <rect x="0.5" y="0.5" width="83.208" height="83.207" rx="41.604" fill="none"/>
        </g>
      </g>
      <g id="Layer_50" transform="translate(305.309 6109.673)">
        <g id="Grupo_1205006" data-name="Grupo 1205006" transform="translate(0 22.616)">
          <g id="Grupo_1204986" data-name="Grupo 1204986" transform="translate(37.294 10.404)">
            <g id="Grupo_1204985" data-name="Grupo 1204985">
              <path id="Trazado_1280195" data-name="Trazado 1280195" d="M174.42,76.268a11.83,11.83,0,0,1-9.3-6.145.641.641,0,0,1,.328-.9l1.292-.521a.64.64,0,0,1,.8.282,9.193,9.193,0,0,0,7.111,4.618.643.643,0,0,1,.57.678l-.089,1.385A.643.643,0,0,1,174.42,76.268Z" transform="translate(-165.043 -68.659)" fill="#fc657e"/>
            </g>
          </g>
          <g id="Grupo_1204987" data-name="Grupo 1204987" transform="translate(11.72 11.73)">
            <path id="Trazado_1280196" data-name="Trazado 1280196" d="M84.631,87.65A7.9,7.9,0,0,0,86.6,80.916c-.007-.046-.013-.092-.019-.137a11.822,11.822,0,0,1-8.9-5.821,5.967,5.967,0,0,1-1.288.255,26.034,26.034,0,0,1-7.443-.325c-5.616-1.2-14.241.4-14.241,7.822,0,8.419-1.4,7.221-2.607,11.031-.914,2.9,1.067,6.219,2.071,8.61A1.987,1.987,0,0,0,56,103.57h2.141a.905.905,0,0,0,.77-1.385,3.653,3.653,0,0,0-1.208-1.128,2.441,2.441,0,0,1-.987-1.145c-2.162-5.093,0-5.451,3.8-6.972,4.011-1.6.4-10.43,14.241-3.209q.22.115.436.217A3.154,3.154,0,0,1,77.019,92.7a20.846,20.846,0,0,0,1.357,6.859c.511,1.447.8,2.388.974,2.992A1.4,1.4,0,0,0,80.7,103.57h3.058a.887.887,0,0,0,.676-1.463,6.835,6.835,0,0,0-1.831-1.488,2.291,2.291,0,0,1-1.16-1.809,11.056,11.056,0,0,1,.146-4.065A25.366,25.366,0,0,1,84.631,87.65Z" transform="translate(-51.866 -74.527)" fill="#c18e6b"/>
          </g>
          <g id="Grupo_1204988" data-name="Grupo 1204988" transform="translate(39.836 0.565)">
            <path id="Trazado_1280197" data-name="Trazado 1280197" d="M192.841,34.274a18.051,18.051,0,0,1-3.674-1.248,1.41,1.41,0,0,1-.765-.893,3.82,3.82,0,0,0-4.172-2.73,1.191,1.191,0,0,1-1.222-1.05l-.316-2.684a.625.625,0,0,0-.924-.474,4.576,4.576,0,0,0-2.311,4.248,1.511,1.511,0,0,1-.483,1.108,5.665,5.665,0,0,0-1.042,2.167,5.975,5.975,0,0,1-1.641,2.648,9.188,9.188,0,0,0,6.91,4.514c.553-1.078,1.725-1.545,3.53-.836a7.208,7.208,0,0,0,2.181.72c.847.02.854-.462,1.578-.647a3.823,3.823,0,0,0,2.394-2.2,4.025,4.025,0,0,1,.485-.67l.078-.087a1.154,1.154,0,0,0-.607-1.89Z" transform="translate(-176.292 -25.115)" fill="#c18e6b"/>
          </g>
          <g id="Grupo_1204989" data-name="Grupo 1204989" transform="translate(0.565 41.564)">
            <path id="Trazado_1280198" data-name="Trazado 1280198" d="M12.907,209.926H4.185a1.685,1.685,0,0,1,0-3.37h8.722a1.685,1.685,0,0,1,0,3.37Z" transform="translate(-2.5 -206.556)" fill="#5b5d60"/>
          </g>
          <g id="Grupo_1204990" data-name="Grupo 1204990" transform="translate(2.005 34.458)">
            <path id="Trazado_1280199" data-name="Trazado 1280199" d="M18.067,180.286a1.722,1.722,0,0,0-1.725-1.44.618.618,0,0,1-.621-.649,2.87,2.87,0,0,0-1.813-3.051.439.439,0,0,0-.6.51,3.527,3.527,0,0,1,.115.649,2.4,2.4,0,0,1-2.416,2.541h-.391a1.723,1.723,0,0,0-1.739,1.572,1.685,1.685,0,0,0,1.681,1.8H16.4A1.686,1.686,0,0,0,18.067,180.286Z" transform="translate(-8.872 -175.11)" fill="#818182"/>
          </g>
          <g id="Grupo_1204991" data-name="Grupo 1204991" transform="translate(3.562 15.955)">
            <path id="Trazado_1280200" data-name="Trazado 1280200" d="M26.758,98.067c0-.283.006-.578.006-.886a7.407,7.407,0,0,1,1.054-3.959,14.392,14.392,0,0,0-3.851,4.9c-2.843,5.716-6.609,5.112-6.753,5.086h0a1.207,1.207,0,0,0-.487,2.364h0c.241.049,5.7,1.073,9.4-6.375C26.327,98.791,26.539,98.419,26.758,98.067Z" transform="translate(-15.763 -93.222)" fill="#c18e6b"/>
          </g>
          <g id="Grupo_1204992" data-name="Grupo 1204992" transform="translate(17.987 0.467)">
            <path id="Trazado_1280201" data-name="Trazado 1280201" d="M80.325,27.374h.52v.52a.714.714,0,0,0,.723.723.724.724,0,0,0,.723-.7v-.542h.52a.714.714,0,0,0,.723-.723.724.724,0,0,0-.7-.723h-.542v-.52a.714.714,0,0,0-.723-.723.724.724,0,0,0-.723.7v.542h-.52a.714.714,0,0,0-.723.723.7.7,0,0,0,.723.723Z" transform="translate(-79.601 -24.685)" fill="#87d147"/>
          </g>
          <g id="Grupo_1204993" data-name="Grupo 1204993" transform="translate(22.779 46.09)">
            <circle id="Elipse_11520" data-name="Elipse 11520" cx="0.768" cy="0.768" r="0.768" fill="#fc657e"/>
          </g>
          <g id="Grupo_1204994" data-name="Grupo 1204994" transform="translate(50.701 24.736)">
            <path id="Trazado_1280202" data-name="Trazado 1280202" d="M227.262,133.48a1.762,1.762,0,0,1-1.4-1.378c0-.023-.068-.023-.068,0a1.762,1.762,0,0,1-1.4,1.378c-.023,0-.023.045,0,.068a1.762,1.762,0,0,1,1.4,1.378c0,.023.068.023.068,0a1.762,1.762,0,0,1,1.4-1.378C227.284,133.526,227.284,133.48,227.262,133.48Z" transform="translate(-224.375 -132.085)" fill="#70d6f9"/>
          </g>
          <g id="Grupo_1204995" data-name="Grupo 1204995" transform="translate(9.484 7.789)">
            <circle id="Elipse_11521" data-name="Elipse 11521" cx="0.768" cy="0.768" r="0.768" fill="#f5c84c"/>
          </g>
          <g id="Grupo_1204996" data-name="Grupo 1204996" transform="translate(30.686 40.633)">
            <path id="Trazado_1280203" data-name="Trazado 1280203" d="M135.834,204.435a2.507,2.507,0,0,0,2.011-1.966c0-.045.09-.045.09,0a2.507,2.507,0,0,0,2.011,1.966c.045,0,.045.068,0,.09a2.507,2.507,0,0,0-2.011,1.966c0,.045-.09.045-.09,0a2.507,2.507,0,0,0-2.011-1.966C135.789,204.5,135.789,204.435,135.834,204.435Z" transform="translate(-135.8 -202.435)" fill="#f5c84c"/>
          </g>
          <g id="Grupo_1204997" data-name="Grupo 1204997" transform="translate(47.711 6.999)">
            <path id="Trazado_1280204" data-name="Trazado 1280204" d="M213.5,55.615a.565.565,0,0,1-.565-.565.332.332,0,0,0-.663,0,.565.565,0,1,1-1.13,0,1.461,1.461,0,0,1,2.923,0A.565.565,0,0,1,213.5,55.615Z" transform="translate(-211.143 -53.589)"/>
          </g>
          <g id="Grupo_1204998" data-name="Grupo 1204998" transform="translate(52.462 13.245)">
            <path id="Trazado_1280205" data-name="Trazado 1280205" d="M233.619,83.079a.563.563,0,0,1-.355-.126l-.886-.718a.565.565,0,0,1,.712-.878l.886.718a.565.565,0,0,1-.356,1Z" transform="translate(-232.168 -81.23)"/>
          </g>
          <g id="Grupo_1205000" data-name="Grupo 1205000" transform="translate(36.73 9.84)">
            <g id="Grupo_1204999" data-name="Grupo 1204999">
              <path id="Trazado_1280206" data-name="Trazado 1280206" d="M172.556,74.9a1.145,1.145,0,0,1-.13-.007,12.365,12.365,0,0,1-9.738-6.441,1.205,1.205,0,0,1,.615-1.686l1.292-.521a1.207,1.207,0,0,1,1.505.532,8.625,8.625,0,0,0,6.684,4.331,1.209,1.209,0,0,1,1.068,1.276l-.089,1.385a1.208,1.208,0,0,1-1.205,1.131Zm-7.509-7.613a.08.08,0,0,0-.03.006l-1.292.521a.076.076,0,0,0-.045.046.07.07,0,0,0,0,.059,11.244,11.244,0,0,0,8.866,5.85.066.066,0,0,0,.055-.017.078.078,0,0,0,.029-.056l.09-1.385a.078.078,0,0,0-.073-.081,9.747,9.747,0,0,1-7.539-4.906A.073.073,0,0,0,165.046,67.29Z" transform="translate(-162.546 -66.161)"/>
            </g>
          </g>
          <g id="Grupo_1205001" data-name="Grupo 1205001" transform="translate(11.155 11.167)">
            <path id="Trazado_1280207" data-name="Trazado 1280207" d="M81.819,102.206H78.761a1.969,1.969,0,0,1-1.89-1.432c-.207-.738-.531-1.732-.963-2.957a21.391,21.391,0,0,1-1.389-7.029,2.582,2.582,0,0,0-1.493-2.259q-.226-.106-.456-.227c-4.423-2.307-7.385-3.144-9.056-2.558-1.153.4-1.636,1.5-2.148,2.661-.527,1.2-1.125,2.553-2.566,3.13-.289.115-.568.224-.837.329-1.7.664-2.936,1.144-3.321,2.059-.328.778-.117,2,.665,3.839a1.888,1.888,0,0,0,.757.881,4.24,4.24,0,0,1,1.394,1.309,1.441,1.441,0,0,1,.047,1.487,1.475,1.475,0,0,1-1.293.767H54.07a2.546,2.546,0,0,1-2.354-1.564c-.166-.4-.361-.821-.568-1.271-1.045-2.279-2.346-5.115-1.521-7.729a12.8,12.8,0,0,1,1.162-2.619c.793-1.426,1.419-2.552,1.419-8.243a7.615,7.615,0,0,1,2.872-6.216c3.2-2.589,8.361-2.95,12.052-2.159a25.025,25.025,0,0,0,7.277.315,5.422,5.422,0,0,0,1.166-.231.565.565,0,0,1,.659.256,11.18,11.18,0,0,0,8.487,5.543.565.565,0,0,1,.487.482l.018.125a8.414,8.414,0,0,1-2.08,7.172,24.62,24.62,0,0,0-2.94,6.852,9.734,9.734,0,0,0-.179,3.458c.013.142.027.292.041.454a1.721,1.721,0,0,0,.872,1.363,7.379,7.379,0,0,1,1.982,1.611,1.427,1.427,0,0,1,.223,1.545A1.442,1.442,0,0,1,81.819,102.206ZM64.693,84.438c1.976,0,4.7.936,8.4,2.863q.21.109.416.207a3.708,3.708,0,0,1,2.14,3.246,20.369,20.369,0,0,0,1.325,6.688c.44,1.248.772,2.266.985,3.028a.835.835,0,0,0,.8.607h3.058a.317.317,0,0,0,.3-.193.3.3,0,0,0-.047-.335,6.256,6.256,0,0,0-1.679-1.365,2.849,2.849,0,0,1-1.448-2.254c-.014-.16-.027-.308-.04-.448a10.845,10.845,0,0,1,.193-3.77,25.608,25.608,0,0,1,3.122-7.291.554.554,0,0,1,.07-.089,7.248,7.248,0,0,0,1.862-5.983,12.452,12.452,0,0,1-8.667-5.661,6.5,6.5,0,0,1-.978.16,26.146,26.146,0,0,1-7.609-.336c-3.428-.735-8.192-.422-11.1,1.933a6.534,6.534,0,0,0-2.453,5.337c0,5.984-.724,7.285-1.561,8.792a11.7,11.7,0,0,0-1.072,2.41c-.694,2.2.506,4.815,1.471,6.917.21.458.409.891.582,1.3a1.42,1.42,0,0,0,1.312.872h2.142a.339.339,0,0,0,.3-.18.324.324,0,0,0-.009-.336,3.107,3.107,0,0,0-1.021-.947A3.027,3.027,0,0,1,54.266,98.2c-.921-2.17-1.127-3.626-.666-4.72.571-1.355,2.063-1.937,3.952-2.673.266-.1.541-.211.827-.325,1.013-.4,1.448-1.393,1.952-2.536.559-1.268,1.192-2.7,2.808-3.272a4.671,4.671,0,0,1,1.554-.241Z" transform="translate(-49.366 -72.035)"/>
          </g>
          <g id="Grupo_1205002" data-name="Grupo 1205002" transform="translate(39.271)">
            <path id="Trazado_1280208" data-name="Trazado 1280208" d="M181.267,38.511a.593.593,0,0,1-.075,0,9.777,9.777,0,0,1-7.326-4.794.565.565,0,0,1,.1-.692,5.417,5.417,0,0,0,1.486-2.4,6,6,0,0,1,1.2-2.419.952.952,0,0,0,.3-.694,5.141,5.141,0,0,1,2.6-4.741,1.189,1.189,0,0,1,1.762.9l.316,2.684a.622.622,0,0,0,.644.551c3.341-.1,4.4,1.926,4.734,3.145a.841.841,0,0,0,.461.532,17.408,17.408,0,0,0,3.557,1.208,1.719,1.719,0,0,1,.906,2.816l-.082.092a3.465,3.465,0,0,0-.416.576q-.051.088-.107.187a4.139,4.139,0,0,1-2.636,2.271,1.179,1.179,0,0,0-.457.241,1.833,1.833,0,0,1-1.274.423,5.319,5.319,0,0,1-1.9-.559c-.164-.071-.323-.141-.474-.2-.96-.377-2.229-.585-2.821.568A.565.565,0,0,1,181.267,38.511Zm-6.2-4.995a8.645,8.645,0,0,0,5.911,3.816c.515-.729,1.681-1.668,4.023-.747.163.064.335.139.512.216a4.562,4.562,0,0,0,1.475.465.718.718,0,0,0,.575-.2,2.275,2.275,0,0,1,.851-.428,3.073,3.073,0,0,0,1.931-1.732c.041-.072.079-.14.116-.2a4.6,4.6,0,0,1,.553-.763l.074-.083a.582.582,0,0,0,.119-.574.574.574,0,0,0-.426-.39,18.563,18.563,0,0,1-3.791-1.288,1.971,1.971,0,0,1-1.069-1.253,3.258,3.258,0,0,0-3.61-2.316,1.749,1.749,0,0,1-1.8-1.549L180.2,23.8a.059.059,0,0,0-.034-.048.051.051,0,0,0-.052,0,4.006,4.006,0,0,0-2.023,3.756,2.085,2.085,0,0,1-.663,1.521,5.27,5.27,0,0,0-.886,1.916A6.546,6.546,0,0,1,175.07,33.517Z" transform="translate(-173.793 -22.616)"/>
          </g>
          <g id="Grupo_1205003" data-name="Grupo 1205003" transform="translate(0 40.999)">
            <path id="Trazado_1280209" data-name="Trazado 1280209" d="M10.972,208.555H2.249a2.25,2.25,0,0,1,0-4.5h8.723a2.25,2.25,0,0,1,0,4.5Zm-8.723-3.369a1.12,1.12,0,0,0,0,2.24h8.723a1.12,1.12,0,1,0,0-2.24Z" transform="translate(0 -204.056)"/>
          </g>
          <g id="Grupo_1205004" data-name="Grupo 1205004" transform="translate(1.439 33.893)">
            <path id="Trazado_1280210" data-name="Trazado 1280210" d="M14.463,180.844H8.619a2.258,2.258,0,0,1-1.642-.711,2.231,2.231,0,0,1-.6-1.687,2.284,2.284,0,0,1,2.3-2.1h.391a1.892,1.892,0,0,0,1.386-.606,1.734,1.734,0,0,0,.467-1.326,2.978,2.978,0,0,0-.1-.545.986.986,0,0,1,.305-1.009,1.006,1.006,0,0,1,1.063-.17,3.428,3.428,0,0,1,2.157,3.607.037.037,0,0,0,.012.029.061.061,0,0,0,.045.019,2.288,2.288,0,0,1,2.285,1.926,2.25,2.25,0,0,1-2.226,2.573Zm-5.786-3.369A1.153,1.153,0,0,0,7.5,178.519a1.119,1.119,0,0,0,1.117,1.2h5.843a1.121,1.121,0,0,0,1.108-1.286,1.155,1.155,0,0,0-1.166-.954,1.2,1.2,0,0,1-.868-.376,1.173,1.173,0,0,1-.316-.873,2.3,2.3,0,0,0-1.244-2.39,3.963,3.963,0,0,1,.07.488,2.853,2.853,0,0,1-.764,2.181,3.025,3.025,0,0,1-2.216.969Z" transform="translate(-6.369 -172.608)"/>
          </g>
          <g id="Grupo_1205005" data-name="Grupo 1205005" transform="translate(2.997 15.389)">
            <path id="Trazado_1280211" data-name="Trazado 1280211" d="M15.675,104.267a5.263,5.263,0,0,1-1-.082h0a1.772,1.772,0,0,1,.711-3.471c.215.035,3.522.483,6.142-4.783a15.027,15.027,0,0,1,4-5.085.565.565,0,0,1,.835.736,6.88,6.88,0,0,0-.97,3.663c0,.311,0,.608-.006.893a.565.565,0,0,1-.085.291c-.228.368-.426.721-.6,1.079-2.988,6.008-7.138,6.758-9.024,6.758Zm-.766-1.187c.256.052,5.278.961,8.778-6.074.172-.346.361-.687.574-1.037,0-.233,0-.473,0-.723a9.017,9.017,0,0,1,.163-1.734,14.952,14.952,0,0,0-1.889,2.922c-3.026,6.084-7.181,5.422-7.357,5.391l-.02,0a.642.642,0,0,0-.254,1.258h0Zm9.914-6.948h0Z" transform="translate(-13.264 -90.721)"/>
          </g>
        </g>
      </g>
    </g>
  </g>
</svg>
