<svg xmlns="http://www.w3.org/2000/svg" width="84.208" height="84.207" viewBox="0 0 84.208 84.207">
  <g id="Grupo_1204439" data-name="Grupo 1204439" transform="translate(-872.726 -278.777)">
    <g id="Grupo_1188789" data-name="Grupo 1188789" transform="translate(583.726 -5835.222)">
      <rect id="Rectángulo_400898" data-name="Rectángulo 400898" width="75.49" height="75.489" rx="37.744" transform="translate(293.36 6118.358)" fill="#ffd907"/>
      <rect id="Rectángulo_400907" data-name="Rectángulo 400907" width="75.49" height="75.489" rx="37.744" transform="translate(293.36 6118.358)" fill="none"/>
      <g id="Grupo_1098742" data-name="Grupo 1098742" transform="translate(289 6114)">
        <g id="Rectángulo_400898-2" data-name="Rectángulo 400898" transform="translate(0)" fill="none" stroke="#fff" stroke-width="1" opacity="0.859">
          <rect width="84.208" height="84.207" rx="42.104" stroke="none"/>
          <rect x="0.5" y="0.5" width="83.208" height="83.207" rx="41.604" fill="none"/>
        </g>
        <g id="Rectángulo_400907-2" data-name="Rectángulo 400907" transform="translate(0)" fill="none" stroke="#0f1f33" stroke-linecap="round" stroke-width="1">
          <rect width="84.208" height="84.207" rx="42.104" stroke="none"/>
          <rect x="0.5" y="0.5" width="83.208" height="83.207" rx="41.604" fill="none"/>
        </g>
      </g>
      <g id="cerberus_6192978" transform="translate(289.757 6114.689)">
        <path id="Trazado_1280076" data-name="Trazado 1280076" d="M167.557,187.7a11.039,11.039,0,0,1-9.769-5.872l-.335-.631a2.069,2.069,0,1,1,3.655-1.942l.336.632a6.909,6.909,0,0,0,6.114,3.675,2.069,2.069,0,1,1,0,4.139Z" transform="translate(-109.11 -125.146)" fill="#fce8cb"/>
        <path id="Trazado_1280077" data-name="Trazado 1280077" d="M166.4,186.893a11.385,11.385,0,0,1-10.075-6.056l-.335-.631a2.416,2.416,0,1,1,4.267-2.268l.336.632a6.564,6.564,0,0,0,5.808,3.492,2.416,2.416,0,1,1,0,4.832Zm-8.279-9.545a1.723,1.723,0,0,0-1.519,2.532l.335.631A10.693,10.693,0,0,0,166.4,186.2a1.722,1.722,0,1,0,0-3.445,7.255,7.255,0,0,1-6.42-3.859l-.336-.632a1.729,1.729,0,0,0-1.523-.915Z" transform="translate(-107.955 -123.991)" fill="#3a312a"/>
        <path id="Trazado_1280078" data-name="Trazado 1280078" d="M24.908,51.136c.011,4.073-1.8,4.9-4.047,4.908s-4.063-.812-4.075-4.885,4.037-8.777,4.037-8.777S24.9,47.063,24.908,51.136Z" transform="translate(-1.153 -20.764)" fill="#fce8cb"/>
        <path id="Trazado_1280079" data-name="Trazado 1280079" d="M19.685,55.237c-3.031,0-4.388-1.614-4.4-5.231-.012-4.155,3.952-8.808,4.12-9a.346.346,0,0,1,.262-.12h0a.347.347,0,0,1,.262.119c.17.195,4.159,4.826,4.171,8.98h0c.006,1.995-.414,3.378-1.283,4.228a4.2,4.2,0,0,1-3.111,1.028Zm-.014-13.462C18.788,42.889,15.97,46.7,15.98,50c.011,4,1.8,4.539,3.727,4.539a3.57,3.57,0,0,0,2.627-.83c.728-.712,1.079-1.932,1.074-3.73h0C23.4,46.679,20.561,42.884,19.671,41.775Z" transform="translate(0 -19.611)" fill="#3a312a"/>
        <path id="Trazado_1280080" data-name="Trazado 1280080" d="M29.337,64.547c.006,2.163-.958,2.6-2.149,2.606s-2.157-.431-2.164-2.594,2.143-4.66,2.143-4.66S29.33,62.384,29.337,64.547Z" transform="translate(-7.486 -34.231)" fill="#87796f"/>
        <path id="Trazado_1280081" data-name="Trazado 1280081" d="M26.017,66.346a2.438,2.438,0,0,1-1.751-.582,3.163,3.163,0,0,1-.743-2.357c-.006-2.266,2.136-4.782,2.227-4.887a.346.346,0,0,1,.262-.12.383.383,0,0,1,.263.119c.092.105,2.248,2.609,2.255,4.875a3.163,3.163,0,0,1-.73,2.362,2.452,2.452,0,0,1-1.765.592Zm0-7.046c-.556.728-1.8,2.538-1.8,4.1a2.584,2.584,0,0,0,.532,1.861,1.74,1.74,0,0,0,1.272.387h.012a1.75,1.75,0,0,0,1.282-.394,2.584,2.584,0,0,0,.521-1.864C27.831,61.827,26.574,60.024,26.015,59.3Z" transform="translate(-6.333 -33.077)" fill="#3a312a"/>
        <path id="Trazado_1280082" data-name="Trazado 1280082" d="M110.438,51.136c.011,4.073-1.8,4.9-4.047,4.908s-4.063-.812-4.075-4.885,4.037-8.777,4.037-8.777S110.427,47.063,110.438,51.136Z" transform="translate(-66.907 -20.764)" fill="#fce8cb"/>
        <path id="Trazado_1280083" data-name="Trazado 1280083" d="M105.215,55.237c-3.031,0-4.388-1.614-4.4-5.231-.012-4.155,3.952-8.808,4.12-9a.346.346,0,0,1,.262-.12h0a.347.347,0,0,1,.262.119c.17.2,4.159,4.826,4.171,8.981h0c.006,1.995-.414,3.378-1.283,4.228a4.2,4.2,0,0,1-3.111,1.028ZM105.2,41.775c-.883,1.114-3.7,4.928-3.691,8.229.011,4,1.806,4.539,3.727,4.539a3.57,3.57,0,0,0,2.627-.83c.728-.712,1.079-1.932,1.074-3.73h0C108.93,46.679,106.092,42.884,105.2,41.775Z" transform="translate(-65.755 -19.611)" fill="#3a312a"/>
        <path id="Trazado_1280084" data-name="Trazado 1280084" d="M114.867,64.547c.006,2.163-.958,2.6-2.149,2.606s-2.157-.431-2.164-2.594S112.7,59.9,112.7,59.9,114.861,62.384,114.867,64.547Z" transform="translate(-73.241 -34.231)" fill="#87796f"/>
        <path id="Trazado_1280085" data-name="Trazado 1280085" d="M111.548,66.346a2.438,2.438,0,0,1-1.751-.582,3.162,3.162,0,0,1-.743-2.357c-.006-2.266,2.136-4.782,2.227-4.887a.346.346,0,0,1,.262-.12h0a.347.347,0,0,1,.262.119c.092.105,2.248,2.609,2.255,4.875a3.164,3.164,0,0,1-.73,2.362,2.452,2.452,0,0,1-1.765.592Zm0-7.046c-.556.728-1.8,2.538-1.8,4.1a2.584,2.584,0,0,0,.532,1.861,1.74,1.74,0,0,0,1.272.387h.012a1.749,1.749,0,0,0,1.282-.394,2.584,2.584,0,0,0,.521-1.864C113.362,61.827,112.105,60.024,111.546,59.3Z" transform="translate(-72.088 -33.077)" fill="#3a312a"/>
        <path id="Trazado_1280086" data-name="Trazado 1280086" d="M52.183,76.128c0,5.04-3.577,9.529-6.6,12.423a5.807,5.807,0,0,1-8.249,0c-3.022-2.893-6.6-7.382-6.6-12.423,0-8.727,4.8-11.762,10.724-11.762S52.183,67.4,52.183,76.128Z" transform="translate(-11.878 -37.665)" fill="#fce8cb"/>
        <path id="Trazado_1280087" data-name="Trazado 1280087" d="M40.306,89.463a6.294,6.294,0,0,1-4.364-1.815c-3.059-2.929-6.706-7.505-6.706-12.674,0-7.808,3.932-12.108,11.07-12.108s11.071,4.3,11.071,12.108c0,5.168-3.647,9.745-6.706,12.673A6.294,6.294,0,0,1,40.306,89.463Zm0-25.9c-4.734,0-10.377,1.981-10.377,11.415,0,4.923,3.531,9.337,6.492,12.173a5.477,5.477,0,0,0,7.77,0c2.962-2.836,6.492-7.249,6.492-12.172C50.683,65.539,45.04,63.559,40.306,63.559Z" transform="translate(-10.725 -36.511)" fill="#3a312a"/>
        <path id="Trazado_1280088" data-name="Trazado 1280088" d="M47.309,122.924a7.217,7.217,0,0,0-1.122,3.035,4.139,4.139,0,0,0,2.6,4.379,4.272,4.272,0,0,0,4.5-1.286h.005a4.273,4.273,0,0,0,4.5,1.286,4.14,4.14,0,0,0,2.6-4.379c-.279-2.887-3.08-5.76-5.216-7.373l-.031-.022a3.2,3.2,0,0,0-3.707,0l-.031.023a19.343,19.343,0,0,0-1.924,1.667Z" transform="translate(-23.74 -78.877)" fill="#87796f" fill-rule="evenodd"/>
        <path id="Trazado_1280089" data-name="Trazado 1280089" d="M48.86,129.716a4.17,4.17,0,0,1-1.347-.209,4.451,4.451,0,0,1-2.829-4.74,7.528,7.528,0,0,1,1.172-3.183.347.347,0,1,1,.591.364,6.847,6.847,0,0,0-1.072,2.886,3.809,3.809,0,0,0,2.364,4.018,3.958,3.958,0,0,0,4.106-1.159.365.365,0,0,1,.571,0,3.959,3.959,0,0,0,4.106,1.159,3.81,3.81,0,0,0,2.364-4.018c-.253-2.619-2.79-5.4-5.08-7.13l-.022-.016a2.847,2.847,0,0,0-3.3,0l-.024.017a19.068,19.068,0,0,0-1.889,1.637.347.347,0,0,1-.488-.493,19.818,19.818,0,0,1,1.959-1.7l.04-.029a3.541,3.541,0,0,1,4.109,0l.041.03c1.166.88,5,4.037,5.35,7.615a4.452,4.452,0,0,1-2.829,4.74,4.712,4.712,0,0,1-4.617-1.072A4.58,4.58,0,0,1,48.86,129.716Z" transform="translate(-22.583 -77.717)" fill="#3a312a"/>
        <path id="Trazado_1280090" data-name="Trazado 1280090" d="M60.237,96.874a1.108,1.108,0,1,1-1.108-1.108A1.108,1.108,0,0,1,60.237,96.874Z" transform="translate(-32.855 -61.805)" fill="#3a312a"/>
        <path id="Trazado_1280091" data-name="Trazado 1280091" d="M47.112,111.846c0,.893-.969,1.617-2.164,1.617s-2.164-.724-2.164-1.617.969-1.617,2.164-1.617S47.112,110.953,47.112,111.846Z" transform="translate(-21.14 -72.924)" fill="#f59689"/>
        <path id="Trazado_1280092" data-name="Trazado 1280092" d="M86.63,97.242a1.108,1.108,0,1,0,1.108-1.108A1.108,1.108,0,0,0,86.63,97.242Z" transform="translate(-54.848 -62.088)" fill="#3a312a"/>
        <path id="Trazado_1280093" data-name="Trazado 1280093" d="M92.73,112.214c0,.893.969,1.617,2.164,1.617s2.164-.724,2.164-1.617-.969-1.617-2.164-1.617S92.73,111.321,92.73,112.214Z" transform="translate(-59.538 -73.207)" fill="#f59689"/>
        <g id="Grupo_1204975" data-name="Grupo 1204975" transform="translate(26.156 45.093)">
          <path id="Trazado_1280094" data-name="Trazado 1280094" d="M69.959,147.271a3.111,3.111,0,0,1-6.16-.027c0-1.021,1.387-1.842,3.088-1.834S69.963,146.251,69.959,147.271Z" transform="translate(-63.452 -145.063)" fill="#695b51"/>
          <path id="Trazado_1280095" data-name="Trazado 1280095" d="M65.723,149.121H65.71A3.616,3.616,0,0,1,62.3,146.09c.005-1.225,1.5-2.18,3.411-2.18h.025a4.641,4.641,0,0,1,2.354.6,1.919,1.919,0,0,1,1.064,1.609A3.616,3.616,0,0,1,65.723,149.121Zm-.014-4.517c-1.472,0-2.715.679-2.719,1.489a2.944,2.944,0,0,0,2.723,2.334h.01a2.944,2.944,0,0,0,2.733-2.31,1.266,1.266,0,0,0-.729-1.012,3.946,3.946,0,0,0-2-.5Z" transform="translate(-62.297 -143.91)" fill="#3a312a"/>
        </g>
        <path id="Trazado_1280096" data-name="Trazado 1280096" d="M126.677,51.136c.011,4.073-1.8,4.9-4.047,4.908s-4.063-.812-4.075-4.885,4.036-8.777,4.036-8.777S126.665,47.063,126.677,51.136Z" transform="translate(-79.392 -20.764)" fill="#fce8cb"/>
        <path id="Trazado_1280097" data-name="Trazado 1280097" d="M121.453,55.237c-3.031,0-4.388-1.614-4.4-5.231-.012-4.155,3.952-8.808,4.12-9a.346.346,0,0,1,.262-.12h0A.347.347,0,0,1,121.7,41c.17.2,4.159,4.826,4.171,8.981h0c.006,1.995-.414,3.378-1.283,4.228a4.2,4.2,0,0,1-3.111,1.028Zm-.014-13.462c-.883,1.114-3.7,4.928-3.691,8.229.011,3.979,1.781,4.539,3.7,4.539h.028a3.57,3.57,0,0,0,2.627-.83c.728-.712,1.079-1.932,1.074-3.73h0C125.168,46.679,122.33,42.884,121.44,41.775Z" transform="translate(-78.239 -19.611)" fill="#3a312a"/>
        <path id="Trazado_1280098" data-name="Trazado 1280098" d="M131.1,64.547c.006,2.163-.958,2.6-2.149,2.606s-2.157-.431-2.164-2.594,2.143-4.66,2.143-4.66S131.1,62.384,131.1,64.547Z" transform="translate(-85.724 -34.231)" fill="#87796f"/>
        <path id="Trazado_1280099" data-name="Trazado 1280099" d="M127.786,66.346a2.438,2.438,0,0,1-1.751-.582,3.163,3.163,0,0,1-.743-2.357c-.006-2.266,2.136-4.782,2.227-4.887a.346.346,0,0,1,.262-.12h0a.347.347,0,0,1,.262.119c.092.105,2.248,2.609,2.255,4.875a3.163,3.163,0,0,1-.73,2.362,2.452,2.452,0,0,1-1.765.592Zm0-7.046c-.556.728-1.8,2.538-1.8,4.1a2.584,2.584,0,0,0,.532,1.861,1.74,1.74,0,0,0,1.272.387h.012a1.749,1.749,0,0,0,1.282-.394,2.584,2.584,0,0,0,.521-1.864C129.6,61.827,128.343,60.024,127.784,59.3Z" transform="translate(-84.571 -33.077)" fill="#3a312a"/>
        <path id="Trazado_1280100" data-name="Trazado 1280100" d="M212.207,51.136c.011,4.073-1.8,4.9-4.047,4.908s-4.063-.812-4.075-4.885,4.036-8.777,4.036-8.777S212.2,47.063,212.207,51.136Z" transform="translate(-145.146 -20.764)" fill="#fce8cb"/>
        <path id="Trazado_1280101" data-name="Trazado 1280101" d="M206.983,55.237a4.187,4.187,0,0,1-3.09-1.01c-.873-.845-1.3-2.225-1.306-4.221-.012-4.154,3.952-8.808,4.12-9a.346.346,0,0,1,.262-.12h0a.347.347,0,0,1,.262.119c.17.2,4.159,4.826,4.171,8.981h0c.01,3.626-1.345,5.247-4.393,5.256Zm-.012-13.462c-.883,1.114-3.7,4.928-3.691,8.229,0,1.8.363,3.016,1.095,3.724a3.553,3.553,0,0,0,2.608.815h.024c1.929-.006,3.713-.562,3.7-4.56h0C210.7,46.679,207.861,42.884,206.971,41.775Z" transform="translate(-143.994 -19.611)" fill="#3a312a"/>
        <path id="Trazado_1280102" data-name="Trazado 1280102" d="M216.636,64.547c.006,2.163-.958,2.6-2.149,2.606s-2.157-.431-2.164-2.594,2.143-4.66,2.143-4.66S216.629,62.384,216.636,64.547Z" transform="translate(-151.479 -34.231)" fill="#87796f"/>
        <path id="Trazado_1280103" data-name="Trazado 1280103" d="M213.316,66.346a2.438,2.438,0,0,1-1.751-.582,3.162,3.162,0,0,1-.743-2.357c-.006-2.266,2.136-4.782,2.227-4.887a.346.346,0,0,1,.262-.12.382.382,0,0,1,.263.119c.092.105,2.248,2.609,2.255,4.875a3.164,3.164,0,0,1-.73,2.362,2.452,2.452,0,0,1-1.765.592Zm0-7.046c-.555.728-1.8,2.538-1.8,4.1a2.584,2.584,0,0,0,.532,1.861,1.74,1.74,0,0,0,1.272.387h.012a1.749,1.749,0,0,0,1.282-.394,2.584,2.584,0,0,0,.521-1.864C215.13,61.827,213.873,60.024,213.314,59.3Z" transform="translate(-150.325 -33.077)" fill="#3a312a"/>
        <path id="Trazado_1280104" data-name="Trazado 1280104" d="M153.951,76.128c0,5.04-3.577,9.529-6.6,12.423a5.807,5.807,0,0,1-8.249,0c-3.022-2.893-6.6-7.382-6.6-12.423,0-8.727,4.8-11.762,10.723-11.762S153.951,67.4,153.951,76.128Z" transform="translate(-90.116 -37.665)" fill="#fce8cb"/>
        <path id="Trazado_1280105" data-name="Trazado 1280105" d="M142.075,89.463a6.294,6.294,0,0,1-4.364-1.815c-3.059-2.929-6.706-7.505-6.706-12.674,0-7.808,3.932-12.108,11.071-12.108s11.07,4.3,11.07,12.108c0,5.169-3.647,9.745-6.706,12.674A6.294,6.294,0,0,1,142.075,89.463Zm0-25.9c-4.734,0-10.377,1.981-10.377,11.415,0,4.923,3.531,9.337,6.492,12.173a5.477,5.477,0,0,0,7.769,0c2.962-2.835,6.492-7.249,6.492-12.172C152.452,65.539,146.809,63.559,142.076,63.559Z" transform="translate(-88.963 -36.511)" fill="#3a312a"/>
        <path id="Trazado_1280106" data-name="Trazado 1280106" d="M150.552,130.337a4.272,4.272,0,0,0,4.5-1.286h.005a4.273,4.273,0,0,0,4.5,1.286,4.139,4.139,0,0,0,2.6-4.379c-.279-2.887-3.08-5.76-5.216-7.373l-.031-.022a3.2,3.2,0,0,0-3.707,0l-.032.023c-2.136,1.613-4.937,4.486-5.216,7.373A4.139,4.139,0,0,0,150.552,130.337Z" transform="translate(-101.978 -78.876)" fill="#87796f" fill-rule="evenodd"/>
        <path id="Trazado_1280107" data-name="Trazado 1280107" d="M150.629,129.717a4.17,4.17,0,0,1-1.347-.209,4.451,4.451,0,0,1-2.829-4.74c.345-3.578,4.184-6.734,5.352-7.616l.04-.029a3.541,3.541,0,0,1,4.109,0l.037.027c1.169.883,5.008,4.04,5.353,7.617a4.451,4.451,0,0,1-2.829,4.74,4.711,4.711,0,0,1-4.617-1.072A4.58,4.58,0,0,1,150.629,129.717Zm3.27-12.558a2.844,2.844,0,0,0-1.652.528l-.024.017c-2.29,1.729-4.827,4.511-5.08,7.13a3.81,3.81,0,0,0,2.364,4.018h0a3.958,3.958,0,0,0,4.106-1.159.365.365,0,0,1,.571,0,3.959,3.959,0,0,0,4.106,1.159,3.809,3.809,0,0,0,2.364-4.018c-.253-2.619-2.79-5.4-5.08-7.13l-.022-.015A2.844,2.844,0,0,0,153.9,117.159Z" transform="translate(-100.822 -77.719)" fill="#3a312a"/>
        <path id="Trazado_1280108" data-name="Trazado 1280108" d="M162.005,96.874a1.108,1.108,0,1,1-1.108-1.108A1.108,1.108,0,0,1,162.005,96.874Z" transform="translate(-111.093 -61.805)" fill="#3a312a"/>
        <path id="Trazado_1280109" data-name="Trazado 1280109" d="M148.88,111.846c0,.893-.969,1.617-2.164,1.617s-2.164-.724-2.164-1.617.969-1.617,2.164-1.617S148.88,110.953,148.88,111.846Z" transform="translate(-99.378 -72.924)" fill="#f59689"/>
        <path id="Trazado_1280110" data-name="Trazado 1280110" d="M188.4,97.242a1.108,1.108,0,1,0,1.108-1.108A1.108,1.108,0,0,0,188.4,97.242Z" transform="translate(-133.086 -62.088)" fill="#3a312a"/>
        <path id="Trazado_1280111" data-name="Trazado 1280111" d="M194.5,112.214c0,.893.969,1.617,2.164,1.617s2.164-.724,2.164-1.617-.969-1.617-2.164-1.617S194.5,111.321,194.5,112.214Z" transform="translate(-137.776 -73.207)" fill="#f59689"/>
        <g id="Grupo_1204976" data-name="Grupo 1204976" transform="translate(49.686 45.093)">
          <path id="Trazado_1280112" data-name="Trazado 1280112" d="M171.727,147.271a3.111,3.111,0,0,1-6.16-.027c0-1.021,1.387-1.842,3.088-1.834S171.731,146.251,171.727,147.271Z" transform="translate(-165.22 -145.063)" fill="#695b51"/>
          <path id="Trazado_1280113" data-name="Trazado 1280113" d="M167.494,149.121h-.013a3.506,3.506,0,0,1-2.414-1.06,3,3,0,0,1-1-1.971,1.919,1.919,0,0,1,1.077-1.6,4.994,4.994,0,0,1,4.712.021,1.919,1.919,0,0,1,1.064,1.609A3.616,3.616,0,0,1,167.494,149.121Zm-.015-4.517a3.935,3.935,0,0,0-1.98.483,1.266,1.266,0,0,0-.738,1.006,2.381,2.381,0,0,0,.79,1.472,2.864,2.864,0,0,0,1.932.863h.01a2.944,2.944,0,0,0,2.733-2.31,1.266,1.266,0,0,0-.729-1.012,3.946,3.946,0,0,0-2-.5Z" transform="translate(-164.068 -143.91)" fill="#3a312a"/>
        </g>
        <path id="Trazado_1280114" data-name="Trazado 1280114" d="M78,142.489a13.351,13.351,0,0,0,.436,2.376c.041.16.082.32.126.474a2.821,2.821,0,0,0-1.043,2.117,3.13,3.13,0,0,0,2,2.735,4.835,4.835,0,0,0,1.337.4,5.359,5.359,0,0,0,1.557,0,4.82,4.82,0,0,0,1.337-.4c.046-.022.091-.045.137-.068a21.447,21.447,0,0,0,5.3.521,21.448,21.448,0,0,0,5.3-.521c.045.023.09.046.137.068a4.836,4.836,0,0,0,1.336.4,5.359,5.359,0,0,0,1.557,0,4.82,4.82,0,0,0,1.337-.4,3.13,3.13,0,0,0,2-2.735,2.821,2.821,0,0,0-1.043-2.117c.044-.154.085-.313.126-.473a13.567,13.567,0,0,0,.458-2.582,23.338,23.338,0,0,0,.142-2.569c0-3.753-.859-7-2.109-8.564-2.042-4.2-5.421-6.952-9.247-6.952s-7.205,2.75-9.247,6.952c-1.219,1.528-2.065,4.656-2.1,8.293Z" transform="translate(-47.842 -83.664)" fill="#fce8cb"/>
        <path id="Trazado_1280115" data-name="Trazado 1280115" d="M95.592,149.836a5.825,5.825,0,0,1-.828-.061,5.163,5.163,0,0,1-1.434-.425l-.03-.014a21.729,21.729,0,0,1-5.264.5,21.729,21.729,0,0,1-5.264-.5l-.031.015a5.165,5.165,0,0,1-1.431.425,5.722,5.722,0,0,1-1.658,0,5.158,5.158,0,0,1-1.434-.425,3.482,3.482,0,0,1-2.2-3.049,3.116,3.116,0,0,1,1-2.229c-.025-.092-.048-.184-.072-.277a13.737,13.737,0,0,1-.445-2.427c0-.005,0-.011,0-.016l-.16-3.045c.04-3.611.865-6.852,2.156-8.5,2.176-4.455,5.742-7.113,9.543-7.113s7.366,2.659,9.542,7.113c1.333,1.7,2.16,5.044,2.16,8.75a23.778,23.778,0,0,1-.144,2.606,13.985,13.985,0,0,1-.47,2.64c-.022.086-.045.176-.069.266a3.114,3.114,0,0,1,1,2.229,3.483,3.483,0,0,1-2.2,3.049,5.168,5.168,0,0,1-1.431.425A5.818,5.818,0,0,1,95.592,149.836Zm-2.252-1.215a.347.347,0,0,1,.156.037l.036.018c.03.015.059.03.09.044a4.475,4.475,0,0,0,1.242.368,5.047,5.047,0,0,0,1.458,0,4.465,4.465,0,0,0,1.239-.367,2.8,2.8,0,0,0,1.8-2.42,2.486,2.486,0,0,0-.924-1.856.347.347,0,0,1-.1-.358c.043-.15.083-.306.123-.462A13.347,13.347,0,0,0,98.9,141.1a23.156,23.156,0,0,0,.14-2.538c0-3.524-.8-6.8-2.033-8.348a.357.357,0,0,1-.041-.065c-2.056-4.231-5.4-6.757-8.935-6.757s-6.879,2.526-8.935,6.757a.338.338,0,0,1-.041.065c-1.213,1.52-1.991,4.616-2.029,8.08l.159,3.015a13.032,13.032,0,0,0,.423,2.306c.043.168.083.324.126.474a.347.347,0,0,1-.105.357,2.485,2.485,0,0,0-.924,1.856,2.8,2.8,0,0,0,1.8,2.42,4.472,4.472,0,0,0,1.241.368,5.047,5.047,0,0,0,1.458,0,4.46,4.46,0,0,0,1.239-.367c.032-.015.062-.03.091-.045l.036-.018a.345.345,0,0,1,.243-.026,20.665,20.665,0,0,0,5.217.51,20.666,20.666,0,0,0,5.217-.51A.362.362,0,0,1,93.34,148.621Z" transform="translate(-46.689 -82.508)" fill="#3a312a"/>
        <path id="Trazado_1280116" data-name="Trazado 1280116" d="M97.924,191.306a20.68,20.68,0,0,1-.726,5.624,2.821,2.821,0,0,1,1.043,2.117,3.13,3.13,0,0,1-2,2.735,4.836,4.836,0,0,1-1.337.4,5.359,5.359,0,0,1-1.557,0,4.82,4.82,0,0,1-1.337-.4,3.13,3.13,0,0,1-2-2.735,2.821,2.821,0,0,1,1.043-2.117,20.68,20.68,0,0,1-.726-5.624Z" transform="translate(-57.445 -135.255)" fill="#fce8cb"/>
        <path id="Trazado_1280117" data-name="Trazado 1280117" d="M92.971,201.427a5.82,5.82,0,0,1-.828-.061,5.156,5.156,0,0,1-1.434-.425,3.482,3.482,0,0,1-2.2-3.049,3.116,3.116,0,0,1,1-2.228,21.233,21.233,0,0,1-.682-5.513.347.347,0,0,1,.694,0,20.294,20.294,0,0,0,.713,5.528.347.347,0,0,1-.105.357,2.485,2.485,0,0,0-.924,1.856,2.8,2.8,0,0,0,1.8,2.42,4.472,4.472,0,0,0,1.241.368,5.046,5.046,0,0,0,1.457,0,4.462,4.462,0,0,0,1.24-.367,2.8,2.8,0,0,0,1.8-2.42,2.485,2.485,0,0,0-.924-1.856.347.347,0,0,1-.105-.357,20.29,20.29,0,0,0,.713-5.528.347.347,0,0,1,.694,0,21.23,21.23,0,0,1-.682,5.513,3.115,3.115,0,0,1,1,2.228,3.483,3.483,0,0,1-2.2,3.049,5.167,5.167,0,0,1-1.432.425A5.851,5.851,0,0,1,92.971,201.427Z" transform="translate(-56.292 -134.1)" fill="#3a312a"/>
        <path id="Trazado_1280118" data-name="Trazado 1280118" d="M138.3,191.306a20.68,20.68,0,0,1-.726,5.624,2.821,2.821,0,0,1,1.043,2.117,3.13,3.13,0,0,1-2,2.735,4.836,4.836,0,0,1-1.337.4,5.359,5.359,0,0,1-1.557,0,4.82,4.82,0,0,1-1.337-.4,3.13,3.13,0,0,1-2-2.735,2.821,2.821,0,0,1,1.043-2.117,20.67,20.67,0,0,1-.726-5.624Z" transform="translate(-88.484 -135.255)" fill="#fce8cb"/>
        <path id="Trazado_1280119" data-name="Trazado 1280119" d="M133.346,201.427a5.825,5.825,0,0,1-.828-.061,5.162,5.162,0,0,1-1.434-.425,3.482,3.482,0,0,1-2.2-3.049,3.116,3.116,0,0,1,1-2.228,21.23,21.23,0,0,1-.682-5.513.347.347,0,0,1,.694,0,20.29,20.29,0,0,0,.713,5.528.347.347,0,0,1-.105.357,2.486,2.486,0,0,0-.924,1.856,2.8,2.8,0,0,0,1.8,2.42,4.467,4.467,0,0,0,1.241.368,5.047,5.047,0,0,0,1.458,0,4.465,4.465,0,0,0,1.239-.367,2.8,2.8,0,0,0,1.8-2.42,2.484,2.484,0,0,0-.924-1.856.347.347,0,0,1-.105-.357,20.293,20.293,0,0,0,.713-5.528.347.347,0,0,1,.694,0,21.244,21.244,0,0,1-.682,5.513,3.115,3.115,0,0,1,1,2.228,3.483,3.483,0,0,1-2.2,3.049,5.167,5.167,0,0,1-1.431.425A5.853,5.853,0,0,1,133.346,201.427Z" transform="translate(-87.331 -134.1)" fill="#3a312a"/>
        <path id="Trazado_1280120" data-name="Trazado 1280120" d="M69.761,26.64c.013,4.544-2.013,5.468-4.515,5.475s-4.533-.906-4.546-5.449,4.5-9.791,4.5-9.791S69.748,22.1,69.761,26.64Z" transform="translate(-34.914 -1.155)" fill="#fce8cb"/>
        <path id="Trazado_1280121" data-name="Trazado 1280121" d="M64.066,31.31a4.634,4.634,0,0,1-3.42-1.116c-.966-.935-1.439-2.465-1.445-4.68a13.621,13.621,0,0,1,2.3-6.779A25.647,25.647,0,0,1,63.788,15.5a.346.346,0,0,1,.262-.12h0a.347.347,0,0,1,.262.119,25.633,25.633,0,0,1,2.309,3.226,13.619,13.619,0,0,1,2.334,6.766h0c.006,2.214-.458,3.748-1.419,4.687a4.652,4.652,0,0,1-3.442,1.135Zm-.014-15.041c-.951,1.194-4.168,5.509-4.157,9.244.006,2.017.409,3.385,1.234,4.183a4.027,4.027,0,0,0,2.964.921,4.021,4.021,0,0,0,2.959-.937c.82-.8,1.216-2.173,1.21-4.19h0C68.251,21.754,65.009,17.457,64.052,16.268Z" transform="translate(-33.761 -0.002)" fill="#3a312a"/>
        <path id="Trazado_1280122" data-name="Trazado 1280122" d="M74.7,41.6c.007,2.412-1.069,2.9-2.4,2.907s-2.407-.481-2.414-2.893,2.391-5.2,2.391-5.2S74.694,39.188,74.7,41.6Z" transform="translate(-41.979 -16.178)" fill="#87796f"/>
        <path id="Trazado_1280123" data-name="Trazado 1280123" d="M71.135,43.7a2.61,2.61,0,0,1-1.928-.638,3.492,3.492,0,0,1-.817-2.6c-.007-2.513,2.374-5.308,2.475-5.426a.346.346,0,0,1,.262-.12h0a.347.347,0,0,1,.262.119c.1.117,2.5,2.9,2.5,5.412a3.49,3.49,0,0,1-.8,2.606,2.621,2.621,0,0,1-1.941.649Zm-.006-7.886c-.605.787-2.051,2.854-2.046,4.645a2.919,2.919,0,0,0,.606,2.1,2.6,2.6,0,0,0,2.918-.008,2.916,2.916,0,0,0,.594-2.108C73.2,38.658,71.739,36.6,71.129,35.816Z" transform="translate(-40.826 -15.024)" fill="#3a312a"/>
        <path id="Trazado_1280124" data-name="Trazado 1280124" d="M157.482,21.674a11.7,11.7,0,0,0-1.37,4.993c.013,4.544,2.044,5.456,4.546,5.449s4.528-.931,4.515-5.475-4.558-9.765-4.558-9.765-.593.69-1.348,1.784Z" transform="translate(-108.265 -1.155)" fill="#fce8cb"/>
        <path id="Trazado_1280125" data-name="Trazado 1280125" d="M159.479,31.307c-3.354,0-4.856-1.788-4.867-5.8a11.872,11.872,0,0,1,1.406-5.147.347.347,0,0,1,.622.306,11.2,11.2,0,0,0-1.334,4.839c.013,4.474,2.006,5.1,4.166,5.1h.032a4.021,4.021,0,0,0,2.959-.937c.82-.8,1.216-2.173,1.21-4.19-.01-3.735-3.252-8.033-4.209-9.221-.241.3-.626.8-1.064,1.435a.347.347,0,0,1-.571-.394c.756-1.1,1.345-1.784,1.37-1.813a.348.348,0,0,1,.262-.121h0a.347.347,0,0,1,.262.119,25.635,25.635,0,0,1,2.309,3.226,13.62,13.62,0,0,1,2.334,6.766c.006,2.214-.458,3.748-1.419,4.687a4.652,4.652,0,0,1-3.442,1.135Z" transform="translate(-107.112 0)" fill="#3a312a"/>
        <path id="Trazado_1280126" data-name="Trazado 1280126" d="M170.112,41.6c.007,2.412-1.069,2.9-2.4,2.907s-2.407-.481-2.414-2.893,2.391-5.2,2.391-5.2S170.105,39.188,170.112,41.6Z" transform="translate(-115.329 -16.178)" fill="#87796f"/>
        <path id="Trazado_1280127" data-name="Trazado 1280127" d="M166.547,43.7a2.61,2.61,0,0,1-1.929-.638,3.492,3.492,0,0,1-.817-2.6c-.007-2.513,2.373-5.308,2.475-5.426a.346.346,0,0,1,.262-.12h0a.347.347,0,0,1,.262.119c.1.117,2.5,2.9,2.505,5.412a3.49,3.49,0,0,1-.8,2.606,2.621,2.621,0,0,1-1.941.649Zm-.006-7.886c-.605.787-2.051,2.854-2.046,4.645a2.919,2.919,0,0,0,.605,2.1,2.017,2.017,0,0,0,1.46.443,1.988,1.988,0,0,0,1.458-.451,2.916,2.916,0,0,0,.594-2.108C168.608,38.655,167.151,36.6,166.541,35.815Z" transform="translate(-114.177 -15.024)" fill="#3a312a"/>
        <path id="Trazado_1280128" data-name="Trazado 1280128" d="M100.188,54.521c0,5.622-3.99,10.63-7.361,13.858a6.478,6.478,0,0,1-9.2,0c-3.371-3.228-7.361-8.235-7.361-13.858,0-9.735,5.356-13.121,11.962-13.121S100.188,44.785,100.188,54.521Z" transform="translate(-46.878 -20.009)" fill="#fce8cb"/>
        <path id="Trazado_1280129" data-name="Trazado 1280129" d="M87.071,69.489a6.979,6.979,0,0,1-4.841-2.014c-3.407-3.262-7.468-8.357-7.468-14.108,0-4.658,1.215-8.178,3.611-10.462,2.092-1.994,5.019-3.005,8.7-3.005s6.606,1.011,8.7,3.005c2.4,2.284,3.611,5.8,3.611,10.462,0,5.751-4.061,10.847-7.468,14.108A6.979,6.979,0,0,1,87.071,69.489Zm0-28.9c-5.3,0-11.616,2.216-11.616,12.774,0,5.506,3.945,10.439,7.254,13.607a6.148,6.148,0,0,0,8.723,0c3.31-3.168,7.254-8.1,7.254-13.607C98.687,42.809,92.37,40.593,87.071,40.593Z" transform="translate(-45.724 -18.855)" fill="#3a312a"/>
        <path id="Trazado_1280130" data-name="Trazado 1280130" d="M96.395,114.993a4.767,4.767,0,0,0,5.022-1.435h.006a4.766,4.766,0,0,0,5.022,1.435,4.617,4.617,0,0,0,2.9-4.885c-.311-3.221-3.436-6.426-5.819-8.225l-.034-.025a3.57,3.57,0,0,0-4.135,0l-.035.026c-2.383,1.8-5.508,5-5.819,8.225A4.617,4.617,0,0,0,96.395,114.993Z" transform="translate(-60.11 -65.981)" fill="#87796f" fill-rule="evenodd"/>
        <path id="Trazado_1280131" data-name="Trazado 1280131" d="M96.614,114.392a4.613,4.613,0,0,1-1.491-.232h0a4.927,4.927,0,0,1-3.129-5.246c.384-3.975,4.655-7.487,5.955-8.469l.043-.031a3.909,3.909,0,0,1,4.538,0l.034.025c1.308.988,5.579,4.5,5.963,8.474a4.926,4.926,0,0,1-3.129,5.246,5.2,5.2,0,0,1-5.137-1.216A5.049,5.049,0,0,1,96.614,114.392Zm-1.265-.888a4.462,4.462,0,0,0,4.626-1.307.366.366,0,0,1,.572,0,4.462,4.462,0,0,0,4.626,1.307,4.29,4.29,0,0,0,2.664-4.523c-.283-2.935-3.121-6.048-5.683-7.982l-.024-.018a3.217,3.217,0,0,0-3.735,0l-.027.02c-2.561,1.934-5.4,5.046-5.683,7.982a4.289,4.289,0,0,0,2.664,4.523Z" transform="translate(-58.952 -64.821)" fill="#3a312a"/>
        <path id="Trazado_1280132" data-name="Trazado 1280132" d="M109.172,77.663a1.235,1.235,0,1,1-1.235-1.235A1.235,1.235,0,0,1,109.172,77.663Z" transform="translate(-70.279 -46.938)" fill="#3a312a"/>
        <path id="Trazado_1280133" data-name="Trazado 1280133" d="M94.528,94.365c0,1-1.081,1.8-2.414,1.8s-2.414-.808-2.414-1.8,1.081-1.8,2.414-1.8S94.528,93.369,94.528,94.365Z" transform="translate(-57.208 -59.342)" fill="#f59689"/>
        <path id="Trazado_1280134" data-name="Trazado 1280134" d="M138.613,78.074a1.235,1.235,0,1,0,1.235-1.235A1.235,1.235,0,0,0,138.613,78.074Z" transform="translate(-94.812 -47.254)" fill="#3a312a"/>
        <path id="Trazado_1280135" data-name="Trazado 1280135" d="M145.418,94.776c0,1,1.081,1.8,2.414,1.8s2.414-.808,2.414-1.8-1.081-1.8-2.414-1.8S145.418,93.78,145.418,94.776Z" transform="translate(-100.044 -59.658)" fill="#f59689"/>
        <g id="Grupo_1204977" data-name="Grupo 1204977" transform="translate(37.564 41.965)">
          <path id="Trazado_1280136" data-name="Trazado 1280136" d="M120.012,133.961a3.471,3.471,0,0,1-6.871-.03c.005-1.139,1.547-2.055,3.445-2.046S120.017,132.823,120.012,133.961Z" transform="translate(-112.794 -131.538)" fill="#695b51"/>
          <path id="Trazado_1280137" data-name="Trazado 1280137" d="M115.422,136.117h-.015a3.988,3.988,0,0,1-3.768-3.341c.006-1.344,1.658-2.391,3.765-2.391h.028c2.121.009,3.778,1.074,3.772,2.425a3.308,3.308,0,0,1-1.121,2.16A3.874,3.874,0,0,1,115.422,136.117Zm-.016-5.039c-1.664,0-3.068.776-3.073,1.7a3.324,3.324,0,0,0,3.077,2.644h.012a3.24,3.24,0,0,0,2.181-.955,2.7,2.7,0,0,0,.908-1.662c0-.929-1.407-1.72-3.081-1.728Z" transform="translate(-111.64 -130.385)" fill="#3a312a"/>
        </g>
        <path id="Trazado_1280138" data-name="Trazado 1280138" d="M37.684,202.73s.788,2.927,3.057,3.063c0,0-3.029,1.046-3.08,3.284,0,0-.6-3.138-2.988-3.251A3.582,3.582,0,0,0,37.684,202.73Z" transform="translate(-14.905 -144.037)" fill="#d7e057"/>
        <path id="Trazado_1280139" data-name="Trazado 1280139" d="M36.507,208.27a.347.347,0,0,1-.341-.282c-.005-.029-.577-2.871-2.664-2.969a.347.347,0,0,1-.036-.689,3.208,3.208,0,0,0,2.718-2.782.347.347,0,0,1,.68-.061c.007.027.754,2.688,2.743,2.807a.347.347,0,0,1,.093.674c-.028.01-2.8,1-2.847,2.964a.347.347,0,0,1-.318.338Zm-1.79-3.637a4.041,4.041,0,0,1,1.754,2.053,4.932,4.932,0,0,1,2.069-1.949,4.234,4.234,0,0,1-1.927-2.017A3.72,3.72,0,0,1,34.717,204.633Z" transform="translate(-13.751 -142.885)" fill="#3a312a"/>
        <path id="Trazado_1280140" data-name="Trazado 1280140" d="M18.917,219.71s.557,2.07,2.162,2.166c0,0-2.142.74-2.179,2.323,0,0-.422-2.22-2.114-2.3A2.534,2.534,0,0,0,18.917,219.71Z" transform="translate(-1.154 -157.091)" fill="#d7e057"/>
        <path id="Trazado_1280141" data-name="Trazado 1280141" d="M17.747,223.392a.347.347,0,0,1-.341-.282c0-.019-.394-1.952-1.789-2.018a.347.347,0,0,1-.036-.689,2.172,2.172,0,0,0,1.836-1.876.347.347,0,0,1,.68-.061h0c0,.018.515,1.831,1.848,1.911a.347.347,0,0,1,.092.674c-.018.006-1.915.683-1.945,2a.347.347,0,0,1-.318.338ZM16.7,220.727a2.964,2.964,0,0,1,1.028,1.221,3.626,3.626,0,0,1,1.24-1.15,3.094,3.094,0,0,1-1.142-1.208A2.765,2.765,0,0,1,16.7,220.727Z" transform="translate(0 -155.938)" fill="#3a312a"/>
        <path id="Trazado_1280142" data-name="Trazado 1280142" d="M18.917,193.053s.557,2.07,2.162,2.166c0,0-2.142.74-2.179,2.323,0,0-.422-2.22-2.114-2.3A2.535,2.535,0,0,0,18.917,193.053Z" transform="translate(-1.154 -136.598)" fill="#d7e057"/>
        <path id="Trazado_1280143" data-name="Trazado 1280143" d="M17.747,196.735a.347.347,0,0,1-.341-.282c0-.019-.394-1.952-1.789-2.018a.347.347,0,0,1-.036-.689,2.172,2.172,0,0,0,1.836-1.876.347.347,0,0,1,.68-.061h0c0,.018.515,1.831,1.848,1.911a.347.347,0,0,1,.092.674c-.019.006-1.915.683-1.945,2a.347.347,0,0,1-.318.338ZM16.7,194.07a2.963,2.963,0,0,1,1.028,1.221,3.627,3.627,0,0,1,1.24-1.15,3.093,3.093,0,0,1-1.142-1.208A2.766,2.766,0,0,1,16.7,194.07Z" transform="translate(0 -135.444)" fill="#3a312a"/>
        <g id="Grupo_1204978" data-name="Grupo 1204978" transform="translate(34.886 63.842)">
          <path id="Trazado_1280144" data-name="Trazado 1280144" d="M100.4,228.283a.347.347,0,0,1-.347-.347v-2.589a.347.347,0,1,1,.694,0v2.589A.347.347,0,0,1,100.4,228.283Z" transform="translate(-100.054 -225)" fill="#3a312a"/>
        </g>
        <g id="Grupo_1204979" data-name="Grupo 1204979" transform="translate(37.779 63.842)">
          <path id="Trazado_1280145" data-name="Trazado 1280145" d="M112.917,228.283a.347.347,0,0,1-.347-.347v-2.589a.347.347,0,1,1,.694,0v2.589A.347.347,0,0,1,112.917,228.283Z" transform="translate(-112.57 -225)" fill="#3a312a"/>
        </g>
        <g id="Grupo_1204980" data-name="Grupo 1204980" transform="translate(44.221 63.842)">
          <path id="Trazado_1280146" data-name="Trazado 1280146" d="M140.777,228.283a.347.347,0,0,1-.347-.347v-2.589a.347.347,0,1,1,.694,0v2.589A.347.347,0,0,1,140.777,228.283Z" transform="translate(-140.43 -225)" fill="#3a312a"/>
        </g>
        <g id="Grupo_1204981" data-name="Grupo 1204981" transform="translate(47.115 63.842)">
          <path id="Trazado_1280147" data-name="Trazado 1280147" d="M153.293,228.283a.347.347,0,0,1-.347-.347v-2.589a.347.347,0,1,1,.694,0v2.589A.347.347,0,0,1,153.293,228.283Z" transform="translate(-152.946 -225)" fill="#3a312a"/>
        </g>
      </g>
    </g>
  </g>
</svg>
