<svg xmlns="http://www.w3.org/2000/svg" width="84.208" height="84.207" viewBox="0 0 84.208 84.207">
  <g id="Grupo_1204800" data-name="Grupo 1204800" transform="translate(-872.726 -278.777)">
    <g id="Grupo_1188789" data-name="Grupo 1188789" transform="translate(583.726 -5835.222)">
      <rect id="Rectángulo_400898" data-name="Rectángulo 400898" width="75.49" height="75.489" rx="37.744" transform="translate(293.36 6118.358)" fill="#ffd907"/>
      <rect id="Rectángulo_400907" data-name="Rectángulo 400907" width="75.49" height="75.489" rx="37.744" transform="translate(293.36 6118.358)" fill="none"/>
      <g id="Grupo_1098742" data-name="Grupo 1098742" transform="translate(289 6114)">
        <g id="Rectángulo_400898-2" data-name="Rectángulo 400898" transform="translate(0)" fill="none" stroke="#fff" stroke-width="1" opacity="0.859">
          <rect width="84.208" height="84.207" rx="42.104" stroke="none"/>
          <rect x="0.5" y="0.5" width="83.208" height="83.207" rx="41.604" fill="none"/>
        </g>
        <g id="Rectángulo_400907-2" data-name="Rectángulo 400907" transform="translate(0)" fill="none" stroke="#0f1f33" stroke-linecap="round" stroke-width="1">
          <rect width="84.208" height="84.207" rx="42.104" stroke="none"/>
          <rect x="0.5" y="0.5" width="83.208" height="83.207" rx="41.604" fill="none"/>
        </g>
      </g>
      <g id="snack_4664906" transform="translate(274.864 6112.681)">
        <path id="Trazado_1280212" data-name="Trazado 1280212" d="M326.667,117.76a9.808,9.808,0,0,1-2.8,8.176c-2.478,1.628-5.378,1.338-6.113-.794a14.378,14.378,0,0,0,1.776-2.037,1.379,1.379,0,0,0,.655-.992l.112-.188a11.949,11.949,0,0,0,1.416-3.559,1.286,1.286,0,0,0,.189-1.3c.483-6.129-4.985-10.23-4.985-10.23S325.174,108.172,326.667,117.76Z" transform="translate(-253.421 -78.943)" fill="#efe387"/>
        <path id="Trazado_1280213" data-name="Trazado 1280213" d="M273.007,269.588a20.172,20.172,0,0,1-7.115,4.261l8.364.482a17.073,17.073,0,0,0,4.119-3.3,6.353,6.353,0,0,1-5.369-1.446Z" transform="translate(-207.926 -224.041)" fill="#ad9d4d"/>
        <path id="Trazado_1280214" data-name="Trazado 1280214" d="M98.094,95.744a.6.6,0,0,0-.828-.16l-1.423.963a4.681,4.681,0,0,1-3.619,1.037,3.708,3.708,0,0,1-2.193-1.555A.6.6,0,1,0,89,96.636a4.744,4.744,0,0,0,.857,1.009,2.278,2.278,0,0,1-1.139-.239.6.6,0,1,0-.572,1.047,3.588,3.588,0,0,0,1.586.39,2.659,2.659,0,0,0,1.382-.373,4.324,4.324,0,0,0,.837.275,4.391,4.391,0,0,0,.938.1,6.4,6.4,0,0,0,3.624-1.317l1.416-.958A.6.6,0,0,0,98.094,95.744Z" transform="translate(-49.187 -68.82)" fill="#de5050"/>
        <path id="Trazado_1280215" data-name="Trazado 1280215" d="M156.983,26.511a3.831,3.831,0,0,0-1.821,3.528,3.036,3.036,0,0,0,3.036,2.838h10.12a11.648,11.648,0,0,1,8.771,3.919,13.153,13.153,0,0,1,3.076,6.612,11.92,11.92,0,0,1-1.462,8.557c2.115,1.186,5.142.5,6.887-2.1a16.293,16.293,0,0,0,.154-13.761c-4.794-11.081-20.009-12.024-20.009-12.024s-3.9-1-5.864.75a6.257,6.257,0,0,1-1.431.98Z" transform="translate(-109.2 -4.905)" fill="#94b281"/>
        <path id="Trazado_1280216" data-name="Trazado 1280216" d="M216,46.45l.951-.253a.947.947,0,0,1,1.1,1.332,1.43,1.43,0,0,1-1,.705,2.119,2.119,0,0,1-1.1,0A.931.931,0,0,1,216,46.45Z" transform="translate(-162.828 -24.852)" fill="#fff"/>
        <path id="Trazado_1280217" data-name="Trazado 1280217" d="M346.174,266.23A9.957,9.957,0,0,1,343,269.462h6.365a18.572,18.572,0,0,0,3.7-5.336A14.311,14.311,0,0,1,346.174,266.23Z" transform="translate(-276.67 -219.172)" fill="#637f4a"/>
        <path id="Trazado_1280218" data-name="Trazado 1280218" d="M69.506,195.222c-.7,2.9-1.07,7.958,3.272,11.771h9.9s-8.749-2.268-10.17-11.623a1.532,1.532,0,0,0-3-.148Z" transform="translate(-32.46 -156.703)" fill="#637f4a"/>
        <path id="Trazado_1280219" data-name="Trazado 1280219" d="M44.146,377.47s-4.715-.282-5.815,4.118c-.6,2.384.886,3.894,2.37,4.778a8.454,8.454,0,0,0,3.674,1.143,231.567,231.567,0,0,0,27.183.453c5.155-1.777,4.889-8.73-.835-10.492Z" transform="translate(-4.929 -320.218)" fill="#94b281"/>
        <path id="Trazado_1280220" data-name="Trazado 1280220" d="M74.309,303.9H98.686c3.944,1.022,5.119,4.548,3.243,8.4-7.285.432-19.779.877-28.377-.421a4.959,4.959,0,0,1-2.358-4.526A3.721,3.721,0,0,1,74.309,303.9Z" transform="translate(-34.334 -254.631)" fill="#94b281"/>
        <path id="Trazado_1280221" data-name="Trazado 1280221" d="M111.578,378.232a237.536,237.536,0,0,0,30.5-.164.308.308,0,0,1,.114.6,59.155,59.155,0,0,1-30.7.17.308.308,0,0,1,.09-.607Z" transform="translate(-70.061 -320.753)" fill="#637f4a"/>
        <path id="Trazado_1280222" data-name="Trazado 1280222" d="M334.008,311.854c.542-.14,2.843-.933,2.621-4.264a3.658,3.658,0,0,0-3.677-3.694h-8.187A5.5,5.5,0,0,1,327.5,308.5a5.925,5.925,0,0,1-1.67,4.476,2.672,2.672,0,0,1-.384.309s3.64,1.634,3.64,4.788a6.7,6.7,0,0,1-2.043,4.3c2.513-.12,5.056-.3,7.569-.549a5.717,5.717,0,0,0,5.019-5.981C339.559,310.874,334.806,311.683,334.008,311.854Z" transform="translate(-260.413 -254.628)" fill="#637f4a"/>
        <g id="Grupo_1205007" data-name="Grupo 1205007" transform="translate(32.668 18.288)">
          <path id="Trazado_1280223" data-name="Trazado 1280223" d="M211.9,40.724l-.951.253a1.526,1.526,0,0,0-1.139,1.473,1.488,1.488,0,0,0,1.075,1.464,2.4,2.4,0,0,0,.678.094,3.145,3.145,0,0,0,.727-.09,2.02,2.02,0,0,0,1.392-1.007,1.492,1.492,0,0,0-.159-1.647A1.561,1.561,0,0,0,211.9,40.724Zm.726,1.63a.865.865,0,0,1-.614.4,1.551,1.551,0,0,1-.793.011.292.292,0,0,1-.217-.3.336.336,0,0,1,.253-.335l.951-.253a.364.364,0,0,1,.381.13A.305.305,0,0,1,212.627,42.354Z" transform="translate(-190.595 -38.245)" fill="#31313f"/>
          <path id="Trazado_1280224" data-name="Trazado 1280224" d="M78.182,57.392a4.706,4.706,0,0,0-2.393-.88,4.771,4.771,0,0,0,1.022-3.59,4.255,4.255,0,0,0-2.3-3.783,17.551,17.551,0,0,0,2.58-18.183A18.45,18.45,0,0,0,68.941,22.3a.6.6,0,0,0-.129-.072,27.341,27.341,0,0,0-3.861-1.761,32.8,32.8,0,0,0-8.32-1.888c-.526-.126-4.289-.946-6.354.9a5.616,5.616,0,0,1-1.293.888l-1.46.706-.026.013a4.408,4.408,0,0,0-2.131,4.087,3.6,3.6,0,0,0,1.3,2.552l-.008,0a4.681,4.681,0,0,1-3.619,1.037,3.707,3.707,0,0,1-2.193-1.555.6.6,0,1,0-1.027.607,4.744,4.744,0,0,0,.857,1.009,2.278,2.278,0,0,1-1.139-.239.6.6,0,1,0-.572,1.047,3.588,3.588,0,0,0,1.586.39,2.659,2.659,0,0,0,1.382-.373,4.325,4.325,0,0,0,.837.275,4.385,4.385,0,0,0,.938.1A6.415,6.415,0,0,0,47.339,28.7a1.312,1.312,0,0,1,.834-.232,3.656,3.656,0,0,0,.827.1h10.12a11.192,11.192,0,0,1,5.962,1.7c.01.014.018.029.029.043,2.277,2.73,4.343,7.091,1.255,12.365a14.071,14.071,0,0,1-6.761,5.9.6.6,0,0,0-.148.091H47.877A13.414,13.414,0,0,1,40.64,38.578a2.129,2.129,0,0,0-4.174-.2c-.588,2.425-1.075,6.967,1.977,10.808a4.217,4.217,0,0,0-2.177,3.494,5.278,5.278,0,0,0,1.449,4.1,7.369,7.369,0,0,0-1.2.322,5.677,5.677,0,0,0-3.7,4.125c-.55,2.2.365,4.078,2.644,5.434A9.1,9.1,0,0,0,39.4,67.886c2.713.211,9.572.67,17.829.67,5.342,0,11.269-.192,17.035-.768a7.094,7.094,0,0,0,2.8-1.049A6.084,6.084,0,0,0,79.814,61.2a4.6,4.6,0,0,0-1.632-3.812ZM49.315,27.375a4.828,4.828,0,0,1-.784-.061c-.045-.008-.089-.011-.134-.017a2.431,2.431,0,0,1-1.838-2.2,3.219,3.219,0,0,1,1.5-2.962l1.443-.7a6.784,6.784,0,0,0,1.568-1.071c1.7-1.517,5.283-.627,5.319-.618a.588.588,0,0,0,.112.018,31.853,31.853,0,0,1,8.037,1.822,26.329,26.329,0,0,1,3.517,1.588,1.117,1.117,0,0,1-.153.875,1.306,1.306,0,0,1-.994.272.6.6,0,0,0-.146,1.184,2.5,2.5,0,0,0,.3.016,2.99,2.99,0,0,0,.575-.055,1.138,1.138,0,0,1-.081.776,1.264,1.264,0,0,1-.812.516.6.6,0,1,0,.179,1.18,2.567,2.567,0,0,0,1.336-.67,2.847,2.847,0,0,0,.763.11A1.869,1.869,0,0,0,70.61,26.6a.6.6,0,1,0-.969-.7.8.8,0,0,1-.813.274,2.832,2.832,0,0,0-.1-1.267l.054-.054a1.861,1.861,0,0,0,.457-.986A16.937,16.937,0,0,1,76,31.431a16.474,16.474,0,0,1-2.693,17.307,4.015,4.015,0,0,0-.707-.066H69.063a11.4,11.4,0,0,0,1.129-1.612.6.6,0,0,0,.095-.169,11.841,11.841,0,0,0,1.445-4.873.591.591,0,0,0,.012-.151,14.84,14.84,0,0,0-.189-3.464A13.767,13.767,0,0,0,68.339,31.5a12.233,12.233,0,0,0-9.22-4.122ZM68.377,33.5a12.814,12.814,0,0,1,2,5.1,14.118,14.118,0,0,1,.2,2.819,2.135,2.135,0,0,1-2.038-.633A10.592,10.592,0,0,0,68.377,33.5ZM67.4,43.283a14.028,14.028,0,0,0,.678-1.308,3.231,3.231,0,0,0,2.017.688,3.748,3.748,0,0,0,.386-.021,10.335,10.335,0,0,1-1.15,3.552,3.294,3.294,0,0,1-3.339-.888A15.471,15.471,0,0,0,67.4,43.283ZM65.187,46.2a4.686,4.686,0,0,0,3.185,1.337l.08,0a10.39,10.39,0,0,1-.881,1,.587.587,0,0,0-.1.134H62.047A15.126,15.126,0,0,0,65.187,46.2ZM37.625,38.66a.909.909,0,0,1,.62-.664.932.932,0,0,1,.9.185.951.951,0,0,1,.313.576A14.469,14.469,0,0,0,42.7,46.038a15.154,15.154,0,0,0,2.9,2.634H39.975a.588.588,0,0,0-.081.006c-.088.012-.183.03-.282.052a11.055,11.055,0,0,1-1.987-10.07Zm-.171,14.113a3.109,3.109,0,0,1,2.568-2.907H72.552A3.044,3.044,0,0,1,75.621,53,3.49,3.49,0,0,1,74.6,56.033a2.968,2.968,0,0,1-1.136.612l-.05.011H52.036a2.512,2.512,0,0,0,.05-.282c0-.037.006-.073.009-.11a2.13,2.13,0,0,0,1.737-1.914.6.6,0,0,0-1.193-.04c-.015.452-.438.668-.736.765a3.886,3.886,0,0,0-.592-.991c.013-.054.026-.11.034-.167a2.355,2.355,0,0,0-.9-2.048.6.6,0,1,0-.821.866c.276.262.595.649.544,1-.054.381-.505.691-.675.779a.6.6,0,1,0,.537,1.065,2.934,2.934,0,0,0,.592-.412,1.7,1.7,0,0,1,.281,1.061,1.433,1.433,0,0,1-.116.424H39.39a4.329,4.329,0,0,1-1.935-3.883ZM74.14,66.6c-1.95.2-3.919.345-5.878.459a2.755,2.755,0,0,0,.388-1.186c0-.039,0-.078.006-.118a2.155,2.155,0,0,0,1.7-1.993.6.6,0,0,0-1.193,0c0,.468-.433.7-.735.812a3.932,3.932,0,0,0-.638-.994c.012-.057.023-.115.03-.174a2.381,2.381,0,0,0-.982-2.039.6.6,0,1,0-.792.892c.291.258.629.642.589,1.008a1.336,1.336,0,0,1-.663.819.6.6,0,1,0,.572,1.047,2.966,2.966,0,0,0,.592-.444,1.737,1.737,0,0,1,.328,1.08,1.994,1.994,0,0,1-.732,1.273.594.594,0,0,0-.1.1A230.658,230.658,0,0,1,39.493,66.7a7.9,7.9,0,0,1-3.415-1.061c-1.806-1.076-2.511-2.461-2.1-4.121a4.971,4.971,0,0,1,5.034-3.671c.068,0,.118,0,.147,0a103.565,103.565,0,0,0,14.6.855c10.109,0,19.632-.842,19.775-.855l.014,0,.015,0,.02,0s.035-.007.089-.02c.325-.073,2.452-.5,3.789.523a3.484,3.484,0,0,1,1.16,2.879A5.1,5.1,0,0,1,74.14,66.6Z" transform="translate(-32.668 -18.288)" fill="#31313f"/>
          <path id="Trazado_1280225" data-name="Trazado 1280225" d="M106.32,398.036a3.279,3.279,0,0,0-.844-1.386.6.6,0,1,0-.82.867,1.732,1.732,0,0,1,.547,1.124c-.006.092-.026.371-.482.694a.6.6,0,0,0,.69.973,2.358,2.358,0,0,0,.826-.962,1.082,1.082,0,0,1,.456.557c.111.406-.219.9-.514,1.244a.6.6,0,1,0,.9.779,2.543,2.543,0,0,0,.759-2.345A2.58,2.58,0,0,0,106.32,398.036Z" transform="translate(-96.681 -355.463)" fill="#31313f"/>
        </g>
      </g>
    </g>
  </g>
</svg>
