<svg xmlns="http://www.w3.org/2000/svg" width="87.435" height="87.434" viewBox="0 0 87.435 87.434">
  <g id="Grupo_1188942" data-name="Grupo 1188942" transform="translate(-871.113 -277.164)">
    <g id="Grupo_1188789" data-name="Grupo 1188789" transform="translate(582.113 -5836.835)">
      <rect id="Rectángulo_400898" data-name="Rectángulo 400898" width="72.382" height="72.381" rx="36.191" transform="translate(296.527 6121.525)" fill="#26dbd2"/>
      <rect id="Rectángulo_400907" data-name="Rectángulo 400907" width="78.382" height="78.381" rx="39.191" transform="translate(293.527 6118.525)" fill="none"/>
      <g id="Grupo_1098742" data-name="Grupo 1098742" transform="translate(289 6114)">
        <g id="Rectángulo_400898-2" data-name="Rectángulo 400898" transform="translate(0)" fill="none" stroke="#fff" stroke-width="2" opacity="0.859">
          <rect width="87.435" height="87.434" rx="43.717" stroke="none"/>
          <rect x="1" y="1" width="85.435" height="85.434" rx="42.717" fill="none"/>
        </g>
        <g id="Rectángulo_400907-2" data-name="Rectángulo 400907" transform="translate(0)" fill="none" stroke="#0f1f33" stroke-linecap="round" stroke-width="2">
          <rect width="87.435" height="87.434" rx="43.717" stroke="none"/>
          <rect x="1" y="1" width="85.435" height="85.434" rx="42.717" fill="none"/>
        </g>
      </g>
      <g id="Grupo_1188790" data-name="Grupo 1188790" transform="translate(309.762 6132.276)">
        <path id="Trazado_876111" data-name="Trazado 876111" d="M69.37,252.374a18.089,18.089,0,0,1-1.958,4.968l-.68,1.178a.551.551,0,0,1-.43.279,11.63,11.63,0,0,0-.77,2.089L61.451,276.4a.819.819,0,0,0,.792,1.028H99.276a.819.819,0,0,0,.792-1.028l-4.081-15.513a11.628,11.628,0,0,0-.77-2.089.552.552,0,0,1-.43-.279l-.68-1.178a18.086,18.086,0,0,1-1.958-4.968H69.37Z" transform="translate(-57.804 -227.294)" fill="#c17d4f"/>
        <path id="Trazado_876112" data-name="Trazado 876112" d="M139.83,333.748a2.416,2.416,0,0,1-1.862-1.176l-.022-.037h0q-.077-.133-.157-.266h0a2.354,2.354,0,0,1-1.545,1.306,11.109,11.109,0,0,1-5.75,0,2.355,2.355,0,0,1-1.545-1.306h0c-.053.088-.179.3-.179.3a2.416,2.416,0,0,1-1.862,1.176,1.385,1.385,0,0,1-.575-.069l-1.022,1.77a3.181,3.181,0,0,1-4.749.883q-.225-.18-.445-.371a.168.168,0,0,0-.273.17l.418,1.559a6.978,6.978,0,0,0,4.5,4.825,13.432,13.432,0,0,1-3.412-1.726.141.141,0,0,0-.216.152l.364,1.359a6.212,6.212,0,0,0,4.788,4.489l.031.006a5.779,5.779,0,0,0,5.189-1.593l.923-.923a3.213,3.213,0,0,0,.941-2.272,3.213,3.213,0,0,0,.941,2.272l.923.923a5.778,5.778,0,0,0,5.189,1.593l.031-.006a6.212,6.212,0,0,0,4.788-4.489l.364-1.359a.141.141,0,0,0-.216-.152,13.431,13.431,0,0,1-3.412,1.726,6.978,6.978,0,0,0,4.5-4.825l.418-1.559a.168.168,0,0,0-.273-.17q-.22.191-.445.371a3.181,3.181,0,0,1-4.749-.883l-1.022-1.77a1.386,1.386,0,0,1-.575.069" transform="translate(-110.414 -299.25)" fill="#f9f6f9"/>
        <path id="Trazado_876113" data-name="Trazado 876113" d="M181.995,153.056a19.676,19.676,0,0,0-3.106-4.04l-.935-.935a1.83,1.83,0,0,1-.536-1.294v0a1.83,1.83,0,0,1-.536,1.294l-.935.935a19.673,19.673,0,0,0-3.021,3.894l-.107.182h0a2.416,2.416,0,0,1-1.862,1.176,1.387,1.387,0,0,1-1.105-.4,3.584,3.584,0,0,1-1.05-2.515l-.055-10.461a7.657,7.657,0,0,1,2.243-5.455,8.367,8.367,0,0,1,5.917-2.451h1.022a8.368,8.368,0,0,1,5.917,2.451,7.657,7.657,0,0,1,2.243,5.455l-.055,10.461a3.584,3.584,0,0,1-1.05,2.515,1.386,1.386,0,0,1-1.105.4,2.416,2.416,0,0,1-1.862-1.176Z" transform="translate(-154.462 -119.77)" fill="#f9f6f9"/>
        <path id="Trazado_876114" data-name="Trazado 876114" d="M220.074,179.379h-.235a3.86,3.86,0,0,0-3.86,3.86v.125a1.057,1.057,0,0,0,1.057,1.057.183.183,0,0,1,.158.091l.546.945a1.544,1.544,0,0,0,1.337.772h1.758a1.544,1.544,0,0,0,1.337-.772l.546-.945a.183.183,0,0,1,.158-.091,1.057,1.057,0,0,0,1.057-1.057v-.125A3.86,3.86,0,0,0,220.074,179.379Z" transform="translate(-197.001 -161.553)" fill="#665e66"/>
        <path id="Trazado_876115" data-name="Trazado 876115" d="M42.8,67.926a22.472,22.472,0,0,1-.766-5.816V51.441a3.679,3.679,0,0,1,.419-1.705,3.348,3.348,0,0,0-3.1,2.479,6.07,6.07,0,0,1-1.571,2.721l-2.05,2.05a11.026,11.026,0,0,0-3.229,7.8A4.693,4.693,0,0,0,33.874,68.1l4.67,4.67a1.965,1.965,0,0,1,.508.881l.6,2.232a.563.563,0,0,0,1.031.136l.68-1.178a18.087,18.087,0,0,0,1.958-4.968Z" transform="translate(-31.754 -44.793)" fill="#985e33"/>
        <path id="Trazado_876116" data-name="Trazado 876116" d="M138.621,22.537a6.11,6.11,0,0,0-1.789-4.32L134.615,16a20.26,20.26,0,0,0-4.341,1.87,3.681,3.681,0,0,0-1.841,3.188V31.727a22.468,22.468,0,0,0,.766,5.816l1.478,5.514a3.512,3.512,0,0,0,1.814,2.229l-.051-9.755a7.658,7.658,0,0,1,2.243-5.455,8.364,8.364,0,0,1,2.609-1.769l1.122-4.189A6.111,6.111,0,0,0,138.621,22.537Z" transform="translate(-118.154 -14.41)" fill="#c17d4f"/>
        <path id="Trazado_876117" data-name="Trazado 876117" d="M217.413,274.1l-.935-.935a1.829,1.829,0,0,1-.536-1.272c0-.007,0-.014,0-.022h0l-.012.208a1.829,1.829,0,0,1-.524,1.085l-.935.935a19.676,19.676,0,0,0-2.949,3.774,2.354,2.354,0,0,0,1.545,1.306,11.108,11.108,0,0,0,2.875.379h0a11.112,11.112,0,0,0,2.875-.379,2.355,2.355,0,0,0,1.545-1.306A19.675,19.675,0,0,0,217.413,274.1Z" transform="translate(-192.986 -244.851)" fill="#e2dfe2"/>
        <path id="Trazado_876118" data-name="Trazado 876118" d="M371.133,67.926a22.472,22.472,0,0,0,.766-5.816V51.441a3.679,3.679,0,0,0-.419-1.705,3.348,3.348,0,0,1,3.1,2.479,6.071,6.071,0,0,0,1.571,2.721l2.05,2.05a11.026,11.026,0,0,1,3.229,7.8,4.693,4.693,0,0,1-1.375,3.319l-4.67,4.67a1.965,1.965,0,0,0-.508.881l-.6,2.232a.563.563,0,0,1-1.031.136l-.68-1.178a18.087,18.087,0,0,1-1.958-4.968Z" transform="translate(-336.265 -44.793)" fill="#985e33"/>
        <path id="Trazado_876119" data-name="Trazado 876119" d="M281.045,22.537a6.11,6.11,0,0,1,1.789-4.32L285.052,16a20.26,20.26,0,0,1,4.341,1.87,3.681,3.681,0,0,1,1.841,3.188V31.727a22.468,22.468,0,0,1-.766,5.816l-1.478,5.514a3.512,3.512,0,0,1-1.814,2.229l.051-9.755a7.658,7.658,0,0,0-2.243-5.455,8.365,8.365,0,0,0-2.609-1.769l-1.122-4.189A6.107,6.107,0,0,1,281.045,22.537Z" transform="translate(-255.6 -14.41)" fill="#c17d4f"/>
        <path id="Trazado_876120" data-name="Trazado 876120" d="M334.464,20.723a20.266,20.266,0,0,0-3.374-1.555,3.682,3.682,0,0,1,1.24,2.755V32.592a22.476,22.476,0,0,1-.308,3.71,7.654,7.654,0,0,1,.277,2.082l-.051,9.755a3.512,3.512,0,0,0,1.814-2.229l1.478-5.514a22.47,22.47,0,0,0,.766-5.816V23.911A3.682,3.682,0,0,0,334.464,20.723Z" transform="translate(-300.672 -17.263)" fill="#b16e3d"/>
        <path id="Trazado_876121" data-name="Trazado 876121" d="M203.629,8.345A20.259,20.259,0,0,0,197.84,7.5h-1.413a20.258,20.258,0,0,0-5.789.845l2.217,2.217a6.11,6.11,0,0,1,1.581,5.9l-1.122,4.189a8.366,8.366,0,0,1,3.308-.682h.511v0h.511a8.364,8.364,0,0,1,3.308.682l-1.122-4.189a6.11,6.11,0,0,1,1.581-5.9Z" transform="translate(-174.177 -6.755)" fill="#e2dfe2"/>
        <path id="Trazado_876122" data-name="Trazado 876122" d="M370.61,247.158l.154-.576Z" transform="translate(-336.264 -222.078)" fill="#8b818e"/>
        <g id="Grupo_1188727" data-name="Grupo 1188727" transform="translate(3.62 25.08)">
          <path id="Trazado_876123" data-name="Trazado 876123" d="M128.26,256.184l0,.706a3.584,3.584,0,0,0,1.047,2.513,1.379,1.379,0,0,0,1.1.4,2.416,2.416,0,0,0,1.832-1.108l0-.528a3.512,3.512,0,0,1-1.814-2.229l-.956-3.567a18.086,18.086,0,0,1-1.316,3.75Z" transform="translate(-121.519 -252.376)" fill="#b16e3d"/>
          <path id="Trazado_876124" data-name="Trazado 876124" d="M100.068,276.4l-4.081-15.513a11.629,11.629,0,0,0-.77-2.089.551.551,0,0,1-.43-.279l-.68-1.178a18.088,18.088,0,0,1-1.958-4.968l-.956,3.567a3.53,3.53,0,0,1-.158.461,11.63,11.63,0,0,1,.978,2.5l1.887,7.175a7.466,7.466,0,0,1-7.221,9.365H61.7l-.253.96a.819.819,0,0,0,.792,1.028H99.275A.819.819,0,0,0,100.068,276.4Z" transform="translate(-61.422 -252.375)" fill="#b16e3d"/>
          <path id="Trazado_876125" data-name="Trazado 876125" d="M128.26,256.184l0,.706a3.584,3.584,0,0,0,1.047,2.513,1.379,1.379,0,0,0,1.1.4,2.416,2.416,0,0,0,1.832-1.108l0-.528a3.512,3.512,0,0,1-1.814-2.229l-.956-3.567a18.086,18.086,0,0,1-1.316,3.75Z" transform="translate(-121.519 -252.376)" fill="#b16e3d"/>
        </g>
        <path id="Trazado_876126" data-name="Trazado 876126" d="M384.288,370.862l.029-.106.418-1.559a.168.168,0,0,0-.273-.17q-.22.191-.445.371l-.094.073Z" transform="translate(-348.254 -332.317)" fill="#e2dfe2"/>
        <path id="Trazado_876127" data-name="Trazado 876127" d="M65.413,9.616a5.33,5.33,0,0,1-1.378-2.387,4.072,4.072,0,0,0-3.376-2.994,4.42,4.42,0,0,0-1.5-1.421A21,21,0,0,0,48.661,0H47.247a21.006,21.006,0,0,0-10.5,2.814,4.421,4.421,0,0,0-1.5,1.421,4.072,4.072,0,0,0-3.376,2.994A5.331,5.331,0,0,1,30.5,9.616l-2.05,2.05A11.694,11.694,0,0,0,25,19.989a5.4,5.4,0,0,0,1.593,3.846l4.67,4.67a1.22,1.22,0,0,1,.315.546l.6,2.232a1.307,1.307,0,0,0,.342.591A12.411,12.411,0,0,0,32,33.4L27.924,48.918a1.564,1.564,0,0,0,1.513,1.963H66.471a1.564,1.564,0,0,0,1.513-1.963L63.9,33.4a12.4,12.4,0,0,0-.512-1.531,1.307,1.307,0,0,0,.342-.591l.6-2.232a1.219,1.219,0,0,1,.315-.546l4.67-4.67a5.4,5.4,0,0,0,1.593-3.846,11.694,11.694,0,0,0-3.448-8.323ZM59.886,6.648V17.317a21.735,21.735,0,0,1-.74,5.623l-1.478,5.514a2.767,2.767,0,0,1-.34.772l.009-1.8a.745.745,0,1,0-1.491-.008c-.029,5.523-.01,1.989-.022,4.157a2.822,2.822,0,0,1-.831,1.992.641.641,0,0,1-.511.185,1.674,1.674,0,0,1-1.287-.812,20.446,20.446,0,0,0-3.244-4.224l-.935-.935a1.077,1.077,0,0,1-.318-.767c0-.184,0,.626,0-1.6h.134a2.3,2.3,0,0,0,1.983-1.145l.4-.7a1.805,1.805,0,0,0,1.458-1.769v-.125a4.61,4.61,0,0,0-4.6-4.6h-.235a4.61,4.61,0,0,0-4.6,4.6v.125A1.805,1.805,0,0,0,44.69,23.58l.4.7a2.3,2.3,0,0,0,1.983,1.145h.134v1.6a1.078,1.078,0,0,1-.318.767l-.935.935a20.447,20.447,0,0,0-3.243,4.223,1.675,1.675,0,0,1-1.287.813.639.639,0,0,1-.511-.185,2.822,2.822,0,0,1-.831-1.992c-.007-1.314-.045-8.658-.055-10.461a7.277,7.277,0,0,1,7.414-7.156h1.022a7.277,7.277,0,0,1,7.414,7.156l-.014,2.738a.745.745,0,0,0,1.491.008l.014-2.738a8.456,8.456,0,0,0-2.461-5.985A9.12,9.12,0,0,0,52.4,13.359l-1.03-3.843a5.351,5.351,0,0,1,1.388-5.182l1.9-1.9a19.533,19.533,0,0,1,3.759,1.67A2.944,2.944,0,0,1,59.886,6.648ZM46.576,20.353a.745.745,0,0,0-.745.745v1.024h-.8a.312.312,0,0,1-.312-.312v-.125a3.118,3.118,0,0,1,3.114-3.114h.235a3.118,3.118,0,0,1,3.114,3.114v.125a.312.312,0,0,1-.312.312h-.8V21.1a.745.745,0,0,0-1.491,0v1.049a1.468,1.468,0,0,0,.946,1.37l-.008.014a.8.8,0,0,1-.692.4H47.075a.8.8,0,0,1-.692-.4l-.008-.014a1.468,1.468,0,0,0,.946-1.37V21.1a.745.745,0,0,0-.745-.745Zm1.378,8.476c.093.094-.335-.335.943.944A18.946,18.946,0,0,1,51.5,33.03a1.6,1.6,0,0,1-.868.576,10.409,10.409,0,0,1-5.365,0,1.6,1.6,0,0,1-.868-.576,18.953,18.953,0,0,1,2.607-3.258C48.27,28.513,47.875,28.91,47.954,28.829Zm.707-27.338a19.5,19.5,0,0,1,4.345.49l-1.3,1.3A6.839,6.839,0,0,0,49.931,9.9l.761,2.841a9.172,9.172,0,0,0-2.227-.273H47.443a9.172,9.172,0,0,0-2.227.273L45.977,9.9A6.837,6.837,0,0,0,44.2,3.28l-1.3-1.3a19.5,19.5,0,0,1,4.345-.49ZM32.315,27.45l-4.67-4.67a3.922,3.922,0,0,1-1.156-2.792A10.213,10.213,0,0,1,29.5,12.719l2.05-2.05a6.825,6.825,0,0,0,1.764-3.055A2.592,2.592,0,0,1,34.579,6a4.4,4.4,0,0,0-.048.647v5.091a.745.745,0,1,0,1.491,0V6.648A2.944,2.944,0,0,1,37.49,4.105a19.538,19.538,0,0,1,3.759-1.67l1.9,1.9a5.352,5.352,0,0,1,1.388,5.182l-1.03,3.843A9.123,9.123,0,0,0,41,15.139a8.457,8.457,0,0,0-2.461,5.985l.042,8.1a2.763,2.763,0,0,1-.34-.772L37.288,24.9l-.006-.021-.519-1.939a21.732,21.732,0,0,1-.74-5.623v-2.1a.745.745,0,1,0-1.491,0v2.1a23.224,23.224,0,0,0,.791,6.009l.473,1.766a17.328,17.328,0,0,1-1.835,4.584l-.46.8-.484-1.807A2.712,2.712,0,0,0,32.315,27.45ZM66.542,49.3a.074.074,0,0,1-.072.093H29.437a.074.074,0,0,1-.071-.093l4.081-15.513a10.919,10.919,0,0,1,.59-1.675,1.306,1.306,0,0,0,.534-.51l.68-1.178a18.821,18.821,0,0,0,1.263-2.644L36.8,28.84a4.264,4.264,0,0,0,1.791,2.467v.279a4.3,4.3,0,0,0,1.268,3.039l.054.052-.664,1.149a2.437,2.437,0,0,1-3.637.675c-.141-.113-.284-.232-.423-.353a.913.913,0,0,0-1.481.926l.418,1.559a7.845,7.845,0,0,0,1.1,2.4.89.89,0,0,0-.227.854l.364,1.359A6.923,6.923,0,0,0,43.086,48.3a.745.745,0,0,0-.249-1.47,5.428,5.428,0,0,1-6-3.861,13.864,13.864,0,0,0,2.275,1,.745.745,0,0,0,.473-1.414,6.211,6.211,0,0,1-4.016-4.311l-.014-.054a3.924,3.924,0,0,0,4.99-1.622l.764-1.323a2.163,2.163,0,0,0,.255-.008,3.169,3.169,0,0,0,1.982-.946,3.115,3.115,0,0,0,1.343.752,11.853,11.853,0,0,0,6.136,0,3.115,3.115,0,0,0,1.343-.752,3.17,3.17,0,0,0,1.982.946,2.156,2.156,0,0,0,.254.008l.764,1.323a3.924,3.924,0,0,0,4.99,1.622l-.014.054a6.211,6.211,0,0,1-4.016,4.311.745.745,0,0,0,.473,1.414,13.871,13.871,0,0,0,2.275-1,5.5,5.5,0,0,1-4.21,3.84,5.024,5.024,0,0,1-4.519-1.388l-.923-.923a2.452,2.452,0,0,1-.723-1.745.745.745,0,0,0-1.491,0,2.452,2.452,0,0,1-.723,1.745l-.923.923a.745.745,0,0,0,1.054,1.054l.923-.923a4.007,4.007,0,0,0,.414-.486,4.014,4.014,0,0,0,.414.486l.923.923A6.524,6.524,0,0,0,53.9,48.4a6.973,6.973,0,0,0,6.643-5.155l.364-1.359a.89.89,0,0,0-.227-.854,7.845,7.845,0,0,0,1.1-2.4l.418-1.559a.913.913,0,0,0-1.481-.926c-.139.121-.282.239-.423.353a2.437,2.437,0,0,1-3.638-.675l-.664-1.149.054-.052a4.3,4.3,0,0,0,1.268-3.039v-.279a4.265,4.265,0,0,0,1.791-2.467l.285-1.063a18.82,18.82,0,0,0,1.263,2.644l.68,1.178a1.306,1.306,0,0,0,.534.51,10.925,10.925,0,0,1,.591,1.675ZM68.263,22.78l-4.67,4.67a2.713,2.713,0,0,0-.7,1.215l-.484,1.807-.46-.8a17.329,17.329,0,0,1-1.835-4.584l.473-1.766a23.224,23.224,0,0,0,.791-6.009V6.648A4.4,4.4,0,0,0,61.328,6a2.593,2.593,0,0,1,1.267,1.614,6.823,6.823,0,0,0,1.764,3.055l2.05,2.05a10.213,10.213,0,0,1,3.011,7.269,3.922,3.922,0,0,1-1.156,2.792Z" transform="translate(-24.998 0)"/>
        <path id="Trazado_876128" data-name="Trazado 876128" d="M301.249,63.309a2.251,2.251,0,0,0-2.116,1.491.745.745,0,1,0,1.4.5.756.756,0,0,1,1.246-.28l1.457,1.457a3.44,3.44,0,0,1,1.014,2.449V69.9a.745.745,0,1,0,1.491,0v-.978a4.921,4.921,0,0,0-1.451-3.5l-1.457-1.457A2.231,2.231,0,0,0,301.249,63.309Z" transform="translate(-271.851 -57.018)"/>
        <path id="Trazado_876129" data-name="Trazado 876129" d="M146.678,70.649a.745.745,0,0,0,.745-.745v-.978a3.44,3.44,0,0,1,1.014-2.449L149.9,65.02a.756.756,0,0,1,1.246.28.745.745,0,0,0,1.4-.5,2.247,2.247,0,0,0-3.7-.833l-1.457,1.457a4.921,4.921,0,0,0-1.451,3.5V69.9A.745.745,0,0,0,146.678,70.649Z" transform="translate(-133.915 -57.017)"/>
      </g>
    </g>
  </g>
</svg>
