<svg xmlns="http://www.w3.org/2000/svg" width="84.208" height="84.207" viewBox="0 0 84.208 84.207">
  <g id="Grupo_1204438" data-name="Grupo 1204438" transform="translate(-872.726 -278.777)">
    <g id="Grupo_1188789" data-name="Grupo 1188789" transform="translate(583.726 -5835.222)">
      <rect id="Rectángulo_400898" data-name="Rectángulo 400898" width="75.49" height="75.489" rx="37.744" transform="translate(293.36 6118.358)" fill="#ffd907"/>
      <rect id="Rectángulo_400907" data-name="Rectángulo 400907" width="75.49" height="75.489" rx="37.744" transform="translate(293.36 6118.358)" fill="none"/>
      <g id="Grupo_1098742" data-name="Grupo 1098742" transform="translate(289 6114)">
        <g id="Rectángulo_400898-2" data-name="Rectángulo 400898" transform="translate(0)" fill="none" stroke="#fff" stroke-width="1" opacity="0.859">
          <rect width="84.208" height="84.207" rx="42.104" stroke="none"/>
          <rect x="0.5" y="0.5" width="83.208" height="83.207" rx="41.604" fill="none"/>
        </g>
        <g id="Rectángulo_400907-2" data-name="Rectángulo 400907" transform="translate(0)" fill="none" stroke="#0f1f33" stroke-linecap="round" stroke-width="1">
          <rect width="84.208" height="84.207" rx="42.104" stroke="none"/>
          <rect x="0.5" y="0.5" width="83.208" height="83.207" rx="41.604" fill="none"/>
        </g>
      </g>
      <g id="lesbian_3460279" transform="translate(290.936 6115.935)">
        <path id="Trazado_1279993" data-name="Trazado 1279993" d="M255.325,36.186v-.907c0-6.229-4.834-11.279-10.473-11.279s-10.473,5.05-10.473,11.279v.907a3.225,3.225,0,1,0,2.936.7h15.074a3.221,3.221,0,1,0,2.936-.7Z" transform="translate(-194.211 -7.194)" fill="#f7b030"/>
        <path id="Trazado_1279994" data-name="Trazado 1279994" d="M270.557,328v16.112H248V328h3.222v11.279h16.112V328Z" transform="translate(-208.637 -280.581)" fill="#f0c6a4"/>
        <path id="Trazado_1279995" data-name="Trazado 1279995" d="M270.557,225.667v1.611h-3.222v11.279H251.222V227.279H248v-1.611A9.667,9.667,0,0,1,257.667,216h3.222a9.667,9.667,0,0,1,9.667,9.667Z" transform="translate(-208.637 -179.86)" fill="#d1a6f7"/>
        <path id="Trazado_1279996" data-name="Trazado 1279996" d="M32,128H52.946v15.307H32Z" transform="translate(-14.389 -100.721)" fill="#8c5237"/>
        <path id="Trazado_1279997" data-name="Trazado 1279997" d="M42.473,24A10.284,10.284,0,0,0,32,34.473H52.946A10.284,10.284,0,0,0,42.473,24Z" transform="translate(-14.389 -7.194)" fill="#8c5237"/>
        <path id="Trazado_1279998" data-name="Trazado 1279998" d="M44.946,243.391h1.611V225.667A9.667,9.667,0,0,0,36.89,216H33.667A9.667,9.667,0,0,0,24,225.667v17.723Z" transform="translate(-7.194 -179.86)" fill="#f0c6a4"/>
        <path id="Trazado_1279999" data-name="Trazado 1279999" d="M72.112,218.462v20.095H56V218.462A9.626,9.626,0,0,1,62.445,216h3.222A9.626,9.626,0,0,1,72.112,218.462Z" transform="translate(-35.972 -179.86)" fill="#f78a25"/>
        <g id="Grupo_1204957" data-name="Grupo 1204957" transform="translate(16.806 26.473)">
          <path id="Trazado_1280000" data-name="Trazado 1280000" d="M97.667,216.551v6.7H88v-6.7A9.613,9.613,0,0,1,91.222,216h3.222A9.613,9.613,0,0,1,97.667,216.551Z" transform="translate(-81.555 -206.333)" fill="#f0c6a4"/>
          <path id="Trazado_1280001" data-name="Trazado 1280001" d="M202.417,120H200v2.417A2.417,2.417,0,1,0,202.417,120Z" transform="translate(-182.277 -120)" fill="#f0c6a4"/>
          <path id="Trazado_1280002" data-name="Trazado 1280002" d="M26.417,120a2.417,2.417,0,1,0,2.417,2.417V120Z" transform="translate(-24 -120)" fill="#f0c6a4"/>
        </g>
        <path id="Trazado_1280003" data-name="Trazado 1280003" d="M56,440H72.112v4.834H56Z" transform="translate(-35.972 -381.303)" fill="#8c5237"/>
        <path id="Trazado_1280004" data-name="Trazado 1280004" d="M64.056,72c1.611,4.834,8.056,4.834,8.056,4.834v3.222a8.056,8.056,0,1,1-16.112,0V76.834S62.445,76.834,64.056,72Z" transform="translate(-35.972 -50.361)" fill="#f7cca9"/>
        <path id="Trazado_1280005" data-name="Trazado 1280005" d="M328.056,216l-4.028,7.251L320,216Z" transform="translate(-273.387 -179.86)" fill="#f0c6a4"/>
        <path id="Trazado_1280006" data-name="Trazado 1280006" d="M280,440h16.112v4.834H280Z" transform="translate(-237.415 -381.303)" fill="#f7b030"/>
        <path id="Trazado_1280007" data-name="Trazado 1280007" d="M426.417,120H424v2.417A2.417,2.417,0,1,0,426.417,120Z" transform="translate(-366.914 -93.527)" fill="#f0c6a4"/>
        <path id="Trazado_1280008" data-name="Trazado 1280008" d="M250.417,120a2.417,2.417,0,1,0,2.417,2.417V120Z" transform="translate(-208.637 -93.527)" fill="#f0c6a4"/>
        <path id="Trazado_1280009" data-name="Trazado 1280009" d="M280,62.445a2.862,2.862,0,0,0,2.417-1.611c.908-1.816,1.859-1.611,3.1-1.611,1.859,0,2.541-3.222,2.541-3.222s.558,3.222,2.417,3.222c1.239,0,2.314-.2,3.222,1.611a2.862,2.862,0,0,0,2.417,1.611v3.222a8.056,8.056,0,0,1-16.112,0Z" transform="translate(-237.415 -35.972)" fill="#f7cca9"/>
        <path id="Trazado_1280010" data-name="Trazado 1280010" d="M240,328h1.611v16.112H240Z" transform="translate(-201.443 -280.581)" fill="#f0c6a4"/>
        <path id="Trazado_1280011" data-name="Trazado 1280011" d="M176,423.25a7.251,7.251,0,0,1,14.5,0Z" transform="translate(-143.888 -359.719)" fill="#9aa3a8"/>
        <path id="Trazado_1280012" data-name="Trazado 1280012" d="M177.723,291.292V281.009a1,1,0,0,0-1.523-.843l-4.117,3.07h-6.445l-4.117-3.07a1,1,0,0,0-1.523.843v10.282Z" transform="translate(-129.499 -237.428)" fill="#9aa3a8"/>
        <path id="Trazado_1280013" data-name="Trazado 1280013" d="M177.723,305.814c0,5.339-3.152,6.3-8.862,6.3s-8.862-.959-8.862-6.3S163.152,296,168.862,296,177.723,300.475,177.723,305.814Z" transform="translate(-129.499 -251.804)" fill="#b6b9ba"/>
        <circle id="Elipse_11511" data-name="Elipse 11511" cx="0.5" cy="0.5" r="0.5" transform="translate(47 29.102)"/>
        <ellipse id="Elipse_11512" data-name="Elipse 11512" cx="1" cy="0.5" rx="1" ry="0.5" transform="translate(53 29.102)"/>
        <ellipse id="Elipse_11513" data-name="Elipse 11513" cx="1" cy="0.5" rx="1" ry="0.5" transform="translate(24 29.102)"/>
        <circle id="Elipse_11514" data-name="Elipse 11514" cx="0.5" cy="0.5" r="0.5" transform="translate(31 29.102)"/>
        <circle id="Elipse_11515" data-name="Elipse 11515" cx="0.5" cy="0.5" r="0.5" transform="translate(43 51.101)"/>
        <ellipse id="Elipse_11516" data-name="Elipse 11516" cx="1" cy="0.5" rx="1" ry="0.5" transform="translate(34 51.101)"/>
        <path id="Trazado_1280014" data-name="Trazado 1280014" d="M333.069,176.236a3.28,3.28,0,0,1-3.694,0,.806.806,0,0,0-1.139,1.139,4.8,4.8,0,0,0,5.973,0,.806.806,0,0,0-1.139-1.139Z" transform="translate(-280.581 -143.888)"/>
        <path id="Trazado_1280015" data-name="Trazado 1280015" d="M109.069,176.236a3.28,3.28,0,0,1-3.694,0,.806.806,0,1,0-1.139,1.139,4.8,4.8,0,0,0,5.973,0,.806.806,0,1,0-1.139-1.139Z" transform="translate(-79.138 -143.888)"/>
        <path id="Trazado_1280016" data-name="Trazado 1280016" d="M228.387,380.113a3.158,3.158,0,0,1-1.165-.905v-.79a.806.806,0,0,0,.806-.806,1.611,1.611,0,0,0-3.222,0,.806.806,0,0,0,.806.806v.79a3.154,3.154,0,0,1-1.164.905.806.806,0,0,0,.716,1.443,5.816,5.816,0,0,0,1.253-.837,5.813,5.813,0,0,0,1.253.837.806.806,0,1,0,.718-1.443Z" transform="translate(-187.053 -323.747)"/>
        <path id="Trazado_1280017" data-name="Trazado 1280017" d="M57.638,35.127a4.027,4.027,0,1,0,5.087-6.236v0a3.21,3.21,0,0,0-.884-2.214c-.668-6-5.555-10.676-11.2-10.676a10.834,10.834,0,0,0-7.667,3.277,12.378,12.378,0,0,0-3.534,7.4c-.026.028-.052.056-.078.085l-.012-.014a11.11,11.11,0,0,0-3.357-7.623,11.571,11.571,0,0,0-15.819,0,11.111,11.111,0,0,0-3.357,7.623,3.214,3.214,0,0,0-.012,4.27V41.78h0A10.43,10.43,0,0,0,16,45.808V63.531a.806.806,0,0,0,.806.806H61.92a.806.806,0,0,0,.806-.806V45.808a10.378,10.378,0,0,0-2.147-6.353,10.573,10.573,0,0,0-4-3.184,8.943,8.943,0,0,0,1.062-1.143ZM47.419,47.8a9.462,9.462,0,0,0-.867-1.222,8.861,8.861,0,0,0-1.63-1.512l2.226-1.66a.19.19,0,0,1,.272.171Zm-4.834.42a.806.806,0,0,0,.806-.806V46a8.126,8.126,0,0,1,3.72,5.329l-.655.131a.806.806,0,1,0,.316,1.58l.6-.12c.033.361.05.724.05,1.088q0,.42-.027.8l-.621-.124a.806.806,0,0,0-.316,1.58l.654.131a3.559,3.559,0,0,1-1.591,2.076c-1.2.722-3.037,1.031-6.156,1.031s-4.959-.308-6.155-1.031A3.559,3.559,0,0,1,31.616,56.4l.654-.131a.806.806,0,0,0-.316-1.58l-.621.124q-.027-.38-.027-.8c0-.363.017-.726.05-1.088l.6.12a.806.806,0,0,0,.316-1.58l-.655-.131A8.124,8.124,0,0,1,35.335,46v1.416a.806.806,0,1,0,1.611,0V45.325a8.349,8.349,0,0,1,1.611-.29V49.03a.806.806,0,0,0,1.611,0V45.035a8.348,8.348,0,0,1,1.611.29v2.094a.806.806,0,0,0,.806.806ZM38.557,28.89A1.613,1.613,0,0,1,36.946,30.5l-.037,0c.024-.265.037-.533.037-.8V27.279A1.613,1.613,0,0,1,38.557,28.89Zm3.222-1.611V29.7c0,.271.013.539.037.8l-.037,0a1.611,1.611,0,0,1,0-3.222Zm0,4.834a3.246,3.246,0,0,0,.33-.017,8.8,8.8,0,0,0,.648,1.646,2.414,2.414,0,0,1-3.4.172V31.018a3.215,3.215,0,0,0,2.417,1.094ZM24.056,37.588a8.852,8.852,0,0,0,8.056,0v4.3A1.8,1.8,0,0,0,30,42.585H24.056ZM35.335,44.2h0L33.723,43V37.915a8.877,8.877,0,0,1,1.611,1.067Zm-4.028-.617a.19.19,0,0,1,.272-.171l2.226,1.66a8.861,8.861,0,0,0-1.63,1.512,9.463,9.463,0,0,0-.867,1.221Zm5.639-2.855a8.849,8.849,0,0,1,1.292,2.721,10.092,10.092,0,0,0-1.292.214Zm-.33-8.631a3.205,3.205,0,0,0,1.136-.085v7.107c-.06-.073-.122-.147-.185-.218a10.489,10.489,0,0,0-3.545-2.63A8.876,8.876,0,0,0,36.616,32.095Zm-1.281-2.4a7.251,7.251,0,0,1-14.5,0V27.232a13.2,13.2,0,0,0,2.873-.6,8.133,8.133,0,0,0,4.377-3.157,8.133,8.133,0,0,0,4.377,3.157,13.2,13.2,0,0,0,2.873.6ZM23.25,44.2H29.7v6.751l-1.453-.291a.806.806,0,1,0-.316,1.58l1.769.354v2.079h.019c.008.155.019.308.033.457l-1.821.364a.806.806,0,1,0,.316,1.58l1.8-.359a6.1,6.1,0,0,0,.473,1.18H20.834V38.974a8.824,8.824,0,0,1,1.611-1.062v5.479a.806.806,0,0,0,.806.806ZM20.834,59.5H31.871q.178.137.37.261a8.006,8.006,0,0,0-.893,2.961H20.834ZM39.363,41.777V35.8a4.017,4.017,0,0,0,4.281-.677A8.946,8.946,0,0,0,44.7,36.269a10.551,10.551,0,0,0-5.34,5.512Zm11.279-4.831a7.259,7.259,0,0,1-7.251-7.25V27.152a3.629,3.629,0,0,0,2.332-1.93c.6-1.192,1.014-1.186,2.023-1.17.116,0,.234,0,.355,0a2.89,2.89,0,0,0,2.5-1.715,2.78,2.78,0,0,0,2.454,1.715c.12,0,.238,0,.355,0,1.032-.016,1.55-.024,2.147,1.17a3.629,3.629,0,0,0,2.332,1.93V29.7A7.259,7.259,0,0,1,50.641,36.946Zm2.252,1.321-2.252,3.6-2.252-3.6A8.88,8.88,0,0,0,52.894,38.267Zm8.22-9.377A1.613,1.613,0,0,1,59.5,30.5l-.037,0c.024-.265.037-.533.037-.8V27.279a1.613,1.613,0,0,1,1.611,1.611Zm1.611,3.222a2.416,2.416,0,0,1-4.2,1.629,8.8,8.8,0,0,0,.648-1.646,3.273,3.273,0,0,0,.33.017,3.222,3.222,0,0,0,2.711-1.484A2.422,2.422,0,0,1,62.725,32.112Zm-2.673-6.4a3.228,3.228,0,0,0-.549-.048h-.8A2.06,2.06,0,0,1,57,24.5a3.339,3.339,0,0,0-3.613-2.06c-.108,0-.219,0-.329,0-.864,0-1.447-1.638-1.611-2.491v-2.3a10.1,10.1,0,0,1,8.605,8.066Zm-15.939-5.3a9.334,9.334,0,0,1,5.723-2.768v2.29c-.2.84-.861,2.506-1.735,2.506-.112,0-.222,0-.329,0a3.2,3.2,0,0,0-3.49,2.06,2.061,2.061,0,0,1-1.7,1.166H41.78a3.231,3.231,0,0,0-.548.048,10.718,10.718,0,0,1,2.881-5.3Zm-22.822-.13a9.96,9.96,0,0,1,13.586,0,9.39,9.39,0,0,1,2.764,5.457,3.215,3.215,0,0,0-.695-.076h-.8c-.059,0-5.888-.066-7.293-4.283a.806.806,0,0,0-1.529,0c-1.405,4.216-7.234,4.283-7.292,4.283h-.806a3.215,3.215,0,0,0-.695.076,9.39,9.39,0,0,1,2.764-5.457ZM19.259,30.5h-.037a1.611,1.611,0,1,1,0-3.222V29.7C19.222,29.967,19.235,30.236,19.259,30.5Zm-.843,1.509a3.216,3.216,0,0,0,.806.1h.335a8.877,8.877,0,0,0,2.589,4.156,10.463,10.463,0,0,0-3.73,2.853Zm-.806,13.8a8.852,8.852,0,0,1,1.61-5.089V62.725H17.611ZM32.968,62.725a6.394,6.394,0,0,1,.73-2.266,18.127,18.127,0,0,0,5.665.655,18.5,18.5,0,0,0,5.659-.663,6.4,6.4,0,0,1,.735,2.275Zm13.517-2.961q.192-.124.37-.261H57.892v3.222H47.378a8.006,8.006,0,0,0-.893-2.961ZM59.5,62.725v-14.5h1.611v14.5Zm1.611-16.918v.806H58.7a.806.806,0,0,0-.806.806V57.892H48.214a6.1,6.1,0,0,0,.473-1.18l1.8.359a.806.806,0,1,0,.316-1.58l-1.821-.364c.014-.149.025-.3.033-.457h.019V52.591l1.769-.354a.806.806,0,0,0-.316-1.58l-1.453.291V43.581a1.8,1.8,0,0,0-2.755-1.527c-.019.012-.037.024-.055.037L43.394,44.2a9.509,9.509,0,0,0-2.907-.753A8.91,8.91,0,0,1,46,37.48l3.962,6.339a.806.806,0,0,0,1.366,0l3.961-6.338a8.9,8.9,0,0,1,5.829,8.327Z"/>
      </g>
    </g>
  </g>
</svg>
