<svg xmlns="http://www.w3.org/2000/svg" width="85" height="68" viewBox="0 0 85 68">
  <g id="Grupo_1188949" data-name="Grupo 1188949" transform="translate(-180.051 -3569)">
    <rect id="Rectángulo_412904" data-name="Rectángulo 412904" width="85" height="68" transform="translate(180.051 3569)" fill="#fff"/>
    <g id="Grupo_1188948" data-name="Grupo 1188948" transform="translate(-697.7 3276.606)">
      <g id="Grupo_1188789" data-name="Grupo 1188789" transform="translate(892.723 296.38)">
        <g id="Grupo_1188790" data-name="Grupo 1188790" transform="translate(0 0)">
          <path id="Trazado_876111" data-name="Trazado 876111" d="M70.8,252.374a21.34,21.34,0,0,1-2.31,5.861l-.8,1.39a.65.65,0,0,1-.508.329,13.721,13.721,0,0,0-.908,2.465l-4.815,18.3a.967.967,0,0,0,.935,1.213h43.691a.967.967,0,0,0,.935-1.213l-4.814-18.3a13.716,13.716,0,0,0-.908-2.465.651.651,0,0,1-.508-.329l-.8-1.39a21.337,21.337,0,0,1-2.31-5.861H70.8Z" transform="translate(-57.153 -222.785)" fill="#c17d4f"/>
          <path id="Trazado_876112" data-name="Trazado 876112" d="M143.425,334.014a2.85,2.85,0,0,1-2.2-1.388l-.026-.043h0q-.091-.157-.185-.313h0a2.777,2.777,0,0,1-1.823,1.541,13.106,13.106,0,0,1-6.784,0,2.778,2.778,0,0,1-1.823-1.541h0c-.062.1-.211.356-.211.356a2.85,2.85,0,0,1-2.2,1.388,1.633,1.633,0,0,1-.678-.082L126.3,336.02a3.753,3.753,0,0,1-5.6,1.042q-.266-.213-.525-.438a.2.2,0,0,0-.323.2l.493,1.84a8.232,8.232,0,0,0,5.308,5.693,15.848,15.848,0,0,1-4.025-2.036.166.166,0,0,0-.255.18l.429,1.6a7.328,7.328,0,0,0,5.649,5.3l.037.007a6.818,6.818,0,0,0,6.121-1.879l1.089-1.089a3.791,3.791,0,0,0,1.11-2.681,3.791,3.791,0,0,0,1.11,2.681L138,347.527a6.817,6.817,0,0,0,6.121,1.879l.037-.007a7.329,7.329,0,0,0,5.649-5.3l.429-1.6a.166.166,0,0,0-.255-.18,15.847,15.847,0,0,1-4.025,2.036,8.232,8.232,0,0,0,5.308-5.693l.493-1.84a.2.2,0,0,0-.322-.2q-.26.225-.525.438a3.753,3.753,0,0,1-5.6-1.042l-1.205-2.088a1.634,1.634,0,0,1-.678.082" transform="translate(-108.719 -293.314)" fill="#f9f6f9"/>
          <path id="Trazado_876113" data-name="Trazado 876113" d="M184.376,156.664a23.214,23.214,0,0,0-3.665-4.766l-1.1-1.1a2.159,2.159,0,0,1-.632-1.527v0a2.159,2.159,0,0,1-.632,1.527l-1.1,1.1a23.21,23.21,0,0,0-3.564,4.594l-.126.215h0a2.85,2.85,0,0,1-2.2,1.388,1.636,1.636,0,0,1-1.3-.472,4.228,4.228,0,0,1-1.238-2.968l-.064-12.341a9.034,9.034,0,0,1,2.646-6.435,9.872,9.872,0,0,1,6.981-2.891h1.206a9.872,9.872,0,0,1,6.981,2.891,9.034,9.034,0,0,1,2.646,6.435l-.064,12.341a4.228,4.228,0,0,1-1.238,2.968,1.636,1.636,0,0,1-1.3.472,2.85,2.85,0,0,1-2.2-1.388Z" transform="translate(-151.894 -117.394)" fill="#f9f6f9"/>
          <path id="Trazado_876114" data-name="Trazado 876114" d="M220.811,179.379h-.277a4.554,4.554,0,0,0-4.554,4.554v.148a1.247,1.247,0,0,0,1.247,1.247.216.216,0,0,1,.187.108l.644,1.115a1.822,1.822,0,0,0,1.578.911h2.074a1.822,1.822,0,0,0,1.578-.911l.644-1.115a.215.215,0,0,1,.187-.108,1.247,1.247,0,0,0,1.247-1.247v-.148A4.554,4.554,0,0,0,220.811,179.379Z" transform="translate(-193.589 -158.348)" fill="#665e66"/>
          <path id="Trazado_876115" data-name="Trazado 876115" d="M44.65,71.2a26.512,26.512,0,0,1-.9-6.861V51.748a4.34,4.34,0,0,1,.494-2.012,3.95,3.95,0,0,0-3.66,2.925,7.161,7.161,0,0,1-1.853,3.21l-2.418,2.418a13.008,13.008,0,0,0-3.81,9.2A5.537,5.537,0,0,0,34.121,71.4l5.51,5.51a2.318,2.318,0,0,1,.6,1.039l.706,2.633a.664.664,0,0,0,1.217.16l.8-1.39a21.339,21.339,0,0,0,2.31-5.861Z" transform="translate(-31.62 -43.905)" fill="#985e33"/>
          <path id="Trazado_876116" data-name="Trazado 876116" d="M140.453,23.713a7.208,7.208,0,0,0-2.111-5.1L135.726,16a23.9,23.9,0,0,0-5.121,2.206,4.343,4.343,0,0,0-2.172,3.761V34.554a26.507,26.507,0,0,0,.9,6.861l1.743,6.506a4.143,4.143,0,0,0,2.14,2.63l-.06-11.508a9.034,9.034,0,0,1,2.646-6.435,9.868,9.868,0,0,1,3.077-2.087l1.324-4.942A7.209,7.209,0,0,0,140.453,23.713Z" transform="translate(-116.306 -14.124)" fill="#c17d4f"/>
          <path id="Trazado_876117" data-name="Trazado 876117" d="M218.472,274.5l-1.1-1.1a2.158,2.158,0,0,1-.632-1.5c0-.008,0-.016,0-.026h0l-.014.245a2.158,2.158,0,0,1-.618,1.28l-1.1,1.1a23.213,23.213,0,0,0-3.48,4.453,2.778,2.778,0,0,0,1.823,1.541,13.106,13.106,0,0,0,3.392.447h0a13.11,13.11,0,0,0,3.392-.447,2.778,2.778,0,0,0,1.822-1.541A23.212,23.212,0,0,0,218.472,274.5Z" transform="translate(-189.653 -239.994)" fill="#e2dfe2"/>
          <path id="Trazado_876118" data-name="Trazado 876118" d="M371.227,71.2a26.512,26.512,0,0,0,.9-6.861V51.748a4.341,4.341,0,0,0-.494-2.012,3.95,3.95,0,0,1,3.66,2.925,7.162,7.162,0,0,0,1.853,3.21l2.418,2.418a13.008,13.008,0,0,1,3.81,9.2,5.537,5.537,0,0,1-1.622,3.915l-5.51,5.51a2.318,2.318,0,0,0-.6,1.039l-.706,2.633a.664.664,0,0,1-1.217.16l-.8-1.39a21.338,21.338,0,0,1-2.31-5.861Z" transform="translate(-330.09 -43.905)" fill="#985e33"/>
          <path id="Trazado_876119" data-name="Trazado 876119" d="M281.045,23.713a7.208,7.208,0,0,1,2.111-5.1L285.772,16a23.9,23.9,0,0,1,5.121,2.206,4.343,4.343,0,0,1,2.172,3.761V34.554a26.505,26.505,0,0,1-.9,6.861l-1.743,6.506a4.144,4.144,0,0,1-2.14,2.63l.06-11.508a9.035,9.035,0,0,0-2.646-6.435,9.869,9.869,0,0,0-3.078-2.087l-1.324-4.942A7.206,7.206,0,0,1,281.045,23.713Z" transform="translate(-251.025 -14.124)" fill="#c17d4f"/>
          <path id="Trazado_876120" data-name="Trazado 876120" d="M335.071,21a23.91,23.91,0,0,0-3.981-1.834,4.344,4.344,0,0,1,1.463,3.251V35.006a26.52,26.52,0,0,1-.364,4.377,9.03,9.03,0,0,1,.327,2.456l-.06,11.508a4.144,4.144,0,0,0,2.14-2.63l1.743-6.506a26.511,26.511,0,0,0,.9-6.861V24.764A4.344,4.344,0,0,0,335.071,21Z" transform="translate(-295.203 -16.921)" fill="#b16e3d"/>
          <path id="Trazado_876121" data-name="Trazado 876121" d="M205.965,8.5a23.9,23.9,0,0,0-6.83-1h-1.667a23.9,23.9,0,0,0-6.83,1l2.616,2.616a7.208,7.208,0,0,1,1.866,6.963L193.8,23.017a9.87,9.87,0,0,1,3.9-.8h.6v0h.6a9.868,9.868,0,0,1,3.9.8l-1.324-4.942a7.208,7.208,0,0,1,1.866-6.963Z" transform="translate(-171.218 -6.621)" fill="#e2dfe2"/>
          <path id="Trazado_876122" data-name="Trazado 876122" d="M370.61,247.261l.182-.679Z" transform="translate(-330.09 -217.672)" fill="#8b818e"/>
          <g id="Grupo_1188727" data-name="Grupo 1188727" transform="translate(4.27 29.589)">
            <path id="Trazado_876123" data-name="Trazado 876123" d="M128.28,256.869l0,.833a4.228,4.228,0,0,0,1.235,2.964,1.627,1.627,0,0,0,1.292.477,2.851,2.851,0,0,0,2.161-1.307l0-.623a4.144,4.144,0,0,1-2.14-2.63l-1.128-4.208a21.338,21.338,0,0,1-1.552,4.424Z" transform="translate(-120.327 -252.376)" fill="#b16e3d"/>
            <path id="Trazado_876124" data-name="Trazado 876124" d="M107.015,280.722l-4.814-18.3a13.72,13.72,0,0,0-.908-2.465.65.65,0,0,1-.508-.329l-.8-1.39a21.34,21.34,0,0,1-2.31-5.861l-1.128,4.208a4.167,4.167,0,0,1-.187.544,13.721,13.721,0,0,1,1.153,2.948l2.227,8.465A8.808,8.808,0,0,1,91.22,279.59H61.753l-.3,1.132a.967.967,0,0,0,.935,1.213h43.691A.967.967,0,0,0,107.015,280.722Z" transform="translate(-61.422 -252.375)" fill="#b16e3d"/>
            <path id="Trazado_876125" data-name="Trazado 876125" d="M128.28,256.869l0,.833a4.228,4.228,0,0,0,1.235,2.964,1.627,1.627,0,0,0,1.292.477,2.851,2.851,0,0,0,2.161-1.307l0-.623a4.144,4.144,0,0,1-2.14-2.63l-1.128-4.208a21.338,21.338,0,0,1-1.552,4.424Z" transform="translate(-120.327 -252.376)" fill="#b16e3d"/>
          </g>
          <path id="Trazado_876126" data-name="Trazado 876126" d="M384.354,371.2q.018-.062.034-.125l.493-1.84a.2.2,0,0,0-.323-.2q-.26.225-.525.438c-.037.029-.074.058-.111.086Z" transform="translate(-341.841 -325.725)" fill="#e2dfe2"/>
          <path id="Trazado_876127" data-name="Trazado 876127" d="M72.679,11.344a6.288,6.288,0,0,1-1.626-2.816A4.8,4.8,0,0,0,67.07,5,5.215,5.215,0,0,0,65.305,3.32,24.781,24.781,0,0,0,52.915,0H51.248A24.782,24.782,0,0,0,38.857,3.32,5.216,5.216,0,0,0,37.092,5a4.8,4.8,0,0,0-3.983,3.532,6.29,6.29,0,0,1-1.626,2.816l-2.418,2.418A13.8,13.8,0,0,0,25,23.582a6.375,6.375,0,0,0,1.879,4.537l5.51,5.51a1.439,1.439,0,0,1,.372.645l.706,2.633a1.542,1.542,0,0,0,.4.7,14.642,14.642,0,0,0-.6,1.806l-4.814,18.3a1.846,1.846,0,0,0,1.785,2.316H73.927a1.845,1.845,0,0,0,1.785-2.316L70.9,39.41a14.626,14.626,0,0,0-.6-1.806,1.542,1.542,0,0,0,.4-.7l.706-2.633a1.438,1.438,0,0,1,.372-.644l5.51-5.51a6.375,6.375,0,0,0,1.879-4.537,13.8,13.8,0,0,0-4.067-9.82Zm-6.521-3.5V20.43a25.642,25.642,0,0,1-.873,6.634l-1.743,6.506a3.265,3.265,0,0,1-.4.911l.011-2.121a.879.879,0,1,0-1.759-.009c-.034,6.516-.012,2.347-.026,4.9a3.33,3.33,0,0,1-.981,2.35.756.756,0,0,1-.6.219,1.975,1.975,0,0,1-1.518-.959,24.121,24.121,0,0,0-3.827-4.984l-1.1-1.1a1.27,1.27,0,0,1-.375-.9c0-.217,0,.739,0-1.882h.158a2.709,2.709,0,0,0,2.339-1.351l.475-.822a2.13,2.13,0,0,0,1.721-2.087v-.148a5.439,5.439,0,0,0-5.433-5.433h-.277a5.439,5.439,0,0,0-5.433,5.433v.148a2.13,2.13,0,0,0,1.721,2.087l.475.822a2.709,2.709,0,0,0,2.339,1.351H51.2v1.882a1.271,1.271,0,0,1-.375.9l-1.1,1.1A24.123,24.123,0,0,0,45.9,38.865a1.976,1.976,0,0,1-1.519.96.754.754,0,0,1-.6-.218,3.329,3.329,0,0,1-.981-2.351c-.008-1.551-.053-10.214-.064-12.341a8.586,8.586,0,0,1,8.747-8.443h1.206a8.585,8.585,0,0,1,8.747,8.443l-.017,3.231a.879.879,0,0,0,1.759.009l.017-3.231a9.976,9.976,0,0,0-2.9-7.062,10.759,10.759,0,0,0-2.959-2.1l-1.215-4.534a6.313,6.313,0,0,1,1.638-6.113l2.24-2.24a23.045,23.045,0,0,1,4.435,1.97A3.473,3.473,0,0,1,66.158,7.843Zm-15.7,16.169a.879.879,0,0,0-.879.879V26.1h-.94a.368.368,0,0,1-.368-.368v-.148a3.678,3.678,0,0,1,3.674-3.674h.277a3.678,3.678,0,0,1,3.674,3.674v.148a.368.368,0,0,1-.368.368h-.94V24.892a.879.879,0,0,0-1.759,0v1.238a1.732,1.732,0,0,0,1.116,1.617l-.009.016a.945.945,0,0,1-.816.471H51.044a.945.945,0,0,1-.816-.471l-.009-.016a1.732,1.732,0,0,0,1.116-1.617V24.892a.879.879,0,0,0-.879-.879Zm1.626,10c.109.111-.4-.4,1.113,1.113a22.353,22.353,0,0,1,3.076,3.843,1.888,1.888,0,0,1-1.025.679,12.281,12.281,0,0,1-6.329,0,1.888,1.888,0,0,1-1.025-.679,22.36,22.36,0,0,1,3.076-3.843C52.454,33.639,51.988,34.107,52.081,34.012Zm.834-32.253a23.009,23.009,0,0,1,5.126.578L56.507,3.87a8.069,8.069,0,0,0-2.093,7.812l.9,3.352a10.821,10.821,0,0,0-2.628-.322H51.478a10.821,10.821,0,0,0-2.628.322l.9-3.352A8.066,8.066,0,0,0,47.655,3.87L46.122,2.336a23.011,23.011,0,0,1,5.126-.578ZM33.631,32.386l-5.51-5.51a4.627,4.627,0,0,1-1.364-3.294,12.049,12.049,0,0,1,3.552-8.576l2.418-2.418a8.052,8.052,0,0,0,2.081-3.6A3.059,3.059,0,0,1,36.3,7.08a5.187,5.187,0,0,0-.057.763v6.006a.879.879,0,0,0,1.759,0V7.843a3.474,3.474,0,0,1,1.732-3,23.05,23.05,0,0,1,4.435-1.97l2.24,2.24a6.314,6.314,0,0,1,1.638,6.113L46.835,15.76a10.763,10.763,0,0,0-2.959,2.1,9.977,9.977,0,0,0-2.9,7.062l.05,9.557a3.259,3.259,0,0,1-.4-.911L39.5,29.376l-.007-.025-.613-2.287A25.639,25.639,0,0,1,38,20.43V17.952a.879.879,0,1,0-1.759,0V20.43a27.4,27.4,0,0,0,.933,7.089l.558,2.083a20.444,20.444,0,0,1-2.165,5.408l-.543.94-.571-2.132A3.2,3.2,0,0,0,33.631,32.386ZM74.011,58.16a.087.087,0,0,1-.084.11H30.236a.087.087,0,0,1-.084-.11l4.814-18.3a12.882,12.882,0,0,1,.7-1.976,1.541,1.541,0,0,0,.631-.6l.8-1.39a22.205,22.205,0,0,0,1.491-3.119l.336,1.254a5.031,5.031,0,0,0,2.113,2.911l0,.329a5.077,5.077,0,0,0,1.5,3.585l.063.061-.783,1.356a2.875,2.875,0,0,1-4.291.8c-.167-.134-.335-.274-.5-.416a1.078,1.078,0,0,0-1.748,1.092l.493,1.84a9.256,9.256,0,0,0,1.3,2.828,1.05,1.05,0,0,0-.268,1.008l.429,1.6a8.168,8.168,0,0,0,9.112,5.972.879.879,0,0,0-.294-1.734,6.4,6.4,0,0,1-7.08-4.556,16.357,16.357,0,0,0,2.684,1.177.879.879,0,0,0,.558-1.668,7.327,7.327,0,0,1-4.738-5.086l-.017-.063a4.629,4.629,0,0,0,5.887-1.914l.9-1.561a2.551,2.551,0,0,0,.3-.009,3.739,3.739,0,0,0,2.339-1.116,3.675,3.675,0,0,0,1.585.887,13.984,13.984,0,0,0,7.24,0,3.675,3.675,0,0,0,1.585-.887,3.74,3.74,0,0,0,2.339,1.116,2.544,2.544,0,0,0,.3.009l.9,1.561a4.63,4.63,0,0,0,5.887,1.914l-.017.063a7.327,7.327,0,0,1-4.738,5.086.879.879,0,0,0,.558,1.668A16.365,16.365,0,0,0,65.2,50.7a6.488,6.488,0,0,1-4.966,4.53A5.927,5.927,0,0,1,54.9,53.591L53.813,52.5a2.892,2.892,0,0,1-.853-2.059.879.879,0,0,0-1.759,0,2.893,2.893,0,0,1-.853,2.059L49.26,53.591A.879.879,0,0,0,50.5,54.835l1.089-1.089a4.727,4.727,0,0,0,.489-.573,4.735,4.735,0,0,0,.489.573l1.089,1.089A7.7,7.7,0,0,0,59.1,57.1a8.227,8.227,0,0,0,7.837-6.081l.43-1.6a1.05,1.05,0,0,0-.268-1.007,9.256,9.256,0,0,0,1.3-2.828l.493-1.84a1.078,1.078,0,0,0-1.748-1.092c-.164.143-.332.283-.5.416a2.875,2.875,0,0,1-4.292-.8l-.783-1.356.064-.061a5.077,5.077,0,0,0,1.5-3.585l0-.329a5.031,5.031,0,0,0,2.113-2.911l.336-1.254a22.2,22.2,0,0,0,1.49,3.119l.8,1.39a1.54,1.54,0,0,0,.631.6,12.889,12.889,0,0,1,.7,1.976Zm2.03-31.284-5.51,5.51a3.2,3.2,0,0,0-.827,1.433l-.571,2.132-.543-.94A20.445,20.445,0,0,1,66.425,29.6l.558-2.083a27.4,27.4,0,0,0,.933-7.089V7.843a5.19,5.19,0,0,0-.057-.763,3.06,3.06,0,0,1,1.494,1.9,8.05,8.05,0,0,0,2.081,3.6l2.418,2.418a12.049,12.049,0,0,1,3.552,8.576,4.628,4.628,0,0,1-1.364,3.294Z" transform="translate(-24.998 0)"/>
          <path id="Trazado_876128" data-name="Trazado 876128" d="M301.637,63.309a2.655,2.655,0,0,0-2.5,1.759.879.879,0,1,0,1.656.591.892.892,0,0,1,1.47-.331l1.719,1.719a4.059,4.059,0,0,1,1.2,2.889v1.154a.879.879,0,1,0,1.759,0V69.937A5.806,5.806,0,0,0,305.23,65.8l-1.719-1.719A2.632,2.632,0,0,0,301.637,63.309Z" transform="translate(-266.954 -55.886)"/>
          <path id="Trazado_876129" data-name="Trazado 876129" d="M146.812,71.969a.879.879,0,0,0,.879-.879V69.936a4.059,4.059,0,0,1,1.2-2.889l1.719-1.719a.892.892,0,0,1,1.47.331.879.879,0,0,0,1.656-.591,2.651,2.651,0,0,0-4.37-.983L147.645,65.8a5.806,5.806,0,0,0-1.712,4.133V71.09A.879.879,0,0,0,146.812,71.969Z" transform="translate(-131.754 -55.886)"/>
        </g>
      </g>
    </g>
  </g>
</svg>
