<svg xmlns="http://www.w3.org/2000/svg" width="84.208" height="84.207" viewBox="0 0 84.208 84.207">
  <g id="Grupo_1188793" data-name="Grupo 1188793" transform="translate(-872.726 -278.777)">
    <g id="Grupo_1188789" data-name="Grupo 1188789" transform="translate(583.726 -5835.222)">
      <rect id="Rectángulo_400898" data-name="Rectángulo 400898" width="75.49" height="75.489" rx="37.744" transform="translate(293.36 6118.358)" fill="#ffd907"/>
      <rect id="Rectángulo_400907" data-name="Rectángulo 400907" width="75.49" height="75.489" rx="37.744" transform="translate(293.36 6118.358)" fill="none"/>
      <g id="Grupo_1098742" data-name="Grupo 1098742" transform="translate(289 6114)">
        <g id="Rectángulo_400898-2" data-name="Rectángulo 400898" transform="translate(0)" fill="none" stroke="#fff" stroke-width="1" opacity="0.859">
          <rect width="84.208" height="84.207" rx="42.104" stroke="none"/>
          <rect x="0.5" y="0.5" width="83.208" height="83.207" rx="41.604" fill="none"/>
        </g>
        <g id="Rectángulo_400907-2" data-name="Rectángulo 400907" transform="translate(0)" fill="none" stroke="#0f1f33" stroke-linecap="round" stroke-width="1">
          <rect width="84.208" height="84.207" rx="42.104" stroke="none"/>
          <rect x="0.5" y="0.5" width="83.208" height="83.207" rx="41.604" fill="none"/>
        </g>
      </g>
      <g id="trainer_4215548" transform="translate(289.501 6126.355)">
        <g id="Grupo_1205013" data-name="Grupo 1205013" transform="translate(17.716 21.473)">
          <path id="Trazado_1280249" data-name="Trazado 1280249" d="M23.509,115.155h-2.3a1.942,1.942,0,0,1-1.942-1.942v-11.2a9.6,9.6,0,0,1,9.6-9.6h4.237v13.139a9.6,9.6,0,0,1-9.6,9.6Z" transform="translate(-19.272 -92.416)" fill="#4671c6"/>
        </g>
        <g id="Grupo_1205014" data-name="Grupo 1205014" transform="translate(17.272 21.03)">
          <path id="Trazado_1280250" data-name="Trazado 1280250" d="M21.953,114.043h-2.3a2.388,2.388,0,0,1-2.385-2.386v-11.2A10.054,10.054,0,0,1,27.315,90.417h4.237a.444.444,0,0,1,.444.444V104a10.055,10.055,0,0,1-10.043,10.043ZM27.315,91.3a9.166,9.166,0,0,0-9.156,9.155v11.2a1.5,1.5,0,0,0,1.5,1.5h2.3A9.166,9.166,0,0,0,31.108,104V91.3Z" transform="translate(-17.272 -90.417)" fill="#12263f"/>
        </g>
        <g id="Grupo_1205015" data-name="Grupo 1205015" transform="translate(22.057 38.758)">
          <path id="Trazado_1280251" data-name="Trazado 1280251" d="M60.612,170.335H43.7a4.793,4.793,0,0,0-4.852,4.731v13.551H65.464V175.066A4.793,4.793,0,0,0,60.612,170.335Z" transform="translate(-38.845 -170.335)" fill="#6bdddd"/>
        </g>
        <g id="Grupo_1205016" data-name="Grupo 1205016" transform="translate(30.294 30.073)">
          <path id="Trazado_1280252" data-name="Trazado 1280252" d="M86.122,131.183H75.977v8.427a5.073,5.073,0,0,0,10.145,0v-8.427Z" transform="translate(-75.977 -131.183)" fill="#f9cfcf"/>
        </g>
        <g id="Grupo_1205017" data-name="Grupo 1205017" transform="translate(26.847 38.314)">
          <path id="Trazado_1280253" data-name="Trazado 1280253" d="M68.955,180.065a.442.442,0,0,1-.356-.179l-8.075-10.843a.444.444,0,1,1,.712-.53l8.075,10.843a.444.444,0,0,1-.356.709Z" transform="translate(-60.437 -168.335)" fill="#3762cc"/>
        </g>
        <g id="Grupo_1205018" data-name="Grupo 1205018" transform="translate(34.923 38.314)">
          <path id="Trazado_1280254" data-name="Trazado 1280254" d="M97.288,180.065a.444.444,0,0,1-.356-.709l8.075-10.843a.444.444,0,1,1,.712.53l-8.075,10.843A.442.442,0,0,1,97.288,180.065Z" transform="translate(-96.844 -168.335)" fill="#3762cc"/>
        </g>
        <g id="Grupo_1205019" data-name="Grupo 1205019" transform="translate(33.736 49.601)">
          <path id="Trazado_1280255" data-name="Trazado 1280255" d="M94.753,220.846a1.631,1.631,0,1,0-3.263,0v3.823h1.453l.323-2.2A1.631,1.631,0,0,0,94.753,220.846Z" transform="translate(-91.49 -219.215)" fill="#e0ebfc"/>
        </g>
        <g id="Grupo_1205020" data-name="Grupo 1205020" transform="translate(21.614 29.629)">
          <path id="Trazado_1280256" data-name="Trazado 1280256" d="M63.907,157.038H37.288a.444.444,0,0,1-.444-.444V143.044a5.242,5.242,0,0,1,5.3-5.175h2.941v-8.241a.444.444,0,0,1,.444-.444H55.67a.444.444,0,0,1,.444.444v8.241h2.941a5.242,5.242,0,0,1,5.3,5.175v13.551A.443.443,0,0,1,63.907,157.038Zm-26.176-.887H63.463V143.044a4.354,4.354,0,0,0-4.409-4.287H55.663a.444.444,0,0,1-.443-.466q.006-.117.006-.236v-7.983H45.968v7.983q0,.119.006.236a.444.444,0,0,1-.443.466H42.14a4.354,4.354,0,0,0-4.409,4.287v13.107Z" transform="translate(-36.844 -129.184)" fill="#12263f"/>
        </g>
        <g id="Grupo_1205021" data-name="Grupo 1205021" transform="translate(33.292 49.157)">
          <path id="Trazado_1280257" data-name="Trazado 1280257" d="M91.387,223.557H89.935a.444.444,0,0,1-.444-.444V219.29a2.075,2.075,0,1,1,2.612,2l-.276,1.883a.444.444,0,0,1-.439.379Zm-1.009-.887H91l.267-1.82a.444.444,0,0,1,.4-.378,1.187,1.187,0,1,0-1.293-1.182v3.38Z" transform="translate(-89.491 -217.215)" fill="#3762cc"/>
        </g>
        <g id="Grupo_1205022" data-name="Grupo 1205022" transform="translate(29.851 29.629)">
          <path id="Trazado_1280258" data-name="Trazado 1280258" d="M79.493,143.57a5.522,5.522,0,0,1-5.516-5.516v-8.427a.444.444,0,0,1,.444-.444H84.566a.444.444,0,0,1,.444.444v8.427A5.522,5.522,0,0,1,79.493,143.57Zm-4.629-13.5v7.983a4.629,4.629,0,0,0,9.258,0v-7.983Z" transform="translate(-73.977 -129.184)" fill="#12263f"/>
        </g>
        <g id="Grupo_1205023" data-name="Grupo 1205023" transform="translate(18.967 5.113)">
          <path id="Trazado_1280259" data-name="Trazado 1280259" d="M53.818,32.227V31.056a12.506,12.506,0,0,0-25.011,0v1.171a3.782,3.782,0,1,0,.33,7.535,12.531,12.531,0,0,0,24.351,0,3.782,3.782,0,1,0,.33-7.535Z" transform="translate(-24.912 -18.663)" fill="#f9cfcf"/>
        </g>
        <g id="Grupo_1205024" data-name="Grupo 1205024" transform="translate(18.523 4.669)">
          <path id="Trazado_1280260" data-name="Trazado 1280260" d="M39.757,48.218A12.868,12.868,0,0,1,27.24,38.671a4.324,4.324,0,0,1-2.929-1.094,4.219,4.219,0,0,1,2.5-7.336V29.5a12.95,12.95,0,0,1,25.9,0v.741a4.227,4.227,0,0,1,2.628,1.2,4.2,4.2,0,0,1-.131,6.136,4.321,4.321,0,0,1-2.93,1.094A12.867,12.867,0,0,1,39.757,48.218ZM27.582,37.762a.444.444,0,0,1,.431.342,12.087,12.087,0,0,0,23.487,0,.445.445,0,0,1,.478-.34,3.4,3.4,0,0,0,2.63-.848,3.334,3.334,0,0,0-2.338-5.8.444.444,0,0,1-.453-.444V29.5a12.062,12.062,0,0,0-24.124,0V30.67a.444.444,0,0,1-.133.317.451.451,0,0,1-.319.127,3.333,3.333,0,0,0-2.441.961,3.314,3.314,0,0,0,.1,4.843,3.4,3.4,0,0,0,2.63.847l.047,0Z" transform="translate(-22.913 -16.663)" fill="#12263f"/>
        </g>
        <g id="Grupo_1205025" data-name="Grupo 1205025" transform="translate(40.279 20.181)">
          <path id="Trazado_1280261" data-name="Trazado 1280261" d="M122.568,91.441a1.581,1.581,0,0,1-1.581-1.581V88.174a1.581,1.581,0,1,1,3.161,0V89.86A1.581,1.581,0,0,1,122.568,91.441Z" transform="translate(-120.987 -86.593)" fill="#12263f"/>
        </g>
        <g id="Grupo_1205026" data-name="Grupo 1205026" transform="translate(27.291 20.181)">
          <path id="Trazado_1280262" data-name="Trazado 1280262" d="M64.017,91.441a1.581,1.581,0,0,1-1.581-1.581V88.174a1.581,1.581,0,1,1,3.161,0V89.86A1.581,1.581,0,0,1,64.017,91.441Z" transform="translate(-62.436 -86.593)" fill="#12263f"/>
        </g>
        <g id="Grupo_1205027" data-name="Grupo 1205027" transform="translate(32.493 27.947)">
          <path id="Trazado_1280263" data-name="Trazado 1280263" d="M88.762,123.409a4.139,4.139,0,0,1-1.218-.164,3.633,3.633,0,0,1-1.526-.891.444.444,0,0,1,.63-.625,2.747,2.747,0,0,0,1.155.667,3.727,3.727,0,0,0,1.919,0,2.747,2.747,0,0,0,1.155-.667.444.444,0,1,1,.63.625,3.638,3.638,0,0,1-1.526.891A4.14,4.14,0,0,1,88.762,123.409Z" transform="translate(-85.89 -121.598)" fill="#12263f"/>
        </g>
        <g id="Grupo_1205028" data-name="Grupo 1205028" transform="translate(41.416 19.592)">
          <path id="Trazado_1280264" data-name="Trazado 1280264" d="M126.557,86.263a.444.444,0,0,1-.314-.757l1.437-1.437a.444.444,0,1,1,.628.627l-1.437,1.437A.442.442,0,0,1,126.557,86.263Z" transform="translate(-126.113 -83.938)" fill="#12263f"/>
        </g>
        <g id="Grupo_1205029" data-name="Grupo 1205029" transform="translate(26.847 19.592)">
          <path id="Trazado_1280265" data-name="Trazado 1280265" d="M62.318,86.263a.441.441,0,0,1-.314-.13L60.567,84.7a.444.444,0,0,1,.627-.627l1.437,1.437a.444.444,0,0,1-.314.757Z" transform="translate(-60.437 -83.938)" fill="#12263f"/>
        </g>
        <g id="Grupo_1205030" data-name="Grupo 1205030" transform="translate(21.058 1.694)">
          <path id="Trazado_1280266" data-name="Trazado 1280266" d="M50.391,3.25H46.9A12.563,12.563,0,0,0,34.338,15.813v4.421h8.867a5.441,5.441,0,0,0,5.441-5.441,5.441,5.441,0,0,0,5.441,5.441h8.867V15.813A12.563,12.563,0,0,0,50.391,3.25Z" transform="translate(-34.338 -3.25)" fill="#4671c6"/>
        </g>
        <g id="Grupo_1205031" data-name="Grupo 1205031" transform="translate(20.614 1.25)">
          <path id="Trazado_1280267" data-name="Trazado 1280267" d="M61.4,19.12H52.53a5.894,5.894,0,0,1-5.441-3.643,5.894,5.894,0,0,1-5.441,3.643H32.782a.444.444,0,0,1-.444-.444v-4.42A13.021,13.021,0,0,1,45.344,1.25h3.49A13.021,13.021,0,0,1,61.841,14.256v4.42A.443.443,0,0,1,61.4,19.12ZM47.089,12.792a.444.444,0,0,1,.444.444,5,5,0,0,0,5,5h8.423V14.256A12.133,12.133,0,0,0,48.835,2.137H45.344A12.133,12.133,0,0,0,33.225,14.256v3.977h8.423a5,5,0,0,0,5-5,.444.444,0,0,1,.444-.444Z" transform="translate(-32.338 -1.25)" fill="#12263f"/>
        </g>
        <g id="Grupo_1205053" data-name="Grupo 1205053" transform="translate(43.074 12.263)">
          <g id="Grupo_1205032" data-name="Grupo 1205032" transform="translate(1.41 19.271)">
            <path id="Trazado_1280268" data-name="Trazado 1280268" d="M145.121,141.237l-3.021-3.156a.993.993,0,0,0-1.653.353,7.081,7.081,0,0,0,2.195,8.235h2.479Z" transform="translate(-139.946 -137.774)" fill="#eaa97d"/>
          </g>
          <g id="Grupo_1205033" data-name="Grupo 1205033" transform="translate(16.166 19.271)">
            <path id="Trazado_1280269" data-name="Trazado 1280269" d="M206.465,141.237l3.021-3.156a.993.993,0,0,1,1.653.353,7.081,7.081,0,0,1-2.195,8.235h-2.479Z" transform="translate(-206.465 -137.774)" fill="#eaa97d"/>
          </g>
          <g id="Grupo_1205034" data-name="Grupo 1205034" transform="translate(0.966 18.827)">
            <path id="Trazado_1280270" data-name="Trazado 1280270" d="M143.563,145.556h-2.479a.443.443,0,0,1-.285-.1,7.518,7.518,0,0,1-2.328-8.724,1.437,1.437,0,0,1,2.392-.511l3.021,3.156a.444.444,0,0,1,.123.307v5.432A.444.444,0,0,1,143.563,145.556Zm-2.316-.887h1.872v-4.81l-2.9-3.027a.549.549,0,0,0-.915.194A6.671,6.671,0,0,0,141.247,144.669Z" transform="translate(-137.944 -135.773)" fill="#12263f"/>
          </g>
          <g id="Grupo_1205035" data-name="Grupo 1205035" transform="translate(15.722 18.827)">
            <path id="Trazado_1280271" data-name="Trazado 1280271" d="M207.388,145.555h-2.479a.444.444,0,0,1-.444-.444V139.68a.444.444,0,0,1,.123-.307l3.021-3.156a1.436,1.436,0,0,1,2.392.511,7.518,7.518,0,0,1-2.328,8.724A.443.443,0,0,1,207.388,145.555Zm-2.036-.887h1.872a6.671,6.671,0,0,0,1.94-7.643.549.549,0,0,0-.915-.194l-2.9,3.027v4.81Z" transform="translate(-204.465 -135.773)" fill="#12263f"/>
          </g>
          <g id="Grupo_1205036" data-name="Grupo 1205036" transform="translate(3.237 21.96)">
            <path id="Trazado_1280272" data-name="Trazado 1280272" d="M164.567,169.983H148.182V155.409a5.514,5.514,0,0,1,5.514-5.514h5.357a5.514,5.514,0,0,1,5.514,5.514v14.574Z" transform="translate(-148.182 -149.895)" fill="#eaa97d"/>
          </g>
          <g id="Grupo_1205037" data-name="Grupo 1205037" transform="translate(2.793 21.517)">
            <path id="Trazado_1280273" data-name="Trazado 1280273" d="M163.011,168.871H146.626a.444.444,0,0,1-.444-.444V153.854a5.964,5.964,0,0,1,5.958-5.958H157.5a5.964,5.964,0,0,1,5.958,5.958v14.574A.444.444,0,0,1,163.011,168.871Zm-15.942-.887h15.5v-14.13a5.076,5.076,0,0,0-5.071-5.07H152.14a5.076,5.076,0,0,0-5.07,5.07Z" transform="translate(-146.182 -147.896)" fill="#12263f"/>
          </g>
          <g id="Grupo_1205038" data-name="Grupo 1205038" transform="translate(0.444 32.004)">
            <path id="Trazado_1280274" data-name="Trazado 1280274" d="M151.148,208H142a6.414,6.414,0,1,1,0-12.827h9.144a6.414,6.414,0,1,1,0,12.827Z" transform="translate(-135.591 -195.174)" fill="#eaa97d"/>
          </g>
          <g id="Grupo_1205039" data-name="Grupo 1205039" transform="translate(6.365 34.687)">
            <path id="Trazado_1280275" data-name="Trazado 1280275" d="M172.428,217.412H162.283V209.76a2.493,2.493,0,0,1,2.493-2.493h5.158a2.493,2.493,0,0,1,2.493,2.493v7.652Z" transform="translate(-162.283 -207.267)" fill="#e0ebfc"/>
          </g>
          <g id="Grupo_1205040" data-name="Grupo 1205040" transform="translate(5.694 27.608)">
            <path id="Trazado_1280276" data-name="Trazado 1280276" d="M160.637,179.752h-.21a1.167,1.167,0,0,1-1.167-1.167v-2.061a1.167,1.167,0,0,1,1.167-1.167h.21a1.167,1.167,0,0,1,1.167,1.167v2.061A1.168,1.168,0,0,1,160.637,179.752Z" transform="translate(-159.26 -175.356)" fill="#12263f"/>
          </g>
          <g id="Grupo_1205041" data-name="Grupo 1205041" transform="translate(14.62 27.608)">
            <path id="Trazado_1280277" data-name="Trazado 1280277" d="M200.873,179.752h-.21a1.167,1.167,0,0,1-1.167-1.167v-2.061a1.167,1.167,0,0,1,1.167-1.167h.21a1.167,1.167,0,0,1,1.167,1.167v2.061A1.167,1.167,0,0,1,200.873,179.752Z" transform="translate(-199.496 -175.356)" fill="#12263f"/>
          </g>
          <g id="Grupo_1205042" data-name="Grupo 1205042" transform="translate(5.921 35.703)">
            <path id="Trazado_1280278" data-name="Trazado 1280278" d="M163.478,218.637h-2.752a.444.444,0,1,1,0-.887h2.752a1.871,1.871,0,0,0,1.869-1.869v-3.589a.444.444,0,0,1,.887,0v3.589A2.76,2.76,0,0,1,163.478,218.637Z" transform="translate(-160.283 -211.848)" fill="#12263f"/>
          </g>
          <g id="Grupo_1205043" data-name="Grupo 1205043" transform="translate(10.994 35.703)">
            <path id="Trazado_1280279" data-name="Trazado 1280279" d="M188.657,218.637h-2.752a2.76,2.76,0,0,1-2.757-2.757v-3.589a.444.444,0,0,1,.887,0v3.589a1.871,1.871,0,0,0,1.869,1.869h2.752a.444.444,0,1,1,0,.887Z" transform="translate(-183.149 -211.848)" fill="#12263f"/>
          </g>
          <g id="Grupo_1205044" data-name="Grupo 1205044" transform="translate(0 31.56)">
            <path id="Trazado_1280280" data-name="Trazado 1280280" d="M149.591,206.889h-9.144a6.857,6.857,0,1,1,0-13.715h9.144a6.857,6.857,0,0,1,0,13.715Zm-9.144-12.827a5.97,5.97,0,1,0,0,11.94h9.144a5.97,5.97,0,0,0,0-11.94Z" transform="translate(-133.59 -193.174)" fill="#12263f"/>
          </g>
          <g id="Grupo_1205045" data-name="Grupo 1205045" transform="translate(5.921 34.243)">
            <path id="Trazado_1280281" data-name="Trazado 1280281" d="M170.871,216.3H160.727a.444.444,0,0,1-.444-.444V208.2a2.94,2.94,0,0,1,2.937-2.937h5.158a2.94,2.94,0,0,1,2.937,2.937v7.651A.443.443,0,0,1,170.871,216.3Zm-9.7-.887h9.258V208.2a2.052,2.052,0,0,0-2.049-2.049H163.22a2.052,2.052,0,0,0-2.049,2.049v7.208Z" transform="translate(-160.283 -205.268)" fill="#12263f"/>
          </g>
          <g id="Grupo_1205046" data-name="Grupo 1205046" transform="translate(9.104 34.687)">
            <path id="Trazado_1280282" data-name="Trazado 1280282" d="M174.632,208.2v.755a.93.93,0,0,0,.542.845,4.277,4.277,0,0,0,3.566,0,.93.93,0,0,0,.542-.845V208.2a.93.93,0,0,0-.93-.93h-2.79A.93.93,0,0,0,174.632,208.2Z" transform="translate(-174.632 -207.267)" fill="#12263f"/>
          </g>
          <g id="Grupo_1205047" data-name="Grupo 1205047" transform="translate(8.661 34.243)">
            <path id="Trazado_1280283" data-name="Trazado 1280283" d="M175.4,209.076a4.721,4.721,0,0,1-1.968-.43,1.378,1.378,0,0,1-.8-1.249v-.755a1.375,1.375,0,0,1,1.374-1.374h2.79a1.375,1.375,0,0,1,1.374,1.374v.755a1.377,1.377,0,0,1-.8,1.249,4.722,4.722,0,0,1-1.968.43Zm-1.4-2.92a.487.487,0,0,0-.486.486v.755a.488.488,0,0,0,.284.442,3.829,3.829,0,0,0,3.2,0,.488.488,0,0,0,.284-.442v-.755a.487.487,0,0,0-.486-.486Z" transform="translate(-172.632 -205.269)" fill="#12263f"/>
          </g>
          <g id="Grupo_1205052" data-name="Grupo 1205052" transform="translate(2.586)">
            <g id="Grupo_1205048" data-name="Grupo 1205048" transform="translate(0.443 0.443)">
              <path id="Trazado_1280284" data-name="Trazado 1280284" d="M163.266,59.4h-1.544a6.346,6.346,0,0,0-.44-1.059l1.092-1.092a.779.779,0,0,0,0-1.1l-1.581-1.581a.779.779,0,0,0-1.1,0L158.6,55.66a6.347,6.347,0,0,0-1.059-.44V53.677a.78.78,0,0,0-.779-.779h-2.236a.78.78,0,0,0-.779.779v1.543a6.362,6.362,0,0,0-1.059.44L151.6,54.568a.779.779,0,0,0-1.1,0l-1.581,1.581a.779.779,0,0,0,0,1.1l1.092,1.092a6.346,6.346,0,0,0-.44,1.059h-1.544a.78.78,0,0,0-.779.779v2.236a.78.78,0,0,0,.779.779h1.544a6.346,6.346,0,0,0,.44,1.059l-1.092,1.092a.779.779,0,0,0,0,1.1l1.581,1.581a.779.779,0,0,0,1.1,0l1.092-1.092a6.346,6.346,0,0,0,1.059.44v1.543a.78.78,0,0,0,.779.779h2.236a.78.78,0,0,0,.779-.779V67.376a6.362,6.362,0,0,0,1.059-.44l1.092,1.092a.779.779,0,0,0,1.1,0l1.581-1.581a.779.779,0,0,0,0-1.1l-1.092-1.092a6.345,6.345,0,0,0,.44-1.059h1.544a.78.78,0,0,0,.779-.779V60.181a.78.78,0,0,0-.779-.779Zm-7.622,4.388a2.491,2.491,0,1,1,2.491-2.491A2.494,2.494,0,0,1,155.644,63.789Z" transform="translate(-147.244 -52.898)" fill="#a4c9ff"/>
            </g>
            <g id="Grupo_1205049" data-name="Grupo 1205049" transform="translate(4.553 4.553)">
              <path id="Trazado_1280285" data-name="Trazado 1280285" d="M170.061,71.422a4.291,4.291,0,1,0,4.291,4.291A4.3,4.3,0,0,0,170.061,71.422Zm0,6.782a2.491,2.491,0,1,1,2.491-2.491,2.494,2.494,0,0,1-2.491,2.491Z" transform="translate(-165.77 -71.422)" fill="#f9cfcf"/>
            </g>
            <g id="Grupo_1205050" data-name="Grupo 1205050">
              <path id="Trazado_1280286" data-name="Trazado 1280286" d="M155.208,68.587h-2.236a1.224,1.224,0,0,1-1.223-1.223V66.138c-.178-.065-.354-.138-.526-.219l-.867.867a1.222,1.222,0,0,1-1.729,0l-1.581-1.581a1.222,1.222,0,0,1,0-1.729l.867-.867q-.12-.258-.219-.526h-1.226a1.224,1.224,0,0,1-1.223-1.223V58.625a1.224,1.224,0,0,1,1.223-1.223h1.226c.065-.178.139-.354.219-.526l-.867-.868a1.222,1.222,0,0,1,0-1.729l1.581-1.581a1.223,1.223,0,0,1,1.729,0l.867.868q.259-.12.526-.219V52.122a1.224,1.224,0,0,1,1.223-1.223h2.236a1.224,1.224,0,0,1,1.223,1.223v1.226c.178.065.354.138.526.219l.867-.867a1.223,1.223,0,0,1,1.729,0l1.581,1.581a1.222,1.222,0,0,1,0,1.729l-.867.867q.12.258.219.526h1.226a1.224,1.224,0,0,1,1.223,1.223v2.236a1.224,1.224,0,0,1-1.223,1.223h-1.226q-.1.268-.219.526l.867.867a1.222,1.222,0,0,1,0,1.729l-1.581,1.581a1.222,1.222,0,0,1-1.729,0l-.867-.867q-.259.12-.526.219v1.226A1.224,1.224,0,0,1,155.208,68.587Zm-4.073-3.65a.443.443,0,0,1,.207.051,5.916,5.916,0,0,0,.984.409.444.444,0,0,1,.311.423v1.543a.336.336,0,0,0,.335.336h2.236a.336.336,0,0,0,.335-.336V65.821a.444.444,0,0,1,.311-.423,5.9,5.9,0,0,0,.984-.409.444.444,0,0,1,.52.079l1.092,1.092a.34.34,0,0,0,.474,0l1.581-1.581a.335.335,0,0,0,0-.474l-1.092-1.093a.443.443,0,0,1-.079-.52,5.913,5.913,0,0,0,.409-.984.444.444,0,0,1,.423-.311h1.543a.336.336,0,0,0,.335-.336V58.625a.336.336,0,0,0-.335-.335h-1.543a.444.444,0,0,1-.423-.311,5.913,5.913,0,0,0-.409-.984.444.444,0,0,1,.079-.52l1.092-1.092a.335.335,0,0,0,0-.474l-1.581-1.581a.341.341,0,0,0-.474,0l-1.092,1.092a.443.443,0,0,1-.52.079,5.915,5.915,0,0,0-.984-.409.444.444,0,0,1-.311-.423V52.121a.336.336,0,0,0-.335-.335h-2.236a.336.336,0,0,0-.335.335v1.544a.444.444,0,0,1-.311.423,5.915,5.915,0,0,0-.984.409.443.443,0,0,1-.52-.079l-1.092-1.092a.341.341,0,0,0-.475,0l-1.581,1.581a.335.335,0,0,0,0,.474l1.093,1.093a.444.444,0,0,1,.079.52,5.892,5.892,0,0,0-.409.984.444.444,0,0,1-.423.311h-1.543a.336.336,0,0,0-.335.335v2.236a.336.336,0,0,0,.335.336h1.543a.444.444,0,0,1,.423.311,5.919,5.919,0,0,0,.409.984.443.443,0,0,1-.079.52L147.673,64.1a.335.335,0,0,0,0,.474l1.581,1.581a.34.34,0,0,0,.474,0l1.092-1.092A.443.443,0,0,1,151.135,64.937Z" transform="translate(-145.246 -50.899)" fill="#12263f"/>
            </g>
            <g id="Grupo_1205051" data-name="Grupo 1205051" transform="translate(6.353 6.353)">
              <path id="Trazado_1280287" data-name="Trazado 1280287" d="M176.375,84.52a2.491,2.491,0,1,1,2.491-2.491A2.494,2.494,0,0,1,176.375,84.52Z" transform="translate(-173.884 -79.538)" fill="#e0ebfc"/>
            </g>
          </g>
        </g>
      </g>
    </g>
  </g>
</svg>
