<svg xmlns="http://www.w3.org/2000/svg" width="84.208" height="84.207" viewBox="0 0 84.208 84.207">
  <g id="Grupo_1204805" data-name="Grupo 1204805" transform="translate(-872.726 -278.777)">
    <g id="Grupo_1188789" data-name="Grupo 1188789" transform="translate(583.726 -5835.222)">
      <rect id="Rectángulo_400898" data-name="Rectángulo 400898" width="75.49" height="75.489" rx="37.744" transform="translate(293.36 6118.358)" fill="#ffd907"/>
      <rect id="Rectángulo_400907" data-name="Rectángulo 400907" width="75.49" height="75.489" rx="37.744" transform="translate(293.36 6118.358)" fill="none"/>
      <g id="Grupo_1098742" data-name="Grupo 1098742" transform="translate(289 6114)">
        <g id="Rectángulo_400898-2" data-name="Rectángulo 400898" transform="translate(0)" fill="none" stroke="#fff" stroke-width="1" opacity="0.859">
          <rect width="84.208" height="84.207" rx="42.104" stroke="none"/>
          <rect x="0.5" y="0.5" width="83.208" height="83.207" rx="41.604" fill="none"/>
        </g>
        <g id="Rectángulo_400907-2" data-name="Rectángulo 400907" transform="translate(0)" fill="none" stroke="#0f1f33" stroke-linecap="round" stroke-width="1">
          <rect width="84.208" height="84.207" rx="42.104" stroke="none"/>
          <rect x="0.5" y="0.5" width="83.208" height="83.207" rx="41.604" fill="none"/>
        </g>
      </g>
      <g id="Layer_21" data-name="Layer 21" transform="translate(303.424 6127.954)">
        <path id="Trazado_1280347" data-name="Trazado 1280347" d="M30.048,5.442l1.66-1.66A6.086,6.086,0,0,1,36.011,2h0A6.085,6.085,0,0,1,42.1,8.085h0A11.809,11.809,0,0,1,39.4,15.6L30.048,26.956,20.694,15.6A11.809,11.809,0,0,1,18,8.085h0A6.085,6.085,0,0,1,24.085,2h0a6.086,6.086,0,0,1,4.3,1.782Z" transform="translate(-2.371 -0.139)" fill="#b23a20"/>
        <path id="Trazado_1280348" data-name="Trazado 1280348" d="M21.01,3.01A6.045,6.045,0,0,0,20,6.363a11.809,11.809,0,0,0,2.694,7.513L31.9,25.05c1.972-2.394,5.388-6.54,7.785-9.452a11.809,11.809,0,0,0,2.694-7.513,6.085,6.085,0,0,0-10.388-4.3l-1.66,1.66-1.66-1.66a6.079,6.079,0,0,0-7.659-.775Z" transform="translate(-2.649 -0.139)" fill="#de422c"/>
        <path id="Trazado_1280349" data-name="Trazado 1280349" d="M58.235,34.452a6.2,6.2,0,0,1-.534,2.521l-3.537,7.943A21.027,21.027,0,0,1,45.327,54.7v2.582H36.721V54.7l-1.179-4.724a18.062,18.062,0,0,1,.387-10.112,15.411,15.411,0,0,0,.792-4.879v-4.38a1.721,1.721,0,0,1,3.442,0V26.3a1.721,1.721,0,0,1,3.442,0V23.721a1.721,1.721,0,1,1,3.442,0V26.3a1.721,1.721,0,0,1,3.442,0V40.347l3.718-6.841a2.123,2.123,0,0,1,4.027.947Z" transform="translate(-4.741 -2.928)" fill="#dfb0a9"/>
        <path id="Trazado_1280350" data-name="Trazado 1280350" d="M57.98,36.974a6.2,6.2,0,0,0,.534-2.521,2.125,2.125,0,0,0-4.027-.947l-3.718,6.841V26.4A1.786,1.786,0,0,0,49.2,24.592,1.731,1.731,0,0,0,47.327,26.3V23.721a1.731,1.731,0,0,0-1.873-1.714,1.786,1.786,0,0,0-1.569,1.811V26.3a1.731,1.731,0,0,0-1.873-1.714A1.786,1.786,0,0,0,40.442,26.4v4.206a1.721,1.721,0,0,0-1.494-1.7,1.688,1.688,0,0,0-.227.837v4.2a15.259,15.259,0,0,1-.753,4.946,18.061,18.061,0,0,0-.426,10.226l1.179,4.724V54.7a1.721,1.721,0,0,0,1.721,1.721h5.163V54.7a21.027,21.027,0,0,0,8.838-9.785Z" transform="translate(-5.02 -2.929)" fill="#fce0d4"/>
        <rect id="Rectángulo_413427" data-name="Rectángulo 413427" width="1" height="11" transform="translate(41.678 23.677)" fill="#dfb0a9"/>
        <rect id="Rectángulo_413428" data-name="Rectángulo 413428" width="2" height="11" transform="translate(37.678 23.677)" fill="#dfb0a9"/>
        <path id="Trazado_1280351" data-name="Trazado 1280351" d="M46.268,48.941l-.64-1.6,4.014-1.606,1.574-2.893,1.511.822-1.721,3.167a.861.861,0,0,1-.435.388Z" transform="translate(-6.223 -5.835)" fill="#dfb0a9"/>
        <rect id="Rectángulo_413429" data-name="Rectángulo 413429" width="1.721" height="6.859" transform="translate(34.562 27.677)" fill="#dfb0a9"/>
        <path id="Trazado_1280352" data-name="Trazado 1280352" d="M2,34.452a6.2,6.2,0,0,0,.534,2.521L6.07,44.917A21.027,21.027,0,0,0,14.908,54.7v2.582h8.606V54.7l1.179-4.724a18.062,18.062,0,0,0-.387-10.112,15.412,15.412,0,0,1-.792-4.879v-4.38a1.721,1.721,0,0,0-3.442,0V26.3a1.721,1.721,0,1,0-3.442,0V23.721a1.721,1.721,0,1,0-3.442,0V26.3a1.721,1.721,0,1,0-3.442,0V40.347L6.027,33.506A2.123,2.123,0,0,0,2,34.452Z" transform="translate(-0.139 -2.928)" fill="#dfb0a9"/>
        <path id="Trazado_1280353" data-name="Trazado 1280353" d="M2.534,36.974A6.2,6.2,0,0,1,2,34.452a2.125,2.125,0,0,1,4.027-.947l3.718,6.841V26.4a1.786,1.786,0,0,1,1.569-1.807A1.731,1.731,0,0,1,13.187,26.3V23.721a1.731,1.731,0,0,1,1.873-1.714,1.786,1.786,0,0,1,1.569,1.811V26.3A1.731,1.731,0,0,1,18.5,24.589,1.786,1.786,0,0,1,20.072,26.4v4.206a1.721,1.721,0,0,1,1.494-1.7,1.688,1.688,0,0,1,.227.837v4.2a15.259,15.259,0,0,0,.753,4.946,18.061,18.061,0,0,1,.43,10.226l-1.183,4.724V54.7a1.721,1.721,0,0,1-1.721,1.721H14.908V54.7A21.027,21.027,0,0,1,6.07,44.917Z" transform="translate(-0.139 -2.929)" fill="#fce0d4"/>
        <rect id="Rectángulo_413430" data-name="Rectángulo 413430" width="1" height="11" transform="translate(12.677 23.677)" fill="#dfb0a9"/>
        <rect id="Rectángulo_413431" data-name="Rectángulo 413431" width="2" height="11" transform="translate(15.677 23.677)" fill="#dfb0a9"/>
        <path id="Trazado_1280354" data-name="Trazado 1280354" d="M16.581,48.941l.64-1.6-4.014-1.606-1.574-2.893-1.511.822,1.721,3.167a.861.861,0,0,0,.435.388Z" transform="translate(-1.272 -5.835)" fill="#dfb0a9"/>
        <rect id="Rectángulo_413432" data-name="Rectángulo 413432" width="1.721" height="6.859" transform="translate(19.072 27.677)" fill="#dfb0a9"/>
        <circle id="Elipse_11525" data-name="Elipse 11525" cx="5" cy="5" r="5" transform="translate(22.677 8.677)" fill="#69af85"/>
        <path id="Trazado_1280355" data-name="Trazado 1280355" d="M31.024,9a6.024,6.024,0,1,0,6.024,6.024A6.024,6.024,0,0,0,31.024,9Zm4.3,6.024a4.237,4.237,0,0,1-.233,1.335l-3.209-1.834V10.807a4.311,4.311,0,0,1,3.442,4.217Zm-5.163-4.217v3.718l-3.209,1.834a4.237,4.237,0,0,1-.233-1.335A4.311,4.311,0,0,1,30.163,10.807Zm-2.355,7.045,2.355-1.345v2.734a4.286,4.286,0,0,1-2.355-1.388Zm4.076,1.389V16.507l2.355,1.346A4.286,4.286,0,0,1,31.884,19.241Z" transform="translate(-3.347 -1.116)" fill="#3a8258"/>
        <path id="Trazado_1280356" data-name="Trazado 1280356" d="M31.024,21.048A6.024,6.024,0,1,0,25,15.024a6.024,6.024,0,0,0,6.024,6.024Zm-3.216-3.2,2.355-1.346v2.734a4.286,4.286,0,0,1-2.355-1.388Zm4.076,1.388V16.507l2.355,1.346A4.286,4.286,0,0,1,31.884,19.241Zm3.442-4.217a4.237,4.237,0,0,1-.233,1.335l-3.209-1.834V10.807a4.311,4.311,0,0,1,3.442,4.217Zm-5.163-4.217v3.718l-3.209,1.834a4.237,4.237,0,0,1-.233-1.335A4.311,4.311,0,0,1,30.163,10.807Z" transform="translate(-3.347 -1.116)"/>
        <path id="Trazado_1280357" data-name="Trazado 1280357" d="M12.187,23.582v.158a2.552,2.552,0,0,0-.861-.158,2.582,2.582,0,0,0-2.582,2.582V36.817L6.661,32.978A2.988,2.988,0,0,0,1,34.315a7.02,7.02,0,0,0,.608,2.864l3.533,7.948a21.872,21.872,0,0,0,8.767,9.928v2.089h1.721V54.562a.861.861,0,0,0-.43-.747,20.177,20.177,0,0,1-8.483-9.38L3.188,36.486a5.3,5.3,0,0,1-.467-2.171,1.267,1.267,0,0,1,2.41-.54l5.436,10.012a.861.861,0,0,0,.436.388l4.3,1.721.64-1.6-4.014-1.6-1.466-2.7V26.163a.861.861,0,1,1,1.721,0V37.351h1.721V23.582a.861.861,0,1,1,1.721,0V37.351h1.721V26.163a.861.861,0,1,1,1.721,0V37.329h1.721V30.466a.861.861,0,1,1,1.721,0v4.378A16.3,16.3,0,0,0,23.352,40a17.227,17.227,0,0,1,.369,9.625L22.54,54.353a.847.847,0,0,0-.026.208v2.582h1.721V54.668l1.155-4.621a18.949,18.949,0,0,0-.406-10.59,14.543,14.543,0,0,1-.749-4.613V30.466a2.582,2.582,0,0,0-2.582-2.582,2.552,2.552,0,0,0-.861.158V26.163a2.582,2.582,0,0,0-2.582-2.582,2.552,2.552,0,0,0-.861.158v-.158a2.582,2.582,0,0,0-5.163,0Z" transform="translate(0 -2.789)"/>
        <path id="Trazado_1280358" data-name="Trazado 1280358" d="M55.968,31.327a2.959,2.959,0,0,0-2.659,1.626l-2.1,3.864V26.163a2.582,2.582,0,0,0-2.582-2.582,2.552,2.552,0,0,0-.861.158v-.158a2.582,2.582,0,1,0-5.163,0v.158a2.552,2.552,0,0,0-.861-.158,2.582,2.582,0,0,0-2.582,2.582v1.879a2.553,2.553,0,0,0-.861-.158,2.582,2.582,0,0,0-2.582,2.582v4.378a14.543,14.543,0,0,1-.749,4.613,18.949,18.949,0,0,0-.406,10.59l1.155,4.621v2.476h1.721V54.562a.847.847,0,0,0-.026-.208L36.237,49.63A17.227,17.227,0,0,1,36.607,40a16.294,16.294,0,0,0,.835-5.157V30.466a.861.861,0,0,1,1.721,0v6.863h1.721V26.163a.861.861,0,1,1,1.721,0V37.351h1.721V23.582a.861.861,0,1,1,1.721,0V37.351h1.721V26.163a.861.861,0,1,1,1.721,0V39.986l-1.469,2.7-4.014,1.6.64,1.6,4.3-1.721a.861.861,0,0,0,.436-.388l5.449-10.038a1.267,1.267,0,0,1,2.4.567,5.31,5.31,0,0,1-.46,2.167L53.243,44.43a20.177,20.177,0,0,1-8.486,9.384.861.861,0,0,0-.43.747v2.582h1.721V55.055a21.872,21.872,0,0,0,8.767-9.926l3.528-7.948a7.02,7.02,0,0,0,.613-2.867,2.992,2.992,0,0,0-2.988-2.988Z" transform="translate(-4.602 -2.789)"/>
        <path id="Trazado_1280359" data-name="Trazado 1280359" d="M29.244,27.363a.861.861,0,0,0,1.329,0L39.926,16a12.71,12.71,0,0,0,2.891-8.058A6.946,6.946,0,0,0,30.96,3.034L29.908,4.086,28.857,3.034A6.946,6.946,0,0,0,17,7.946a12.71,12.71,0,0,0,2.891,8.061Zm-5.3-24.642a5.193,5.193,0,0,1,3.694,1.53l1.66,1.66a.861.861,0,0,0,1.217,0l1.66-1.66A5.224,5.224,0,0,1,41.1,7.946a10.98,10.98,0,0,1-2.5,6.971L29.908,25.462l-8.692-10.55a10.98,10.98,0,0,1-2.5-6.971,5.231,5.231,0,0,1,5.224-5.22Z" transform="translate(-2.231)"/>
      </g>
    </g>
  </g>
</svg>
