<svg id="Grupo_1188800" data-name="Grupo 1188800" xmlns="http://www.w3.org/2000/svg" width="62.53" height="62.53" viewBox="0 0 62.53 62.53">
  <g id="Grupo_1188789" data-name="Grupo 1188789" transform="translate(0)">
    <rect id="Rectángulo_400898" data-name="Rectángulo 400898" width="51.765" height="51.765" rx="25.882" transform="translate(5.383 5.382)" fill="#ffd907"/>
    <rect id="Rectángulo_400907" data-name="Rectángulo 400907" width="56.056" height="56.056" rx="28.028" transform="translate(2.871 3.367)" fill="none"/>
    <g id="Grupo_1098742" data-name="Grupo 1098742" transform="translate(0)">
      <g id="Rectángulo_400898-2" data-name="Rectángulo 400898" transform="translate(0)" fill="none" stroke="#fff" stroke-width="2" opacity="0.859">
        <rect width="62.53" height="62.529" rx="31.265" stroke="none"/>
        <rect x="1" y="1" width="60.53" height="60.529" rx="30.265" fill="none"/>
      </g>
      <g id="Rectángulo_400907-2" data-name="Rectángulo 400907" transform="translate(0)" fill="none" stroke="#0f1f33" stroke-linecap="round" stroke-width="2">
        <rect width="62.53" height="62.529" rx="31.265" stroke="none"/>
        <rect x="1" y="1" width="60.53" height="60.529" rx="30.265" fill="none"/>
      </g>
    </g>
    <g id="Grupo_1189701" data-name="Grupo 1189701" transform="translate(15.87 15.367)">
      <g id="Grupo_1189701-2" data-name="Grupo 1189701" transform="translate(0.622 0.622)">
        <path id="Trazado_879296" data-name="Trazado 879296" d="M318.811,73.264l-5.3,10.59,3.564,1.787,1.739-3.472L324.5,70.818a2,2,0,0,0-3.566-1.787Zm0,0" transform="translate(-294.637 -64.33)" fill="#ffc15a" fill-rule="evenodd"/>
        <path id="Trazado_879297" data-name="Trazado 879297" d="M310.643,325.8l-3.564-1.787-.426,5.3Zm0,0" transform="translate(-288.208 -304.491)" fill="#ffe6c0" fill-rule="evenodd"/>
        <path id="Trazado_879298" data-name="Trazado 879298" d="M28.875,29.528l5.3-10.59V14.8H31.3a1.675,1.675,0,0,1-1.67-1.671V10H11.794A1.8,1.8,0,0,0,10,11.794V38.8a1.8,1.8,0,0,0,1.79,1.792H32.388a1.8,1.8,0,0,0,1.79-1.792V27.843l-1.739,3.472-3.99,3.514Zm0,0" transform="translate(-10.004 -10.004)" fill="#f9f9f9" fill-rule="evenodd"/>
        <path id="Trazado_879299" data-name="Trazado 879299" d="M325.691,13.127a1.675,1.675,0,0,0,1.67,1.671h2.875L325.691,10Zm0,0" transform="translate(-306.063 -10.004)" fill="#d7d6d8" fill-rule="evenodd"/>
        <path id="Trazado_879300" data-name="Trazado 879300" d="M152.085,66.779a.723.723,0,0,0,.721.723h1.251a.723.723,0,0,0,.722-.723V65.456H156.1a.724.724,0,0,0,.722-.721V63.482a.724.724,0,0,0-.722-.721h-1.323V61.437a.723.723,0,0,0-.722-.723h-1.251a.723.723,0,0,0-.721.723v1.324H150.76a.723.723,0,0,0-.721.721v1.253a.723.723,0,0,0,.721.721h1.325Zm0,0" transform="translate(-141.332 -57.562)" fill="#ff6977" fill-rule="evenodd"/>
      </g>
      <path id="Trazado_879301" data-name="Trazado 879301" d="M195.017,491.992H195a.622.622,0,1,0,0,1.244h.012a.622.622,0,1,0,0-1.244Zm0,0" transform="translate(-182.297 -461.402)"/>
      <path id="Trazado_879302" data-name="Trazado 879302" d="M156.215,226.618a.622.622,0,0,0,.622.622l8.732,0h0a.622.622,0,0,0,0-1.244l-8.732,0A.623.623,0,0,0,156.215,226.618Zm0,0" transform="translate(-146.502 -211.944)"/>
      <path id="Trazado_879303" data-name="Trazado 879303" d="M29.857,3.9a2.52,2.52,0,0,0-3.5,1.142l-.941,1.88V5.416a.619.619,0,0,0-.167-.423l0-.005L20.7.194A.63.63,0,0,0,20.247,0H2.412A2.415,2.415,0,0,0,0,2.413V29.42a2.416,2.416,0,0,0,2.412,2.414h7.819a.622.622,0,1,0,0-1.244H2.412a1.171,1.171,0,0,1-1.168-1.17V2.413A1.17,1.17,0,0,1,2.412,1.244H19.628v2.5a2.3,2.3,0,0,0,2.292,2.293h2.253v3.37L19.149,19.444a.614.614,0,0,0-.082-.006l-8.732,0a.622.622,0,0,0,0,1.244l8.491,0-.333,4.144-8.158,0a.622.622,0,0,0,0,1.244h0l8.73,0h0a.622.622,0,0,0,.411-.155l3.99-3.514a.62.62,0,0,0,.145-.188h0l0-.006,0,0,.556-1.109V29.42a1.171,1.171,0,0,1-1.168,1.17H15.187a.622.622,0,1,0,0,1.244h7.819a2.416,2.416,0,0,0,2.412-2.414V18.608l5.619-11.22A2.521,2.521,0,0,0,29.857,3.9Zm-7.936.892a1.05,1.05,0,0,1-1.048-1.049V2.182l2.477,2.612ZM19.81,23.964l.229-2.848,1.915.96ZM29.925,6.831,22.779,21.1l-2.452-1.229L25.343,9.853v0L27.472,5.6A1.3,1.3,0,0,1,29.3,5.015,1.3,1.3,0,0,1,29.925,6.831Zm0,0"/>
      <path id="Trazado_879304" data-name="Trazado 879304" d="M65.01,286.147a.622.622,0,0,0-.868.145l-1.825,2.56-.5-.444a.622.622,0,0,0-.825.931l1.018.9a.622.622,0,0,0,.919-.1l2.227-3.123A.622.622,0,0,0,65.01,286.147Zm0,0" transform="translate(-57.002 -268.247)"/>
      <path id="Trazado_879305" data-name="Trazado 879305" d="M65.01,364.409a.622.622,0,0,0-.868.145l-1.825,2.561-.5-.444a.622.622,0,1,0-.826.93l1.018.9a.622.622,0,0,0,.92-.1l2.227-3.125A.622.622,0,0,0,65.01,364.409Zm0,0" transform="translate(-57.002 -341.643)"/>
      <path id="Trazado_879306" data-name="Trazado 879306" d="M60.991,211.051l1.018.9a.623.623,0,0,0,.413.157.614.614,0,0,0,.07,0,.622.622,0,0,0,.436-.257l2.227-3.125A.622.622,0,0,0,64.142,208l-1.825,2.561-.5-.444a.622.622,0,1,0-.826.93Zm0,0" transform="translate(-57.002 -194.826)"/>
      <path id="Trazado_879307" data-name="Trazado 879307" d="M144.674,50.711h-1.251a1.346,1.346,0,0,0-1.344,1.345v.7h-.7a1.344,1.344,0,0,0-1.343,1.343v1.251a1.345,1.345,0,0,0,1.343,1.345h.7v.7a1.346,1.346,0,0,0,1.345,1.345h1.251a1.346,1.346,0,0,0,1.344-1.345v-.7h.7a1.346,1.346,0,0,0,1.344-1.345V54.1a1.345,1.345,0,0,0-1.344-1.343h-.7v-.7A1.346,1.346,0,0,0,144.674,50.711ZM146.72,54a.1.1,0,0,1,.1.1v1.251a.1.1,0,0,1-.1.1H145.4a.622.622,0,0,0-.622.622V57.4a.1.1,0,0,1-.1.1h-1.251a.1.1,0,0,1-.1-.1V56.074a.622.622,0,0,0-.622-.622h-1.323a.1.1,0,0,1-.1-.1V54.1a.1.1,0,0,1,.1-.1H142.7a.622.622,0,0,0,.622-.622V52.056a.1.1,0,0,1,.1-.1h1.251a.1.1,0,0,1,.1.1v1.324A.622.622,0,0,0,145.4,54Zm0,0" transform="translate(-131.328 -47.558)"/>
    </g>
  </g>
</svg>
