<svg id="Grupo_1188800" data-name="Grupo 1188800" xmlns="http://www.w3.org/2000/svg" width="62.53" height="62.53" viewBox="0 0 62.53 62.53">
  <g id="Grupo_1188789" data-name="Grupo 1188789" transform="translate(0)">
    <rect id="Rectángulo_400898" data-name="Rectángulo 400898" width="51.765" height="51.765" rx="25.882" transform="translate(5.383 5.382)" fill="#ffd907"/>
    <rect id="Rectángulo_400907" data-name="Rectángulo 400907" width="56.056" height="56.056" rx="28.028" transform="translate(3.238 3.237)" fill="none"/>
    <g id="Grupo_1098742" data-name="Grupo 1098742" transform="translate(0)">
      <g id="Rectángulo_400898-2" data-name="Rectángulo 400898" transform="translate(0)" fill="none" stroke="#fff" stroke-width="2" opacity="0.859">
        <rect width="62.53" height="62.529" rx="31.265" stroke="none"/>
        <rect x="1" y="1" width="60.53" height="60.529" rx="30.265" fill="none"/>
      </g>
      <g id="Rectángulo_400907-2" data-name="Rectángulo 400907" transform="translate(0)" fill="none" stroke="#0f1f33" stroke-linecap="round" stroke-width="2">
        <rect width="62.53" height="62.529" rx="31.265" stroke="none"/>
        <rect x="1" y="1" width="60.53" height="60.529" rx="30.265" fill="none"/>
      </g>
    </g>
    <g id="Grupo_1188790" data-name="Grupo 1188790" transform="translate(14.849 13.071)">
      <path id="Trazado_876111" data-name="Trazado 876111" d="M67.107,252.374a12.937,12.937,0,0,1-1.4,3.553l-.486.843a.394.394,0,0,1-.308.2,8.32,8.32,0,0,0-.551,1.494l-2.918,11.094a.586.586,0,0,0,.567.735H88.494a.586.586,0,0,0,.567-.735l-2.918-11.094a8.317,8.317,0,0,0-.551-1.494.394.394,0,0,1-.308-.2l-.486-.843a12.935,12.935,0,0,1-1.4-3.553H67.107Z" transform="translate(-58.835 -234.438)" fill="#c17d4f"/>
      <path id="Trazado_876112" data-name="Trazado 876112" d="M134.136,333.327a1.728,1.728,0,0,1-1.331-.841l-.015-.026h0q-.055-.1-.112-.19h0a1.684,1.684,0,0,1-1.1.934,7.944,7.944,0,0,1-4.113,0,1.684,1.684,0,0,1-1.1-.934h0l-.128.216a1.728,1.728,0,0,1-1.331.841.99.99,0,0,1-.411-.05l-.731,1.266a2.275,2.275,0,0,1-3.4.632q-.161-.129-.318-.265a.12.12,0,0,0-.2.121l.3,1.115a4.99,4.99,0,0,0,3.218,3.451,9.606,9.606,0,0,1-2.44-1.234.1.1,0,0,0-.155.109l.26.972a4.442,4.442,0,0,0,3.424,3.21l.022,0a4.133,4.133,0,0,0,3.711-1.139l.66-.66a2.3,2.3,0,0,0,.673-1.625,2.3,2.3,0,0,0,.673,1.625l.66.66a4.133,4.133,0,0,0,3.711,1.139l.022,0a4.442,4.442,0,0,0,3.424-3.21l.26-.972a.1.1,0,0,0-.155-.109,9.606,9.606,0,0,1-2.44,1.234,4.99,4.99,0,0,0,3.218-3.451l.3-1.115a.12.12,0,0,0-.2-.121q-.157.136-.318.265a2.275,2.275,0,0,1-3.4-.632l-.731-1.266a.991.991,0,0,1-.411.05" transform="translate(-113.098 -308.656)" fill="#f9f6f9"/>
      <path id="Trazado_876113" data-name="Trazado 876113" d="M178.221,147.339A14.071,14.071,0,0,0,176,144.45l-.668-.668a1.309,1.309,0,0,1-.383-.925v0a1.309,1.309,0,0,1-.383.925l-.668.668a14.07,14.07,0,0,0-2.161,2.785l-.077.13h0a1.728,1.728,0,0,1-1.331.841.992.992,0,0,1-.791-.286,2.563,2.563,0,0,1-.751-1.8l-.039-7.481a5.476,5.476,0,0,1,1.6-3.9,5.984,5.984,0,0,1,4.231-1.753h.731a5.984,5.984,0,0,1,4.231,1.753,5.476,5.476,0,0,1,1.6,3.9l-.039,7.481a2.563,2.563,0,0,1-.751,1.8.992.992,0,0,1-.791.286,1.728,1.728,0,0,1-1.331-.841Z" transform="translate(-158.531 -123.535)" fill="#f9f6f9"/>
      <path id="Trazado_876114" data-name="Trazado 876114" d="M218.908,179.379h-.168a2.76,2.76,0,0,0-2.76,2.76v.09a.756.756,0,0,0,.756.756.131.131,0,0,1,.113.065l.39.676a1.1,1.1,0,0,0,.956.552h1.257a1.1,1.1,0,0,0,.956-.552l.39-.676a.131.131,0,0,1,.113-.065.756.756,0,0,0,.756-.756v-.09A2.76,2.76,0,0,0,218.908,179.379Z" transform="translate(-202.407 -166.63)" fill="#665e66"/>
      <path id="Trazado_876115" data-name="Trazado 876115" d="M39.865,62.745a16.071,16.071,0,0,1-.548-4.159v-7.63a2.631,2.631,0,0,1,.3-1.219A2.4,2.4,0,0,0,37.4,51.509a4.341,4.341,0,0,1-1.123,1.946l-1.466,1.466A7.885,7.885,0,0,0,32.5,60.5a3.357,3.357,0,0,0,.983,2.373l3.34,3.34a1.405,1.405,0,0,1,.364.63l.428,1.6a.4.4,0,0,0,.738.1l.486-.843a12.935,12.935,0,0,0,1.4-3.553Z" transform="translate(-31.966 -46.201)" fill="#985e33"/>
      <path id="Trazado_876116" data-name="Trazado 876116" d="M135.719,20.675a4.37,4.37,0,0,0-1.28-3.09L132.854,16a14.489,14.489,0,0,0-3.1,1.337,2.633,2.633,0,0,0-1.316,2.28v7.63a16.068,16.068,0,0,0,.548,4.159l1.057,3.944a2.512,2.512,0,0,0,1.3,1.594l-.036-6.976a5.476,5.476,0,0,1,1.6-3.9,5.982,5.982,0,0,1,1.866-1.265l.8-3A4.37,4.37,0,0,0,135.719,20.675Z" transform="translate(-121.082 -14.863)" fill="#c17d4f"/>
      <path id="Trazado_876117" data-name="Trazado 876117" d="M215.735,273.462l-.668-.668a1.308,1.308,0,0,1-.383-.91s0-.01,0-.016h0l-.009.149a1.308,1.308,0,0,1-.375.776l-.668.668a14.07,14.07,0,0,0-2.109,2.7,1.684,1.684,0,0,0,1.1.934,7.944,7.944,0,0,0,2.056.271h0a7.947,7.947,0,0,0,2.056-.271,1.684,1.684,0,0,0,1.1-.934A14.072,14.072,0,0,0,215.735,273.462Z" transform="translate(-198.266 -252.546)" fill="#e2dfe2"/>
      <path id="Trazado_876118" data-name="Trazado 876118" d="M370.984,62.745a16.07,16.07,0,0,0,.548-4.159v-7.63a2.631,2.631,0,0,0-.3-1.219,2.4,2.4,0,0,1,2.219,1.773,4.341,4.341,0,0,0,1.123,1.946l1.466,1.466A7.885,7.885,0,0,1,378.35,60.5a3.356,3.356,0,0,1-.983,2.373l-3.34,3.34a1.405,1.405,0,0,0-.364.63l-.428,1.6a.4.4,0,0,1-.738.1l-.486-.843a12.934,12.934,0,0,1-1.4-3.553Z" transform="translate(-346.048 -46.201)" fill="#985e33"/>
      <path id="Trazado_876119" data-name="Trazado 876119" d="M281.045,20.675a4.369,4.369,0,0,1,1.28-3.09L283.91,16a14.488,14.488,0,0,1,3.1,1.337,2.633,2.633,0,0,1,1.316,2.28v7.63a16.069,16.069,0,0,1-.548,4.159l-1.057,3.944a2.512,2.512,0,0,1-1.3,1.594l.036-6.976a5.477,5.477,0,0,0-1.6-3.9A5.982,5.982,0,0,0,282,24.8l-.8-3A4.368,4.368,0,0,1,281.045,20.675Z" transform="translate(-262.848 -14.863)" fill="#c17d4f"/>
      <path id="Trazado_876120" data-name="Trazado 876120" d="M333.5,20.28a14.493,14.493,0,0,0-2.413-1.112,2.633,2.633,0,0,1,.887,1.97v7.63a16.072,16.072,0,0,1-.221,2.653,5.474,5.474,0,0,1,.2,1.489l-.036,6.976a2.512,2.512,0,0,0,1.3-1.594l1.057-3.944a16.069,16.069,0,0,0,.548-4.159V22.56A2.633,2.633,0,0,0,333.5,20.28Z" transform="translate(-309.336 -17.806)" fill="#b16e3d"/>
      <path id="Trazado_876121" data-name="Trazado 876121" d="M199.929,8.1a14.488,14.488,0,0,0-4.14-.6h-1.011a14.488,14.488,0,0,0-4.14.6l1.586,1.586a4.37,4.37,0,0,1,1.131,4.221l-.8,3a5.983,5.983,0,0,1,2.366-.488h.366v0h.366a5.982,5.982,0,0,1,2.366.488l-.8-3a4.369,4.369,0,0,1,1.131-4.221Z" transform="translate(-178.866 -6.967)" fill="#e2dfe2"/>
      <path id="Trazado_876122" data-name="Trazado 876122" d="M370.61,246.994l.11-.412Z" transform="translate(-346.047 -229.057)" fill="#8b818e"/>
      <g id="Grupo_1188727" data-name="Grupo 1188727" transform="translate(2.589 17.936)">
        <path id="Trazado_876123" data-name="Trazado 876123" d="M128.229,255.1l0,.5a2.563,2.563,0,0,0,.749,1.8.986.986,0,0,0,.783.289,1.728,1.728,0,0,0,1.31-.792l0-.377a2.512,2.512,0,0,1-1.3-1.594l-.684-2.551a12.934,12.934,0,0,1-.941,2.682Z" transform="translate(-123.408 -252.376)" fill="#b16e3d"/>
        <path id="Trazado_876124" data-name="Trazado 876124" d="M89.06,269.558l-2.918-11.094a8.317,8.317,0,0,0-.551-1.494.394.394,0,0,1-.308-.2l-.486-.843a12.936,12.936,0,0,1-1.4-3.553l-.683,2.551a2.522,2.522,0,0,1-.113.33,8.317,8.317,0,0,1,.7,1.787l1.35,5.132a5.34,5.34,0,0,1-5.164,6.7H61.623l-.181.686a.586.586,0,0,0,.567.735H88.493A.586.586,0,0,0,89.06,269.558Z" transform="translate(-61.422 -252.375)" fill="#b16e3d"/>
        <path id="Trazado_876125" data-name="Trazado 876125" d="M128.229,255.1l0,.5a2.563,2.563,0,0,0,.749,1.8.986.986,0,0,0,.783.289,1.728,1.728,0,0,0,1.31-.792l0-.377a2.512,2.512,0,0,1-1.3-1.594l-.684-2.551a12.934,12.934,0,0,1-.941,2.682Z" transform="translate(-123.408 -252.376)" fill="#b16e3d"/>
      </g>
      <path id="Trazado_876126" data-name="Trazado 876126" d="M384.184,370.327l.021-.075.3-1.115a.12.12,0,0,0-.2-.121q-.157.136-.318.265l-.067.052Z" transform="translate(-358.413 -342.761)" fill="#e2dfe2"/>
      <path id="Trazado_876127" data-name="Trazado 876127" d="M53.9,6.877a3.812,3.812,0,0,1-.986-1.707A2.912,2.912,0,0,0,50.5,3.029a3.161,3.161,0,0,0-1.07-1.016A15.022,15.022,0,0,0,41.921,0H40.91A15.022,15.022,0,0,0,33.4,2.013a3.162,3.162,0,0,0-1.07,1.016A2.912,2.912,0,0,0,29.915,5.17a3.813,3.813,0,0,1-.986,1.707L27.464,8.343A8.363,8.363,0,0,0,25,14.3a3.864,3.864,0,0,0,1.139,2.75l3.34,3.34a.872.872,0,0,1,.226.391l.428,1.6a.935.935,0,0,0,.245.423,8.875,8.875,0,0,0-.366,1.095L27.091,34.984a1.119,1.119,0,0,0,1.082,1.4H54.658a1.119,1.119,0,0,0,1.082-1.4L52.821,23.89a8.867,8.867,0,0,0-.366-1.095.935.935,0,0,0,.244-.423l.428-1.6a.872.872,0,0,1,.226-.391l3.34-3.34a3.864,3.864,0,0,0,1.139-2.75,8.363,8.363,0,0,0-2.466-5.953ZM49.948,4.754v7.63a15.544,15.544,0,0,1-.529,4.021l-1.057,3.944a1.979,1.979,0,0,1-.243.552l.007-1.286a.533.533,0,1,0-1.066-.006c-.021,3.95-.007,1.423-.015,2.973a2.018,2.018,0,0,1-.595,1.425.458.458,0,0,1-.366.132,1.2,1.2,0,0,1-.92-.581,14.622,14.622,0,0,0-2.32-3.021l-.668-.668a.77.77,0,0,1-.227-.548c0-.132,0,.448,0-1.141h.1a1.642,1.642,0,0,0,1.418-.819l.288-.5A1.291,1.291,0,0,0,44.793,15.6v-.09A3.3,3.3,0,0,0,41.5,12.215h-.168a3.3,3.3,0,0,0-3.293,3.293v.09a1.291,1.291,0,0,0,1.043,1.265l.288.5a1.642,1.642,0,0,0,1.418.819h.1v1.141a.771.771,0,0,1-.227.548l-.668.668a14.623,14.623,0,0,0-2.319,3.02,1.2,1.2,0,0,1-.921.582.457.457,0,0,1-.366-.132,2.018,2.018,0,0,1-.595-1.425c0-.94-.032-6.192-.039-7.481a5.2,5.2,0,0,1,5.3-5.118h.731a5.2,5.2,0,0,1,5.3,5.118l-.01,1.958a.533.533,0,0,0,1.066.006l.01-1.958a6.047,6.047,0,0,0-1.76-4.281A6.522,6.522,0,0,0,44.6,9.554l-.736-2.748A3.827,3.827,0,0,1,44.852,3.1L46.21,1.742A13.969,13.969,0,0,1,48.9,2.936,2.105,2.105,0,0,1,49.948,4.754Zm-9.519,9.8a.533.533,0,0,0-.533.533v.732h-.57A.223.223,0,0,1,39.1,15.6v-.09a2.23,2.23,0,0,1,2.227-2.227H41.5a2.23,2.23,0,0,1,2.227,2.227v.09a.223.223,0,0,1-.223.223h-.57v-.732a.533.533,0,0,0-1.066,0v.75a1.05,1.05,0,0,0,.677.98l-.006.01a.573.573,0,0,1-.495.286H40.787a.573.573,0,0,1-.495-.286l-.006-.01a1.05,1.05,0,0,0,.677-.98v-.75a.533.533,0,0,0-.533-.533Zm.985,6.062c.066.067-.24-.24.675.675a13.55,13.55,0,0,1,1.865,2.33,1.145,1.145,0,0,1-.621.412,7.444,7.444,0,0,1-3.837,0,1.145,1.145,0,0,1-.621-.412,13.554,13.554,0,0,1,1.865-2.33Zm.505-19.551a13.948,13.948,0,0,1,3.107.35l-.93.93a4.891,4.891,0,0,0-1.269,4.735l.544,2.032a6.559,6.559,0,0,0-1.593-.195H41.05a6.56,6.56,0,0,0-1.593.195L40,7.081a4.89,4.89,0,0,0-1.269-4.736l-.93-.929a13.949,13.949,0,0,1,3.107-.35ZM30.231,19.632l-3.34-3.34a2.8,2.8,0,0,1-.827-2,7.3,7.3,0,0,1,2.153-5.2l1.466-1.466a4.881,4.881,0,0,0,1.261-2.185,1.854,1.854,0,0,1,.906-1.154,3.144,3.144,0,0,0-.034.463V8.395a.533.533,0,0,0,1.066,0V4.754a2.106,2.106,0,0,1,1.05-1.818,13.972,13.972,0,0,1,2.689-1.194L37.979,3.1a3.828,3.828,0,0,1,.993,3.706l-.736,2.748a6.524,6.524,0,0,0-1.794,1.274,6.048,6.048,0,0,0-1.76,4.281l.03,5.793a1.976,1.976,0,0,1-.243-.552l-.681-2.542,0-.015-.371-1.386a15.542,15.542,0,0,1-.529-4.021v-1.5a.533.533,0,1,0-1.066,0v1.5a16.609,16.609,0,0,0,.566,4.3l.338,1.263a12.392,12.392,0,0,1-1.312,3.278l-.329.57L30.733,20.5A1.94,1.94,0,0,0,30.231,19.632ZM54.709,35.255a.053.053,0,0,1-.051.066H28.173a.053.053,0,0,1-.051-.066L31.04,24.161a7.809,7.809,0,0,1,.422-1.2.934.934,0,0,0,.382-.365l.486-.843a13.46,13.46,0,0,0,.9-1.891l.2.76a3.05,3.05,0,0,0,1.281,1.764v.2a3.078,3.078,0,0,0,.907,2.173l.038.037-.475.822a1.743,1.743,0,0,1-2.6.482c-.1-.081-.2-.166-.3-.252a.653.653,0,0,0-1.06.662l.3,1.115a5.611,5.611,0,0,0,.786,1.714.637.637,0,0,0-.163.611l.26.972a4.951,4.951,0,0,0,5.524,3.62.533.533,0,0,0-.178-1.051,3.882,3.882,0,0,1-4.292-2.761,9.915,9.915,0,0,0,1.627.714.533.533,0,0,0,.338-1.011,4.442,4.442,0,0,1-2.872-3.083l-.01-.038a2.806,2.806,0,0,0,3.568-1.16l.546-.946a1.547,1.547,0,0,0,.182-.006,2.266,2.266,0,0,0,1.418-.677,2.227,2.227,0,0,0,.961.538,8.477,8.477,0,0,0,4.389,0,2.228,2.228,0,0,0,.961-.538,2.267,2.267,0,0,0,1.418.677,1.542,1.542,0,0,0,.182.006l.546.946a2.806,2.806,0,0,0,3.568,1.16l-.01.038A4.442,4.442,0,0,1,47.4,30.436a.533.533,0,0,0,.338,1.011,9.92,9.92,0,0,0,1.627-.714,3.933,3.933,0,0,1-3.011,2.746,3.593,3.593,0,0,1-3.232-.993l-.66-.66a1.753,1.753,0,0,1-.517-1.248.533.533,0,1,0-1.066,0,1.753,1.753,0,0,1-.517,1.248l-.66.66a.533.533,0,0,0,.754.754l.66-.66a2.866,2.866,0,0,0,.3-.347,2.871,2.871,0,0,0,.3.347l.66.66a4.666,4.666,0,0,0,3.3,1.372,4.987,4.987,0,0,0,4.751-3.686l.26-.972a.637.637,0,0,0-.163-.611,5.611,5.611,0,0,0,.786-1.714l.3-1.115a.653.653,0,0,0-1.059-.662c-.1.086-.2.171-.3.252a1.743,1.743,0,0,1-2.6-.482l-.475-.822.039-.037a3.078,3.078,0,0,0,.907-2.173v-.2a3.05,3.05,0,0,0,1.281-1.764l.2-.76a13.459,13.459,0,0,0,.9,1.891l.487.843a.934.934,0,0,0,.382.365,7.814,7.814,0,0,1,.422,1.2Zm1.231-18.964-3.34,3.34a1.94,1.94,0,0,0-.5.869l-.346,1.292-.329-.57a12.393,12.393,0,0,1-1.312-3.278l.338-1.263a16.609,16.609,0,0,0,.566-4.3V4.754a3.147,3.147,0,0,0-.034-.463,1.855,1.855,0,0,1,.906,1.154,4.88,4.88,0,0,0,1.261,2.185L54.613,9.1a7.3,7.3,0,0,1,2.153,5.2A2.805,2.805,0,0,1,55.939,16.292Z" transform="translate(-24.998 0)"/>
      <path id="Trazado_876128" data-name="Trazado 876128" d="M300.634,63.309a1.61,1.61,0,0,0-1.513,1.066.533.533,0,1,0,1,.358.541.541,0,0,1,.891-.2l1.042,1.042a2.46,2.46,0,0,1,.725,1.751v.7a.533.533,0,1,0,1.066,0v-.7a3.519,3.519,0,0,0-1.038-2.505l-1.042-1.042A1.6,1.6,0,0,0,300.634,63.309Z" transform="translate(-279.61 -58.81)"/>
      <path id="Trazado_876129" data-name="Trazado 876129" d="M146.466,68.558a.533.533,0,0,0,.533-.533v-.7a2.46,2.46,0,0,1,.725-1.751l1.042-1.042a.541.541,0,0,1,.891.2.533.533,0,0,0,1-.358,1.607,1.607,0,0,0-2.649-.6l-1.042,1.042a3.52,3.52,0,0,0-1.038,2.505v.7A.533.533,0,0,0,146.466,68.558Z" transform="translate(-137.338 -58.809)"/>
    </g>
  </g>
</svg>
