<svg xmlns="http://www.w3.org/2000/svg" xmlns:xlink="http://www.w3.org/1999/xlink" width="84.208" height="84.207" viewBox="0 0 84.208 84.207">
  <defs>
    <clipPath id="clip-path">
      <path id="path8516" d="M0-682.665H52.964V-629.7H0Z" transform="translate(0 682.665)"/>
    </clipPath>
  </defs>
  <g id="Grupo_1204982" data-name="Grupo 1204982" transform="translate(-872.726 -278.777)">
    <g id="Grupo_1188789" data-name="Grupo 1188789" transform="translate(583.726 -5835.222)">
      <rect id="Rectángulo_400898" data-name="Rectángulo 400898" width="75.49" height="75.489" rx="37.744" transform="translate(293.36 6118.358)" fill="#ffd907"/>
      <rect id="Rectángulo_400907" data-name="Rectángulo 400907" width="75.49" height="75.489" rx="37.744" transform="translate(293.36 6118.358)" fill="none"/>
      <g id="Grupo_1098742" data-name="Grupo 1098742" transform="translate(289 6114)">
        <g id="Rectángulo_400898-2" data-name="Rectángulo 400898" transform="translate(0)" fill="none" stroke="#fff" stroke-width="1" opacity="0.859">
          <rect width="84.208" height="84.207" rx="42.104" stroke="none"/>
          <rect x="0.5" y="0.5" width="83.208" height="83.207" rx="41.604" fill="none"/>
        </g>
        <g id="Rectángulo_400907-2" data-name="Rectángulo 400907" transform="translate(0)" fill="none" stroke="#0f1f33" stroke-linecap="round" stroke-width="1">
          <rect width="84.208" height="84.207" rx="42.104" stroke="none"/>
          <rect x="0.5" y="0.5" width="83.208" height="83.207" rx="41.604" fill="none"/>
        </g>
      </g>
      <g id="Grupo_1204983" data-name="Grupo 1204983" transform="translate(14.488 138.709)">
        <rect id="Rectángulo_400907-3" data-name="Rectángulo 400907" width="5.857" height="5.857" rx="2.928" transform="translate(289.631 6000.8)" fill="none"/>
        <g id="g8508" transform="translate(290.639 5990.912)">
          <path id="path8510" d="M292.023-208.118h4.9v-11.2h-4.9Z" transform="translate(-269.367 255.264)" fill="#67b59f"/>
          <g id="g8512" transform="translate(0 0)">
            <g id="g8514" clip-path="url(#clip-path)">
              <g id="g8520" transform="translate(27.912 24.532)">
                <path id="path8522" d="M0-34.131,3.739-36.91a.459.459,0,0,1,.732.368v2a1.947,1.947,0,0,1-1.947,1.947H0Z" transform="translate(0 37.001)" fill="#e69642"/>
              </g>
              <g id="g8524" transform="translate(17.833 24.532)">
                <path id="path8526" d="M-53.161-34.131-56.9-36.91a.459.459,0,0,0-.732.368v2a1.947,1.947,0,0,0,1.947,1.947h2.525Z" transform="translate(57.632 37.001)" fill="#e69642"/>
              </g>
              <g id="g8528" transform="translate(20.564 24.967)">
                <path id="path8530" d="M-108.055-41.295v5.485A3.8,3.8,0,0,1-111.86-32h-1.479a3.8,3.8,0,0,1-3.8-3.805V-41.3a4.33,4.33,0,0,1,1.8-2.636,4.912,4.912,0,0,1,5.484,0,4.329,4.329,0,0,1,1.8,2.637" transform="translate(117.144 44.768)" fill="#ecb880"/>
              </g>
              <g id="g8532" transform="translate(20.95 33.803)">
                <path id="path8534" d="M-45.633,0a10.4,10.4,0,0,0-3.033.438,1.123,1.123,0,0,0-.65,1.641,3.8,3.8,0,0,0,3.264,1.849h1.479a3.8,3.8,0,0,0,3.081-1.574A1.128,1.128,0,0,0-42,.645,10.112,10.112,0,0,0-45.633,0" transform="translate(49.471)" fill="#ffe3cc"/>
              </g>
              <path id="path8536" d="M96.418-214.272h3.363v-10.768H96.418Z" transform="translate(-88.938 260.544)" fill="#e29576"/>
              <g id="g8538" transform="translate(1.134 19.304)">
                <path id="path8540" d="M-189-201.965l-3.392-5.085a.588.588,0,0,1,.225-.852l1.578-.792a.942.942,0,0,0,.361-1.364l-5.54-8.305a1.323,1.323,0,0,0-2.2,0l-5.54,8.305a.942.942,0,0,0,.361,1.364l1.578.792a.588.588,0,0,1,.225.852l-3.392,5.085a.94.94,0,0,0,.782,1.461h14.173a.94.94,0,0,0,.782-1.461" transform="translate(204.895 218.952)" fill="#6fbbc6"/>
              </g>
              <g id="g8542" transform="translate(8.079 19.305)">
                <path id="path8544" d="M-106.426-201.959l-3.392-5.085a.588.588,0,0,1,.225-.852l1.578-.792a.942.942,0,0,0,.361-1.364l-5.54-8.305a1.322,1.322,0,0,0-2.183-.023l5.29,8.111a.974.974,0,0,1-.361,1.4l-1.578.81a.608.608,0,0,0-.225.871l3.392,5.2a.962.962,0,0,1-.782,1.495h2.433a.94.94,0,0,0,.782-1.461" transform="translate(115.377 218.945)" fill="#61aab8"/>
              </g>
              <g id="g8546" transform="translate(2.201 42.852)">
                <path id="path8548" d="M-236.985-70.116h-19.933a7.592,7.592,0,0,1,7.4-5.9h5.131a7.593,7.593,0,0,1,7.4,5.9" transform="translate(256.918 76.013)" fill="#94ccd4"/>
              </g>
              <g id="g8550" transform="translate(10.522 40.029)">
                <path id="path8552" d="M-356.365-103.679h-29.974a5.182,5.182,0,0,1,5.124-4.4,5.2,5.2,0,0,1,1.224.147,5.184,5.184,0,0,1,5.022-3.9,5.175,5.175,0,0,1,4.121,2.04,5.178,5.178,0,0,1,4.493-2.6,5.184,5.184,0,0,1,4.916,3.54,5.181,5.181,0,0,1,5.074,5.18" transform="translate(386.339 112.4)" fill="#67b59f"/>
              </g>
              <g id="g8554" transform="translate(29.308 40.029)">
                <path id="path8556" d="M-45.974-50.752A5.16,5.16,0,0,1-40.985-46.3h2.331a5.181,5.181,0,0,0-5.074-5.18,5.184,5.184,0,0,0-4.916-3.54,5.187,5.187,0,0,0-1.2.14,5.978,5.978,0,0,1,3.867,4.129" transform="translate(49.841 55.021)" fill="#56988c"/>
              </g>
              <g id="g8558" transform="translate(35.977 14.105)">
                <path id="path8560" d="M-188.48-49.611v6.177a7.991,7.991,0,0,1-7.867,8.026,7.926,7.926,0,0,1-7.986-7.926V-49.61a.937.937,0,0,1,.766-.923,14.2,14.2,0,0,0,6.56-3.03.931.931,0,0,1,1.2,0,14.2,14.2,0,0,0,6.559,3.03.938.938,0,0,1,.766.922" transform="translate(204.333 53.783)" fill="#e27f86"/>
              </g>
              <g id="g8562" transform="translate(42.852 17.048)">
                <path id="path8564" d="M-97.639-3.664q-.671-.124-1.325-.308a.974.974,0,0,1,.283.686V3.128a8.316,8.316,0,0,1-7.17,8.262,7.976,7.976,0,0,0,1.111.071,7.991,7.991,0,0,0,7.867-8.026V-2.741a.937.937,0,0,0-.766-.922" transform="translate(105.852 3.972)" fill="#cd5668"/>
              </g>
              <g id="g8566" transform="translate(40.397 23.694)">
                <path id="path8568" d="M-41.689-53.131c-1.772,0-3.239-.463-3.5-1.742a.5.5,0,0,1,.27-.552c1.688-.811,1.379-2.174,3.226-2.174s1.538,1.363,3.226,2.174a.5.5,0,0,1,.27.552c-.257,1.28-1.725,1.742-3.5,1.742" transform="translate(45.196 57.6)" fill="#ffe3cc"/>
              </g>
              <g id="g8570" transform="translate(20.024 19.907)">
                <path id="path8572" d="M0,0,2.546,2.469a1.253,1.253,0,0,1,.383.9V5.565" fill="none" stroke="#000" stroke-linecap="round" stroke-linejoin="round" stroke-miterlimit="10" stroke-width="1.5"/>
              </g>
              <g id="g8574" transform="translate(22.011 19.907)">
                <path id="path8576" d="M0-22.907l.941-1.927" transform="translate(0 24.833)" fill="none" stroke="#000" stroke-linecap="round" stroke-linejoin="round" stroke-miterlimit="10" stroke-width="1.5"/>
              </g>
              <g id="g8578" transform="translate(27.265 19.907)">
                <path id="path8580" d="M0-66.168v-2.194a1.256,1.256,0,0,1,.382-.9l2.547-2.469" transform="translate(0 71.733)" fill="none" stroke="#000" stroke-linecap="round" stroke-linejoin="round" stroke-miterlimit="10" stroke-width="1.5"/>
              </g>
              <g id="g8582" transform="translate(27.265 19.907)">
                <path id="path8584" d="M-11.192-22.907l-.941-1.927" transform="translate(12.133 24.833)" fill="none" stroke="#000" stroke-linecap="round" stroke-linejoin="round" stroke-miterlimit="10" stroke-width="1.5"/>
              </g>
              <g id="g8586" transform="translate(22.656 37.324)">
                <path id="path8588" d="M0-39.517v-3.324" transform="translate(0 42.841)" fill="none" stroke="#000" stroke-linecap="round" stroke-linejoin="round" stroke-miterlimit="10" stroke-width="1.5"/>
              </g>
              <g id="g8590" transform="translate(27.561 37.324)">
                <path id="path8592" d="M0-43.1V-46.72" transform="translate(0 46.72)" fill="none" stroke="#000" stroke-linecap="round" stroke-linejoin="round" stroke-miterlimit="10" stroke-width="1.5"/>
              </g>
              <g id="g8594" transform="translate(28.826 24.532)">
                <path id="path8596" d="M0-26.057l2.826-2.1a.458.458,0,0,1,.731.367v2a1.946,1.946,0,0,1-1.946,1.946H.827" transform="translate(0 28.248)" fill="none" stroke="#000" stroke-linecap="round" stroke-linejoin="round" stroke-miterlimit="10" stroke-width="1.5"/>
              </g>
              <g id="g8598" transform="translate(17.833 24.532)">
                <path id="path8600" d="M-32.469-52.426h-.784A1.946,1.946,0,0,1-35.2-54.372v-2a.458.458,0,0,1,.732-.367l2.826,2.1" transform="translate(35.2 56.835)" fill="none" stroke="#000" stroke-linecap="round" stroke-linejoin="round" stroke-miterlimit="10" stroke-width="1.5"/>
              </g>
              <g id="g8602" transform="translate(23.484 31.022)">
                <path id="path8604" d="M0,0V.307" fill="none" stroke="#000" stroke-linecap="round" stroke-linejoin="round" stroke-miterlimit="10" stroke-width="1.5"/>
              </g>
              <g id="g8606" transform="translate(26.733 31.022)">
                <path id="path8608" d="M0,0V.307" fill="none" stroke="#000" stroke-linecap="round" stroke-linejoin="round" stroke-miterlimit="10" stroke-width="1.5"/>
              </g>
              <g id="g8610" transform="translate(20.564 24.967)">
                <path id="path8612" d="M-108.055-41.295v5.485A3.8,3.8,0,0,1-111.86-32h-1.479a3.8,3.8,0,0,1-3.8-3.805V-41.3a4.33,4.33,0,0,1,1.8-2.636,4.912,4.912,0,0,1,5.484,0A4.329,4.329,0,0,1-108.055-41.295Z" transform="translate(117.144 44.768)" fill="none" stroke="#000" stroke-linecap="round" stroke-linejoin="round" stroke-miterlimit="10" stroke-width="1.5"/>
              </g>
              <g id="g8614" transform="translate(20.95 33.803)">
                <path id="path8616" d="M-94.867-27.99a1.128,1.128,0,0,0-.513-1.71,10.11,10.11,0,0,0-3.628-.645,10.4,10.4,0,0,0-3.033.438,1.123,1.123,0,0,0-.65,1.641" transform="translate(102.847 30.344)" fill="none" stroke="#000" stroke-linecap="round" stroke-linejoin="round" stroke-miterlimit="10" stroke-width="1.5"/>
              </g>
              <g id="g8618" transform="translate(7.48 37.753)">
                <path id="path8620" d="M0-64.188v-5.4" transform="translate(0 69.586)" fill="none" stroke="#000" stroke-linecap="round" stroke-linejoin="round" stroke-miterlimit="10" stroke-width="1.5"/>
              </g>
              <g id="g8622" transform="translate(10.843 37.753)">
                <path id="path8624" d="M0-60.621v-5.1" transform="translate(0 65.72)" fill="none" stroke="#000" stroke-linecap="round" stroke-linejoin="round" stroke-miterlimit="10" stroke-width="1.5"/>
              </g>
              <g id="g8626" transform="translate(1.134 19.304)">
                <path id="path8628" d="M-37.2-74.7l-1.742,2.611a.942.942,0,0,0,.361,1.364l1.578.792a.588.588,0,0,1,.225.852L-40.173-64a.94.94,0,0,0,.782,1.461h14.173A.94.94,0,0,0-24.436-64l-3.392-5.085a.588.588,0,0,1,.225-.852l1.578-.792a.942.942,0,0,0,.361-1.364L-31.2-80.4a1.323,1.323,0,0,0-2.2,0l-1.79,2.683" transform="translate(40.332 80.987)" fill="none" stroke="#000" stroke-linecap="round" stroke-linejoin="round" stroke-miterlimit="10" stroke-width="1.5"/>
              </g>
              <g id="g8630" transform="translate(2.201 42.852)">
                <path id="path8632" d="M0-70.116a7.593,7.593,0,0,1,7.4-5.9h5.131a7.571,7.571,0,0,1,2.6.457" transform="translate(0 76.013)" fill="none" stroke="#000" stroke-linecap="round" stroke-linejoin="round" stroke-miterlimit="10" stroke-width="1.5"/>
              </g>
              <g id="g8634" transform="translate(39.565 45.786)">
                <path id="path8636" d="M0,0A5.157,5.157,0,0,1,.93,2.963" fill="none" stroke="#000" stroke-linecap="round" stroke-linejoin="round" stroke-miterlimit="10" stroke-width="1.5"/>
              </g>
              <g id="g8638" transform="translate(10.522 40.029)">
                <path id="path8640" d="M0-103.679a5.182,5.182,0,0,1,5.124-4.4,5.2,5.2,0,0,1,1.224.147,5.184,5.184,0,0,1,5.022-3.9,5.175,5.175,0,0,1,4.121,2.04,5.178,5.178,0,0,1,4.493-2.6,5.184,5.184,0,0,1,4.916,3.54,5.189,5.189,0,0,1,1.2.166" transform="translate(0 112.4)" fill="none" stroke="#000" stroke-linecap="round" stroke-linejoin="round" stroke-miterlimit="10" stroke-width="1.5"/>
              </g>
              <g id="g8642" transform="translate(43.903 32.481)">
                <path id="path8644" d="M0-193.424v-16.269" transform="translate(0 209.693)" fill="none" stroke="#000" stroke-linecap="round" stroke-linejoin="round" stroke-miterlimit="10" stroke-width="1.5"/>
              </g>
              <g id="g8646" transform="translate(40.397 23.694)">
                <path id="path8648" d="M-41.689-53.131c-1.772,0-3.239-.463-3.5-1.742a.5.5,0,0,1,.27-.552c1.688-.811,1.379-2.174,3.226-2.174s1.538,1.363,3.226,2.174a.5.5,0,0,1,.27.552C-38.45-53.594-39.917-53.131-41.689-53.131Z" transform="translate(45.196 57.6)" fill="none" stroke="#000" stroke-linecap="round" stroke-linejoin="round" stroke-miterlimit="10" stroke-width="1.5"/>
              </g>
              <g id="g8650" transform="translate(45.706 19.424)">
                <path id="path8652" d="M0,0A4.575,4.575,0,0,1,.025,1.769" fill="none" stroke="#000" stroke-linecap="round" stroke-linejoin="round" stroke-miterlimit="10" stroke-width="1.5"/>
              </g>
              <g id="g8654" transform="translate(42.004 19.424)">
                <path id="path8656" d="M-.859-21.036a4.575,4.575,0,0,1,.025-1.769" transform="translate(0.932 22.805)" fill="none" stroke="#000" stroke-linecap="round" stroke-linejoin="round" stroke-miterlimit="10" stroke-width="1.5"/>
              </g>
              <g id="g8658" transform="translate(48.371 21.688)">
                <path id="path8660" d="M0-18.937a2.31,2.31,0,0,0,.381-1.593" transform="translate(0 20.529)" fill="none" stroke="#000" stroke-linecap="round" stroke-linejoin="round" stroke-miterlimit="10" stroke-width="1.5"/>
              </g>
              <g id="g8662" transform="translate(39.017 21.688)">
                <path id="path8664" d="M-4.992-18.937a2.31,2.31,0,0,1-.381-1.593" transform="translate(5.412 20.529)" fill="none" stroke="#000" stroke-linecap="round" stroke-linejoin="round" stroke-miterlimit="10" stroke-width="1.5"/>
              </g>
              <g id="g8666" transform="translate(35.977 14.105)">
                <path id="path8668" d="M-188.48-49.611v6.177a7.991,7.991,0,0,1-7.867,8.026,7.926,7.926,0,0,1-7.986-7.926V-49.61a.937.937,0,0,1,.766-.923,14.2,14.2,0,0,0,6.56-3.03.931.931,0,0,1,1.2,0,14.2,14.2,0,0,0,6.559,3.03A.938.938,0,0,1-188.48-49.611Z" transform="translate(204.333 53.783)" fill="none" stroke="#000" stroke-linecap="round" stroke-linejoin="round" stroke-miterlimit="10" stroke-width="1.5"/>
              </g>
              <g id="g8670" transform="translate(0.776 48.75)">
                <path id="path8672" d="M0,0H51.412" fill="none" stroke="#000" stroke-linecap="round" stroke-linejoin="round" stroke-miterlimit="10" stroke-width="1.5"/>
              </g>
              <g id="g8674" transform="translate(26.969 6.614)">
                <path id="path8676" d="M0-6.612a2.656,2.656,0,0,1,1.63-.556A2.664,2.664,0,0,1,3.689-6.2a.308.308,0,0,0,.474,0,2.662,2.662,0,0,1,2.059-.971,2.654,2.654,0,0,1,1.63.556" transform="translate(0 7.168)" fill="none" stroke="#000" stroke-linecap="round" stroke-linejoin="round" stroke-miterlimit="10" stroke-width="1.5"/>
              </g>
              <g id="g8678" transform="translate(6.905 9.907)">
                <path id="path8680" d="M0-6.612a2.656,2.656,0,0,1,1.63-.556A2.664,2.664,0,0,1,3.689-6.2a.308.308,0,0,0,.474,0,2.662,2.662,0,0,1,2.059-.971,2.654,2.654,0,0,1,1.63.556" transform="translate(0 7.168)" fill="none" stroke="#000" stroke-linecap="round" stroke-linejoin="round" stroke-miterlimit="10" stroke-width="1.5"/>
              </g>
              <g id="g8682" transform="translate(11.971 4.214)">
                <path id="path8684" d="M0-6.612a2.656,2.656,0,0,1,1.63-.556A2.664,2.664,0,0,1,3.689-6.2a.308.308,0,0,0,.474,0,2.662,2.662,0,0,1,2.059-.971,2.655,2.655,0,0,1,1.63.556" transform="translate(0 7.168)" fill="none" stroke="#000" stroke-linecap="round" stroke-linejoin="round" stroke-miterlimit="10" stroke-width="1.5"/>
              </g>
            </g>
          </g>
        </g>
      </g>
    </g>
  </g>
</svg>
