<svg xmlns="http://www.w3.org/2000/svg" width="84.208" height="84.207" viewBox="0 0 84.208 84.207">
  <g id="Grupo_1204929" data-name="Grupo 1204929" transform="translate(-872.726 -278.777)">
    <g id="Grupo_1188789" data-name="Grupo 1188789" transform="translate(583.726 -5835.222)">
      <rect id="Rectángulo_400898" data-name="Rectángulo 400898" width="75.49" height="75.489" rx="37.744" transform="translate(293.36 6118.358)" fill="#ffd907"/>
      <rect id="Rectángulo_400907" data-name="Rectángulo 400907" width="75.49" height="75.489" rx="37.744" transform="translate(293.36 6118.358)" fill="none"/>
      <g id="Grupo_1098742" data-name="Grupo 1098742" transform="translate(289 6114)">
        <g id="Rectángulo_400898-2" data-name="Rectángulo 400898" transform="translate(0)" fill="none" stroke="#fff" stroke-width="1" opacity="0.859">
          <rect width="84.208" height="84.207" rx="42.104" stroke="none"/>
          <rect x="0.5" y="0.5" width="83.208" height="83.207" rx="41.604" fill="none"/>
        </g>
        <g id="Rectángulo_400907-2" data-name="Rectángulo 400907" transform="translate(0)" fill="none" stroke="#0f1f33" stroke-linecap="round" stroke-width="1">
          <rect width="84.208" height="84.207" rx="42.104" stroke="none"/>
          <rect x="0.5" y="0.5" width="83.208" height="83.207" rx="41.604" fill="none"/>
        </g>
      </g>
      <g id="filled_outline" data-name="filled outline" transform="translate(274.713 6113.971)">
        <path id="Trazado_1280401" data-name="Trazado 1280401" d="M224,111.84v-2.26a2.613,2.613,0,0,1,.94-2.007l3.753-3.127a1.919,1.919,0,0,1,3.147,1.474v3.426a3.92,3.92,0,0,1-1.148,2.772l-1.465,1.465v3.746a2.4,2.4,0,0,1-1.324,2.143l-2.16,1.08H224Z" transform="translate(-171.094 -78.418)" fill="#e08122"/>
        <path id="Trazado_1280402" data-name="Trazado 1280402" d="M47.84,111.84v-2.26a2.613,2.613,0,0,0-.94-2.007l-3.753-3.127A1.919,1.919,0,0,0,40,105.919v3.426a3.92,3.92,0,0,0,1.148,2.772l1.465,1.465v3.746a2.4,2.4,0,0,0,1.324,2.143l2.16,1.08H47.84Z" transform="translate(-7.129 -78.418)" fill="#e08122"/>
        <path id="Trazado_1280403" data-name="Trazado 1280403" d="M224.87,144.13a.871.871,0,0,1-.7-1.394l3.31-4.414v-1.452a.871.871,0,0,1,1.742,0v1.742a.871.871,0,0,1-.174.523l-3.484,4.646A.869.869,0,0,1,224.87,144.13Z" transform="translate(-171.094 -106.934)" fill="#bf6e1d"/>
        <path id="Trazado_1280404" data-name="Trazado 1280404" d="M68.356,144.13a.87.87,0,0,1-.7-.348l-3.484-4.646a.871.871,0,0,1-.174-.523v-1.742a.871.871,0,1,1,1.742,0v1.452l3.31,4.414a.871.871,0,0,1-.7,1.394Z" transform="translate(-28.516 -106.934)" fill="#bf6e1d"/>
        <path id="Trazado_1280405" data-name="Trazado 1280405" d="M90.258,334.181l-.836.627.462.154.96.32a1.744,1.744,0,0,1,1.191,1.653v1.358H72.871v-1.536a1.742,1.742,0,0,1,.963-1.558l.779-.39-1.593-1.593A3.484,3.484,0,0,1,72,330.752V327.69a1.743,1.743,0,0,1,.511-1.232l2.1-2.1L76.355,320h12.2l1.742,4.355,2.1,2.1a1.743,1.743,0,0,1,.511,1.233v2.762a3.484,3.484,0,0,1-1.394,2.788Z" transform="translate(-35.645 -270.899)" fill="#fd9226"/>
        <path id="Trazado_1280406" data-name="Trazado 1280406" d="M109.937,187.446h-12.2L96,183.09v-8.229a3.267,3.267,0,0,1,.957-2.31l.016-.015a3.266,3.266,0,0,1,1.848-.924l.092-.013a34.845,34.845,0,0,1,9.855,0l.092.013a3.266,3.266,0,0,1,1.848.924l.015.015a3.267,3.267,0,0,1,.957,2.31v8.229Z" transform="translate(-57.032 -138.345)" fill="#fd9226"/>
        <path id="Trazado_1280407" data-name="Trazado 1280407" d="M121.358,286.969A2.837,2.837,0,0,1,119,285.705l-.9-1.35-.9,1.35a2.837,2.837,0,0,1-5.2-1.574v-1.294A2.837,2.837,0,0,1,114.837,280h6.521a2.837,2.837,0,0,1,2.837,2.837v1.295A2.837,2.837,0,0,1,121.358,286.969Z" transform="translate(-71.289 -235.255)" fill="#985713"/>
        <g id="Grupo_1205089" data-name="Grupo 1205089" transform="translate(38.968 57.812)">
          <path id="Trazado_1280408" data-name="Trazado 1280408" d="M98.613,406.969v2.613H96.871v-2.407l-.78-1.558a.88.88,0,0,1-.091-.39v-4.355a.871.871,0,0,1,1.742,0v4.15l.78,1.558A.88.88,0,0,1,98.613,406.969Z" transform="translate(-96 -400)" fill="#e08122"/>
          <path id="Trazado_1280409" data-name="Trazado 1280409" d="M138.613,400.871v4.355a.88.88,0,0,1-.091.39l-.78,1.558v2.407H136v-2.613a.88.88,0,0,1,.091-.39l.78-1.558v-4.15a.871.871,0,1,1,1.742,0Z" transform="translate(-131.645 -400)" fill="#e08122"/>
          <path id="Trazado_1280410" data-name="Trazado 1280410" d="M218.613,400.871v4.355a.885.885,0,0,1-.091.39l-.318.635-.462.923v2.407H216v-2.613a.88.88,0,0,1,.091-.39l.78-1.558v-4.15a.871.871,0,1,1,1.742,0Z" transform="translate(-202.934 -400)" fill="#e08122"/>
          <path id="Trazado_1280411" data-name="Trazado 1280411" d="M178.613,406.969v2.613h-1.742v-2.407l-.78-1.558a.88.88,0,0,1-.091-.39v-4.355a.871.871,0,0,1,1.742,0v4.15l.78,1.558A.88.88,0,0,1,178.613,406.969Z" transform="translate(-167.289 -400)" fill="#e08122"/>
        </g>
        <circle id="Elipse_11527" data-name="Elipse 11527" cx="1.849" cy="1.849" r="1.849" transform="translate(44.942 44.849)" fill="#70400e"/>
        <circle id="Elipse_11528" data-name="Elipse 11528" cx="0.924" cy="0.924" r="0.924" transform="translate(42.169 39.302)" fill="#985713"/>
        <circle id="Elipse_11529" data-name="Elipse 11529" cx="0.924" cy="0.924" r="0.924" transform="translate(49.564 39.302)" fill="#985713"/>
        <path id="Trazado_1280412" data-name="Trazado 1280412" d="M238.808,304.871v16.55a3.484,3.484,0,0,1-6.969,0v-3.7a.653.653,0,0,0-.653-.653h-6.315a.871.871,0,1,1,0-1.742h6.315a2.4,2.4,0,0,1,2.4,2.4v3.7a1.742,1.742,0,1,0,3.484,0v-16.55a.871.871,0,0,1,1.742,0Z" transform="translate(-171.094 -256.641)" fill="#dbdbdb"/>
        <path id="Trazado_1280413" data-name="Trazado 1280413" d="M328.93,54.808a3.489,3.489,0,0,1-2.6-1.161.871.871,0,0,1,1.3-1.162,1.742,1.742,0,1,0,1.3-2.9.871.871,0,0,1-.871-.871v-7.84a.871.871,0,0,1,1.742,0V47.95a3.484,3.484,0,0,1-.871,6.858Z" transform="translate(-262.087 -21.387)" fill="#878787"/>
        <path id="Trazado_1280414" data-name="Trazado 1280414" d="M341.066,27.484H329.742a1.742,1.742,0,1,1,0-3.484h11.324Z" transform="translate(-263.77 -7.129)" fill="#cbcbcb"/>
        <path id="Trazado_1280415" data-name="Trazado 1280415" d="M416,56h3.484V99.554H416Z" transform="translate(-342.189 -35.645)" fill="#985713"/>
        <path id="Trazado_1280416" data-name="Trazado 1280416" d="M400.711,452.355H392a4.883,4.883,0,0,1,2.174-4.063l.439-.293H398.1l.439.293A4.883,4.883,0,0,1,400.711,452.355Z" transform="translate(-320.802 -384.962)" fill="#70400e"/>
        <path id="Trazado_1280417" data-name="Trazado 1280417" d="M312,336h1.742v1.742H312Z" transform="translate(-249.513 -285.157)" fill="#c0f5f9"/>
        <path id="Trazado_1280418" data-name="Trazado 1280418" d="M312,368h1.742v3.484H312Z" transform="translate(-249.513 -313.673)" fill="#c0f5f9"/>
        <path id="Trazado_1280419" data-name="Trazado 1280419" d="M176,400h6.969v3.484H176Z" transform="translate(-128.321 -342.188)" fill="#6b9777"/>
        <path id="Trazado_1280420" data-name="Trazado 1280420" d="M344.871,165.226a.871.871,0,0,1-.871-.871v-3.484a.871.871,0,1,1,1.742,0v3.484A.871.871,0,0,1,344.871,165.226Z" transform="translate(-278.028 -128.321)" fill="#cbcbcb"/>
        <path id="Trazado_1280421" data-name="Trazado 1280421" d="M345.742,304.871v.761a3.5,3.5,0,0,1-1.742,0v-.761a.871.871,0,1,1,1.742,0Z" transform="translate(-278.028 -256.641)" fill="#c3c3c3"/>
        <path id="Trazado_1280422" data-name="Trazado 1280422" d="M416,56h3.484v1.742H416Z" transform="translate(-342.189 -35.645)" fill="#70400e"/>
        <path id="Trazado_1280423" data-name="Trazado 1280423" d="M240,408h.871v1.742H240Z" transform="translate(-185.352 -349.317)" fill="#c3c3c3"/>
        <path id="Trazado_1280424" data-name="Trazado 1280424" d="M320,200h6.969v8.711a3.484,3.484,0,1,1-6.969,0Z" transform="translate(-256.641 -163.965)" fill="#ebebeb"/>
        <path id="Trazado_1280425" data-name="Trazado 1280425" d="M323.484,240.711A3.484,3.484,0,0,1,320,237.226V232h6.969v5.226A3.484,3.484,0,0,1,323.484,240.711Z" transform="translate(-256.641 -192.481)" fill="#c0f5f9"/>
        <path id="Trazado_1280426" data-name="Trazado 1280426" d="M339.484,256.871h-.871V256h-1.742v.871H336v1.742h.871v.871h1.742v-.871h.871Z" transform="translate(-270.899 -213.868)" fill="#85bc94"/>
        <path id="Trazado_1280427" data-name="Trazado 1280427" d="M320,232h6.969v.871H320Z" transform="translate(-256.641 -192.481)" fill="#b8eaee"/>
        <circle id="Elipse_11530" data-name="Elipse 11530" cx="0.924" cy="0.924" r="0.924" transform="translate(42.169 39.302)"/>
        <circle id="Elipse_11531" data-name="Elipse 11531" cx="0.924" cy="0.924" r="0.924" transform="translate(49.564 39.302)"/>
        <path id="Trazado_1280428" data-name="Trazado 1280428" d="M34.613,35.524v3.385a3.25,3.25,0,0,0,1.806,2.922l1.679.839v2.075a.871.871,0,0,0,.062.324L39.772,49.1l-1.546,3.865L36.25,54.943a2.6,2.6,0,0,0-.766,1.849v3.062a4.326,4.326,0,0,0,1.275,3.079l.754.754a2.6,2.6,0,0,0-1.158,2.171v1.536a.871.871,0,0,0,.871.871H56.39a.871.871,0,0,0,.871-.871V66.036a2.61,2.61,0,0,0-1.636-2.424l.765-.574a4.375,4.375,0,0,0,1.651-2.613h2.051a.654.654,0,0,1,.653.653v3.7a3.484,3.484,0,1,0,6.969,0V49.014A4.363,4.363,0,0,0,71.2,44.745V36.035a.871.871,0,0,0-.871-.871H67.714V33.311a3.484,3.484,0,0,0,0-6.748V21.226H72.94V62.572l-.051.034a5.742,5.742,0,0,0-2.562,4.788.871.871,0,0,0,.871.871h8.711a.871.871,0,0,0,.871-.871,5.743,5.743,0,0,0-2.562-4.788l-.051-.034v-45.7A.871.871,0,0,0,77.3,16H65.972a2.613,2.613,0,0,0,0,5.226v6.1a.871.871,0,0,0,.871.871,1.742,1.742,0,1,1-1.3,2.9.871.871,0,0,0-1.3,1.162,3.49,3.49,0,0,0,1.726,1.049v1.854H63.359a.871.871,0,0,0-.871.871v8.711a4.363,4.363,0,0,0,3.484,4.268V64.78a1.742,1.742,0,1,1-3.484,0v-3.7a2.4,2.4,0,0,0-2.4-2.4h-1.96V56.791a2.6,2.6,0,0,0-.766-1.849L55.39,52.966,53.844,49.1l1.613-4.032a.871.871,0,0,0,.062-.323V42.671l1.679-.84A3.25,3.25,0,0,0,59,38.909V35.524l1.21-1.21a4.758,4.758,0,0,0,1.4-3.387V27.5a2.79,2.79,0,0,0-4.575-2.143l-3.752,3.127a3.473,3.473,0,0,0-1.255,2.677V32.42l-.075-.012-.1-.015a35.771,35.771,0,0,0-10.108,0l-.082.013-.086.014V31.161a3.473,3.473,0,0,0-1.254-2.677l-3.754-3.128A2.79,2.79,0,0,0,32,27.5v3.426a4.758,4.758,0,0,0,1.4,3.387ZM77.251,64.055a4,4,0,0,1,1.691,2.467H72.164a4,4,0,0,1,1.691-2.467l.219-.146h2.957Zm-2.569-1.888V21.226h1.742v40.94ZM65.972,19.484a.871.871,0,0,1,0-1.742H76.425v1.742ZM64.23,36.906h5.226v1.742H64.23Zm0,7.84V40.39h5.226v4.355a2.613,2.613,0,0,1-5.226,0ZM39.84,66.522H38.1v-.665a.866.866,0,0,1,.481-.779l.78-.39a.871.871,0,0,0,.243-.18l.239.478Zm13.066-3.69-.779,1.558a.87.87,0,0,0-.092.39v1.742H50.292V64.78a.871.871,0,0,0-.092-.39l-.779-1.558v-.665h3.484Zm0-2.408H49.421V58.683h3.484Zm2.613,6.1H53.777V64.986l.068-.136,1.078.359a.871.871,0,0,1,.6.826Zm-.174-4.878-.7.523V60.425h1.591a2.619,2.619,0,0,1-.894,1.22Zm-1.313-7.572,2.1,2.1a.866.866,0,0,1,.256.617v1.891H54.648v-.871a.871.871,0,0,0-.871-.871H48.55a.871.871,0,0,0-.871.871v5.226a.87.87,0,0,0,.092.39l.779,1.558v1.536H45.066V64.986l.779-1.558a.871.871,0,0,0,.092-.39V58.683a.871.871,0,0,0-1.742,0v4.15l-.779,1.558a.87.87,0,0,0-.092.39v1.742H41.582V64.78a.871.871,0,0,0-.092-.39l-.779-1.558v-4.15a.871.871,0,0,0-1.742,0v3.995l-.977-.977a2.63,2.63,0,0,1-.765-1.847V56.791a.866.866,0,0,1,.256-.617l2.1-2.1a.872.872,0,0,0,.193-.292l.984-2.46a3.7,3.7,0,0,0,5.872-.386l.175-.263.175.263a3.7,3.7,0,0,0,5.872.386l.984,2.46A.872.872,0,0,0,54.032,54.072Zm-8.155-5.144-.693,1.039a1.966,1.966,0,0,1-3.6-1.091V47.583a1.968,1.968,0,0,1,1.966-1.966h.8a2.611,2.611,0,0,0,1.531,3.312Zm.061-2.441a.871.871,0,1,1,.871.871A.871.871,0,0,1,45.937,46.488Zm3.334-.871h.8a1.968,1.968,0,0,1,1.966,1.966v1.294a1.966,1.966,0,0,1-3.6,1.091l-.693-1.039A2.611,2.611,0,0,0,49.272,45.617Zm4.505-14.455a1.737,1.737,0,0,1,.627-1.339L58.155,26.7a1.048,1.048,0,0,1,1.719.8v3.426a3.028,3.028,0,0,1-.893,2.155l-1.466,1.466a.871.871,0,0,0-.255.616v3.746a1.517,1.517,0,0,1-.843,1.364l-.9.45V36.517a4.171,4.171,0,0,0-.1-.924L57.958,32.2a.871.871,0,0,0,.174-.523V29.937a.871.871,0,0,0-1.742,0v1.452L54.544,33.85c-.075-.089-.154-.176-.237-.26l-.015-.015a4.141,4.141,0,0,0-.515-.434ZM40.542,34.822l.015-.015a2.4,2.4,0,0,1,1.363-.678L42,34.116a34,34,0,0,1,9.6,0l.1.016a2.4,2.4,0,0,1,1.353.677l.015.015a2.381,2.381,0,0,1,.7,1.695v8.061l-.476,1.19a3.71,3.71,0,0,0-3.232-1.894H43.548a3.71,3.71,0,0,0-3.232,1.894l-.476-1.19V36.517A2.381,2.381,0,0,1,40.542,34.822Zm-6.8-7.322A1.048,1.048,0,0,1,35.46,26.7l3.753,3.127a1.736,1.736,0,0,1,.627,1.338v1.98a4.132,4.132,0,0,0-.515.434l-.015.015c-.083.084-.162.171-.237.26l-1.846-2.461V29.937a.871.871,0,1,0-1.742,0v1.742a.871.871,0,0,0,.174.523L38.2,35.593a4.17,4.17,0,0,0-.1.924v4.206l-.9-.45a1.517,1.517,0,0,1-.843-1.364V35.164a.871.871,0,0,0-.255-.616l-1.465-1.466a3.028,3.028,0,0,1-.893-2.155Z"/>
        <path id="Trazado_1280429" data-name="Trazado 1280429" d="M338.613,259.484v-.871h.871v-1.742h-.871V256h-1.742v.871H336v1.742h.871v.871Z" transform="translate(-270.899 -213.868)"/>
        <path id="Trazado_1280430" data-name="Trazado 1280430" d="M312,336h1.742v1.742H312Z" transform="translate(-249.513 -285.157)"/>
        <path id="Trazado_1280431" data-name="Trazado 1280431" d="M312,368h1.742v3.484H312Z" transform="translate(-249.513 -313.673)"/>
      </g>
    </g>
  </g>
</svg>
