<svg xmlns="http://www.w3.org/2000/svg" width="84.208" height="84.207" viewBox="0 0 84.208 84.207">
  <g id="Grupo_1204801" data-name="Grupo 1204801" transform="translate(-872.726 -278.777)">
    <g id="Grupo_1188789" data-name="Grupo 1188789" transform="translate(583.726 -5835.222)">
      <rect id="Rectángulo_400898" data-name="Rectángulo 400898" width="75.49" height="75.489" rx="37.744" transform="translate(293.36 6118.358)" fill="#ffd907"/>
      <rect id="Rectángulo_400907" data-name="Rectángulo 400907" width="75.49" height="75.489" rx="37.744" transform="translate(293.36 6118.358)" fill="none"/>
      <g id="Grupo_1098742" data-name="Grupo 1098742" transform="translate(289 6114)">
        <g id="Rectángulo_400898-2" data-name="Rectángulo 400898" transform="translate(0)" fill="none" stroke="#fff" stroke-width="1" opacity="0.859">
          <rect width="84.208" height="84.207" rx="42.104" stroke="none"/>
          <rect x="0.5" y="0.5" width="83.208" height="83.207" rx="41.604" fill="none"/>
        </g>
        <g id="Rectángulo_400907-2" data-name="Rectángulo 400907" transform="translate(0)" fill="none" stroke="#0f1f33" stroke-linecap="round" stroke-width="1">
          <rect width="84.208" height="84.207" rx="42.104" stroke="none"/>
          <rect x="0.5" y="0.5" width="83.208" height="83.207" rx="41.604" fill="none"/>
        </g>
      </g>
      <g id="forest-management_17312751" transform="translate(299.504 6124.502)">
        <g id="Grupo_1205011" data-name="Grupo 1205011" transform="translate(8.669 8.669)">
          <g id="Grupo_1205008" data-name="Grupo 1205008" transform="translate(0 0)">
            <path id="Trazado_1280226" data-name="Trazado 1280226" d="M59.358,41.731A5.078,5.078,0,0,0,55.769,50.4a1.509,1.509,0,0,1,0,2.132l-3.242,3.242a1.509,1.509,0,0,1-2.132,0,5.078,5.078,0,0,0-8.665,3.589,1.5,1.5,0,0,1-1.506,1.506H35.639a1.5,1.5,0,0,1-1.506-1.506,5.076,5.076,0,0,0-8.665-3.589,1.506,1.506,0,0,1-2.129,0l-3.245-3.242a1.509,1.509,0,0,1,0-2.132,5.078,5.078,0,0,0-3.589-8.665A1.506,1.506,0,0,1,15,40.225V35.639a1.506,1.506,0,0,1,1.506-1.506,5.078,5.078,0,0,0,3.589-8.665,1.506,1.506,0,0,1,0-2.129l3.245-3.245a1.506,1.506,0,0,1,2.129,0,5.078,5.078,0,0,0,8.665-3.589A1.506,1.506,0,0,1,35.639,15h4.586a1.506,1.506,0,0,1,1.506,1.506A5.078,5.078,0,0,0,50.4,20.095a1.509,1.509,0,0,1,2.132,0l3.242,3.245a1.506,1.506,0,0,1,0,2.129,5.078,5.078,0,0,0,3.589,8.665,1.5,1.5,0,0,1,1.506,1.506v4.586A1.5,1.5,0,0,1,59.358,41.731Z" transform="translate(-15 -15)" fill="#cad0d7" fill-rule="evenodd"/>
            <path id="Trazado_1280227" data-name="Trazado 1280227" d="M139.257,151.486a12.229,12.229,0,1,0-12.229-12.229A12.255,12.255,0,0,0,139.257,151.486Z" transform="translate(-116.324 -116.324)" fill="#f4f6f8" fill-rule="evenodd"/>
            <path id="Trazado_1280228" data-name="Trazado 1280228" d="M177.573,115.16h-7.722a.2.2,0,0,1-.174-.113.345.345,0,0,1-.033-.251l2.128-5.5H170.39l1.709-4.373h-.777l2.183-6.725a.207.207,0,0,1,.413,0l2.183,6.725h-.777l1.71,4.373h-1.382l2.128,5.5a.345.345,0,0,1-.033.251A.2.2,0,0,1,177.573,115.16Z" transform="translate(-154.859 -90.069)" fill="#afe269" fill-rule="evenodd"/>
            <path id="Trazado_1280229" data-name="Trazado 1280229" d="M272.228,178.5h-6.058a.158.158,0,0,1-.137-.089.271.271,0,0,1-.026-.2l1.669-4.313h-1.084l1.341-3.431h-.609l1.712-5.275a.162.162,0,0,1,.324,0l1.712,5.275h-.609l1.341,3.431h-1.084l1.67,4.313a.271.271,0,0,1-.026.2A.158.158,0,0,1,272.228,178.5Z" transform="translate(-242.017 -150.704)" fill="#c6ea94" fill-rule="evenodd"/>
          </g>
          <g id="Grupo_1205009" data-name="Grupo 1205009" transform="translate(0 32.094)">
            <path id="Trazado_1280230" data-name="Trazado 1280230" d="M21.886,350.882A6.885,6.885,0,1,1,15,357.768,6.886,6.886,0,0,1,21.886,350.882Z" transform="translate(-15 -350.882)" fill="#fdcd56" fill-rule="evenodd"/>
          </g>
          <g id="Grupo_1205010" data-name="Grupo 1205010" transform="translate(32.093 32.094)">
            <path id="Trazado_1280231" data-name="Trazado 1280231" d="M357.76,350.882a6.885,6.885,0,1,1-6.885,6.886h0A6.886,6.886,0,0,1,357.76,350.882Z" transform="translate(-350.874 -350.882)" fill="#f4f6f8" fill-rule="evenodd"/>
            <path id="Trazado_1280232" data-name="Trazado 1280232" d="M376.843,440.231a5.293,5.293,0,0,0-4.87,3.216,6.887,6.887,0,0,0,9.739,0A5.292,5.292,0,0,0,376.843,440.231Z" transform="translate(-369.957 -431.694)" fill="#66d4f1" fill-rule="evenodd"/>
            <path id="Trazado_1280233" data-name="Trazado 1280233" d="M397.344,376.725a2.446,2.446,0,1,0,2.445-2.446A2.445,2.445,0,0,0,397.344,376.725Z" transform="translate(-392.904 -372.043)" fill="#d5a889" fill-rule="evenodd"/>
          </g>
        </g>
        <path id="Trazado_1280234" data-name="Trazado 1280234" d="M14.574,40.157a4.4,4.4,0,0,0-4.4-4.088A2.175,2.175,0,0,1,8,33.894V29.308a2.175,2.175,0,0,1,2.175-2.175,4.409,4.409,0,0,0,3.116-7.523,2.175,2.175,0,0,1,0-3.075l3.245-3.245a2.175,2.175,0,0,1,3.075,0,4.409,4.409,0,0,0,7.523-3.116A2.175,2.175,0,0,1,29.308,8h4.586a2.175,2.175,0,0,1,2.175,2.175,4.409,4.409,0,0,0,7.523,3.116,2.178,2.178,0,0,1,3.078,0l3.242,3.245a2.175,2.175,0,0,1,0,3.075,4.409,4.409,0,0,0,3.116,7.523A2.173,2.173,0,0,1,55.2,29.308v4.586a2.173,2.173,0,0,1-2.175,2.175,4.4,4.4,0,0,0-4.4,4.088,7.554,7.554,0,1,1-8.471,8.471,4.4,4.4,0,0,0-4.088,4.4A2.173,2.173,0,0,1,33.894,55.2H29.308a2.173,2.173,0,0,1-2.175-2.175,4.4,4.4,0,0,0-4.087-4.4,7.555,7.555,0,1,1-8.472-8.469ZM47.291,40.1a5.729,5.729,0,0,1,5.736-5.371.836.836,0,0,0,.837-.837V29.308a.836.836,0,0,0-.837-.837,5.747,5.747,0,0,1-4.062-9.807.837.837,0,0,0,0-1.183l-3.242-3.245a.839.839,0,0,0-1.186,0,5.747,5.747,0,0,1-9.807-4.062.837.837,0,0,0-.837-.837H29.308a.837.837,0,0,0-.837.837,5.747,5.747,0,0,1-9.807,4.062.837.837,0,0,0-1.183,0l-3.245,3.245a.837.837,0,0,0,0,1.183,5.747,5.747,0,0,1-4.062,9.807.837.837,0,0,0-.837.837v4.586a.837.837,0,0,0,.837.837A5.728,5.728,0,0,1,15.912,40.1,7.555,7.555,0,0,1,23.1,47.288a5.727,5.727,0,0,1,5.37,5.739.836.836,0,0,0,.837.837h4.586a.836.836,0,0,0,.837-.837,5.729,5.729,0,0,1,5.37-5.736,7.555,7.555,0,0,1,7.19-7.189ZM29.128,18.943a12.923,12.923,0,1,1-3.635,1.3l1.18-3.634a.882.882,0,0,1,.847-.683h0a.882.882,0,0,1,.847.682ZM24.85,22.228a11.49,11.49,0,1,0,4.694-2l1,3.091a.669.669,0,0,1-.444.847l1.364,3.489a.669.669,0,0,1-.623.912h-.406l1.776,4.588a.681.681,0,0,1,.028.089,1,1,0,0,1-.1.728l-.007.013a.839.839,0,0,1-.752.444H28.191v4.091a.669.669,0,0,1-1.338,0V34.428H23.661a.84.84,0,0,1-.752-.444l-.007-.013a1,1,0,0,1-.1-.728.667.667,0,0,1,.028-.089l1.776-4.588H24.2a.669.669,0,0,1-.623-.912l1.364-3.489a.669.669,0,0,1-.444-.847l.354-1.089Zm-.561,10.863h6.466l-1.917-4.952a.669.669,0,0,1,.624-.91h.4l-1.353-3.461a.669.669,0,0,1,.484-.9l-1.474-4.541-1.474,4.541a.669.669,0,0,1,.484.9L25.18,27.228h.4a.669.669,0,0,1,.624.91Zm10.893,4.044h-2.36a.8.8,0,0,1-.714-.42L32.1,36.7a.928.928,0,0,1-.093-.674.667.667,0,0,1,.028-.089l1.317-3.4h-.108a.669.669,0,0,1-.623-.912l1.02-2.608a.669.669,0,0,1-.3-.785l1.706-5.254a.833.833,0,0,1,.8-.639h0a.833.833,0,0,1,.8.638l1.706,5.255a.669.669,0,0,1-.3.785l1.02,2.608a.669.669,0,0,1-.623.912h-.108l1.317,3.4a.681.681,0,0,1,.028.089.928.928,0,0,1-.093.674l-.007.013a.8.8,0,0,1-.714.42H36.52V40.2a.669.669,0,1,1-1.338,0ZM33.525,35.8h4.652l-1.428-3.688a.669.669,0,0,1,.624-.91h.1l-.984-2.518a.669.669,0,0,1,.333-.846l-.975-3.005-.976,3.005a.669.669,0,0,1,.333.846L34.225,31.2h.1a.669.669,0,0,1,.624.91ZM52.647,51.344a6.217,6.217,0,1,0-11.216-3.7h0a6.188,6.188,0,0,0,1.217,3.7,5.963,5.963,0,0,1,10,0ZM44.66,53.1a6.19,6.19,0,0,0,2.987.763h0a6.193,6.193,0,0,0,4.05-1.5,4.626,4.626,0,0,0-8.1,0A6.231,6.231,0,0,0,44.66,53.1Zm-.127-7.657a3.115,3.115,0,1,1,3.114,3.114A3.115,3.115,0,0,1,44.533,45.444Zm1.338,0a1.777,1.777,0,1,0,1.777-1.777A1.776,1.776,0,0,0,45.871,45.444ZM15.554,41.431a6.216,6.216,0,1,0,6.217,6.217A6.217,6.217,0,0,0,15.554,41.431Zm-.681,2.644-.008-.339A.669.669,0,1,1,16.2,43.7l.009.386a3.421,3.421,0,0,1,.648.258,2.071,2.071,0,0,1,.755.635.669.669,0,1,1-1.118.735.713.713,0,0,0-.262-.187,1.668,1.668,0,0,0-.681-.21.859.859,0,1,0,0,1.686,2.278,2.278,0,0,1,2.362,2.181,2.218,2.218,0,0,1-1.68,2.089l.007.283a.669.669,0,0,1-1.337.033l-.007-.3a2.732,2.732,0,0,1-1.22-.757.669.669,0,1,1,.917-.974,1.269,1.269,0,0,0,.958.468.859.859,0,1,0,0-1.686,2.278,2.278,0,0,1-2.362-2.181,2.217,2.217,0,0,1,1.681-2.089Z" fill-rule="evenodd"/>
      </g>
    </g>
  </g>
</svg>
