<svg xmlns="http://www.w3.org/2000/svg" width="84.208" height="84.207" viewBox="0 0 84.208 84.207">
  <g id="Grupo_1204931" data-name="Grupo 1204931" transform="translate(-872.727 -278.777)">
    <g id="Grupo_1188789" data-name="Grupo 1188789" transform="translate(583.726 -5835.222)">
      <rect id="Rectángulo_400898" data-name="Rectángulo 400898" width="75.49" height="75.489" rx="37.744" transform="translate(293.36 6118.358)" fill="#ffd907"/>
      <rect id="Rectángulo_400907" data-name="Rectángulo 400907" width="75.49" height="75.489" rx="37.744" transform="translate(293.36 6118.358)" fill="none"/>
      <g id="Grupo_1098742" data-name="Grupo 1098742" transform="translate(289 6114)">
        <g id="Rectángulo_400898-2" data-name="Rectángulo 400898" transform="translate(0)" fill="none" stroke="#fff" stroke-width="1" opacity="0.859">
          <rect width="84.208" height="84.207" rx="42.104" stroke="none"/>
          <rect x="0.5" y="0.5" width="83.208" height="83.207" rx="41.604" fill="none"/>
        </g>
        <g id="Rectángulo_400907-2" data-name="Rectángulo 400907" transform="translate(0)" fill="none" stroke="#0f1f33" stroke-linecap="round" stroke-width="1">
          <rect width="84.208" height="84.207" rx="42.104" stroke="none"/>
          <rect x="0.5" y="0.5" width="83.208" height="83.207" rx="41.604" fill="none"/>
        </g>
      </g>
      <g id="box_6111360" transform="translate(294.244 6130.903)">
        <g id="Grupo_1205119" data-name="Grupo 1205119" transform="translate(13.671 0.738)">
          <g id="Grupo_1205117" data-name="Grupo 1205117" transform="translate(0 19.392)">
            <g id="Grupo_1205116" data-name="Grupo 1205116">
              <g id="Grupo_1205115" data-name="Grupo 1205115">
                <g id="Grupo_1205113" data-name="Grupo 1205113" transform="translate(23.189 0)">
                  <path id="Trazado_1280454" data-name="Trazado 1280454" d="M275.195,231.077v-25.1L256,204.5v29.53h16.242A2.953,2.953,0,0,0,275.195,231.077Z" transform="translate(-256 -204.5)" fill="#26a6fe"/>
                  <path id="Trazado_1280455" data-name="Trazado 1280455" d="M393.953,219.5v25.1A2.953,2.953,0,0,1,391,247.554h2.953a2.953,2.953,0,0,0,2.953-2.953V219.5Z" transform="translate(-377.711 -218.023)" fill="#0593fc"/>
                  <path id="Trazado_1280456" data-name="Trazado 1280456" d="M279.125,214.982l-3.691-9.843a.984.984,0,0,0-.922-.639H256l4.19,11.173a.984.984,0,0,0,.922.639H278.2A.984.984,0,0,0,279.125,214.982Z" transform="translate(-256 -204.5)" fill="#b3dafe"/>
                  <path id="Trazado_1280457" data-name="Trazado 1280457" d="M314.625,214.982l-3.691-9.843a.984.984,0,0,0-.922-.639h-1.717l3.377,9.006a.984.984,0,0,1-.922,1.33H295.375l.314.838a.984.984,0,0,0,.922.639H313.7A.984.984,0,0,0,314.625,214.982Z" transform="translate(-291.499 -204.5)" fill="#8ac9fe"/>
                </g>
                <g id="Grupo_1205114" data-name="Grupo 1205114">
                  <path id="Trazado_1280458" data-name="Trazado 1280458" d="M61,231.077v-25.1L80.195,204.5v29.53H63.953A2.953,2.953,0,0,1,61,231.077Z" transform="translate(-57.006 -204.5)" fill="#26a6fe"/>
                  <path id="Trazado_1280459" data-name="Trazado 1280459" d="M226,204.727v29.3h2.953V204.5Z" transform="translate(-205.764 -204.5)" fill="#0593fc"/>
                  <path id="Trazado_1280460" data-name="Trazado 1280460" d="M20.485,214.982l3.691-9.843a.984.984,0,0,1,.922-.639H43.61l-4.19,11.173a.984.984,0,0,1-.922.639H21.406A.984.984,0,0,1,20.485,214.982Z" transform="translate(-20.421 -204.5)" fill="#b3dafe"/>
                  <path id="Trazado_1280461" data-name="Trazado 1280461" d="M40.1,204.5l-3.636,9.7a.984.984,0,0,1-.922.639H20.54l-.055.147a.984.984,0,0,0,.922,1.33H38.5a.984.984,0,0,0,.922-.639L43.61,204.5Z" transform="translate(-20.421 -204.5)" fill="#8ac9fe"/>
                </g>
              </g>
            </g>
          </g>
          <g id="Grupo_1205118" data-name="Grupo 1205118" transform="translate(11.562)">
            <circle id="Elipse_11537" data-name="Elipse 11537" cx="11.627" cy="11.627" r="11.627" fill="#ff4f6b"/>
          </g>
          <path id="Trazado_1280462" data-name="Trazado 1280462" d="M242.477,7.5A11.732,11.732,0,0,0,241,7.593a11.629,11.629,0,0,1,0,23.069A11.628,11.628,0,1,0,242.477,7.5Z" transform="translate(-219.287 -7.5)" fill="#fb2b3a"/>
          <path id="Trazado_1280463" data-name="Trazado 1280463" d="M202.414,70.037a.394.394,0,0,1,0-.557l3.31-3.31a1.476,1.476,0,0,0-.052-2.137,1.5,1.5,0,0,0-2.066.079l-3.28,3.28a.394.394,0,0,1-.557,0l-3.28-3.28a1.5,1.5,0,0,0-2.066-.079,1.476,1.476,0,0,0-.052,2.137l3.31,3.31a.394.394,0,0,1,0,.557l-3.31,3.31a1.476,1.476,0,1,0,2.088,2.088l3.31-3.31a.394.394,0,0,1,.557,0l3.31,3.31a1.476,1.476,0,1,0,2.088-2.088Z" transform="translate(-176.858 -58.132)" fill="#fff"/>
        </g>
        <path id="Trazado_1280464" data-name="Trazado 1280464" d="M30.662,18.564a2.238,2.238,0,0,0,3.132,0L36.86,15.5l3.066,3.066a2.215,2.215,0,1,0,3.132-3.132l-3.066-3.066L43.059,9.3A2.215,2.215,0,1,0,39.9,6.2L36.86,9.233,33.823,6.2a2.215,2.215,0,1,0-3.162,3.1l3.066,3.066-3.066,3.066A2.231,2.231,0,0,0,30.662,18.564Zm1.044-2.088,3.31-3.31a1.134,1.134,0,0,0,0-1.6l-3.31-3.31a.745.745,0,0,1,.027-1.069.768.768,0,0,1,1.047.055l3.28,3.28a1.132,1.132,0,0,0,1.6,0l3.28-3.28a.769.769,0,0,1,1.047-.055.745.745,0,0,1,.027,1.069l-3.31,3.31a1.134,1.134,0,0,0,0,1.6l3.31,3.31a.738.738,0,1,1-1.044,1.044l-3.31-3.31a1.132,1.132,0,0,0-1.6,0l-3.31,3.31a.738.738,0,0,1-1.044-1.044ZM60.677,30.353,56.985,20.51a1.73,1.73,0,0,0-1.613-1.118h-2.7a.738.738,0,1,0,0,1.477h2.7a.247.247,0,0,1,.23.16l3.691,9.843a.246.246,0,0,1-.23.333H41.972a.247.247,0,0,1-.23-.16l-2.457-6.552a12.36,12.36,0,0,0,6.545-3.624h3.4a.738.738,0,0,0,0-1.477h-2.2a12.366,12.366,0,1,0-20.339,0H18.348a1.73,1.73,0,0,0-1.613,1.118l-3.691,9.844a1.722,1.722,0,0,0,1.613,2.327h2.271V46.707A3.7,3.7,0,0,0,20.619,50.4H53.1a3.7,3.7,0,0,0,3.691-3.691V32.68h2.271a1.722,1.722,0,0,0,1.613-2.327ZM25.971,12.366A10.889,10.889,0,1,1,36.863,23.254h-.006A10.9,10.9,0,0,1,25.971,12.366ZM14.656,31.2a.246.246,0,0,1-.23-.332l3.691-9.844a.246.246,0,0,1,.23-.159H27.89a12.36,12.36,0,0,0,6.545,3.624l-2.457,6.553a.246.246,0,0,1-.23.159Zm40.66,15.5A2.217,2.217,0,0,1,53.1,48.922H37.6V42.836a.738.738,0,1,0-1.477,0v6.086h-15.5A2.217,2.217,0,0,1,18.4,46.707V32.68H31.748a1.73,1.73,0,0,0,1.613-1.118L35.936,24.7l.186.012V39.391a.738.738,0,0,0,1.477,0V24.708l.186-.012,2.574,6.865a1.73,1.73,0,0,0,1.613,1.118H55.317Z" transform="translate(0)"/>
      </g>
    </g>
  </g>
</svg>
