<svg xmlns="http://www.w3.org/2000/svg" width="83.757" height="77.522" viewBox="0 0 83.757 77.522">
  <g id="Grupo_1188751" data-name="Grupo 1188751" transform="translate(-854.024 -5775)">
    <circle id="Elipse_11503" data-name="Elipse 11503" cx="37.5" cy="37.5" r="37.5" transform="translate(862.781 5775)" fill="#ffd907"/>
    <g id="snack_4664906" transform="translate(821.357 5761.387)">
      <path id="Trazado_1280235" data-name="Trazado 1280235" d="M331.044,122.666c.777,4.991-1.482,9.012-4.052,11.849-3.591,2.359-7.794,1.939-8.859-1.15a20.838,20.838,0,0,0,2.574-2.952,2,2,0,0,0,.95-1.438q.082-.136.163-.273a17.315,17.315,0,0,0,2.052-5.158,1.863,1.863,0,0,0,.274-1.883c.7-8.881-7.224-14.825-7.224-14.825s11.958,1.936,14.122,15.83Z" transform="translate(-239.571 -74.629)" fill="#efe387"/>
      <path id="Trazado_1280236" data-name="Trazado 1280236" d="M276.2,269.588a29.233,29.233,0,0,1-10.31,6.175l12.121.7a24.74,24.74,0,0,0,5.97-4.779C280.245,272.078,278.013,271.2,276.2,269.588Z" transform="translate(-196.563 -211.797)" fill="#ad9d4d"/>
      <path id="Trazado_1280237" data-name="Trazado 1280237" d="M102.7,95.861a.865.865,0,0,0-1.2-.232l-2.063,1.395c-1.909,1.333-3.675,1.838-5.245,1.5a5.374,5.374,0,0,1-3.178-2.253.865.865,0,1,0-1.489.88,6.874,6.874,0,0,0,1.243,1.462,3.3,3.3,0,0,1-1.651-.346.865.865,0,1,0-.829,1.517,5.2,5.2,0,0,0,2.3.566,3.854,3.854,0,0,0,2-.54,6.267,6.267,0,0,0,1.214.4,6.363,6.363,0,0,0,1.36.146,9.275,9.275,0,0,0,5.252-1.909l2.052-1.388A.865.865,0,0,0,102.7,95.861Z" transform="translate(-46.499 -65.059)" fill="#de5050"/>
      <path id="Trazado_1280238" data-name="Trazado 1280238" d="M157.805,27.733a5.552,5.552,0,0,0-2.639,5.112,4.4,4.4,0,0,0,4.4,4.113h14.666a16.879,16.879,0,0,1,12.711,5.679,19.06,19.06,0,0,1,4.458,9.582,17.273,17.273,0,0,1-2.119,12.4c3.065,1.718,7.451.72,9.981-3.05a23.612,23.612,0,0,0,.224-19.942c-6.948-16.059-29-17.425-29-17.425s-5.652-1.452-8.5,1.087a9.067,9.067,0,0,1-2.073,1.42Z" transform="translate(-103.232 -4.637)" fill="#94b281"/>
      <path id="Trazado_1280239" data-name="Trazado 1280239" d="M216.316,46.578l1.379-.367a1.373,1.373,0,0,1,1.594,1.93,2.072,2.072,0,0,1-1.453,1.022,3.071,3.071,0,0,1-1.592.005A1.35,1.35,0,0,1,216.316,46.578Z" transform="translate(-153.93 -23.494)" fill="#fff"/>
      <path id="Trazado_1280240" data-name="Trazado 1280240" d="M347.6,267.175a14.429,14.429,0,0,1-4.6,4.683h9.225a26.914,26.914,0,0,0,5.356-7.732,20.74,20.74,0,0,1-9.981,3.049Z" transform="translate(-261.55 -207.194)" fill="#637f4a"/>
      <path id="Trazado_1280241" data-name="Trazado 1280241" d="M69.7,195.746c-1.017,4.2-1.551,11.533,4.742,17.059H88.79s-12.678-3.287-14.738-16.844a2.221,2.221,0,0,0-4.354-.215Z" transform="translate(-30.686 -148.139)" fill="#637f4a"/>
      <path id="Trazado_1280242" data-name="Trazado 1280242" d="M46.819,377.472s-6.833-.409-8.428,5.968c-.864,3.454,1.285,5.643,3.435,6.924a12.251,12.251,0,0,0,5.325,1.656,335.58,335.58,0,0,0,39.393.656c7.471-2.574,7.084-12.652-1.21-15.2Z" transform="translate(-4.659 -302.718)" fill="#94b281"/>
      <path id="Trazado_1280243" data-name="Trazado 1280243" d="M75.715,303.9h35.326c5.716,1.48,7.418,6.591,4.7,12.18-10.557.627-28.663,1.27-41.124-.61a7.186,7.186,0,0,1-3.417-6.559A5.392,5.392,0,0,1,75.715,303.9Z" transform="translate(-32.458 -240.716)" fill="#94b281"/>
      <path id="Trazado_1280244" data-name="Trazado 1280244" d="M111.723,378.306a344.222,344.222,0,0,0,44.2-.238.446.446,0,0,1,.166.872c-6.948,2.057-23.469,5.512-44.493.246a.447.447,0,0,1,.131-.88Z" transform="translate(-66.232 -303.224)" fill="#637f4a"/>
      <path id="Trazado_1280245" data-name="Trazado 1280245" d="M338.16,315.428c.785-.2,4.12-1.352,3.8-6.18a5.3,5.3,0,0,0-5.329-5.353H324.765a7.967,7.967,0,0,1,3.964,6.675,8.586,8.586,0,0,1-2.42,6.486,3.869,3.869,0,0,1-.556.448s5.275,2.368,5.275,6.939c0,2.473-1.544,4.7-2.961,6.226,3.641-.175,7.328-.432,10.969-.8,0,0,7.388-.81,7.273-8.668-.1-7.2-6.992-6.026-8.149-5.778Z" transform="translate(-246.182 -240.712)" fill="#637f4a"/>
      <g id="Grupo_1205012" data-name="Grupo 1205012" transform="translate(32.668 18.288)">
        <path id="Trazado_1280246" data-name="Trazado 1280246" d="M212.84,40.748l-1.379.367a2.212,2.212,0,0,0-1.651,2.135,2.157,2.157,0,0,0,1.557,2.122,3.481,3.481,0,0,0,.983.136,4.558,4.558,0,0,0,1.053-.13,2.927,2.927,0,0,0,2.017-1.459,2.162,2.162,0,0,0-.231-2.387A2.262,2.262,0,0,0,212.84,40.748Zm1.052,2.362a1.253,1.253,0,0,1-.89.586,2.248,2.248,0,0,1-1.149.016.423.423,0,0,1-.314-.441.487.487,0,0,1,.367-.485l1.379-.367a.528.528,0,0,1,.552.189.443.443,0,0,1,.055.5Z" transform="translate(-181.965 -37.154)" fill="#31313f"/>
        <path id="Trazado_1280247" data-name="Trazado 1280247" d="M98.626,74.957a6.819,6.819,0,0,0-3.468-1.275,6.914,6.914,0,0,0,1.481-5.2A6.166,6.166,0,0,0,93.31,63c3.248-4.14,9.089-13.984,3.739-26.35A26.737,26.737,0,0,0,85.234,24.1a.869.869,0,0,0-.187-.1,39.624,39.624,0,0,0-5.6-2.552,47.532,47.532,0,0,0-12.057-2.737c-.762-.183-6.215-1.37-9.208,1.3a8.138,8.138,0,0,1-1.874,1.286L54.2,22.318l-.037.019a6.389,6.389,0,0,0-3.088,5.923,5.22,5.22,0,0,0,1.878,3.7l-.011.007c-1.91,1.333-3.675,1.838-5.245,1.5a5.372,5.372,0,0,1-3.178-2.253.865.865,0,1,0-1.488.88,6.874,6.874,0,0,0,1.243,1.462,3.3,3.3,0,0,1-1.651-.346.865.865,0,1,0-.829,1.517,5.2,5.2,0,0,0,2.3.566,3.854,3.854,0,0,0,2-.54,6.267,6.267,0,0,0,1.214.4,6.355,6.355,0,0,0,1.359.146,9.3,9.3,0,0,0,5.264-1.916,1.9,1.9,0,0,1,1.208-.336,5.3,5.3,0,0,0,1.2.138H71a16.219,16.219,0,0,1,8.64,2.47c.014.021.026.042.042.063,3.3,3.956,6.294,10.276,1.819,17.918a20.391,20.391,0,0,1-9.8,8.551.865.865,0,0,0-.214.132H54.709A19.439,19.439,0,0,1,44.221,47.691a3.085,3.085,0,0,0-6.049-.289c-.852,3.514-1.557,10.1,2.865,15.662a6.111,6.111,0,0,0-3.155,5.064,7.649,7.649,0,0,0,2.1,5.939,10.678,10.678,0,0,0-1.733.467,8.227,8.227,0,0,0-5.355,5.979c-.8,3.186.529,5.91,3.832,7.875a13.184,13.184,0,0,0,5.7,1.775c3.931.306,13.872.971,25.837.971,7.741,0,16.331-.279,24.686-1.113A10.28,10.28,0,0,0,97,88.5a8.817,8.817,0,0,0,3.989-8.02,6.66,6.66,0,0,0-2.365-5.524Zm-41.833-43.5a7,7,0,0,1-1.137-.088c-.065-.011-.13-.016-.194-.024A3.523,3.523,0,0,1,52.8,28.156a4.664,4.664,0,0,1,2.177-4.293l2.091-1.012A9.831,9.831,0,0,0,59.337,21.3c2.465-2.2,7.656-.908,7.708-.9a.852.852,0,0,0,.162.025,46.161,46.161,0,0,1,11.647,2.64,38.155,38.155,0,0,1,5.1,2.3,1.619,1.619,0,0,1-.222,1.269,1.893,1.893,0,0,1-1.441.394.865.865,0,0,0-.211,1.716,3.629,3.629,0,0,0,.436.024,4.333,4.333,0,0,0,.833-.08,1.65,1.65,0,0,1-.117,1.125,1.832,1.832,0,0,1-1.176.748.865.865,0,1,0,.259,1.71,3.72,3.72,0,0,0,1.936-.97,4.125,4.125,0,0,0,1.106.159,2.709,2.709,0,0,0,2.3-1.136.865.865,0,1,0-1.4-1.008,1.16,1.16,0,0,1-1.179.4,4.1,4.1,0,0,0-.141-1.835c.026-.026.053-.051.079-.079a2.7,2.7,0,0,0,.662-1.429,24.545,24.545,0,0,1,9.795,10.959c5.207,12.039-.982,21.539-3.9,25.08a5.82,5.82,0,0,0-1.025-.1H85.411a16.515,16.515,0,0,0,1.636-2.336.87.87,0,0,0,.137-.244,17.16,17.16,0,0,0,2.095-7.062.857.857,0,0,0,.017-.219,21.506,21.506,0,0,0-.274-5.02,19.95,19.95,0,0,0-4.661-10.008A17.728,17.728,0,0,0,71,31.456ZM84.416,40.33a18.57,18.57,0,0,1,2.9,7.4,20.46,20.46,0,0,1,.289,4.085,3.093,3.093,0,0,1-2.954-.917A15.35,15.35,0,0,0,84.416,40.33ZM82.993,54.51a20.328,20.328,0,0,0,.982-1.9,4.683,4.683,0,0,0,2.923,1,5.43,5.43,0,0,0,.559-.03,14.977,14.977,0,0,1-1.666,5.148,4.774,4.774,0,0,1-4.839-1.287A22.422,22.422,0,0,0,82.993,54.51Zm-3.2,4.227a6.791,6.791,0,0,0,4.615,1.937l.116,0a15.056,15.056,0,0,1-1.276,1.453.851.851,0,0,0-.141.195H75.244a21.919,21.919,0,0,0,4.549-3.583ZM39.852,47.81a1.317,1.317,0,0,1,.9-.962,1.351,1.351,0,0,1,1.307.268,1.378,1.378,0,0,1,.453.835,20.968,20.968,0,0,0,4.7,10.552,21.962,21.962,0,0,0,4.2,3.817h-8.15a.853.853,0,0,0-.117.008c-.127.017-.265.043-.409.076-4.126-4.818-3.852-10.581-2.879-14.594ZM39.6,68.262a4.505,4.505,0,0,1,3.721-4.213H90.467c.166-.007,4.141-.042,4.447,4.546a5.057,5.057,0,0,1-1.483,4.392,4.3,4.3,0,0,1-1.647.887l-.073.016H60.735a3.643,3.643,0,0,0,.072-.409c.006-.053.009-.106.013-.159a3.087,3.087,0,0,0,2.518-2.774.865.865,0,1,0-1.728-.057c-.022.655-.634.968-1.067,1.109a5.632,5.632,0,0,0-.858-1.437c.019-.079.037-.159.05-.242a3.412,3.412,0,0,0-1.308-2.968.865.865,0,0,0-1.19,1.255c.4.38.862.94.789,1.455-.079.551-.733,1-.979,1.129a.865.865,0,0,0,.778,1.544,4.253,4.253,0,0,0,.858-.6,2.463,2.463,0,0,1,.408,1.537,2.077,2.077,0,0,1-.169.615H42.409a6.274,6.274,0,0,1-2.8-5.628ZM92.768,88.3c-2.826.283-5.679.5-8.518.665a3.993,3.993,0,0,0,.562-1.719c0-.057.006-.114.008-.17a3.123,3.123,0,0,0,2.46-2.888.865.865,0,0,0-1.729,0c0,.679-.627,1.02-1.065,1.177a5.7,5.7,0,0,0-.925-1.441c.018-.082.033-.166.043-.253a3.45,3.45,0,0,0-1.423-2.955.865.865,0,1,0-1.148,1.293c.421.374.911.93.853,1.46a1.936,1.936,0,0,1-.961,1.187.865.865,0,1,0,.829,1.517,4.3,4.3,0,0,0,.858-.643A2.517,2.517,0,0,1,83.09,87.1a2.889,2.889,0,0,1-1.061,1.845.861.861,0,0,0-.152.15,334.261,334.261,0,0,1-39.319-.654A11.447,11.447,0,0,1,37.61,86.9c-2.617-1.559-3.639-3.567-3.039-5.972,1.254-5.014,6.128-5.32,7.3-5.32.1,0,.171,0,.213,0a150.083,150.083,0,0,0,21.155,1.238c14.649,0,28.45-1.22,28.657-1.239l.021,0,.021,0,.028,0s.051-.01.13-.029c.47-.106,3.554-.725,5.491.759a5.05,5.05,0,0,1,1.681,4.172,7.39,7.39,0,0,1-6.5,7.8Z" transform="translate(-32.668 -18.288)" fill="#31313f"/>
        <path id="Trazado_1280248" data-name="Trazado 1280248" d="M107.151,398.732a4.752,4.752,0,0,0-1.224-2.008.865.865,0,1,0-1.188,1.256,2.51,2.51,0,0,1,.793,1.629c-.009.133-.038.537-.7,1.006a.865.865,0,1,0,1,1.41,3.416,3.416,0,0,0,1.2-1.394,1.568,1.568,0,0,1,.66.807c.16.589-.317,1.306-.745,1.8a.865.865,0,0,0,1.31,1.128,3.685,3.685,0,0,0,1.1-3.4A3.739,3.739,0,0,0,107.151,398.732Z" transform="translate(-93.182 -337.037)" fill="#31313f"/>
      </g>
    </g>
  </g>
</svg>
