<svg id="comprobado" xmlns="http://www.w3.org/2000/svg" width="42.13" height="42.13" viewBox="0 0 42.13 42.13">
  <path id="Trazado_1279052" data-name="Trazado 1279052" d="M21.065,0A21.065,21.065,0,1,1,0,21.065,21.065,21.065,0,0,1,21.065,0Z" transform="translate(0 0)" fill="#70d9c1"/>
  <path id="Trazado_1279049" data-name="Trazado 1279049" d="M188.8,169.942l10.832,10.831a21.051,21.051,0,0,0,15.616-20.334v-.6L206.742,152Z" transform="translate(-173.118 -139.374)" fill="#5dc1ab"/>
  <g id="Grupo_1204391" data-name="Grupo 1204391" transform="translate(7.077 10.4)">
    <path id="Trazado_1279050" data-name="Trazado 1279050" d="M99.72,208.8a2.488,2.488,0,0,1,0,3.455l-1.927,1.927a2.488,2.488,0,0,1-3.455,0L85.9,205.68a2.488,2.488,0,0,1,0-3.455l1.927-1.927a2.488,2.488,0,0,1,3.455,0Z" transform="translate(-85.2 -193.42)" fill="#fff"/>
    <path id="Trazado_1279051" data-name="Trazado 1279051" d="M179.717,125.9a2.488,2.488,0,0,1,3.455,0l1.927,1.927a2.488,2.488,0,0,1,0,3.455L170.48,145.833a2.488,2.488,0,0,1-3.455,0l-1.927-1.927a2.488,2.488,0,0,1,0-3.455Z" transform="translate(-157.821 -125.2)" fill="#fff"/>
  </g>
</svg>
