<svg xmlns="http://www.w3.org/2000/svg" width="84.208" height="84.207" viewBox="0 0 84.208 84.207">
  <g id="Grupo_1204440" data-name="Grupo 1204440" transform="translate(-872.726 -278.777)">
    <g id="Grupo_1188789" data-name="Grupo 1188789" transform="translate(583.726 -5835.222)">
      <rect id="Rectángulo_400898" data-name="Rectángulo 400898" width="75.49" height="75.489" rx="37.744" transform="translate(293.36 6118.358)" fill="#ffd907"/>
      <rect id="Rectángulo_400907" data-name="Rectángulo 400907" width="75.49" height="75.489" rx="37.744" transform="translate(293.36 6118.358)" fill="none"/>
      <g id="Grupo_1098742" data-name="Grupo 1098742" transform="translate(289 6114)">
        <g id="Rectángulo_400898-2" data-name="Rectángulo 400898" transform="translate(0)" fill="none" stroke="#fff" stroke-width="1" opacity="0.859">
          <rect width="84.208" height="84.207" rx="42.104" stroke="none"/>
          <rect x="0.5" y="0.5" width="83.208" height="83.207" rx="41.604" fill="none"/>
        </g>
        <g id="Rectángulo_400907-2" data-name="Rectángulo 400907" transform="translate(0)" fill="none" stroke="#0f1f33" stroke-linecap="round" stroke-width="1">
          <rect width="84.208" height="84.207" rx="42.104" stroke="none"/>
          <rect x="0.5" y="0.5" width="83.208" height="83.207" rx="41.604" fill="none"/>
        </g>
      </g>
    </g>
    <g id="pets_8334302" transform="translate(879.457 247.466)">
      <path id="Trazado_1279955" data-name="Trazado 1279955" d="M417.537,292.971h-5.145a11.812,11.812,0,0,1-.966,2.66l-.049.1.1.052a4.172,4.172,0,0,1,1.9,2.125h7.8a.649.649,0,0,0,.649-.649A4.285,4.285,0,0,0,417.537,292.971Z" transform="translate(-358.576 -215.41)" fill="#ea9b58"/>
      <path id="Trazado_1279956" data-name="Trazado 1279956" d="M438.44,292.971h-3.519a4.285,4.285,0,0,1,4.285,4.285.649.649,0,0,1-.649.649h3.519a.649.649,0,0,0,.649-.649A4.285,4.285,0,0,0,438.44,292.971Z" transform="translate(-379.48 -215.41)" fill="#d88a55"/>
      <path id="Trazado_1279957" data-name="Trazado 1279957" d="M419.7,297.905h2.66a.649.649,0,0,0,.649-.649,4.285,4.285,0,0,0-4.285-4.285h-5.031a11.949,11.949,0,0,1-.98,2.711,4.3,4.3,0,0,1,1.969,2.223h1.092" transform="translate(-359.759 -215.41)" fill="none" stroke="#000" stroke-linecap="round" stroke-linejoin="round" stroke-miterlimit="10" stroke-width="2"/>
      <g id="Grupo_1204944" data-name="Grupo 1204944" transform="translate(16.383 64.732)">
        <path id="Trazado_1279958" data-name="Trazado 1279958" d="M91.178,186.069a5.178,5.178,0,0,1,4.64,2.914l1.5,3.106h13.516a8.988,8.988,0,0,1,5.163,1.627l.029.02h5.216a4.146,4.146,0,0,1,1.972.5,11.985,11.985,0,0,0,1.337-5.518V181.1a4.079,4.079,0,0,1-3.851,2.715h-7.25a4.08,4.08,0,0,1-3.89-2.826l-.779-2.4H97.838A12.04,12.04,0,0,0,86.7,186.069h4.482Z" transform="translate(-86.696 -178.592)" fill="#ea9b58"/>
      </g>
      <g id="Grupo_1204945" data-name="Grupo 1204945" transform="translate(49.026 67.241)">
        <path id="Trazado_1279959" data-name="Trazado 1279959" d="M379.628,213.487a4.266,4.266,0,0,1,2.024.508,11.986,11.986,0,0,0,1.286-5.417v-7.613a4.079,4.079,0,0,1-3.851,2.715h-.314v4.9a11.994,11.994,0,0,1-1.044,4.909Z" transform="translate(-377.728 -200.964)" fill="#d88a55"/>
      </g>
      <line id="Línea_884" data-name="Línea 884" x1="3.872" transform="translate(34.475 64.732)" fill="none" stroke="#000" stroke-linecap="round" stroke-linejoin="round" stroke-miterlimit="10" stroke-width="2"/>
      <path id="Trazado_1279960" data-name="Trazado 1279960" d="M412.7,216.4a11.981,11.981,0,0,0,1.287-5.417v-7.309" transform="translate(-359.752 -136.132)" fill="none" stroke="#000" stroke-linecap="round" stroke-linejoin="round" stroke-miterlimit="10" stroke-width="2"/>
      <path id="Trazado_1279961" data-name="Trazado 1279961" d="M101.227,178.591H98.2a12.04,12.04,0,0,0-11.1,7.365" transform="translate(-70.677 -113.859)" fill="none" stroke="#000" stroke-linecap="round" stroke-linejoin="round" stroke-miterlimit="10" stroke-width="2"/>
      <path id="Trazado_1279962" data-name="Trazado 1279962" d="M352.193,312.612h-5.366a9.107,9.107,0,0,1,3.646,4.934h5.356a.649.649,0,0,0,.649-.649h0A4.285,4.285,0,0,0,352.193,312.612Z" transform="translate(-301.267 -232.848)" fill="#d88a55"/>
      <path id="Trazado_1279963" data-name="Trazado 1279963" d="M366.409,312.612h-3.57a4.285,4.285,0,0,1,4.285,4.285.649.649,0,0,1-.649.649h3.57a.649.649,0,0,0,.649-.649A4.285,4.285,0,0,0,366.409,312.612Z" transform="translate(-315.483 -232.848)" fill="#c57a44"/>
      <path id="Trazado_1279964" data-name="Trazado 1279964" d="M353.659,312.612h-5.181a9.245,9.245,0,0,1,3.575,4.934h5.242a.649.649,0,0,0,.649-.649h0A4.285,4.285,0,0,0,353.659,312.612Z" transform="translate(-302.732 -232.848)" fill="none" stroke="#000" stroke-linecap="round" stroke-linejoin="round" stroke-miterlimit="10" stroke-width="2"/>
      <g id="Grupo_1204952" data-name="Grupo 1204952" transform="translate(7.5 68.841)">
        <path id="Trazado_1279965" data-name="Trazado 1279965" d="M51.641,297.927H38.071l.372.771a5.148,5.148,0,0,1-.451,5.233L36.3,306.3a5.161,5.161,0,0,1-4.188,2.153H27.358c-.127,0-.253-.006-.378-.016v3.792H23.559a3.531,3.531,0,0,0-3.531,3.531.535.535,0,0,0,.535.535H51.641a9.209,9.209,0,0,0,9.182-9.182h0A9.209,9.209,0,0,0,51.641,297.927Z" transform="translate(-18.623 -288.651)" fill="#fae2c0"/>
        <line id="Línea_885" data-name="Línea 885" y2="3.68" transform="translate(8.357 19.894)" fill="none" stroke="#000" stroke-linecap="round" stroke-linejoin="round" stroke-miterlimit="10" stroke-width="2"/>
        <path id="Trazado_1279966" data-name="Trazado 1279966" d="M133,316.291h18.941a9.209,9.209,0,0,0,9.182-9.182h0a9.209,9.209,0,0,0-9.182-9.182H138.5" transform="translate(-118.923 -288.651)" fill="none" stroke="#000" stroke-linecap="round" stroke-linejoin="round" stroke-miterlimit="10" stroke-width="2"/>
        <path id="Trazado_1279967" data-name="Trazado 1279967" d="M238.155,297.927H230.24a3.628,3.628,0,0,0,5.618,3.92.929.929,0,0,1,1.361.321,4.34,4.34,0,0,0,8.022-.882A9.174,9.174,0,0,0,238.155,297.927Z" transform="translate(-205.137 -288.651)" fill="#bb5d4c"/>
        <path id="Trazado_1279968" data-name="Trazado 1279968" d="M238.155,297.927H230.24a3.628,3.628,0,0,0,5.618,3.92.929.929,0,0,1,1.361.321,4.34,4.34,0,0,0,8.022-.882A9.174,9.174,0,0,0,238.155,297.927Z" transform="translate(-205.137 -288.651)" fill="none" stroke="#000" stroke-linecap="round" stroke-linejoin="round" stroke-miterlimit="10" stroke-width="2"/>
        <path id="Trazado_1279969" data-name="Trazado 1279969" d="M263.127,379.79a5.909,5.909,0,0,1-5.9,5.9H253.84a2.256,2.256,0,0,0-2.256,2.256v1.023" transform="translate(-224.206 -361.332)" fill="none" stroke="#000" stroke-linecap="round" stroke-linejoin="round" stroke-miterlimit="10" stroke-width="2"/>
        <g id="Grupo_1204951" data-name="Grupo 1204951">
          <g id="Grupo_1204946" data-name="Grupo 1204946" transform="translate(1.67)">
            <path id="Trazado_1279970" data-name="Trazado 1279970" d="M24.942,221.508a5.18,5.18,0,0,1,4.344-2.9,14.835,14.835,0,0,0-2.046-1.962c-1.393-1.079-2.906-1.793-3.858-1.2-.987.53-1.125,2.2-.888,3.942a15.242,15.242,0,0,0,1.354,4.4Z" transform="translate(-22.393 -215.226)" fill="#fdb4ba"/>
            <path id="Trazado_1279971" data-name="Trazado 1279971" d="M27.558,219.415a5.161,5.161,0,0,1,2.484-.812A14.835,14.835,0,0,0,28,216.641c-1.393-1.079-2.906-1.793-3.858-1.2a1.987,1.987,0,0,0-.893,1.464,5.647,5.647,0,0,1,3.074,1.414A14.37,14.37,0,0,1,27.558,219.415Z" transform="translate(-23.149 -215.226)" fill="#fe99a0"/>
            <path id="Trazado_1279972" data-name="Trazado 1279972" d="M24.84,221.46a5.262,5.262,0,0,1,4.351-2.963,14.777,14.777,0,0,0-1.953-1.855c-1.393-1.079-2.906-1.793-3.858-1.2-.987.53-1.125,2.2-.888,3.942a15.223,15.223,0,0,0,1.292,4.266Z" transform="translate(-22.392 -215.227)" fill="none" stroke="#000" stroke-linecap="round" stroke-linejoin="round" stroke-miterlimit="10" stroke-width="2"/>
            <path id="Trazado_1279973" data-name="Trazado 1279973" d="M135.2,215.44c-.952-.59-2.464.124-3.858,1.2A14.821,14.821,0,0,0,129.3,218.6a5.181,5.181,0,0,1,4.344,2.9l1.094,2.269a15.243,15.243,0,0,0,1.354-4.4C136.326,217.636,136.188,215.97,135.2,215.44Z" transform="translate(-117.306 -215.227)" fill="#fdb4ba"/>
            <path id="Trazado_1279974" data-name="Trazado 1279974" d="M164.995,215.44a2.289,2.289,0,0,0-2.14.128c.81.636.914,2.19.693,3.814a14.387,14.387,0,0,1-.351,1.692c.086.14.165.285.237.435l1.094,2.269a15.243,15.243,0,0,0,1.354-4.4C166.12,217.636,165.982,215.97,164.995,215.44Z" transform="translate(-147.1 -215.227)" fill="#fe99a0"/>
            <path id="Trazado_1279975" data-name="Trazado 1279975" d="M135.94,215.44c-.952-.59-2.464.124-3.858,1.2a14.783,14.783,0,0,0-1.953,1.855,5.262,5.262,0,0,1,4.351,2.963l1.054,2.188a15.223,15.223,0,0,0,1.292-4.266C137.065,217.636,136.928,215.97,135.94,215.44Z" transform="translate(-118.046 -215.227)" fill="none" stroke="#000" stroke-linecap="round" stroke-linejoin="round" stroke-miterlimit="10" stroke-width="2"/>
          </g>
          <path id="Trazado_1279976" data-name="Trazado 1279976" d="M34.966,244.251H30.459a5.262,5.262,0,0,0-4.741,2.978L23.9,250.994a5.262,5.262,0,0,0,.461,5.347l1.692,2.364a5.262,5.262,0,0,0,4.279,2.2h4.753a5.262,5.262,0,0,0,4.279-2.2l1.692-2.364a5.262,5.262,0,0,0,.461-5.347l-1.815-3.765A5.262,5.262,0,0,0,34.966,244.251Z" transform="translate(-21.601 -240.995)" fill="#fae2c0"/>
          <path id="Trazado_1279977" data-name="Trazado 1279977" d="M103.245,250.994l-1.815-3.765a5.262,5.262,0,0,0-4.741-2.978H92.9a5.262,5.262,0,0,1,4.741,2.978l1.815,3.765A5.262,5.262,0,0,1,99,256.341L97.306,258.7a5.262,5.262,0,0,1-4.279,2.2h3.786a5.262,5.262,0,0,0,4.279-2.2l1.692-2.364A5.262,5.262,0,0,0,103.245,250.994Z" transform="translate(-83.325 -240.995)" fill="#fed2a4"/>
          <path id="Trazado_1279978" data-name="Trazado 1279978" d="M34.966,244.251H30.459a5.262,5.262,0,0,0-4.741,2.978L23.9,250.994a5.262,5.262,0,0,0,.461,5.347l1.692,2.364a5.262,5.262,0,0,0,4.279,2.2h4.753a5.262,5.262,0,0,0,4.279-2.2l1.692-2.364a5.262,5.262,0,0,0,.461-5.347l-1.815-3.765A5.262,5.262,0,0,0,34.966,244.251Z" transform="translate(-21.601 -240.995)" fill="none" stroke="#000" stroke-linecap="round" stroke-linejoin="round" stroke-miterlimit="10" stroke-width="2"/>
          <path id="Trazado_1279979" data-name="Trazado 1279979" d="M97.218,317.66l1.114-1.183a.247.247,0,0,0-.18-.416H96.284a.247.247,0,0,0-.18.416Z" transform="translate(-86.106 -304.751)" fill="#fff" stroke="#000" stroke-linecap="round" stroke-linejoin="round" stroke-miterlimit="10" stroke-width="2"/>
          <path id="Trazado_1279980" data-name="Trazado 1279980" d="M95.672,337.864l-1.617-1.294-1.581,1.294" transform="translate(-82.943 -322.96)" fill="none" stroke="#000" stroke-linecap="round" stroke-linejoin="round" stroke-miterlimit="10" stroke-width="2"/>
          <line id="Línea_886" data-name="Línea 886" y1="0.701" transform="translate(11.112 12.237)" fill="none" stroke="#000" stroke-linecap="round" stroke-linejoin="round" stroke-miterlimit="10" stroke-width="2"/>
          <g id="Grupo_1204949" data-name="Grupo 1204949" transform="translate(0 12.134)">
            <g id="Grupo_1204947" data-name="Grupo 1204947" transform="translate(18.748)">
              <line id="Línea_887" data-name="Línea 887" x2="3.427" fill="none" stroke="#000" stroke-linecap="round" stroke-linejoin="round" stroke-miterlimit="10" stroke-width="2"/>
              <line id="Línea_888" data-name="Línea 888" x2="3.427" transform="translate(0 2.974)" fill="none" stroke="#000" stroke-linecap="round" stroke-linejoin="round" stroke-miterlimit="10" stroke-width="2"/>
            </g>
            <g id="Grupo_1204948" data-name="Grupo 1204948">
              <line id="Línea_889" data-name="Línea 889" x2="3.456" fill="none" stroke="#000" stroke-linecap="round" stroke-linejoin="round" stroke-miterlimit="10" stroke-width="2"/>
              <line id="Línea_890" data-name="Línea 890" x2="3.456" transform="translate(0 2.974)" fill="none" stroke="#000" stroke-linecap="round" stroke-linejoin="round" stroke-miterlimit="10" stroke-width="2"/>
            </g>
          </g>
          <g id="Grupo_1204950" data-name="Grupo 1204950" transform="translate(7.027 9.162)">
            <line id="Línea_891" data-name="Línea 891" y2="1.168" fill="none" stroke="#000" stroke-linecap="round" stroke-linejoin="round" stroke-miterlimit="10" stroke-width="2"/>
            <line id="Línea_892" data-name="Línea 892" y2="1.168" transform="translate(8.17)" fill="none" stroke="#000" stroke-linecap="round" stroke-linejoin="round" stroke-miterlimit="10" stroke-width="2"/>
          </g>
        </g>
        <path id="Trazado_1279981" data-name="Trazado 1279981" d="M36.425,425.4H23.559a3.531,3.531,0,0,0-3.531,3.531h0a.535.535,0,0,0,.535.535h3.388" transform="translate(-18.623 -401.825)" fill="none" stroke="#000" stroke-linecap="round" stroke-linejoin="round" stroke-miterlimit="10" stroke-width="2"/>
        <line id="Línea_893" data-name="Línea 893" x2="8.548" transform="translate(9.254 27.64)" fill="none" stroke="#000" stroke-linecap="round" stroke-linejoin="round" stroke-miterlimit="10" stroke-width="2"/>
      </g>
      <g id="Grupo_1204956" data-name="Grupo 1204956" transform="translate(32.933 50.348)">
        <g id="Grupo_1204953" data-name="Grupo 1204953" transform="translate(0 0)">
          <path id="Trazado_1279982" data-name="Trazado 1279982" d="M392.084,52.313l-3.419-1.652a3.153,3.153,0,0,0-3.6.61h0a3.148,3.148,0,0,0-.81,1.4,10.991,10.991,0,0,1,3.482,1.694,7.112,7.112,0,0,1,2.856,6.867l.562.142a3.153,3.153,0,0,0,3.926-3.056V57.089A5.3,5.3,0,0,0,392.084,52.313Z" transform="translate(-367.429 -50.348)" fill="#918291"/>
          <path id="Trazado_1279983" data-name="Trazado 1279983" d="M398.191,52.313l-3.419-1.652a3.153,3.153,0,0,0-3.6.61l-.039.041a3.148,3.148,0,0,1,1.644.3l3.419,1.652a5.3,5.3,0,0,1,3,4.776v1.227a3.128,3.128,0,0,1-.885,2.189,3.155,3.155,0,0,0,2.88-3.142V57.089A5.3,5.3,0,0,0,398.191,52.313Z" transform="translate(-373.536 -50.348)" fill="#7a6d79"/>
          <path id="Trazado_1279984" data-name="Trazado 1279984" d="M241.594,54.363a10.99,10.99,0,0,1,3.482-1.694,3.149,3.149,0,0,0-4.411-2.008l-3.419,1.652a5.3,5.3,0,0,0-3,4.776v1.227a3.153,3.153,0,0,0,3.926,3.056l.562-.142A7.112,7.112,0,0,1,241.594,54.363Z" transform="translate(-234.249 -50.348)" fill="#918291"/>
          <path id="Trazado_1279985" data-name="Trazado 1279985" d="M251.256,51.37a3.15,3.15,0,0,0-1.953-.911,3.154,3.154,0,0,1,.453.6.665.665,0,0,1-.35.965,11.023,11.023,0,0,0-2.816,1.483,7.113,7.113,0,0,0-2.921,6.321.659.659,0,0,1-.5.689h0a3.151,3.151,0,0,1-1.049.085,3.142,3.142,0,0,0,3.043.869l.562-.142a7.113,7.113,0,0,1,2.856-6.867,10.99,10.99,0,0,1,3.482-1.694A3.151,3.151,0,0,0,251.256,51.37Z" transform="translate(-241.239 -50.447)" fill="#7a6d79"/>
        </g>
        <g id="Grupo_1204954" data-name="Grupo 1204954" transform="translate(0 0)">
          <path id="Trazado_1279986" data-name="Trazado 1279986" d="M392.319,52.313,388.9,50.662a3.153,3.153,0,0,0-3.6.61h0a3.149,3.149,0,0,0-.78,1.293,11.119,11.119,0,0,1,3.518,1.707h0a7.246,7.246,0,0,1,2.9,6.985l.454.115a3.153,3.153,0,0,0,3.926-3.056V57.089A5.3,5.3,0,0,0,392.319,52.313Z" transform="translate(-367.664 -50.348)" fill="none" stroke="#000" stroke-linecap="round" stroke-linejoin="round" stroke-miterlimit="10" stroke-width="2"/>
          <path id="Trazado_1279987" data-name="Trazado 1279987" d="M241.528,54.272h0a11.12,11.12,0,0,1,3.518-1.707,3.151,3.151,0,0,0-4.381-1.9l-3.419,1.652a5.3,5.3,0,0,0-3,4.776v1.227a3.153,3.153,0,0,0,3.926,3.056l.454-.115A7.246,7.246,0,0,1,241.528,54.272Z" transform="translate(-234.249 -50.348)" fill="none" stroke="#000" stroke-linecap="round" stroke-linejoin="round" stroke-miterlimit="10" stroke-width="2"/>
        </g>
        <path id="Trazado_1279988" data-name="Trazado 1279988" d="M275.5,68.5h0a7.245,7.245,0,0,0-2.632,8.1l1.557,4.793a4.2,4.2,0,0,0,4,2.9h7.25a4.2,4.2,0,0,0,4-2.9l1.557-4.793a7.245,7.245,0,0,0-2.632-8.1h0A11.139,11.139,0,0,0,275.5,68.5Z" transform="translate(-268.224 -64.573)" fill="#d88a55"/>
        <path id="Trazado_1279989" data-name="Trazado 1279989" d="M350.072,68.5h0a11.133,11.133,0,0,0-8.314-1.986,11.115,11.115,0,0,1,4.78,1.986h0a7.245,7.245,0,0,1,2.632,8.1L347.612,81.4a4.2,4.2,0,0,1-4,2.9h3.535a4.2,4.2,0,0,0,4-2.9L352.7,76.6A7.245,7.245,0,0,0,350.072,68.5Z" transform="translate(-329.699 -64.579)" fill="#c57a44"/>
        <path id="Trazado_1279990" data-name="Trazado 1279990" d="M275.5,68.5h0a7.245,7.245,0,0,0-2.632,8.1l1.557,4.793a4.2,4.2,0,0,0,4,2.9h7.25a4.2,4.2,0,0,0,4-2.9l1.557-4.793a7.245,7.245,0,0,0-2.632-8.1h0A11.139,11.139,0,0,0,275.5,68.5Z" transform="translate(-268.224 -64.573)" fill="none" stroke="#000" stroke-linecap="round" stroke-linejoin="round" stroke-miterlimit="10" stroke-width="2"/>
        <path id="Trazado_1279991" data-name="Trazado 1279991" d="M339.351,164.17l2.132-2.623a.72.72,0,0,0-.558-1.174h-3.148a.72.72,0,0,0-.558,1.174Z" transform="translate(-325.525 -148.032)" fill="#7a6d79"/>
        <path id="Trazado_1279992" data-name="Trazado 1279992" d="M339.351,164.17l2.132-2.623a.72.72,0,0,0-.558-1.174h-3.148a.72.72,0,0,0-.558,1.174Z" transform="translate(-325.525 -148.032)" fill="none" stroke="#000" stroke-linecap="round" stroke-linejoin="round" stroke-miterlimit="10" stroke-width="2"/>
        <line id="Línea_894" data-name="Línea 894" y2="3.583" transform="translate(13.826 16.138)" fill="none" stroke="#000" stroke-linecap="round" stroke-linejoin="round" stroke-miterlimit="10" stroke-width="2"/>
        <g id="Grupo_1204955" data-name="Grupo 1204955" transform="translate(9.81 8.794)">
          <line id="Línea_895" data-name="Línea 895" y2="1.149" fill="none" stroke="#000" stroke-linecap="round" stroke-linejoin="round" stroke-miterlimit="10" stroke-width="2"/>
          <line id="Línea_896" data-name="Línea 896" y2="1.149" transform="translate(8.032)" fill="none" stroke="#000" stroke-linecap="round" stroke-linejoin="round" stroke-miterlimit="10" stroke-width="2"/>
        </g>
      </g>
    </g>
  </g>
</svg>
