<svg xmlns="http://www.w3.org/2000/svg" width="84.208" height="84.207" viewBox="0 0 84.208 84.207">
  <g id="Grupo_1204439" data-name="Grupo 1204439" transform="translate(-872.726 -278.777)">
    <g id="Grupo_1188789" data-name="Grupo 1188789" transform="translate(583.726 -5835.222)">
      <rect id="Rectángulo_400898" data-name="Rectángulo 400898" width="75.49" height="75.489" rx="37.744" transform="translate(293.36 6118.358)" fill="#ffd907"/>
      <rect id="Rectángulo_400907" data-name="Rectángulo 400907" width="75.49" height="75.489" rx="37.744" transform="translate(293.36 6118.358)" fill="none"/>
      <g id="Grupo_1098742" data-name="Grupo 1098742" transform="translate(289 6114)">
        <g id="Rectángulo_400898-2" data-name="Rectángulo 400898" transform="translate(0)" fill="none" stroke="#fff" stroke-width="1" opacity="0.859">
          <rect width="84.208" height="84.207" rx="42.104" stroke="none"/>
          <rect x="0.5" y="0.5" width="83.208" height="83.207" rx="41.604" fill="none"/>
        </g>
        <g id="Rectángulo_400907-2" data-name="Rectángulo 400907" transform="translate(0)" fill="none" stroke="#0f1f33" stroke-linecap="round" stroke-width="1">
          <rect width="84.208" height="84.207" rx="42.104" stroke="none"/>
          <rect x="0.5" y="0.5" width="83.208" height="83.207" rx="41.604" fill="none"/>
        </g>
      </g>
      <g id="medal_1642915" transform="translate(306.349 6130.847)">
        <g id="Grupo_1204958" data-name="Grupo 1204958" transform="translate(0.966 1.467)">
          <path id="Trazado_1280018" data-name="Trazado 1280018" d="M159.927,293.317a2.087,2.087,0,1,0-.656,3.018A2.189,2.189,0,0,0,159.927,293.317Zm0,0" transform="translate(-141.878 -264.885)" fill="#ffc059" fill-rule="evenodd"/>
          <path id="Trazado_1280019" data-name="Trazado 1280019" d="M238.677,268.1a2.086,2.086,0,1,0-2.077,2.286A2.189,2.189,0,0,0,238.677,268.1Zm0,0" transform="translate(-212.811 -241.122)" fill="#ffc059" fill-rule="evenodd"/>
          <path id="Trazado_1280020" data-name="Trazado 1280020" d="M315.185,292.392a2.3,2.3,0,1,0,.656,3.018A2.189,2.189,0,0,0,315.185,292.392Zm0,0" transform="translate(-282.714 -264.9)" fill="#ffc059" fill-rule="evenodd"/>
          <path id="Trazado_1280021" data-name="Trazado 1280021" d="M199.993,347.016a6.715,6.715,0,0,0-13.43,0c0,3.709,3.007,2.732,6.715,2.732S199.993,350.725,199.993,347.016Zm0,0" transform="translate(-169.488 -308.407)" fill="#ffc059" fill-rule="evenodd"/>
          <path id="Trazado_1280022" data-name="Trazado 1280022" d="M126.9,215.387a2.3,2.3,0,1,1,2.942-.941A2.189,2.189,0,0,1,126.9,215.387Zm-13.111,7.158c0,3.709,3.007,2.732,6.715,2.732s6.715.977,6.715-2.732a6.715,6.715,0,1,0-13.43,0Zm6.715-13.919a2.3,2.3,0,1,1-2.077,2.286A2.189,2.189,0,0,1,120.506,208.626Zm10.483-1.643a14.506,14.506,0,1,0,4.023,10.026A14.478,14.478,0,0,0,130.989,206.984Zm-19.165,4.444a2.3,2.3,0,1,1-.656,3.018A2.189,2.189,0,0,1,111.824,211.427Zm0,0" transform="translate(-96.716 -183.936)" fill="#ffd89e" fill-rule="evenodd"/>
          <path id="Trazado_1280023" data-name="Trazado 1280023" d="M23.307,33.547a14.535,14.535,0,0,1,13.385-4.189l-2.9-5.026L25.8,10.5H10Zm0,0" transform="translate(-10 -10.5)" fill="#d675a7" fill-rule="evenodd"/>
          <path id="Trazado_1280024" data-name="Trazado 1280024" d="M256,24.332l2.9,5.026a14.478,14.478,0,0,1,7.582,4.19L279.789,10.5h-15.8Zm0,0" transform="translate(-232.21 -10.5)" fill="#e199bd" fill-rule="evenodd"/>
        </g>
        <path id="Trazado_1280025" data-name="Trazado 1280025" d="M182.347,341.743c.612-.031,1.245-.062,1.9-.062s1.286.031,1.9.062c.556.028,1.09.054,1.6.054a4.393,4.393,0,0,0,3.189-.935,3.767,3.767,0,0,0,1-2.88,7.682,7.682,0,0,0-15.364,0,3.766,3.766,0,0,0,1,2.88C178.679,341.926,180.379,341.841,182.347,341.743Zm1.9-9.509a5.755,5.755,0,0,1,5.748,5.748,2.059,2.059,0,0,1-.4,1.479c-.516.491-1.9.423-3.356.35-.636-.032-1.293-.064-1.994-.064s-1.358.032-1.994.064c-1.46.073-2.839.141-3.356-.35a2.059,2.059,0,0,1-.4-1.479A5.755,5.755,0,0,1,184.245,332.235Zm0,0" transform="translate(-159.489 -297.907)"/>
        <path id="Trazado_1280026" data-name="Trazado 1280026" d="M230.611,259.066a3.051,3.051,0,1,0-3.044,3.253A3.158,3.158,0,0,0,230.611,259.066Zm-4.154,0a1.126,1.126,0,1,1,1.11,1.319A1.245,1.245,0,0,1,226.458,259.066Zm0,0" transform="translate(-202.812 -230.622)"/>
        <path id="Trazado_1280027" data-name="Trazado 1280027" d="M151.751,283.8a3.358,3.358,0,0,0-1.878-1.533,2.929,2.929,0,0,0-2.385.238,3.158,3.158,0,0,0-1.01,4.339,3.294,3.294,0,0,0,2.82,1.68,2.876,2.876,0,0,0,1.443-.385A3.158,3.158,0,0,0,151.751,283.8Zm-1.976,2.664a1.339,1.339,0,0,1-1.319-2.285.959.959,0,0,1,.482-.127,1.129,1.129,0,0,1,.346.056,1.427,1.427,0,0,1,.793.658A1.229,1.229,0,0,1,149.775,286.46Zm0,0" transform="translate(-131.899 -254.379)"/>
        <path id="Trazado_1280028" data-name="Trazado 1280028" d="M307.669,286.839a3.158,3.158,0,0,0-1.009-4.339,2.929,2.929,0,0,0-2.385-.238,3.358,3.358,0,0,0-1.878,1.533,3.158,3.158,0,0,0,1.009,4.34,2.874,2.874,0,0,0,1.443.384A3.294,3.294,0,0,0,307.669,286.839Zm-1.675-.967a1.127,1.127,0,1,1-1.922-1.11,1.43,1.43,0,0,1,.792-.658,1.143,1.143,0,0,1,.346-.056.955.955,0,0,1,.482.127A1.23,1.23,0,0,1,305.994,285.871Zm0,0" transform="translate(-272.738 -254.378)"/>
        <path id="Trazado_1280029" data-name="Trazado 1280029" d="M1.8.983A.967.967,0,0,0,.128,1.95L2.005,5.2A.967.967,0,1,0,3.68,4.234Zm0,0" transform="translate(0 0)"/>
        <path id="Trazado_1280030" data-name="Trazado 1280030" d="M102.69.63a.966.966,0,0,0-1.321.354L88.676,22.969a15.448,15.448,0,0,0-6.732-3.5L79.534,15.3,87.24,1.951A.967.967,0,1,0,85.565.984L78.417,13.365,71.268.984a.967.967,0,1,0-1.675.967l9.9,17.155c-.357-.025-.718-.038-1.081-.038a15.41,15.41,0,0,0-10.259,3.9L61.21,10.934a.967.967,0,0,0-1.675.967l7.212,12.491A15.47,15.47,0,0,0,86.046,48a.967.967,0,0,0-.955-1.682A13.535,13.535,0,1,1,90.2,41.214a.967.967,0,1,0,1.682.955,15.461,15.461,0,0,0-1.793-17.777L103.044,1.95A.966.966,0,0,0,102.69.63Zm0,0" transform="translate(-53.661)"/>
        <path id="Trazado_1280031" data-name="Trazado 1280031" d="M352.35,448.845h0a.967.967,0,1,0,1.368,0A.966.966,0,0,0,352.349,448.845Zm0,0" transform="translate(-318.02 -404.731)"/>
        <path id="Trazado_1280032" data-name="Trazado 1280032" d="M41.2,69.209a.967.967,0,1,0-.317,1.331.967.967,0,0,0,.317-1.331Zm0,0" transform="translate(-35.598 -61.649)"/>
      </g>
    </g>
  </g>
</svg>
