<svg xmlns="http://www.w3.org/2000/svg" width="84.208" height="84.207" viewBox="0 0 84.208 84.207">
  <g id="Grupo_1204942" data-name="Grupo 1204942" transform="translate(-872.726 -278.777)">
    <g id="Grupo_1188789" data-name="Grupo 1188789" transform="translate(583.726 -5835.222)">
      <rect id="Rectángulo_400898" data-name="Rectángulo 400898" width="75.49" height="75.489" rx="37.744" transform="translate(293.36 6118.358)" fill="#ffd907"/>
      <rect id="Rectángulo_400907" data-name="Rectángulo 400907" width="75.49" height="75.489" rx="37.744" transform="translate(293.36 6118.358)" fill="none"/>
      <g id="Grupo_1098742" data-name="Grupo 1098742" transform="translate(289 6114)">
        <g id="Rectángulo_400898-2" data-name="Rectángulo 400898" transform="translate(0)" fill="none" stroke="#fff" stroke-width="1" opacity="0.859">
          <rect width="84.208" height="84.207" rx="42.104" stroke="none"/>
          <rect x="0.5" y="0.5" width="83.208" height="83.207" rx="41.604" fill="none"/>
        </g>
        <g id="Rectángulo_400907-2" data-name="Rectángulo 400907" transform="translate(0)" fill="none" stroke="#0f1f33" stroke-linecap="round" stroke-width="1">
          <rect width="84.208" height="84.207" rx="42.104" stroke="none"/>
          <rect x="0.5" y="0.5" width="83.208" height="83.207" rx="41.604" fill="none"/>
        </g>
      </g>
      <g id="dog_14257493" transform="translate(296.23 6071.725)">
        <g id="Grupo_1204968" data-name="Grupo 1204968" transform="translate(7.5 63.132)">
          <path id="Trazado_1280033" data-name="Trazado 1280033" d="M352.306,67.53h0a3.47,3.47,0,0,0-4.908,0l-2.052,2.052-2-2a3.521,3.521,0,0,0-4.9-.119,3.47,3.47,0,0,0-.066,4.972l6.118,6.118a1.19,1.19,0,0,0,1.683,0l6.118-6.118A3.471,3.471,0,0,0,352.306,67.53Z" transform="translate(-301.032 -66.141)" fill="#fe646f"/>
          <path id="Trazado_1280034" data-name="Trazado 1280034" d="M399.653,67.532h0a3.469,3.469,0,0,0-3.454-.87l.048.046h0a3.471,3.471,0,0,1,0,4.908l-5.669,5.669,1.273,1.273a1.19,1.19,0,0,0,1.683,0l6.118-6.118A3.471,3.471,0,0,0,399.653,67.532Z" transform="translate(-348.379 -66.143)" fill="#fd4755"/>
          <path id="Trazado_1280035" data-name="Trazado 1280035" d="M340.073,367.7a8.37,8.37,0,0,1-.748.4l-.022.01-.016.018a3.289,3.289,0,0,1-2.407,1.155H336.8a3.287,3.287,0,0,1-2.418-1.065.672.672,0,0,0-.5-.221.7.7,0,0,0-.514.227,3.277,3.277,0,0,1-4.914-.1l-.016-.018-.022-.01c-.254-.119-.5-.25-.737-.391a12.728,12.728,0,0,0-3.184,7.077,1.654,1.654,0,0,0,1.64,1.864h15.485a1.654,1.654,0,0,0,1.64-1.864A12.725,12.725,0,0,0,340.073,367.7Z" transform="translate(-289.561 -334.151)" fill="#ffbd86"/>
          <g id="Grupo_1204959" data-name="Grupo 1204959" transform="translate(34.918 33.551)">
            <path id="Trazado_1280036" data-name="Trazado 1280036" d="M343.258,374.781a12.727,12.727,0,0,0-3.184-7.077,8.382,8.382,0,0,1-.748.4l-.022.01-.016.018a3.319,3.319,0,0,1-1.369.954,12.535,12.535,0,0,1,1.4,2.784,1.1,1.1,0,0,1-1.038,1.473H324.755a14.178,14.178,0,0,0-.262,1.441,1.654,1.654,0,0,0,1.64,1.864h15.485A1.654,1.654,0,0,0,343.258,374.781Z" transform="translate(-324.479 -367.704)" fill="#f6a96c"/>
          </g>
          <g id="Grupo_1204962" data-name="Grupo 1204962" transform="translate(33.879 14.259)">
            <path id="Trazado_1280037" data-name="Trazado 1280037" d="M446.812,200.555v-6.535a1.442,1.442,0,0,0-2.462-1.02l-3.376,3.376A8.433,8.433,0,0,1,446.812,200.555Z" transform="translate(-427.102 -192.575)" fill="#fdb4ba"/>
            <path id="Trazado_1280038" data-name="Trazado 1280038" d="M471.072,193l-.068.068v4.69a8.472,8.472,0,0,1,2.531,2.8v-6.535A1.442,1.442,0,0,0,471.072,193Z" transform="translate(-453.825 -192.576)" fill="#fe99a0"/>
            <path id="Trazado_1280039" data-name="Trazado 1280039" d="M330.507,196.395,327.114,193a1.442,1.442,0,0,0-2.462,1.02v6.722A8.435,8.435,0,0,1,330.507,196.395Z" transform="translate(-323.595 -192.576)" fill="#fdb4ba"/>
            <g id="Grupo_1204960" data-name="Grupo 1204960" transform="translate(0 3.575)">
              <path id="Trazado_1280040" data-name="Trazado 1280040" d="M327.422,225.032h-3.868a8.525,8.525,0,0,0-8.5,8.5h0a8.53,8.53,0,0,0,5.19,7.825l-.025-.025a3.251,3.251,0,0,1-.926-2.376,3.333,3.333,0,0,1,3.344-3.183h5.774a3.268,3.268,0,0,1,2.307,5.59,8.531,8.531,0,0,0,5.205-7.832h0A8.525,8.525,0,0,0,327.422,225.032Z" transform="translate(-315.053 -225.032)" fill="#fed2a4"/>
            </g>
            <g id="Grupo_1204961" data-name="Grupo 1204961" transform="translate(15.475 5.56)">
              <path id="Trazado_1280041" data-name="Trazado 1280041" d="M457.868,243.051a9.113,9.113,0,0,1,.469,2.89,9.393,9.393,0,0,1-2.806,6.644,3.351,3.351,0,0,1,.27.256,3.262,3.262,0,0,1-.081,4.557,8.531,8.531,0,0,0,5.205-7.832h0A8.49,8.49,0,0,0,457.868,243.051Z" transform="translate(-455.532 -243.051)" fill="#ffbd86"/>
            </g>
          </g>
          <path id="Trazado_1280042" data-name="Trazado 1280042" d="M361.711,321.505h-5.774a3.436,3.436,0,0,0-3.459,3.295,3.389,3.389,0,0,0,5.881,2.392.577.577,0,0,1,.853-.007,3.39,3.39,0,1,0,2.5-5.679Z" transform="translate(-314.474 -293.043)" fill="#fff"/>
          <path id="Trazado_1280043" data-name="Trazado 1280043" d="M363.967,328.857a11.152,11.152,0,0,1-8.015,3.3,11.606,11.606,0,0,1-3.41-.508,3.389,3.389,0,0,0,5.875,2.087.577.577,0,0,1,.853-.007,3.389,3.389,0,1,0,4.7-4.869Z" transform="translate(-314.533 -299.585)" fill="#faf7f7"/>
          <path id="Trazado_1280044" data-name="Trazado 1280044" d="M392.094,314.757l1.287-1.6a.672.672,0,0,0-.524-1.093h-3.244a.672.672,0,0,0-.524,1.093l1.287,1.6A1.1,1.1,0,0,0,392.094,314.757Z" transform="translate(-346.921 -284.641)" fill="#f6a96c"/>
          <path id="Trazado_1280045" data-name="Trazado 1280045" d="M58.122,263.578l-1.24-13.071a11.629,11.629,0,0,0-4.121-7.835l-2.322,1.852v.268a2.078,2.078,0,0,1-3.317,1.669,3.108,3.108,0,0,0-3.705,0,2.078,2.078,0,0,1-3.317-1.669v-.268l-2.311-1.844a11.629,11.629,0,0,0-4.113,7.849l-1.213,13.052a1.652,1.652,0,0,0,1.645,1.805H56.477A1.652,1.652,0,0,0,58.122,263.578Z" transform="translate(-29.707 -222.894)" fill="#f6a96c"/>
          <path id="Trazado_1280046" data-name="Trazado 1280046" d="M58.122,263.578l-1.24-13.071a11.629,11.629,0,0,0-4.121-7.835l-2,1.6a11.609,11.609,0,0,1,2.548,6.237l.984,10.369a1.1,1.1,0,0,1-1.1,1.206H32.6l-.139,1.5a1.652,1.652,0,0,0,1.645,1.805H56.477A1.652,1.652,0,0,0,58.122,263.578Z" transform="translate(-29.707 -222.894)" fill="#ea9b58"/>
          <path id="Trazado_1280047" data-name="Trazado 1280047" d="M85.852,336l.776-8.348a6.2,6.2,0,0,1,12.34-.012l.793,8.36Z" transform="translate(-77.221 -293.51)" fill="#ffbd86"/>
          <path id="Trazado_1280048" data-name="Trazado 1280048" d="M86.159,418.867l-.307,3.3H99.761l-.313-3.3Z" transform="translate(-77.221 -379.68)" fill="#f6a96c"/>
          <g id="Grupo_1204967" data-name="Grupo 1204967" transform="translate(0 0)">
            <g id="Grupo_1204966" data-name="Grupo 1204966">
              <g id="Grupo_1204965" data-name="Grupo 1204965">
                <path id="Trazado_1280049" data-name="Trazado 1280049" d="M77.53,81a5.134,5.134,0,0,1-.954-2.985V70.4a3.2,3.2,0,0,1,.57-1.826l-.79-1.028a11.181,11.181,0,0,0-8.593-4.409q-.178,0-.357,0a11.228,11.228,0,0,0-8.836,4.414l-.788,1.026a3.2,3.2,0,0,1,.57,1.826v7.615A5.133,5.133,0,0,1,57.4,81l4.9,3.906v-3.61a5.17,5.17,0,0,1,10.339,0V84.9Z" transform="translate(-51.901 -63.133)" fill="#ffbd86"/>
                <g id="Grupo_1204963" data-name="Grupo 1204963" transform="translate(20.732 2.339)">
                  <path id="Trazado_1280050" data-name="Trazado 1280050" d="M199.645,96.909V89.294a3.2,3.2,0,0,1,.57-1.826l-.79-1.028a11.437,11.437,0,0,0-2.064-2.073V96.963a4.407,4.407,0,0,1-1.658,3.444V103.8l4.9-3.906A5.134,5.134,0,0,1,199.645,96.909Z" transform="translate(-195.703 -84.368)" fill="#f6a96c"/>
                </g>
                <path id="Trazado_1280051" data-name="Trazado 1280051" d="M106.125,180.061h0a5.3,5.3,0,0,0-5.28,5.28v3.738a2.188,2.188,0,0,0,2.188,2.188h0a2.188,2.188,0,0,0,1.3-.431h0a3,3,0,0,1,3.574,0h0a2.188,2.188,0,0,0,1.3.431h0a2.188,2.188,0,0,0,2.188-2.188v-3.738A5.3,5.3,0,0,0,106.125,180.061Z" transform="translate(-90.562 -167.18)" fill="#fff"/>
                <path id="Trazado_1280052" data-name="Trazado 1280052" d="M111.295,229.217l-2.032,1.621a4.406,4.406,0,0,1-2.748.962h-5.669v.937a2.188,2.188,0,0,0,3.493,1.757,3,3,0,0,1,3.574,0h0a2.188,2.188,0,0,0,1.3.431h0a2.188,2.188,0,0,0,2.188-2.188v-3.613C111.369,229.154,111.333,229.186,111.295,229.217Z" transform="translate(-90.563 -210.838)" fill="#faf7f7"/>
                <g id="Grupo_1204964" data-name="Grupo 1204964" transform="translate(0 3.936)">
                  <path id="Trazado_1280053" data-name="Trazado 1280053" d="M7.5,102.092v11.7a1.287,1.287,0,0,0,1.287,1.287h0a5.274,5.274,0,0,0,5.274-5.274v-7.615a3.33,3.33,0,0,0-3.33-3.33h0A3.231,3.231,0,0,0,7.5,102.092Z" transform="translate(-7.5 -98.861)" fill="#c96e59"/>
                </g>
                <path id="Trazado_1280054" data-name="Trazado 1280054" d="M11.582,99.861v9.259A5.275,5.275,0,0,1,7.5,114.257v.426a1.287,1.287,0,0,0,1.287,1.287h0a5.274,5.274,0,0,0,5.274-5.274v-7.615A3.331,3.331,0,0,0,11.582,99.861Z" transform="translate(-7.5 -95.815)" fill="#bb5d4c"/>
              </g>
            </g>
          </g>
          <path id="Trazado_1280055" data-name="Trazado 1280055" d="M130.859,180.59h-1.3a1.653,1.653,0,0,1-1.648-1.648h0a1.653,1.653,0,0,1,1.648-1.648h1.3a1.653,1.653,0,0,1,1.648,1.648h0A1.653,1.653,0,0,1,130.859,180.59Z" transform="translate(-114.646 -164.718)" fill="#766e6e"/>
          <path id="Trazado_1280056" data-name="Trazado 1280056" d="M131.678,179.187a1.653,1.653,0,0,1-1.64,1.489h-2.1a1.652,1.652,0,0,0,1.645,1.6h1.3a1.653,1.653,0,0,0,1.648-1.648h0A1.652,1.652,0,0,0,131.678,179.187Z" transform="translate(-114.666 -166.403)" fill="#5b5555"/>
          <path id="Trazado_1280057" data-name="Trazado 1280057" d="M237.054,102.092v11.7a1.287,1.287,0,0,1-1.287,1.287h0a5.274,5.274,0,0,1-5.274-5.274v-7.615a3.33,3.33,0,0,1,3.33-3.33h0A3.231,3.231,0,0,1,237.054,102.092Z" transform="translate(-205.929 -94.925)" fill="#c96e59"/>
          <path id="Trazado_1280058" data-name="Trazado 1280058" d="M254.773,99.773v14.052a1.287,1.287,0,0,1-1.287,1.287h0c-.118,0-.235-.005-.351-.013a5.248,5.248,0,0,0,2.779.792h0A1.287,1.287,0,0,0,257.2,114.6V102.9A3.232,3.232,0,0,0,254.773,99.773Z" transform="translate(-226.077 -95.737)" fill="#bb5d4c"/>
          <path id="Trazado_1280059" data-name="Trazado 1280059" d="M402.151,312.061h-.888l-1.879,2.339.286.356a1.1,1.1,0,0,0,1.717,0l1.287-1.6A.672.672,0,0,0,402.151,312.061Z" transform="translate(-356.215 -284.64)" fill="#ea9b58"/>
        </g>
        <g id="Grupo_1204974" data-name="Grupo 1204974" transform="translate(7.5 63.132)">
          <path id="Trazado_1280060" data-name="Trazado 1280060" d="M341.794,75.847l2.711,2.711a1.19,1.19,0,0,0,1.683,0l6.118-6.118a3.471,3.471,0,0,0,0-4.908h0a3.47,3.47,0,0,0-4.908,0l-2.052,2.052-2-2a3.521,3.521,0,0,0-4.9-.119,3.471,3.471,0,0,0-.066,4.972l.567.567" transform="translate(-301.032 -66.142)" fill="none" stroke="#000" stroke-linecap="round" stroke-linejoin="round" stroke-miterlimit="10" stroke-width="2"/>
          <path id="Trazado_1280061" data-name="Trazado 1280061" d="M330.985,241.246a8.528,8.528,0,0,0,4.937-7.712h0a8.525,8.525,0,0,0-8.5-8.5h-3.868a8.525,8.525,0,0,0-8.5,8.5h0a8.528,8.528,0,0,0,4.926,7.707" transform="translate(-281.174 -207.198)" fill="none" stroke="#000" stroke-linejoin="round" stroke-miterlimit="10" stroke-width="2"/>
          <g id="Grupo_1204969" data-name="Grupo 1204969" transform="translate(41.088 23.363)">
            <line id="Línea_897" data-name="Línea 897" y2="0.881" transform="translate(6.452)" fill="none" stroke="#000" stroke-linecap="round" stroke-linejoin="round" stroke-miterlimit="10" stroke-width="2"/>
            <line id="Línea_898" data-name="Línea 898" y2="0.881" fill="none" stroke="#000" stroke-linecap="round" stroke-linejoin="round" stroke-miterlimit="10" stroke-width="2"/>
          </g>
          <g id="Grupo_1204970" data-name="Grupo 1204970" transform="translate(42.811 17.835)">
            <line id="Línea_899" data-name="Línea 899" y2="2.182" transform="translate(3.005)" fill="none" stroke="#000" stroke-linecap="round" stroke-linejoin="round" stroke-miterlimit="10" stroke-width="2"/>
            <line id="Línea_900" data-name="Línea 900" y2="2.182" fill="none" stroke="#000" stroke-linecap="round" stroke-linejoin="round" stroke-miterlimit="10" stroke-width="2"/>
          </g>
          <g id="Grupo_1204972" data-name="Grupo 1204972" transform="translate(12.193 9.19)">
            <g id="Grupo_1204971" data-name="Grupo 1204971">
              <line id="Línea_901" data-name="Línea 901" y2="1.021" fill="none" stroke="#000" stroke-linecap="round" stroke-linejoin="round" stroke-miterlimit="10" stroke-width="2"/>
              <line id="Línea_902" data-name="Línea 902" y2="1.021" transform="translate(6.739)" fill="none" stroke="#000" stroke-linecap="round" stroke-linejoin="round" stroke-miterlimit="10" stroke-width="2"/>
            </g>
          </g>
          <path id="Trazado_1280062" data-name="Trazado 1280062" d="M392.094,314.757l1.287-1.6a.672.672,0,0,0-.524-1.093h-3.244a.672.672,0,0,0-.524,1.093l1.287,1.6A1.1,1.1,0,0,0,392.094,314.757Z" transform="translate(-346.921 -284.64)" fill="none" stroke="#000" stroke-linejoin="round" stroke-miterlimit="10" stroke-width="2"/>
          <path id="Trazado_1280063" data-name="Trazado 1280063" d="M356.606,321.505h-.669a3.436,3.436,0,0,0-3.459,3.295,3.389,3.389,0,0,0,5.881,2.392.577.577,0,0,1,.853-.007,3.39,3.39,0,1,0,2.5-5.679h-.74" transform="translate(-314.474 -293.043)" fill="none" stroke="#000" stroke-linejoin="round" stroke-miterlimit="10" stroke-width="2"/>
          <path id="Trazado_1280064" data-name="Trazado 1280064" d="M447.428,200.385v-6.363a1.442,1.442,0,0,0-2.462-1.02l-3.3,3.3" transform="translate(-393.838 -178.317)" fill="none" stroke="#000" stroke-linejoin="round" stroke-miterlimit="10" stroke-width="2"/>
          <path id="Trazado_1280065" data-name="Trazado 1280065" d="M330.429,196.317,327.113,193a1.442,1.442,0,0,0-2.462,1.02v6.539" transform="translate(-289.714 -178.316)" fill="none" stroke="#000" stroke-linejoin="round" stroke-miterlimit="10" stroke-width="2"/>
          <path id="Trazado_1280066" data-name="Trazado 1280066" d="M130.859,180.59h-1.3a1.653,1.653,0,0,1-1.648-1.648h0a1.653,1.653,0,0,1,1.648-1.648h1.3a1.653,1.653,0,0,1,1.648,1.648h0A1.653,1.653,0,0,1,130.859,180.59Z" transform="translate(-114.646 -164.718)" fill="none" stroke="#000" stroke-linecap="round" stroke-linejoin="round" stroke-miterlimit="10" stroke-width="2"/>
          <g id="Grupo_1204973" data-name="Grupo 1204973" transform="translate(0 3.936)">
            <path id="Trazado_1280067" data-name="Trazado 1280067" d="M7.5,102.092v11.7a1.287,1.287,0,0,0,1.287,1.287h0a5.274,5.274,0,0,0,5.274-5.274v-7.615a3.33,3.33,0,0,0-3.33-3.33h0A3.231,3.231,0,0,0,7.5,102.092Z" transform="translate(-7.5 -98.861)" fill="none" stroke="#000" stroke-linecap="round" stroke-linejoin="round" stroke-miterlimit="10" stroke-width="2"/>
          </g>
          <path id="Trazado_1280068" data-name="Trazado 1280068" d="M237.054,102.092v11.7a1.287,1.287,0,0,1-1.287,1.287h0a5.274,5.274,0,0,1-5.274-5.274v-7.615a3.33,3.33,0,0,1,3.33-3.33h0A3.231,3.231,0,0,1,237.054,102.092Z" transform="translate(-205.929 -94.925)" fill="none" stroke="#000" stroke-linecap="round" stroke-linejoin="round" stroke-miterlimit="10" stroke-width="2"/>
          <path id="Trazado_1280069" data-name="Trazado 1280069" d="M104.131,183.642a5.3,5.3,0,0,0-3.285,4.885v3.738a2.188,2.188,0,0,0,3.493,1.757,3,3,0,0,1,3.574,0h0a2.188,2.188,0,0,0,1.3.431h0a2.188,2.188,0,0,0,2.188-2.188v-3.738a5.3,5.3,0,0,0-3.285-4.885" transform="translate(-90.563 -170.367)" fill="none" stroke="#000" stroke-linejoin="round" stroke-miterlimit="10" stroke-width="2"/>
          <path id="Trazado_1280070" data-name="Trazado 1280070" d="M85.852,336l.776-8.348a6.2,6.2,0,0,1,12.34-.012l.793,8.36Z" transform="translate(-77.221 -293.509)" fill="none" stroke="#000" stroke-linejoin="round" stroke-miterlimit="10" stroke-width="2"/>
          <path id="Trazado_1280071" data-name="Trazado 1280071" d="M80.752,68.479l-.719-.936a11.181,11.181,0,0,0-8.593-4.409q-.178,0-.357,0a11.228,11.228,0,0,0-8.836,4.414l-.717.933" transform="translate(-55.579 -63.132)" fill="none" stroke="#000" stroke-linejoin="round" stroke-miterlimit="10" stroke-width="2"/>
          <line id="Línea_903" data-name="Línea 903" y1="3.748" x2="4.698" transform="translate(20.842 17.935)" fill="none" stroke="#000" stroke-linejoin="round" stroke-miterlimit="10" stroke-width="2"/>
          <line id="Línea_904" data-name="Línea 904" x2="4.698" y2="3.748" transform="translate(5.584 17.935)" fill="none" stroke="#000" stroke-linejoin="round" stroke-miterlimit="10" stroke-width="2"/>
          <path id="Trazado_1280072" data-name="Trazado 1280072" d="M47.591,243.412a11.626,11.626,0,0,0-4.024,7.737" transform="translate(-39.594 -223.553)" fill="none" stroke="#000" stroke-linecap="round" stroke-linejoin="round" stroke-miterlimit="10" stroke-width="2"/>
          <path id="Trazado_1280073" data-name="Trazado 1280073" d="M33.323,254.919l-.859,9.25a1.652,1.652,0,0,0,1.645,1.805H56.477a1.652,1.652,0,0,0,1.645-1.808l-1.24-13.071a11.627,11.627,0,0,0-4.036-7.762" transform="translate(-29.707 -223.482)" fill="none" stroke="#000" stroke-linecap="round" stroke-linejoin="round" stroke-miterlimit="10" stroke-width="2"/>
          <path id="Trazado_1280074" data-name="Trazado 1280074" d="M327.6,368.463a12.757,12.757,0,0,0-3.109,6.993,1.654,1.654,0,0,0,1.64,1.864h9.2" transform="translate(-289.563 -334.828)" fill="none" stroke="#000" stroke-linecap="round" stroke-linejoin="round" stroke-miterlimit="10" stroke-width="2"/>
          <path id="Trazado_1280075" data-name="Trazado 1280075" d="M458,377.322h2.431a1.654,1.654,0,0,0,1.64-1.864,12.757,12.757,0,0,0-3.109-6.993" transform="translate(-408.374 -334.83)" fill="none" stroke="#000" stroke-linecap="round" stroke-linejoin="round" stroke-miterlimit="10" stroke-width="2"/>
        </g>
      </g>
    </g>
  </g>
</svg>
