<svg xmlns="http://www.w3.org/2000/svg" xmlns:xlink="http://www.w3.org/1999/xlink" width="84.208" height="84.207" viewBox="0 0 84.208 84.207">
  <defs>
    <clipPath id="clip-path">
      <path id="path7008" d="M0-682.665H51.581v51.581H0Z" transform="translate(0 682.665)"/>
    </clipPath>
  </defs>
  <g id="Grupo_1204943" data-name="Grupo 1204943" transform="translate(-872.726 -278.777)">
    <g id="Grupo_1188789" data-name="Grupo 1188789" transform="translate(583.726 -5835.222)">
      <rect id="Rectángulo_400898" data-name="Rectángulo 400898" width="75.49" height="75.489" rx="37.744" transform="translate(293.36 6118.358)" fill="#ffd907"/>
      <rect id="Rectángulo_400907" data-name="Rectángulo 400907" width="75.49" height="75.489" rx="37.744" transform="translate(293.36 6118.358)" fill="none"/>
      <g id="Grupo_1098742" data-name="Grupo 1098742" transform="translate(289 6114)">
        <g id="Rectángulo_400898-2" data-name="Rectángulo 400898" transform="translate(0)" fill="none" stroke="#fff" stroke-width="1" opacity="0.859">
          <rect width="84.208" height="84.207" rx="42.104" stroke="none"/>
          <rect x="0.5" y="0.5" width="83.208" height="83.207" rx="41.604" fill="none"/>
        </g>
        <g id="Rectángulo_400907-2" data-name="Rectángulo 400907" transform="translate(0)" fill="none" stroke="#0f1f33" stroke-linecap="round" stroke-width="1">
          <rect width="84.208" height="84.207" rx="42.104" stroke="none"/>
          <rect x="0.5" y="0.5" width="83.208" height="83.207" rx="41.604" fill="none"/>
        </g>
      </g>
    </g>
    <g id="g7002" transform="translate(889.039 977.755)">
      <g id="g7004" transform="translate(0 -682.665)">
        <g id="g7006" clip-path="url(#clip-path)">
          <g id="g7012" transform="translate(5.575 7.949)">
            <path id="path7014" d="M-.566-104.973s-.4-5.042,1.167-8.314a.475.475,0,0,1,.818-.061l2.265,3.275Z" transform="translate(0.612 113.553)" fill="#fdb441"/>
          </g>
          <g id="g7016" transform="translate(18.504 7.949)">
            <path id="path7018" d="M-51.992-104.973s.4-5.042-1.167-8.314a.475.475,0,0,0-.818-.061l-2.265,3.275Z" transform="translate(56.241 113.553)" fill="#fdb441"/>
          </g>
          <g id="g7020" transform="translate(4.325 9.398)">
            <path id="path7022" d="M-214.978-221.033a15.3,15.3,0,0,1,.026,5.565h-15.47a15.292,15.292,0,0,1,.026-5.565,3.751,3.751,0,0,0-.739-3.194,6.4,6.4,0,0,1-1.414-4.157c0-5.5,4.415-10.715,9.862-10.715s9.862,5.214,9.862,10.715a6.394,6.394,0,0,1-1.414,4.157,3.751,3.751,0,0,0-.739,3.194" transform="translate(232.549 239.099)" fill="#fec165"/>
          </g>
          <g id="g7024" transform="translate(12.676 9.398)">
            <path id="path7026" d="M-139.149-131.1c0-5.5-4.415-10.715-9.862-10.715a8.525,8.525,0,0,0-1.511.135c4.729.851,8.351,5.6,8.351,10.58a6.394,6.394,0,0,1-1.414,4.157,3.75,3.75,0,0,0-.739,3.193,15.3,15.3,0,0,1,.026,5.565h3.022a15.3,15.3,0,0,0-.026-5.565,3.75,3.75,0,0,1,.739-3.193,6.394,6.394,0,0,0,1.414-4.157" transform="translate(150.522 141.817)" fill="#fdb441"/>
          </g>
          <g id="g7028" transform="translate(11.774 17.68)">
            <path id="path7030" d="M-59.04-20.937c0,1.033-1.363,2.031-2.413,2.031s-2.413-1-2.413-2.031,1.08-1.711,2.413-1.711,2.413.678,2.413,1.711" transform="translate(63.865 22.648)" fill="#7a6d79"/>
          </g>
          <g id="g7032" transform="translate(27.158 14.253)">
            <path id="path7034" d="M-.566-104.973s-.4-5.042,1.167-8.314a.475.475,0,0,1,.818-.061l2.265,3.275Z" transform="translate(0.612 113.553)" fill="#fedba6"/>
          </g>
          <g id="g7036" transform="translate(40.087 14.253)">
            <path id="path7038" d="M-51.992-104.973s.4-5.042-1.167-8.314a.475.475,0,0,0-.818-.061l-2.265,3.275Z" transform="translate(56.241 113.553)" fill="#fedba6"/>
          </g>
          <g id="g7040" transform="translate(25.908 15.702)">
            <path id="path7042" d="M-214.978-221.033a15.3,15.3,0,0,1,.026,5.565h-15.47a15.292,15.292,0,0,1,.026-5.565,3.751,3.751,0,0,0-.739-3.194,6.4,6.4,0,0,1-1.414-4.157c0-5.5,4.415-10.715,9.862-10.715s9.862,5.214,9.862,10.715a6.394,6.394,0,0,1-1.414,4.157,3.751,3.751,0,0,0-.739,3.194" transform="translate(232.549 239.099)" fill="#fee8c7"/>
          </g>
          <g id="g7044" transform="translate(34.259 15.702)">
            <path id="path7046" d="M-139.149-131.1c0-5.5-4.415-10.715-9.862-10.715a8.525,8.525,0,0,0-1.511.135c4.729.851,8.351,5.6,8.351,10.58a6.394,6.394,0,0,1-1.414,4.157,3.75,3.75,0,0,0-.739,3.193,15.3,15.3,0,0,1,.026,5.565h3.022a15.3,15.3,0,0,0-.026-5.565,3.75,3.75,0,0,1,.739-3.193,6.394,6.394,0,0,0,1.414-4.157" transform="translate(150.522 141.817)" fill="#fedba6"/>
          </g>
          <g id="g7048" transform="translate(33.358 23.984)">
            <path id="path7050" d="M-59.04-20.937c0,1.033-1.363,2.031-2.413,2.031s-2.413-1-2.413-2.031,1.08-1.711,2.413-1.711,2.413.678,2.413,1.711" transform="translate(63.865 22.648)" fill="#7a6d79"/>
          </g>
          <g id="g7052" transform="translate(30.266 0.756)">
            <path id="path7054" d="M-209.54-23.724v7.379a1.941,1.941,0,0,1-1.944,1.939H-216.3a.649.649,0,0,0-.57.338l-.864,1.585a.422.422,0,0,1-.74,0l-.864-1.585a.649.649,0,0,0-.57-.338h-4.815a1.941,1.941,0,0,1-1.944-1.939v-7.379a1.941,1.941,0,0,1,1.944-1.939h13.239a1.941,1.941,0,0,1,1.944,1.939" transform="translate(226.666 25.663)" fill="#f3f0f3"/>
          </g>
          <g id="g7056" transform="translate(42.427 0.756)">
            <path id="path7058" d="M-36.978,0H-40a1.941,1.941,0,0,1,1.944,1.939V9.318A1.941,1.941,0,0,1-40,11.257h3.022a1.941,1.941,0,0,0,1.944-1.939V1.939A1.941,1.941,0,0,0-36.978,0" transform="translate(40)" fill="#e2dee2"/>
          </g>
          <g id="g7060" transform="translate(35.219 3.196)">
            <path id="path7062" d="M-26.5,0a2.447,2.447,0,0,1,1.388.434.1.1,0,0,0,.113,0A2.447,2.447,0,0,1-23.615,0a2.28,2.28,0,0,1,2.166,2.421c0,.87-.426,2.55-3.279,4.035a.713.713,0,0,1-.332.082.713.713,0,0,1-.332-.082c-2.853-1.485-3.279-3.165-3.279-4.035A2.28,2.28,0,0,1-26.5,0" transform="translate(28.669)" fill="#fe646f"/>
          </g>
          <g id="g7064" transform="translate(35.219 3.196)">
            <path id="path7066" d="M-26.5,0a2.447,2.447,0,0,1,1.388.434.1.1,0,0,0,.113,0A2.447,2.447,0,0,1-23.615,0a2.28,2.28,0,0,1,2.166,2.421c0,.87-.426,2.55-3.279,4.035a.713.713,0,0,1-.332.082.713.713,0,0,1-.332-.082c-2.853-1.485-3.279-3.165-3.279-4.035A2.28,2.28,0,0,1-26.5,0" transform="translate(28.669)" fill="#fe646f"/>
          </g>
          <g id="g7068" transform="translate(37.512 3.196)">
            <path id="path7070" d="M-33.79,0a2.437,2.437,0,0,0-1.346.408,2.74,2.74,0,0,1,.767,1.949c0,.778-.318,2.157-2.183,3.518a10.266,10.266,0,0,0,.986.582.713.713,0,0,0,.332.082.713.713,0,0,0,.332-.082c2.853-1.485,3.279-3.165,3.279-4.035A2.28,2.28,0,0,0-33.79,0" transform="translate(36.552)" fill="#fd4755"/>
          </g>
          <path id="path7072" d="M109.3-308.286H68v-24.38H109.3Z" transform="translate(-62.862 359.111)" fill="#e19974"/>
          <path id="path7074" d="M574.665-308.286h3.022v-24.38h-3.022Z" transform="translate(-531.244 359.111)" fill="#dc8758"/>
          <g id="g7076" transform="translate(20.795 37.4)">
            <path id="path7078" d="M-122.25-57.065c0,2.576-2.237,2.759-5,2.759s-5-.183-5-2.759a4.839,4.839,0,0,1,5-4.664,4.839,4.839,0,0,1,5,4.664" transform="translate(132.242 61.729)" fill="#ffead8"/>
          </g>
          <g id="g7080" transform="translate(24.124 31.632)">
            <path id="path7082" d="M-40.776-20.388a1.666,1.666,0,0,1-1.666,1.666,1.666,1.666,0,0,1-1.666-1.666,1.666,1.666,0,0,1,1.666-1.666,1.666,1.666,0,0,1,1.666,1.666" transform="translate(44.109 22.055)" fill="#ffead8"/>
          </g>
          <g id="g7084" transform="translate(19.031 33.549)">
            <path id="path7086" d="M-40.776-20.388a1.666,1.666,0,0,1-1.666,1.666,1.666,1.666,0,0,1-1.666-1.666,1.666,1.666,0,0,1,1.666-1.666,1.666,1.666,0,0,1,1.666,1.666" transform="translate(44.109 22.055)" fill="#ffead8"/>
          </g>
          <g id="g7088" transform="translate(29.217 33.549)">
            <path id="path7090" d="M-40.776-20.388a1.666,1.666,0,0,1-1.666,1.666,1.666,1.666,0,0,1-1.666-1.666,1.666,1.666,0,0,1,1.666-1.666,1.666,1.666,0,0,1,1.666,1.666" transform="translate(44.109 22.055)" fill="#ffead8"/>
          </g>
          <g id="g7092" transform="translate(5.575 7.949)">
            <path id="path7094" d="M0-85.164a16.871,16.871,0,0,1,1.213-6.695.475.475,0,0,1,.818-.06l1.7,2.465" transform="translate(0 92.125)" fill="none" stroke="#000" stroke-linecap="round" stroke-linejoin="round" stroke-miterlimit="10" stroke-width="2"/>
          </g>
          <g id="g7096" transform="translate(18.992 7.949)">
            <path id="path7098" d="M-46.579-85.164a16.871,16.871,0,0,0-1.213-6.695.475.475,0,0,0-.818-.06l-1.777,2.569" transform="translate(50.387 92.125)" fill="none" stroke="#000" stroke-linecap="round" stroke-linejoin="round" stroke-miterlimit="10" stroke-width="2"/>
          </g>
          <g id="g7100" transform="translate(4.325 9.398)">
            <path id="path7102" d="M-27.287-206.528a3.714,3.714,0,0,0-.816-2.008,6.394,6.394,0,0,1-1.414-4.157c0-5.5,4.415-10.715,9.862-10.715s9.862,5.214,9.862,10.715a6.394,6.394,0,0,1-1.414,4.157,3.711,3.711,0,0,0-.807,1.925" transform="translate(29.517 223.409)" fill="none" stroke="#000" stroke-linecap="round" stroke-linejoin="round" stroke-miterlimit="10" stroke-width="2"/>
          </g>
          <g id="g7104" transform="translate(11.774 17.68)">
            <path id="path7106" d="M-59.04-20.937c0,1.033-1.363,2.031-2.413,2.031s-2.413-1-2.413-2.031,1.08-1.711,2.413-1.711S-59.04-21.97-59.04-20.937Z" transform="translate(63.865 22.648)" fill="none" stroke="#000" stroke-linecap="round" stroke-linejoin="round" stroke-miterlimit="10" stroke-width="2"/>
          </g>
          <g id="g7108" transform="translate(14.187 21.422)">
            <path id="path7110" d="M0,0V1.677" fill="none" stroke="#000" stroke-linecap="round" stroke-linejoin="round" stroke-miterlimit="10" stroke-width="2"/>
          </g>
          <g id="g7112" transform="translate(11.396 23.333)">
            <path id="path7114" d="M-68.312-3.185a2.081,2.081,0,0,1-2.211.076l-.58-.337-.581.337A2.081,2.081,0,0,1-73.9-3.185" transform="translate(73.896 3.445)" fill="none" stroke="#000" stroke-linecap="round" stroke-linejoin="round" stroke-miterlimit="10" stroke-width="2"/>
          </g>
          <g id="g7116" transform="translate(3.277 18.837)">
            <path id="path7118" d="M0,0,5.3.553" fill="none" stroke="#000" stroke-linecap="round" stroke-linejoin="round" stroke-miterlimit="10" stroke-width="2"/>
          </g>
          <g id="g7120" transform="translate(3.277 21.068)">
            <path id="path7122" d="M-64.851,0l-5.3.553" transform="translate(70.152)" fill="none" stroke="#000" stroke-linecap="round" stroke-linejoin="round" stroke-miterlimit="10" stroke-width="2"/>
          </g>
          <g id="g7124" transform="translate(19.797 18.837)">
            <path id="path7126" d="M-64.851,0l-5.3.553" transform="translate(70.152)" fill="none" stroke="#000" stroke-linecap="round" stroke-linejoin="round" stroke-miterlimit="10" stroke-width="2"/>
          </g>
          <g id="g7128" transform="translate(19.797 21.068)">
            <path id="path7130" d="M0,0,5.3.553" fill="none" stroke="#000" stroke-linecap="round" stroke-linejoin="round" stroke-miterlimit="10" stroke-width="2"/>
          </g>
          <g id="g7132" transform="translate(9.529 14.992)">
            <path id="path7134" d="M0-4.924a2.243,2.243,0,0,1,2.564,0" transform="translate(0 5.326)" fill="none" stroke="#000" stroke-linecap="round" stroke-linejoin="round" stroke-miterlimit="10" stroke-width="2"/>
          </g>
          <g id="g7136" transform="translate(16.282 14.992)">
            <path id="path7138" d="M0-4.924a2.243,2.243,0,0,1,2.564,0" transform="translate(0 5.326)" fill="none" stroke="#000" stroke-linecap="round" stroke-linejoin="round" stroke-miterlimit="10" stroke-width="2"/>
          </g>
          <g id="g7140" transform="translate(27.158 14.253)">
            <path id="path7142" d="M0-86.162a16.991,16.991,0,0,1,1.213-6.776A.475.475,0,0,1,2.031-93l1.762,2.547" transform="translate(0 93.205)" fill="none" stroke="#000" stroke-linecap="round" stroke-linejoin="round" stroke-miterlimit="10" stroke-width="2"/>
          </g>
          <g id="g7144" transform="translate(40.604 14.253)">
            <path id="path7146" d="M-46.226-85.172a16.873,16.873,0,0,0-1.213-6.7.475.475,0,0,0-.818-.061L-50-89.4" transform="translate(50.004 92.133)" fill="none" stroke="#000" stroke-linecap="round" stroke-linejoin="round" stroke-miterlimit="10" stroke-width="2"/>
          </g>
          <g id="g7148" transform="translate(25.909 15.702)">
            <path id="path7150" d="M0-129.311c.077-5.447,4.463-10.569,9.861-10.569,5.381,0,9.756,5.09,9.86,10.518" transform="translate(0 139.88)" fill="none" stroke="#000" stroke-linecap="round" stroke-linejoin="round" stroke-miterlimit="10" stroke-width="2"/>
          </g>
          <g id="g7152" transform="translate(33.358 23.984)">
            <path id="path7154" d="M-2.143-28.977a1.413,1.413,0,0,1-.175-.657c0-1.033,1.08-1.711,2.413-1.711s2.413.678,2.413,1.711a1.411,1.411,0,0,1-.173.653" transform="translate(2.319 31.345)" fill="none" stroke="#000" stroke-linecap="round" stroke-linejoin="round" stroke-miterlimit="10" stroke-width="2"/>
          </g>
          <g id="g7156" transform="translate(31.112 21.295)">
            <path id="path7158" d="M0-4.924a2.243,2.243,0,0,1,2.564,0" transform="translate(0 5.326)" fill="none" stroke="#000" stroke-linecap="round" stroke-linejoin="round" stroke-miterlimit="10" stroke-width="2"/>
          </g>
          <g id="g7160" transform="translate(37.865 21.295)">
            <path id="path7162" d="M0-4.924a2.243,2.243,0,0,1,2.564,0" transform="translate(0 5.326)" fill="none" stroke="#000" stroke-linecap="round" stroke-linejoin="round" stroke-miterlimit="10" stroke-width="2"/>
          </g>
          <g id="g7164" transform="translate(30.266 0.756)">
            <path id="path7166" d="M-209.54-88.015v2.124a1.941,1.941,0,0,1-1.944,1.939H-216.3a.649.649,0,0,0-.57.338l-.864,1.585a.422.422,0,0,1-.74,0l-.864-1.585a.649.649,0,0,0-.57-.338h-4.815a1.941,1.941,0,0,1-1.944-1.939V-93.27a1.941,1.941,0,0,1,1.944-1.939h13.239a1.941,1.941,0,0,1,1.944,1.939v1.6" transform="translate(226.666 95.209)" fill="none" stroke="#000" stroke-linecap="round" stroke-linejoin="round" stroke-miterlimit="10" stroke-width="2"/>
          </g>
          <g id="g7168" transform="translate(35.219 3.196)">
            <path id="path7170" d="M-26.5,0a2.447,2.447,0,0,1,1.388.434.1.1,0,0,0,.113,0A2.447,2.447,0,0,1-23.615,0a2.28,2.28,0,0,1,2.166,2.421c0,.87-.426,2.55-3.279,4.035a.713.713,0,0,1-.332.082.713.713,0,0,1-.332-.082c-2.853-1.485-3.279-3.165-3.279-4.035A2.28,2.28,0,0,1-26.5,0Z" transform="translate(28.669)" fill="none" stroke="#000" stroke-linecap="round" stroke-linejoin="round" stroke-miterlimit="10" stroke-width="2"/>
          </g>
          <g id="g7172" transform="translate(5.138 26.445)">
            <path id="path7174" d="M0-204.183v-16.689H41.305v24.38H0v-4.251" transform="translate(0 220.871)" fill="none" stroke="#000" stroke-linecap="round" stroke-linejoin="round" stroke-miterlimit="10" stroke-width="2"/>
          </g>
          <g id="g7176" transform="translate(20.795 37.4)">
            <path id="path7178" d="M-122.25-57.065c0,2.576-2.237,2.759-5,2.759s-5-.183-5-2.759a4.839,4.839,0,0,1,5-4.664A4.839,4.839,0,0,1-122.25-57.065Z" transform="translate(132.242 61.729)" fill="none" stroke="#000" stroke-linecap="round" stroke-linejoin="round" stroke-miterlimit="10" stroke-width="2"/>
          </g>
          <g id="g7180" transform="translate(24.124 31.632)">
            <path id="path7182" d="M-40.776-20.388a1.666,1.666,0,0,1-1.666,1.666,1.666,1.666,0,0,1-1.666-1.666,1.666,1.666,0,0,1,1.666-1.666A1.666,1.666,0,0,1-40.776-20.388Z" transform="translate(44.109 22.055)" fill="none" stroke="#000" stroke-linecap="round" stroke-linejoin="round" stroke-miterlimit="10" stroke-width="2"/>
          </g>
          <g id="g7184" transform="translate(19.031 33.549)">
            <path id="path7186" d="M-40.776-20.388a1.666,1.666,0,0,1-1.666,1.666,1.666,1.666,0,0,1-1.666-1.666,1.666,1.666,0,0,1,1.666-1.666A1.666,1.666,0,0,1-40.776-20.388Z" transform="translate(44.109 22.055)" fill="none" stroke="#000" stroke-linecap="round" stroke-linejoin="round" stroke-miterlimit="10" stroke-width="2"/>
          </g>
          <g id="g7188" transform="translate(29.217 33.549)">
            <path id="path7190" d="M-40.776-20.388a1.666,1.666,0,0,1-1.666,1.666,1.666,1.666,0,0,1-1.666-1.666,1.666,1.666,0,0,1,1.666-1.666A1.666,1.666,0,0,1-40.776-20.388Z" transform="translate(44.109 22.055)" fill="none" stroke="#000" stroke-linecap="round" stroke-linejoin="round" stroke-miterlimit="10" stroke-width="2"/>
          </g>
          <g id="g7192" transform="translate(0.756 26.445)">
            <path id="path7194" d="M-53.617,0-58,11.4" transform="translate(58)" fill="none" stroke="#000" stroke-linecap="round" stroke-linejoin="round" stroke-miterlimit="10" stroke-width="2"/>
          </g>
          <g id="g7196" transform="translate(46.443 26.445)">
            <path id="path7198" d="M-53.617-139.519-58-150.922" transform="translate(58 150.922)" fill="none" stroke="#000" stroke-linecap="round" stroke-linejoin="round" stroke-miterlimit="10" stroke-width="2"/>
          </g>
        </g>
      </g>
    </g>
  </g>
</svg>
