<svg xmlns="http://www.w3.org/2000/svg" width="72.26" height="72.259" viewBox="0 0 72.26 72.259">
  <g id="Grupo_1188795" data-name="Grupo 1188795" transform="translate(-871.113 -277.164)">
    <g id="Grupo_1188789" data-name="Grupo 1188789" transform="translate(871.113 277.164)">
      <rect id="Rectángulo_400898" data-name="Rectángulo 400898" width="59.82" height="59.819" rx="29.91" transform="translate(6.221 6.22)" fill="#ffd907"/>
      <rect id="Rectángulo_400907" data-name="Rectángulo 400907" width="64.779" height="64.778" rx="32.389" transform="translate(3.742 3.74)" fill="none"/>
      <g id="Grupo_1098742" data-name="Grupo 1098742" transform="translate(0 0)">
        <g id="Rectángulo_400898-2" data-name="Rectángulo 400898" transform="translate(0)" fill="none" stroke="#fff" stroke-width="2" opacity="0.859">
          <rect width="72.26" height="72.259" rx="36.129" stroke="none"/>
          <rect x="1" y="1" width="70.26" height="70.259" rx="35.129" fill="none"/>
        </g>
        <g id="Rectángulo_400907-2" data-name="Rectángulo 400907" transform="translate(0)" fill="none" stroke="#0f1f33" stroke-linecap="round" stroke-width="2">
          <rect width="72.26" height="72.259" rx="36.129" stroke="none"/>
          <rect x="1" y="1" width="70.26" height="70.259" rx="35.129" fill="none"/>
        </g>
      </g>
      <g id="Grupo_1188790" data-name="Grupo 1188790" transform="translate(17.159 15.105)">
        <path id="Trazado_876111" data-name="Trazado 876111" d="M67.991,252.374a14.949,14.949,0,0,1-1.618,4.106l-.562.974a.456.456,0,0,1-.356.231,9.612,9.612,0,0,0-.636,1.727l-3.373,12.821a.677.677,0,0,0,.655.849H92.706a.677.677,0,0,0,.655-.849L89.989,259.41a9.609,9.609,0,0,0-.636-1.727.456.456,0,0,1-.356-.231l-.562-.974a14.947,14.947,0,0,1-1.618-4.105H67.991Z" transform="translate(-58.432 -231.647)" fill="#c17d4f"/>
        <path id="Trazado_876112" data-name="Trazado 876112" d="M136.361,333.491a2,2,0,0,1-1.539-.972l-.018-.03h0q-.064-.11-.13-.219h0a1.946,1.946,0,0,1-1.277,1.079,9.181,9.181,0,0,1-4.752,0,1.946,1.946,0,0,1-1.277-1.079h0l-.148.249a2,2,0,0,1-1.539.972,1.145,1.145,0,0,1-.475-.057l-.844,1.463a2.629,2.629,0,0,1-3.925.73q-.186-.149-.368-.307a.139.139,0,0,0-.226.14l.345,1.289a5.766,5.766,0,0,0,3.718,3.988,11.1,11.1,0,0,1-2.819-1.426.116.116,0,0,0-.179.126l.3,1.123a5.133,5.133,0,0,0,3.957,3.71l.026.005a4.776,4.776,0,0,0,4.288-1.316l.763-.763a2.656,2.656,0,0,0,.778-1.878,2.656,2.656,0,0,0,.778,1.878l.763.763a4.776,4.776,0,0,0,4.288,1.316l.026-.005a5.134,5.134,0,0,0,3.957-3.71l.3-1.123a.116.116,0,0,0-.179-.126,11.1,11.1,0,0,1-2.819,1.426,5.767,5.767,0,0,0,3.718-3.988l.345-1.289a.139.139,0,0,0-.226-.14q-.182.157-.368.307a2.629,2.629,0,0,1-3.925-.73l-.844-1.463a1.145,1.145,0,0,1-.475.057" transform="translate(-112.049 -304.981)" fill="#f9f6f9"/>
        <path id="Trazado_876113" data-name="Trazado 876113" d="M179.7,149.572a16.262,16.262,0,0,0-2.567-3.339l-.772-.772a1.512,1.512,0,0,1-.443-1.069v0a1.513,1.513,0,0,1-.443,1.069l-.772.772a16.258,16.258,0,0,0-2.5,3.218l-.089.151h0a2,2,0,0,1-1.539.972,1.146,1.146,0,0,1-.914-.331,2.962,2.962,0,0,1-.867-2.079l-.045-8.645a6.328,6.328,0,0,1,1.853-4.508,6.915,6.915,0,0,1,4.89-2.025h.845a6.915,6.915,0,0,1,4.89,2.025,6.329,6.329,0,0,1,1.853,4.508l-.045,8.645a2.962,2.962,0,0,1-.867,2.079,1.146,1.146,0,0,1-.914.331,2,2,0,0,1-1.539-.972Z" transform="translate(-156.941 -122.064)" fill="#f9f6f9"/>
        <path id="Trazado_876114" data-name="Trazado 876114" d="M219.364,179.379h-.194a3.19,3.19,0,0,0-3.19,3.19v.1a.873.873,0,0,0,.873.873.151.151,0,0,1,.131.076l.451.781a1.276,1.276,0,0,0,1.105.638h1.453a1.276,1.276,0,0,0,1.105-.638l.451-.781a.151.151,0,0,1,.131-.076.873.873,0,0,0,.873-.873v-.1A3.19,3.19,0,0,0,219.364,179.379Z" transform="translate(-200.295 -164.647)" fill="#665e66"/>
        <path id="Trazado_876115" data-name="Trazado 876115" d="M41.011,64.769a18.571,18.571,0,0,1-.633-4.806V51.145a3.04,3.04,0,0,1,.346-1.409,2.767,2.767,0,0,0-2.564,2.049,5.017,5.017,0,0,1-1.3,2.249l-1.694,1.694A9.112,9.112,0,0,0,32.5,62.171a3.879,3.879,0,0,0,1.136,2.743l3.86,3.86a1.624,1.624,0,0,1,.42.728l.494,1.845a.465.465,0,0,0,.852.112l.562-.974a14.948,14.948,0,0,0,1.618-4.106Z" transform="translate(-31.883 -45.651)" fill="#985e33"/>
        <path id="Trazado_876116" data-name="Trazado 876116" d="M136.853,21.4a5.049,5.049,0,0,0-1.479-3.57L133.542,16a16.744,16.744,0,0,0-3.587,1.545,3.042,3.042,0,0,0-1.521,2.635V29a18.568,18.568,0,0,0,.633,4.806l1.221,4.557a2.9,2.9,0,0,0,1.5,1.842l-.042-8.062a6.329,6.329,0,0,1,1.853-4.508,6.913,6.913,0,0,1,2.156-1.462l.928-3.462A5.05,5.05,0,0,0,136.853,21.4Z" transform="translate(-119.938 -14.686)" fill="#c17d4f"/>
        <path id="Trazado_876117" data-name="Trazado 876117" d="M216.39,273.71l-.772-.772a1.512,1.512,0,0,1-.443-1.051c0-.005,0-.011,0-.018h0l-.01.172a1.512,1.512,0,0,1-.433.9l-.772.772a16.26,16.26,0,0,0-2.438,3.119,1.946,1.946,0,0,0,1.277,1.079,9.179,9.179,0,0,0,2.376.313h0a9.183,9.183,0,0,0,2.376-.313,1.946,1.946,0,0,0,1.277-1.079A16.26,16.26,0,0,0,216.39,273.71Z" transform="translate(-196.203 -249.54)" fill="#e2dfe2"/>
        <path id="Trazado_876118" data-name="Trazado 876118" d="M371.042,64.769a18.571,18.571,0,0,0,.633-4.806V51.145a3.041,3.041,0,0,0-.346-1.409,2.767,2.767,0,0,1,2.564,2.049,5.017,5.017,0,0,0,1.3,2.249l1.694,1.694a9.112,9.112,0,0,1,2.669,6.443,3.879,3.879,0,0,1-1.136,2.743l-3.86,3.86a1.624,1.624,0,0,0-.42.728l-.494,1.845a.465.465,0,0,1-.852.112l-.562-.974a14.948,14.948,0,0,1-1.618-4.106Z" transform="translate(-342.226 -45.651)" fill="#985e33"/>
        <path id="Trazado_876119" data-name="Trazado 876119" d="M281.045,21.4a5.049,5.049,0,0,1,1.479-3.57L284.356,16a16.744,16.744,0,0,1,3.587,1.545,3.042,3.042,0,0,1,1.521,2.635V29a18.569,18.569,0,0,1-.633,4.806l-1.221,4.557a2.9,2.9,0,0,1-1.5,1.842l.042-8.062a6.329,6.329,0,0,0-1.853-4.508,6.914,6.914,0,0,0-2.156-1.462l-.928-3.462A5.047,5.047,0,0,1,281.045,21.4Z" transform="translate(-260.016 -14.686)" fill="#c17d4f"/>
        <path id="Trazado_876120" data-name="Trazado 876120" d="M333.879,20.453a16.748,16.748,0,0,0-2.789-1.285,3.043,3.043,0,0,1,1.025,2.277v8.817a18.575,18.575,0,0,1-.255,3.066,6.325,6.325,0,0,1,.229,1.72l-.042,8.062a2.9,2.9,0,0,0,1.5-1.842l1.221-4.557A18.571,18.571,0,0,0,335.4,31.9V23.088A3.043,3.043,0,0,0,333.879,20.453Z" transform="translate(-305.951 -17.594)" fill="#b16e3d"/>
        <path id="Trazado_876121" data-name="Trazado 876121" d="M201.374,8.2a16.743,16.743,0,0,0-4.784-.7h-1.168a16.742,16.742,0,0,0-4.784.7l1.832,1.832a5.049,5.049,0,0,1,1.307,4.877l-.928,3.462a6.914,6.914,0,0,1,2.734-.563h.422v0h.422a6.913,6.913,0,0,1,2.734.563l-.928-3.462a5.049,5.049,0,0,1,1.307-4.877Z" transform="translate(-177.034 -6.884)" fill="#e2dfe2"/>
        <path id="Trazado_876122" data-name="Trazado 876122" d="M370.61,247.058l.128-.476Z" transform="translate(-342.225 -226.331)" fill="#8b818e"/>
        <g id="Grupo_1188727" data-name="Grupo 1188727" transform="translate(2.991 20.727)">
          <path id="Trazado_876123" data-name="Trazado 876123" d="M128.241,255.523l0,.583a2.962,2.962,0,0,0,.865,2.077,1.139,1.139,0,0,0,.905.334,2,2,0,0,0,1.514-.916l0-.436a2.9,2.9,0,0,1-1.5-1.842l-.79-2.948a14.946,14.946,0,0,1-1.087,3.1Z" transform="translate(-122.67 -252.376)" fill="#b16e3d"/>
          <path id="Trazado_876124" data-name="Trazado 876124" d="M93.36,272.232l-3.372-12.821a9.612,9.612,0,0,0-.636-1.727.455.455,0,0,1-.356-.231l-.562-.974a14.948,14.948,0,0,1-1.618-4.105l-.79,2.948a2.916,2.916,0,0,1-.131.381,9.612,9.612,0,0,1,.808,2.065l1.56,5.93a6.17,6.17,0,0,1-5.967,7.74H61.654l-.209.793a.677.677,0,0,0,.655.849H92.705A.677.677,0,0,0,93.36,272.232Z" transform="translate(-61.422 -252.375)" fill="#b16e3d"/>
          <path id="Trazado_876125" data-name="Trazado 876125" d="M128.241,255.523l0,.583a2.962,2.962,0,0,0,.865,2.077,1.139,1.139,0,0,0,.905.334,2,2,0,0,0,1.514-.916l0-.436a2.9,2.9,0,0,1-1.5-1.842l-.79-2.948a14.946,14.946,0,0,1-1.087,3.1Z" transform="translate(-122.67 -252.376)" fill="#b16e3d"/>
        </g>
        <path id="Trazado_876126" data-name="Trazado 876126" d="M384.224,370.536l.024-.087.345-1.289a.139.139,0,0,0-.226-.14q-.182.158-.368.307l-.078.06Z" transform="translate(-354.444 -338.681)" fill="#e2dfe2"/>
        <path id="Trazado_876127" data-name="Trazado 876127" d="M58.4,7.947A4.4,4.4,0,0,1,57.26,5.974,3.365,3.365,0,0,0,54.47,3.5a3.653,3.653,0,0,0-1.236-1.174A17.359,17.359,0,0,0,44.554,0H43.386a17.36,17.36,0,0,0-8.68,2.326A3.654,3.654,0,0,0,33.47,3.5a3.365,3.365,0,0,0-2.79,2.474,4.406,4.406,0,0,1-1.139,1.973L27.847,9.641A9.664,9.664,0,0,0,25,16.519,4.466,4.466,0,0,0,26.314,19.7l3.86,3.86a1.008,1.008,0,0,1,.261.452l.494,1.845a1.08,1.08,0,0,0,.283.488,10.257,10.257,0,0,0-.423,1.265L27.416,40.428a1.293,1.293,0,0,0,1.25,1.622H59.273a1.293,1.293,0,0,0,1.25-1.622L57.151,27.607a10.245,10.245,0,0,0-.423-1.265,1.08,1.08,0,0,0,.283-.488l.494-1.845a1.007,1.007,0,0,1,.261-.451l3.86-3.86a4.465,4.465,0,0,0,1.316-3.178,9.664,9.664,0,0,0-2.849-6.879ZM53.831,5.494v8.817a17.962,17.962,0,0,1-.612,4.647L52,23.515a2.287,2.287,0,0,1-.281.638l.008-1.486a.616.616,0,1,0-1.232-.006c-.024,4.564-.009,1.644-.018,3.436a2.332,2.332,0,0,1-.687,1.647.53.53,0,0,1-.423.153,1.384,1.384,0,0,1-1.064-.671,16.9,16.9,0,0,0-2.681-3.491l-.772-.773a.89.89,0,0,1-.262-.634c0-.152,0,.517,0-1.319h.11a1.9,1.9,0,0,0,1.639-.946l.332-.576a1.492,1.492,0,0,0,1.205-1.462v-.1a3.81,3.81,0,0,0-3.806-3.806h-.194a3.81,3.81,0,0,0-3.806,3.806v.1a1.492,1.492,0,0,0,1.205,1.462l.332.576a1.9,1.9,0,0,0,1.639.946h.11v1.319a.891.891,0,0,1-.262.634l-.772.772a16.9,16.9,0,0,0-2.68,3.49,1.384,1.384,0,0,1-1.064.672.528.528,0,0,1-.423-.153,2.332,2.332,0,0,1-.687-1.647c-.006-1.086-.037-7.155-.045-8.645a6.014,6.014,0,0,1,6.127-5.914h.845a6.014,6.014,0,0,1,6.127,5.914l-.012,2.263a.616.616,0,0,0,1.232.006l.012-2.263a6.988,6.988,0,0,0-2.034-4.947,7.537,7.537,0,0,0-2.073-1.472l-.851-3.176a4.422,4.422,0,0,1,1.147-4.282l1.569-1.569a16.143,16.143,0,0,1,3.107,1.38A2.433,2.433,0,0,1,53.831,5.494Zm-11,11.327a.616.616,0,0,0-.616.616v.846h-.659a.258.258,0,0,1-.257-.257v-.1a2.577,2.577,0,0,1,2.574-2.574h.194a2.577,2.577,0,0,1,2.574,2.574v.1a.258.258,0,0,1-.258.257h-.659v-.846a.616.616,0,0,0-1.232,0V18.3a1.213,1.213,0,0,0,.782,1.133l-.006.011a.662.662,0,0,1-.572.33H43.243a.662.662,0,0,1-.572-.33l-.006-.011a1.213,1.213,0,0,0,.782-1.133v-.867a.616.616,0,0,0-.616-.616Zm1.139,7c.076.078-.277-.277.78.78A15.658,15.658,0,0,1,46.9,27.3a1.323,1.323,0,0,1-.718.476,8.6,8.6,0,0,1-4.434,0,1.323,1.323,0,0,1-.718-.476,15.663,15.663,0,0,1,2.155-2.692C44.231,23.564,43.9,23.892,43.97,23.825Zm.584-22.594a16.118,16.118,0,0,1,3.59.4L47.07,2.711A5.652,5.652,0,0,0,45.6,8.183l.629,2.348a7.58,7.58,0,0,0-1.841-.225h-.845a7.58,7.58,0,0,0-1.841.225l.629-2.348a5.651,5.651,0,0,0-1.466-5.472L39.8,1.637a16.119,16.119,0,0,1,3.59-.4ZM31.045,22.686l-3.86-3.86a3.241,3.241,0,0,1-.956-2.307,8.44,8.44,0,0,1,2.488-6.008l1.694-1.694A5.64,5.64,0,0,0,31.87,6.293a2.143,2.143,0,0,1,1.047-1.334,3.633,3.633,0,0,0-.04.535V9.7a.616.616,0,0,0,1.232,0V5.494a2.433,2.433,0,0,1,1.213-2.1,16.147,16.147,0,0,1,3.107-1.38L40,3.582a4.423,4.423,0,0,1,1.147,4.282l-.851,3.176a7.54,7.54,0,0,0-2.073,1.472,6.989,6.989,0,0,0-2.034,4.947l.035,6.695a2.283,2.283,0,0,1-.281-.638l-.787-2.937,0-.018-.429-1.6a17.96,17.96,0,0,1-.612-4.647V12.576a.616.616,0,1,0-1.232,0v1.736a19.194,19.194,0,0,0,.654,4.966l.391,1.459a14.321,14.321,0,0,1-1.516,3.788l-.38.659-.4-1.493A2.242,2.242,0,0,0,31.045,22.686ZM59.332,40.741a.061.061,0,0,1-.059.077H28.667a.061.061,0,0,1-.059-.077L31.98,27.92a9.024,9.024,0,0,1,.488-1.384,1.08,1.08,0,0,0,.442-.421l.562-.974a15.554,15.554,0,0,0,1.044-2.185l.235.879a3.524,3.524,0,0,0,1.48,2.039v.23a3.556,3.556,0,0,0,1.048,2.511l.044.043-.548.95a2.014,2.014,0,0,1-3.006.557c-.117-.094-.234-.192-.35-.291a.755.755,0,0,0-1.224.765l.345,1.289a6.484,6.484,0,0,0,.908,1.981.736.736,0,0,0-.188.706l.3,1.123a5.722,5.722,0,0,0,6.383,4.183.616.616,0,0,0-.206-1.215,4.486,4.486,0,0,1-4.96-3.191,11.458,11.458,0,0,0,1.88.825.616.616,0,0,0,.391-1.168,5.133,5.133,0,0,1-3.319-3.563l-.012-.044a3.243,3.243,0,0,0,4.124-1.341l.631-1.093a1.788,1.788,0,0,0,.21-.006,2.619,2.619,0,0,0,1.638-.782,2.574,2.574,0,0,0,1.11.621,9.8,9.8,0,0,0,5.071,0,2.574,2.574,0,0,0,1.11-.621,2.62,2.62,0,0,0,1.638.782,1.782,1.782,0,0,0,.21.006l.631,1.093a3.243,3.243,0,0,0,4.124,1.341l-.012.044a5.133,5.133,0,0,1-3.319,3.563.616.616,0,0,0,.391,1.168,11.464,11.464,0,0,0,1.88-.825,4.545,4.545,0,0,1-3.479,3.173,4.152,4.152,0,0,1-3.735-1.147l-.763-.763a2.026,2.026,0,0,1-.6-1.442.616.616,0,0,0-1.232,0,2.026,2.026,0,0,1-.6,1.442l-.763.763a.616.616,0,0,0,.871.871l.763-.763a3.311,3.311,0,0,0,.342-.4,3.318,3.318,0,0,0,.342.4l.763.763A5.392,5.392,0,0,0,48.887,40a5.763,5.763,0,0,0,5.49-4.26l.3-1.123a.736.736,0,0,0-.188-.706,6.484,6.484,0,0,0,.908-1.981l.345-1.289a.755.755,0,0,0-1.224-.765c-.115.1-.233.2-.35.292a2.014,2.014,0,0,1-3.006-.557l-.548-.95.045-.043A3.557,3.557,0,0,0,51.707,26.1v-.231a3.525,3.525,0,0,0,1.48-2.039l.235-.879a15.554,15.554,0,0,0,1.044,2.185l.562.974a1.079,1.079,0,0,0,.442.421,9.029,9.029,0,0,1,.488,1.384Zm1.422-21.915-3.86,3.86a2.242,2.242,0,0,0-.579,1l-.4,1.493-.38-.659a14.322,14.322,0,0,1-1.516-3.788l.391-1.459a19.193,19.193,0,0,0,.654-4.966V5.494a3.636,3.636,0,0,0-.04-.535A2.143,2.143,0,0,1,56.07,6.293a5.639,5.639,0,0,0,1.458,2.525l1.694,1.694a8.44,8.44,0,0,1,2.488,6.008,3.242,3.242,0,0,1-.956,2.307Z" transform="translate(-24.998 0)"/>
        <path id="Trazado_876128" data-name="Trazado 876128" d="M300.874,63.309a1.86,1.86,0,0,0-1.749,1.232.616.616,0,1,0,1.16.414.625.625,0,0,1,1.03-.232l1.2,1.2a2.843,2.843,0,0,1,.838,2.024v.808a.616.616,0,1,0,1.232,0v-.808a4.067,4.067,0,0,0-1.2-2.895l-1.2-1.2A1.844,1.844,0,0,0,300.874,63.309Z" transform="translate(-276.579 -58.11)"/>
        <path id="Trazado_876129" data-name="Trazado 876129" d="M146.549,69.375a.616.616,0,0,0,.616-.616v-.808A2.843,2.843,0,0,1,148,65.927l1.2-1.2a.625.625,0,0,1,1.03.232.616.616,0,0,0,1.16-.414,1.857,1.857,0,0,0-3.061-.689l-1.2,1.2a4.067,4.067,0,0,0-1.2,2.895v.808A.616.616,0,0,0,146.549,69.375Z" transform="translate(-136.001 -58.109)"/>
      </g>
    </g>
  </g>
</svg>
