<svg xmlns="http://www.w3.org/2000/svg" width="84.208" height="84.207" viewBox="0 0 84.208 84.207">
  <g id="Grupo_1204803" data-name="Grupo 1204803" transform="translate(-872.726 -278.777)">
    <g id="Grupo_1188789" data-name="Grupo 1188789" transform="translate(583.726 -5835.222)">
      <rect id="Rectángulo_400898" data-name="Rectángulo 400898" width="75.49" height="75.489" rx="37.744" transform="translate(293.36 6118.358)" fill="#ffd907"/>
      <rect id="Rectángulo_400907" data-name="Rectángulo 400907" width="75.49" height="75.489" rx="37.744" transform="translate(293.36 6118.358)" fill="none"/>
      <g id="Grupo_1098742" data-name="Grupo 1098742" transform="translate(289 6114)">
        <g id="Rectángulo_400898-2" data-name="Rectángulo 400898" transform="translate(0)" fill="none" stroke="#fff" stroke-width="1" opacity="0.859">
          <rect width="84.208" height="84.207" rx="42.104" stroke="none"/>
          <rect x="0.5" y="0.5" width="83.208" height="83.207" rx="41.604" fill="none"/>
        </g>
        <g id="Rectángulo_400907-2" data-name="Rectángulo 400907" transform="translate(0)" fill="none" stroke="#0f1f33" stroke-linecap="round" stroke-width="1">
          <rect width="84.208" height="84.207" rx="42.104" stroke="none"/>
          <rect x="0.5" y="0.5" width="83.208" height="83.207" rx="41.604" fill="none"/>
        </g>
      </g>
      <g id="Capa_1" transform="translate(295.237 6056.497)">
        <g id="Grupo_1205064" data-name="Grupo 1205064" transform="translate(6.228 77.22)">
          <path id="XMLID_772_" d="M97.678,77.223s-8.384-.409-9.946,9.065S86.3,98.834,88.369,101.9l18.4.288a31.2,31.2,0,0,0,.376-16.113C104.858,76.866,97.678,77.223,97.678,77.223Z" transform="translate(-77.097 -77.22)" fill="#603813" stroke="#000" stroke-miterlimit="10" stroke-width="1"/>
          <path id="XMLID_771_" d="M43.535,236.174h31.8l-1.285-8.417a3.817,3.817,0,0,0-2.344-2.963l-9.071-3.663V216.29l-3.2-1.249H56.132v5.934l-9.3,3.779a3.817,3.817,0,0,0-2.356,3.107Z" transform="translate(-39.094 -198.634)" fill="#fff" stroke="#000" stroke-miterlimit="10" stroke-width="1"/>
          <path id="XMLID_770_" d="M112.181,167.691s-1.91-.2-1.285,1.414,1.194,2.274,1.794,1.848Z" transform="translate(-98.325 -156.914)" fill="#fc9" stroke="#000" stroke-miterlimit="10" stroke-width="1"/>
          <path id="XMLID_769_" d="M223.377,169.673s1.727-.209,1.1,1.4-1.237,2.431-1.837,2.006Z" transform="translate(-196.879 -158.659)" fill="#fc9" stroke="#000" stroke-miterlimit="10" stroke-width="1"/>
          <path id="XMLID_768_" d="M116.9,222.624l7.4,8.667a50.856,50.856,0,0,1,7.162-8.467l-4.195-1.694v-4.841l-3.2-1.249h-3.305v5.934Z" transform="translate(-103.723 -198.633)" fill="#fc9" stroke="#000" stroke-miterlimit="10" stroke-width="1"/>
          <path id="XMLID_767_" d="M130.278,125.842s1.051,1.614,2.1,1.718l2.379,1.718s0,8.474-5.315,10.572a2.441,2.441,0,0,1-1.939-.07,9.967,9.967,0,0,1-5.692-10.4s1.66-.052,1.992-.781C123.805,128.6,128.121,129.694,130.278,125.842Z" transform="translate(-108.01 -120.054)" fill="#fc9" stroke="#000" stroke-miterlimit="10" stroke-width="1"/>
          <path id="XMLID_758_" d="M119.753,272.164s1.772,3.944,5.615,3.944,5.473-3.665,5.473-3.665l1.7.674-7.079,8.459-7.29-8.759Z" transform="translate(-104.846 -248.957)" fill="#6ec9ba" stroke="#000" stroke-miterlimit="10" stroke-width="1"/>
          <path id="XMLID_762_" d="M117.871,278.294l-.028,6.518,3.707.75v.288l-1.639.814,2.282,5.2,2.9,0-.039-4.851Z" transform="translate(-104.556 -254.357)" fill="#fff" stroke="#000" stroke-linecap="round" stroke-linejoin="round" stroke-miterlimit="10" stroke-width="1"/>
          <path id="XMLID_760_" d="M185.556,280.588l-.022,6.245-3.707.749v.288l1.639.814-2.283,5.2h-2.772V289Z" transform="translate(-157.913 -256.378)" fill="#fff" stroke="#000" stroke-linecap="round" stroke-linejoin="round" stroke-miterlimit="10" stroke-width="1"/>
          <path id="Trazado_1280320" data-name="Trazado 1280320" d="M6.228,388.341H65.7V393.1H6.228Z" transform="translate(-6.228 -351.303)" fill="#999" stroke="#000" stroke-miterlimit="10" stroke-width="1"/>
        </g>
        <g id="Grupo_1205067" data-name="Grupo 1205067" transform="translate(42.046 90.695)">
          <g id="Grupo_1205065" data-name="Grupo 1205065">
            <path id="Trazado_1280321" data-name="Trazado 1280321" d="M311.116,190.421a.17.17,0,0,0-.223.151c-.033.534-.178,1.919-.8,2.31-.773.488-2.169,1.3-2.413,2.468s.12,1.193-.217,1.627l-.3.55a.469.469,0,0,0,.1.575l.128.114s.054,1.012,1.876,1.3l.4.087a.442.442,0,0,1,.31.25,1.494,1.494,0,0,1-.056,1.156c-.371.8-1.83,2.176-.461,6.149s1.885,5.4.7,8.433a1.058,1.058,0,0,0-1.369.7s-.176.744.841.854,1.722.136,1.98-.38.732-2.468,1-2.956.389-.23.5-2.2.06-2.726,1.821-3.38c0,0-1.928.8-1.215,3.691a4.988,4.988,0,0,0,2.423,3.391s-.2.258-1.315.054a2.272,2.272,0,0,0-2.617,1.044s-.393.678.325.678h11.715s1.913.18,3.106-2.219,1.585-4.614.148-9.414a13.345,13.345,0,0,1-.732-3.3c-.008-.333.135-.966.433-1.115.5-.251.674.212.923.294,1.089.36,2.131-1.445-.23-2.834-1.5-.88-3.408.88-3.558,2.691a8.7,8.7,0,0,0,1.294,4.4c1.4,2.614,1.546,9.193-1.139,9.518,0,0,1.925-5.911-1.41-9.518,0,0-4.637-4.23-5.749-5.911a7.924,7.924,0,0,1-1.537-3.118,5.519,5.519,0,0,0-2.719-3.624.36.36,0,0,1-.148-.222A3.037,3.037,0,0,0,311.116,190.421Z" transform="translate(-307.108 -190.412)" fill="#ccc" stroke="#000" stroke-linecap="round" stroke-linejoin="round" stroke-miterlimit="10" stroke-width="1"/>
            <path id="Trazado_1280322" data-name="Trazado 1280322" d="M307.459,245.656l-.294.537a.469.469,0,0,0,.1.575l.128.114S308.448,246.7,307.459,245.656Z" transform="translate(-307.108 -239.079)" fill="#fcc" stroke="#000" stroke-linecap="round" stroke-linejoin="round" stroke-miterlimit="10" stroke-width="1"/>
            <path id="Trazado_1280323" data-name="Trazado 1280323" d="M335.125,190.532l-.014-.012a.17.17,0,0,0-.106.147,4.581,4.581,0,0,1-.527,2.041c.449.2.825.429,1.149-.013C336.181,191.94,335.125,190.532,335.125,190.532Z" transform="translate(-331.22 -190.507)" fill="#fcc" stroke="#000" stroke-linecap="round" stroke-linejoin="round" stroke-miterlimit="10" stroke-width="1"/>
          </g>
          <g id="Grupo_1205066" data-name="Grupo 1205066" transform="translate(1.793 5.12)">
            <path id="Trazado_1280324" data-name="Trazado 1280324" d="M322.168,234.457a1.2,1.2,0,0,1,1.458.151s.453.251.654-.151" transform="translate(-322.168 -234.171)" fill="#b3b3b3"/>
            <path id="Trazado_1280325" data-name="Trazado 1280325" d="M322.168,233.706a1.017,1.017,0,0,1,.349-.215,1.017,1.017,0,0,1,.84.031,1.138,1.138,0,0,1,.343.26l-.023-.017a.841.841,0,0,0,.146.067.568.568,0,0,0,.159.028.329.329,0,0,0,.157-.039.51.51,0,0,0,.142-.116.4.4,0,0,1-.091.179A.372.372,0,0,1,324,234a.542.542,0,0,1-.218.011.67.67,0,0,1-.21-.06l0,0-.019-.015a1.423,1.423,0,0,0-.3-.2,1.212,1.212,0,0,0-.163-.066,1.578,1.578,0,0,0-.173-.036,1.546,1.546,0,0,0-.367,0A2.5,2.5,0,0,0,322.168,233.706Z" transform="translate(-322.168 -233.42)"/>
          </g>
          <path id="Trazado_1280326" data-name="Trazado 1280326" d="M322.925,249.18l1.72-.261" transform="translate(-321.042 -241.954)" fill="#b3b3b3" stroke="#000" stroke-linecap="round" stroke-linejoin="round" stroke-miterlimit="10" stroke-width="1"/>
          <path id="Trazado_1280327" data-name="Trazado 1280327" d="M322.853,253.566l1.346.151" transform="translate(-320.979 -246.048)" fill="#b3b3b3" stroke="#000" stroke-linecap="round" stroke-linejoin="round" stroke-miterlimit="10" stroke-width="1"/>
          <path id="Trazado_1280328" data-name="Trazado 1280328" d="M321.983,255.8l1.455.664" transform="translate(-320.212 -248.017)" fill="#b3b3b3" stroke="#000" stroke-linecap="round" stroke-linejoin="round" stroke-miterlimit="10" stroke-width="1"/>
        </g>
      </g>
    </g>
  </g>
</svg>
