<svg xmlns="http://www.w3.org/2000/svg" width="84.208" height="84.207" viewBox="0 0 84.208 84.207">
  <g id="Grupo_1204440" data-name="Grupo 1204440" transform="translate(-872.726 -278.777)">
    <g id="Grupo_1188789" data-name="Grupo 1188789" transform="translate(583.726 -5835.222)">
      <rect id="Rectángulo_400898" data-name="Rectángulo 400898" width="75.49" height="75.489" rx="37.744" transform="translate(293.36 6118.358)" fill="#ffd907"/>
      <rect id="Rectángulo_400907" data-name="Rectángulo 400907" width="75.49" height="75.489" rx="37.744" transform="translate(293.36 6118.358)" fill="none"/>
      <g id="Grupo_1098742" data-name="Grupo 1098742" transform="translate(289 6114)">
        <g id="Rectángulo_400898-2" data-name="Rectángulo 400898" transform="translate(0)" fill="none" stroke="#fff" stroke-width="1" opacity="0.859">
          <rect width="84.208" height="84.207" rx="42.104" stroke="none"/>
          <rect x="0.5" y="0.5" width="83.208" height="83.207" rx="41.604" fill="none"/>
        </g>
        <g id="Rectángulo_400907-2" data-name="Rectángulo 400907" transform="translate(0)" fill="none" stroke="#0f1f33" stroke-linecap="round" stroke-width="1">
          <rect width="84.208" height="84.207" rx="42.104" stroke="none"/>
          <rect x="0.5" y="0.5" width="83.208" height="83.207" rx="41.604" fill="none"/>
        </g>
      </g>
      <g id="no-dogs-allowed_18982789" transform="translate(291.055 6116.342)">
        <path id="Trazado_1280148" data-name="Trazado 1280148" d="M21.555,195.861a10.656,10.656,0,0,0,4.933,1.207,1.994,1.994,0,1,0,0-3.989,6.66,6.66,0,0,1-5.893-3.542l-.324-.609a1.994,1.994,0,1,0-3.522,1.872l.323.609a10.678,10.678,0,0,0,2,2.665Z" transform="translate(-1.17 -134.842)" fill="#87796f"/>
        <path id="Trazado_1280149" data-name="Trazado 1280149" d="M25.317,196.229a11.042,11.042,0,0,1-5.086-1.244.332.332,0,1,1,.307-.589,10.377,10.377,0,0,0,4.779,1.169,1.662,1.662,0,0,0,0-3.324,6.991,6.991,0,0,1-6.187-3.719l-.324-.609a1.662,1.662,0,1,0-2.935,1.56l.323.609a10.342,10.342,0,0,0,1.942,2.582.332.332,0,0,1-.463.478,11.009,11.009,0,0,1-2.066-2.748l-.323-.609a2.327,2.327,0,1,1,4.11-2.184l.324.609a6.328,6.328,0,0,0,5.6,3.366,2.327,2.327,0,0,1,0,4.654Z" transform="translate(0 -133.67)" fill="#3a312a"/>
        <path id="Trazado_1280150" data-name="Trazado 1280150" d="M206.325,72.427s.755,2.805,2.93,2.935c0,0-2.9,1-2.952,3.147,0,0-.572-3.008-2.864-3.116A3.433,3.433,0,0,0,206.325,72.427Z" transform="translate(-146.671 -44.983)" fill="#d7e057"/>
        <path id="Trazado_1280151" data-name="Trazado 1280151" d="M205.135,77.676a.332.332,0,0,1-.326-.27c-.005-.027-.553-2.752-2.553-2.846a.332.332,0,0,1-.034-.661,3.076,3.076,0,0,0,2.6-2.667.332.332,0,0,1,.652-.059c.007.026.722,2.576,2.629,2.691a.333.333,0,0,1,.089.646c-.027.009-2.685.955-2.729,2.841a.332.332,0,0,1-.3.323h-.028ZM203.42,74.19a3.873,3.873,0,0,1,1.681,1.967,4.724,4.724,0,0,1,1.983-1.868,4.057,4.057,0,0,1-1.847-1.933A3.57,3.57,0,0,1,203.42,74.19Z" transform="translate(-145.503 -43.817)" fill="#3a312a"/>
        <path id="Trazado_1280152" data-name="Trazado 1280152" d="M187.593,89.408s.534,1.984,2.072,2.076c0,0-2.053.709-2.088,2.226,0,0-.4-2.127-2.026-2.2A2.429,2.429,0,0,0,187.593,89.408Z" transform="translate(-132.747 -58.201)" fill="#d7e057"/>
        <path id="Trazado_1280153" data-name="Trazado 1280153" d="M186.409,92.875a.333.333,0,0,1-.326-.27c0-.018-.378-1.871-1.715-1.934a.332.332,0,0,1-.034-.661,2.082,2.082,0,0,0,1.76-1.8.332.332,0,0,1,.652-.059c0,.018.494,1.755,1.772,1.832a.332.332,0,0,1,.089.646c-.018.006-1.835.654-1.864,1.92a.333.333,0,0,1-.3.324Zm-1-2.555a2.842,2.842,0,0,1,.986,1.17,3.471,3.471,0,0,1,1.189-1.1,2.968,2.968,0,0,1-1.095-1.158A2.65,2.65,0,0,1,185.408,90.32Z" transform="translate(-131.579 -57.033)" fill="#3a312a"/>
        <path id="Trazado_1280154" data-name="Trazado 1280154" d="M187.593,62.75s.534,1.984,2.072,2.076c0,0-2.053.709-2.088,2.226,0,0-.4-2.127-2.026-2.2A2.428,2.428,0,0,0,187.593,62.75Z" transform="translate(-132.747 -37.451)" fill="#d7e057"/>
        <path id="Trazado_1280155" data-name="Trazado 1280155" d="M186.411,66.217a.332.332,0,0,1-.326-.27c0-.018-.378-1.871-1.715-1.934a.332.332,0,0,1-.034-.661,2.082,2.082,0,0,0,1.76-1.8.332.332,0,0,1,.652-.059c0,.018.494,1.755,1.772,1.831a.332.332,0,0,1,.089.646c-.018.006-1.835.654-1.864,1.92a.333.333,0,0,1-.3.324Zm-1-2.554a2.839,2.839,0,0,1,.985,1.17,3.473,3.473,0,0,1,1.189-1.1,2.967,2.967,0,0,1-1.095-1.157A2.649,2.649,0,0,1,185.409,63.663Z" transform="translate(-131.581 -36.283)" fill="#3a312a"/>
        <path id="Trazado_1280156" data-name="Trazado 1280156" d="M78.523,145.956a13.071,13.071,0,0,0,.917-5.185c0-8.226-4.961-14.9-11.08-14.9s-11.08,6.669-11.08,14.9a13.1,13.1,0,0,0,.909,5.166,2.7,2.7,0,0,0-1.13,2.109c0,1.678,1.8,3.038,4.02,3.038a4.9,4.9,0,0,0,2.406-.608,19.878,19.878,0,0,0,9.733.006,4.9,4.9,0,0,0,2.394.6c2.22,0,4.02-1.36,4.02-3.038A2.691,2.691,0,0,0,78.523,145.956Z" transform="translate(-32.729 -86.586)" fill="#87796f"/>
        <path id="Trazado_1280157" data-name="Trazado 1280157" d="M74.442,150.248a5.25,5.25,0,0,1-2.433-.577,20.374,20.374,0,0,1-9.655-.006,5.246,5.246,0,0,1-2.445.583c-2.4,0-4.352-1.512-4.352-3.37a2.952,2.952,0,0,1,1.063-2.208,13.814,13.814,0,0,1-.841-5.067c0-8.4,5.12-15.227,11.413-15.227s11.413,6.831,11.413,15.227a13.787,13.787,0,0,1-.85,5.089,2.947,2.947,0,0,1,1.04,2.186C78.795,148.736,76.842,150.248,74.442,150.248Zm-2.394-1.266a.333.333,0,0,1,.163.043,4.556,4.556,0,0,0,2.231.559c2.033,0,3.688-1.214,3.688-2.706a2.362,2.362,0,0,0-.982-1.829.333.333,0,0,1-.1-.391,12.853,12.853,0,0,0,.89-5.054c0-8.03-4.822-14.563-10.748-14.563S56.444,131.573,56.444,139.6a12.882,12.882,0,0,0,.882,5.036.333.333,0,0,1-.1.392,2.369,2.369,0,0,0-1,1.847c0,1.492,1.654,2.706,3.687,2.706a4.551,4.551,0,0,0,2.242-.565.332.332,0,0,1,.258-.029,16.791,16.791,0,0,0,4.782.595A16.826,16.826,0,0,0,71.954,149,.325.325,0,0,1,72.048,148.981Z" transform="translate(-31.561 -85.419)" fill="#3a312a"/>
        <path id="Trazado_1280158" data-name="Trazado 1280158" d="M77.355,191.892a20.009,20.009,0,0,1-.7,5.443,2.73,2.73,0,0,1,1.009,2.049,3.029,3.029,0,0,1-1.937,2.647,4.672,4.672,0,0,1-1.294.383,5.175,5.175,0,0,1-1.507,0,4.672,4.672,0,0,1-1.294-.383,3.029,3.029,0,0,1-1.937-2.647,2.73,2.73,0,0,1,1.009-2.049,20.009,20.009,0,0,1-.7-5.443Z" transform="translate(-42.564 -137.973)" fill="#87796f"/>
        <g id="Grupo_1204984" data-name="Grupo 1204984" transform="translate(26.797 53.586)">
          <path id="Trazado_1280159" data-name="Trazado 1280159" d="M72.51,201.633a5.639,5.639,0,0,1-.8-.059,4.994,4.994,0,0,1-1.387-.411,3.367,3.367,0,0,1-2.129-2.948,3.013,3.013,0,0,1,.967-2.156,20.548,20.548,0,0,1-.66-5.337.332.332,0,0,1,.665,0,19.646,19.646,0,0,0,.69,5.351.333.333,0,0,1-.1.343,2.409,2.409,0,0,0-.9,1.8A2.717,2.717,0,0,0,70.6,200.56a4.329,4.329,0,0,0,1.2.356,4.882,4.882,0,0,0,1.411,0,4.325,4.325,0,0,0,1.2-.356,2.717,2.717,0,0,0,1.745-2.346,2.408,2.408,0,0,0-.9-1.8.333.333,0,0,1-.1-.343,19.644,19.644,0,0,0,.69-5.351.332.332,0,0,1,.665,0,20.556,20.556,0,0,1-.66,5.337,3.012,3.012,0,0,1,.967,2.156,3.368,3.368,0,0,1-2.13,2.949,4.993,4.993,0,0,1-1.385.411A5.626,5.626,0,0,1,72.51,201.633Z" transform="translate(-68.193 -190.39)" fill="#3a312a"/>
          <path id="Trazado_1280160" data-name="Trazado 1280160" d="M79.728,229.747a4.671,4.671,0,0,1-1.294-.383l.362-2.145a.256.256,0,0,1,.5,0Z" transform="translate(-76.164 -218.891)" fill="#3a312a"/>
          <path id="Trazado_1280161" data-name="Trazado 1280161" d="M92.366,229.364a4.671,4.671,0,0,1-1.294.383l.427-2.528a.256.256,0,0,1,.5,0Z" transform="translate(-86.002 -218.891)" fill="#3a312a"/>
        </g>
        <path id="Trazado_1280162" data-name="Trazado 1280162" d="M110.77,191.892a20.009,20.009,0,0,0,.7,5.443,2.73,2.73,0,0,0-1.009,2.049,3.029,3.029,0,0,0,1.937,2.647,4.672,4.672,0,0,0,1.294.383,5.175,5.175,0,0,0,1.507,0,4.672,4.672,0,0,0,1.294-.383,3.029,3.029,0,0,0,1.937-2.647,2.73,2.73,0,0,0-1.009-2.049,20.009,20.009,0,0,0,.7-5.443Z" transform="translate(-74.3 -137.973)" fill="#87796f"/>
        <path id="Trazado_1280163" data-name="Trazado 1280163" d="M113.282,201.633a5.635,5.635,0,0,1-.8-.059,4.994,4.994,0,0,1-1.387-.411,3.367,3.367,0,0,1-2.129-2.948,3.013,3.013,0,0,1,.967-2.156,20.548,20.548,0,0,1-.66-5.337.332.332,0,0,1,.665,0,19.646,19.646,0,0,0,.69,5.351.333.333,0,0,1-.1.343,2.409,2.409,0,0,0-.9,1.8,2.717,2.717,0,0,0,1.744,2.345,4.331,4.331,0,0,0,1.2.356,4.876,4.876,0,0,0,1.412,0,4.329,4.329,0,0,0,1.2-.356,2.717,2.717,0,0,0,1.745-2.346,2.408,2.408,0,0,0-.9-1.8.333.333,0,0,1-.1-.343,19.646,19.646,0,0,0,.69-5.351.332.332,0,0,1,.665,0,20.549,20.549,0,0,1-.66,5.337,3.012,3.012,0,0,1,.967,2.156,3.368,3.368,0,0,1-2.13,2.949,4.992,4.992,0,0,1-1.385.411,5.626,5.626,0,0,1-.8.059Z" transform="translate(-73.133 -136.804)" fill="#3a312a"/>
        <path id="Trazado_1280164" data-name="Trazado 1280164" d="M120.5,229.747a4.671,4.671,0,0,1-1.294-.383l.362-2.145a.256.256,0,0,1,.5,0Z" transform="translate(-81.104 -165.306)" fill="#3a312a"/>
        <path id="Trazado_1280165" data-name="Trazado 1280165" d="M133.14,229.364a4.672,4.672,0,0,1-1.294.383l.427-2.528a.256.256,0,0,1,.5,0Z" transform="translate(-90.943 -165.306)" fill="#3a312a"/>
        <path id="Trazado_1280166" data-name="Trazado 1280166" d="M37.27,21.83a7.828,7.828,0,0,0,.882,3.9c2.121,3.859,5.048,4.291,7.6,2.891s3.751-4.1,1.63-7.962S39.671,15.8,38.925,16.21a5.885,5.885,0,0,0-1.19,2.54Z" transform="translate(-17.326 -1.158)" fill="#87796f"/>
        <path id="Trazado_1280167" data-name="Trazado 1280167" d="M41.947,28.53a4.71,4.71,0,0,1-1.424-.219,6.968,6.968,0,0,1-3.829-3.575,8.1,8.1,0,0,1-.923-4.067.332.332,0,0,1,.665.01,7.45,7.45,0,0,0,.841,3.738,6.339,6.339,0,0,0,3.447,3.261,5.187,5.187,0,0,0,6.1-3.355,6.34,6.34,0,0,0-.906-4.658c-2.054-3.737-7.493-4.581-8-4.32a6.538,6.538,0,0,0-1.03,2.339.332.332,0,1,1-.64-.181,5.933,5.933,0,0,1,1.35-2.741c.961-.528,6.7.574,8.9,4.582a6.967,6.967,0,0,1,.966,5.149,5.312,5.312,0,0,1-2.727,3.265A5.8,5.8,0,0,1,41.947,28.53Z" transform="translate(-16.158 -0.002)" fill="#3a312a"/>
        <path id="Trazado_1280168" data-name="Trazado 1280168" d="M52.953,31.091c1.194,2.172.517,3.693-.917,4.482s-3.081.545-4.275-1.627a5.675,5.675,0,0,1,.434-5.36A5.487,5.487,0,0,1,52.953,31.091Z" transform="translate(-25.105 -10.82)" fill="#f16c7a"/>
        <path id="Trazado_1280169" data-name="Trazado 1280169" d="M49.411,35.159a3.642,3.642,0,0,1-3.089-2.213c-1.251-2.275.017-5.51.566-5.811.666-.367,3.985.41,5.21,2.636,1.151,2.1.76,3.939-1.048,4.933A3.394,3.394,0,0,1,49.411,35.159Zm-2.195-7.441a5.487,5.487,0,0,0-.312,4.907c.98,1.782,2.338,2.313,3.824,1.5s1.766-2.248.786-4.03a5.435,5.435,0,0,0-4.3-2.373Zm.02-.02" transform="translate(-23.957 -9.66)" fill="#3a312a"/>
        <path id="Trazado_1280170" data-name="Trazado 1280170" d="M129.254,20.662c-2.121,3.859-.918,6.562,1.63,7.962s5.475.968,7.6-2.891-.161-9.187-.772-9.523C136.961,15.8,131.375,16.8,129.254,20.662Z" transform="translate(-88.076 -1.158)" fill="#87796f"/>
        <path id="Trazado_1280171" data-name="Trazado 1280171" d="M132.344,28.528a5.8,5.8,0,0,1-2.794-.771,5.312,5.312,0,0,1-2.727-3.265,6.968,6.968,0,0,1,.966-5.149c2.2-4.008,7.943-5.111,8.9-4.582.762.419,3.146,5.894.9,9.974a6.967,6.967,0,0,1-3.829,3.575,4.709,4.709,0,0,1-1.424.219Zm3.7-13.232c-1.307,0-5.839,1.031-7.673,4.367a6.339,6.339,0,0,0-.906,4.658,5.187,5.187,0,0,0,6.1,3.355,6.341,6.341,0,0,0,3.447-3.261c2.005-3.648-.148-8.709-.649-9.076a.821.821,0,0,0-.321-.042Z" transform="translate(-86.904 0)" fill="#3a312a"/>
        <path id="Trazado_1280172" data-name="Trazado 1280172" d="M140.873,31.091c-1.194,2.172-.517,3.693.917,4.482s3.081.545,4.275-1.627a5.674,5.674,0,0,0-.434-5.36A5.487,5.487,0,0,0,140.873,31.091Z" transform="translate(-97.492 -10.82)" fill="#f16c7a"/>
        <path id="Trazado_1280173" data-name="Trazado 1280173" d="M142.1,35.159a3.4,3.4,0,0,1-1.637-.455,3.132,3.132,0,0,1-1.605-1.928,4.059,4.059,0,0,1,.557-3.005c1.224-2.227,4.543-3,5.209-2.636.548.3,1.816,3.536.566,5.811A3.641,3.641,0,0,1,142.1,35.159Zm2.068-7.455a5.521,5.521,0,0,0-4.171,2.388,3.432,3.432,0,0,0-.5,2.514,2.485,2.485,0,0,0,1.283,1.516c1.486.817,2.844.286,3.824-1.5a5.48,5.48,0,0,0-.316-4.912A.567.567,0,0,0,144.165,27.7ZM139.7,29.931h0Z" transform="translate(-96.321 -9.661)" fill="#3a312a"/>
        <path id="Trazado_1280174" data-name="Trazado 1280174" d="M70.4,53.731a5.061,5.061,0,0,1-.182,1.363c-1.121,4.047-7.311,6.03-14.777,6.03s-13.656-1.983-14.777-6.03a5.061,5.061,0,0,1-.182-1.363,6.35,6.35,0,0,1,1.737-4.211c0-.02,0-.04,0-.06-.033-.41-.051-.824-.051-1.245a15.506,15.506,0,0,1,.656-4.481A13.833,13.833,0,0,1,51.51,34.46a12.2,12.2,0,0,1,7.841.044A13.847,13.847,0,0,1,67.9,43.732a15.446,15.446,0,0,1,.656,4.483c0,.388-.013.767-.04,1.146.024.029.049.055.073.082A6.379,6.379,0,0,1,70.4,53.731Z" transform="translate(-19.829 -14.943)" fill="#fce8cb"/>
        <path id="Trazado_1280175" data-name="Trazado 1280175" d="M54.276,60.289c-8.365,0-14.009-2.345-15.1-6.274a5.413,5.413,0,0,1-.194-1.452,6.663,6.663,0,0,1,1.728-4.324c-.03-.4-.046-.8-.046-1.192a15.851,15.851,0,0,1,.67-4.577,14.141,14.141,0,0,1,8.9-9.494,12.536,12.536,0,0,1,8.054.046,14.174,14.174,0,0,1,8.764,9.446,15.776,15.776,0,0,1,.67,4.579c0,.349-.01.686-.031,1.028a6.726,6.726,0,0,1,1.873,4.488,5.423,5.423,0,0,1-.194,1.452C68.285,57.944,62.641,60.289,54.276,60.289ZM54.2,33a11.8,11.8,0,0,0-3.748.608,13.477,13.477,0,0,0-8.474,9.055,15.186,15.186,0,0,0-.642,4.385c0,.4.017.81.05,1.219,0,.006,0,.022,0,.039a.36.36,0,0,1-.08.267,5.978,5.978,0,0,0-1.654,3.991,4.747,4.747,0,0,0,.17,1.274c.989,3.569,6.529,5.787,14.457,5.787s13.467-2.217,14.457-5.786a4.755,4.755,0,0,0,.17-1.274A6,6,0,0,0,67.18,48.5c-.026-.028-.053-.058-.08-.09a.332.332,0,0,1-.078-.238c.026-.375.039-.742.039-1.122a15.109,15.109,0,0,0-.642-4.387,13.509,13.509,0,0,0-8.344-9.01A11.857,11.857,0,0,0,54.2,33Z" transform="translate(-18.661 -13.776)" fill="#3a312a"/>
        <path id="Trazado_1280176" data-name="Trazado 1280176" d="M53.587,44.737c0,7.282-4.426,13.186-9.888,13.186a7.615,7.615,0,0,1-3.032-.634,5.061,5.061,0,0,1-.182-1.363,6.35,6.35,0,0,1,1.737-4.211c0-.02,0-.04,0-.06-.033-.41-.051-.824-.051-1.245a15.506,15.506,0,0,1,.656-4.481,13.833,13.833,0,0,1,8.687-9.274A16.1,16.1,0,0,1,53.587,44.737Z" transform="translate(-19.829 -17.139)" fill="#87796f"/>
        <path id="Trazado_1280177" data-name="Trazado 1280177" d="M42.531,57.089a7.945,7.945,0,0,1-3.163-.661.332.332,0,0,1-.188-.216,5.41,5.41,0,0,1-.194-1.452,6.663,6.663,0,0,1,1.728-4.324c-.03-.4-.046-.8-.046-1.192a15.851,15.851,0,0,1,.67-4.577,14.141,14.141,0,0,1,8.9-9.494.333.333,0,0,1,.392.148,16.351,16.351,0,0,1,2.122,8.25c0,7.454-4.585,13.518-10.221,13.518ZM39.779,55.88a7.265,7.265,0,0,0,2.751.544c5.269,0,9.556-5.766,9.556-12.853a15.768,15.768,0,0,0-1.9-7.678,13.512,13.512,0,0,0-8.217,8.966,15.186,15.186,0,0,0-.642,4.385c0,.4.017.81.05,1.219,0,.006,0,.022,0,.039a.36.36,0,0,1-.08.267A5.978,5.978,0,0,0,39.65,54.76,4.814,4.814,0,0,0,39.779,55.88Z" transform="translate(-18.661 -15.972)" fill="#3a312a"/>
        <path id="Trazado_1280178" data-name="Trazado 1280178" d="M129.467,56.082a5.061,5.061,0,0,1-.182,1.363,7.615,7.615,0,0,1-3.032.634c-5.463,0-9.888-5.9-9.888-13.186a16.137,16.137,0,0,1,2.05-8.038,13.847,13.847,0,0,1,8.554,9.228,15.446,15.446,0,0,1,.656,4.483c0,.388-.013.767-.04,1.146.024.029.049.055.073.082a6.379,6.379,0,0,1,1.808,4.288Z" transform="translate(-78.893 -17.294)" fill="#87796f"/>
        <path id="Trazado_1280179" data-name="Trazado 1280179" d="M125.086,57.243c-5.636,0-10.221-6.064-10.221-13.518a16.4,16.4,0,0,1,2.094-8.2.332.332,0,0,1,.4-.148,14.175,14.175,0,0,1,8.764,9.446,15.777,15.777,0,0,1,.67,4.579c0,.349-.01.686-.031,1.028a6.726,6.726,0,0,1,1.873,4.488,5.422,5.422,0,0,1-.194,1.452.333.333,0,0,1-.189.216A7.942,7.942,0,0,1,125.086,57.243ZM117.4,36.094a15.814,15.814,0,0,0-1.869,7.63c0,7.087,4.287,12.853,9.556,12.853a7.263,7.263,0,0,0,2.751-.544,4.794,4.794,0,0,0,.13-1.12,6,6,0,0,0-1.723-4.065c-.026-.028-.053-.058-.08-.09a.332.332,0,0,1-.078-.238c.026-.375.039-.742.039-1.122a15.109,15.109,0,0,0-.642-4.387A13.545,13.545,0,0,0,117.4,36.094Zm10.718,20.182h0Z" transform="translate(-77.725 -16.126)" fill="#3a312a"/>
        <path id="Trazado_1280180" data-name="Trazado 1280180" d="M102.656,101.23a2.143,2.143,0,0,1-4.242-.019c0-.7.955-1.268,2.127-1.263S102.659,100.527,102.656,101.23Z" transform="translate(-64.92 -66.405)" fill="#3a312a"/>
        <path id="Trazado_1280181" data-name="Trazado 1280181" d="M101.406,114.047c-.027,1.823-1.19,3.288-2.619,3.288s-2.591-1.465-2.619-3.288a2.924,2.924,0,0,0,2.619-2.91A2.924,2.924,0,0,0,101.406,114.047Z" transform="translate(-63.173 -75.115)" fill="#f16c7a"/>
        <path id="Trazado_1280182" data-name="Trazado 1280182" d="M97.619,116.5c-1.624,0-2.92-1.588-2.951-3.616a.332.332,0,0,1,.3-.336,2.585,2.585,0,0,0,2.321-2.579.332.332,0,0,1,.665,0,2.585,2.585,0,0,0,2.321,2.579.332.332,0,0,1,.3.336C100.54,114.912,99.243,116.5,97.619,116.5Zm-2.271-3.338c.133,1.5,1.109,2.673,2.271,2.673s2.139-1.175,2.271-2.673a3.244,3.244,0,0,1-2.271-1.753A3.244,3.244,0,0,1,95.348,113.162Z" transform="translate(-62.004 -73.947)" fill="#3a312a"/>
        <path id="Trazado_1280183" data-name="Trazado 1280183" d="M83.33,113.229a3.263,3.263,0,0,1-3.259-3.259.332.332,0,1,1,.665,0,2.6,2.6,0,0,0,2.594,2.594,2.286,2.286,0,0,0,.269-.015,2.586,2.586,0,0,0,2.325-2.58.332.332,0,1,1,.665,0,3.248,3.248,0,0,1-2.917,3.24A2.943,2.943,0,0,1,83.33,113.229Z" transform="translate(-50.642 -73.947)" fill="#3a312a"/>
        <path id="Trazado_1280184" data-name="Trazado 1280184" d="M109.744,113.229a3,3,0,0,1-.347-.02,3.247,3.247,0,0,1-2.912-3.24.332.332,0,1,1,.665,0,2.585,2.585,0,0,0,2.321,2.579,2.327,2.327,0,0,0,.274.015,2.6,2.6,0,0,0,2.594-2.594.332.332,0,1,1,.665,0A3.263,3.263,0,0,1,109.744,113.229Z" transform="translate(-71.203 -73.947)" fill="#3a312a"/>
        <ellipse id="Elipse_11517" data-name="Elipse 11517" cx="2.755" cy="1.722" rx="2.755" ry="1.722" transform="translate(24.252 32.812)" fill="#f5978a"/>
        <ellipse id="Elipse_11518" data-name="Elipse 11518" cx="2.755" cy="1.722" rx="2.755" ry="1.722" transform="translate(41.469 32.812)" fill="#f5978a"/>
        <path id="Trazado_1280185" data-name="Trazado 1280185" d="M84.758,84.762a1.205,1.205,0,1,1-1.205-1.205A1.205,1.205,0,0,1,84.758,84.762Z" transform="translate(-52.415 -53.647)" fill="#3a312a"/>
        <path id="Trazado_1280186" data-name="Trazado 1280186" d="M125.157,84.762a1.205,1.205,0,1,1-1.205-1.205A1.205,1.205,0,0,1,125.157,84.762Z" transform="translate(-83.861 -53.647)" fill="#3a312a"/>
        <path id="Trazado_1280187" data-name="Trazado 1280187" d="M109.505,35.865c-.162.3-.315.607-.454.922a12.616,12.616,0,0,0-2.382-1.115c-.368-.126-.742-.237-1.124-.328.153-.007.308-.009.461-.009A11.844,11.844,0,0,1,109.505,35.865Z" transform="translate(-70.471 -16.111)" fill="#decaad"/>
        <path id="Trazado_1280188" data-name="Trazado 1280188" d="M141.614,132.315c-1.062,2.325-4.188,3.989-8.692,4.718-.062-.126,4.445-1.436,5.556-4.346.219.02.441.029.663.029A7.852,7.852,0,0,0,141.614,132.315Z" transform="translate(-91.781 -91.599)" fill="#decaad"/>
        <path id="Trazado_1280189" data-name="Trazado 1280189" d="M133.3,53.45c-.031-.035-.055-.062-.08-.091a.332.332,0,0,1-.08-.237c.027-.377.04-.745.04-1.124a15.046,15.046,0,0,0-.643-4.386,13.537,13.537,0,0,0-8.082-8.918c-.191.346-.368.7-.527,1.068a14.273,14.273,0,0,1,5.6,7.752,15.4,15.4,0,0,1,.654,4.191c.931.275,1.573.866,1.573,1.553a1.417,1.417,0,0,1-.665,1.121,5.9,5.9,0,0,1,.935,3.134,5.061,5.061,0,0,1-.182,1.363c-.027.1-.058.2-.091.29.126.007.255.011.383.011a7.253,7.253,0,0,0,2.75-.545,4.761,4.761,0,0,0,.131-1.119A6.009,6.009,0,0,0,133.3,53.45Z" transform="translate(-84.778 -18.726)" fill="#695b51"/>
        <circle id="Elipse_11519" data-name="Elipse 11519" cx="10.249" cy="10.249" r="10.249" transform="translate(44.258 44.053)" fill="#f16c7a"/>
        <path id="Trazado_1280190" data-name="Trazado 1280190" d="M156.067,167.039a10.582,10.582,0,1,1,10.582-10.582A10.594,10.594,0,0,1,156.067,167.039Zm0-20.5a9.917,9.917,0,1,0,9.917,9.917A9.928,9.928,0,0,0,156.067,146.54Z" transform="translate(-101.56 -102.154)" fill="#3a312a"/>
        <path id="Trazado_1280191" data-name="Trazado 1280191" d="M173.2,171.5l-3.426-3.426a1.334,1.334,0,1,0-1.887,1.887l3.426,3.426-3.426,3.426a1.334,1.334,0,1,0,1.887,1.887l3.426-3.426,3.426,3.426a1.334,1.334,0,1,0,1.887-1.887l-3.426-3.426,3.426-3.426a1.334,1.334,0,1,0-1.887-1.887Z" transform="translate(-118.694 -119.129)" fill="#87796f"/>
        <path id="Trazado_1280192" data-name="Trazado 1280192" d="M176.4,178.255a1.655,1.655,0,0,1-1.179-.488l-3.191-3.191-3.191,3.191a1.666,1.666,0,1,1-2.357-2.357l3.191-3.191-3.191-3.191a1.666,1.666,0,1,1,2.357-2.356l3.191,3.191,3.191-3.191a1.666,1.666,0,1,1,2.356,2.357l-3.191,3.191,3.191,3.191a1.667,1.667,0,0,1-1.178,2.845Zm-4.369-4.482a.331.331,0,0,1,.235.1L175.7,177.3a1,1,0,1,0,1.417-1.416l-3.426-3.426a.332.332,0,0,1,0-.47l3.426-3.426a1,1,0,1,0-1.417-1.417l-3.426,3.426a.342.342,0,0,1-.47,0l-3.426-3.426a1,1,0,1,0-1.417,1.417l3.426,3.426a.333.333,0,0,1,0,.47l-3.426,3.426a1,1,0,1,0,1.416,1.417l3.426-3.426A.329.329,0,0,1,172.035,173.773Z" transform="translate(-117.528 -117.962)" fill="#3a312a"/>
        <path id="Trazado_1280193" data-name="Trazado 1280193" d="M143.868,206.611a10.548,10.548,0,0,1-2.491-5.26,18.779,18.779,0,0,1-.567,3.241,3.011,3.011,0,0,1,.967,2.156,3.261,3.261,0,0,1-1.75,2.748c.055,0,.11.005.165.005,2.033,0,3.687-1.214,3.687-2.706C143.88,206.733,143.874,206.672,143.868,206.611Z" transform="translate(-97.311 -145.336)" fill="#695b51"/>
        <path id="Trazado_1280194" data-name="Trazado 1280194" d="M137.477,156.834a10.545,10.545,0,0,0-1.62,4.964.323.323,0,0,0-.122-.024.332.332,0,0,0-.332.332,19.6,19.6,0,0,1-.691,5.35.334.334,0,0,0,.1.343,2.411,2.411,0,0,1,.9,1.8,2.7,2.7,0,0,1-1.662,2.3l-.038-.226a2.52,2.52,0,0,0-.075-4.122,13.055,13.055,0,0,0,.917-5.186,18.718,18.718,0,0,0-1.766-8.073,23.212,23.212,0,0,0,3.04-.671A16.337,16.337,0,0,1,137.477,156.834Z" transform="translate(-91.908 -108.187)" fill="#695b51"/>
      </g>
    </g>
  </g>
</svg>
