<svg xmlns="http://www.w3.org/2000/svg" width="84.208" height="84.207" viewBox="0 0 84.208 84.207">
  <g id="Grupo_1204804" data-name="Grupo 1204804" transform="translate(-872.726 -278.777)">
    <g id="Grupo_1188789" data-name="Grupo 1188789" transform="translate(583.726 -5835.222)">
      <rect id="Rectángulo_400898" data-name="Rectángulo 400898" width="75.49" height="75.489" rx="37.744" transform="translate(293.36 6118.358)" fill="#ffd907"/>
      <rect id="Rectángulo_400907" data-name="Rectángulo 400907" width="75.49" height="75.489" rx="37.744" transform="translate(293.36 6118.358)" fill="none"/>
      <g id="Grupo_1098742" data-name="Grupo 1098742" transform="translate(289 6114)">
        <g id="Rectángulo_400898-2" data-name="Rectángulo 400898" transform="translate(0)" fill="none" stroke="#fff" stroke-width="1" opacity="0.859">
          <rect width="84.208" height="84.207" rx="42.104" stroke="none"/>
          <rect x="0.5" y="0.5" width="83.208" height="83.207" rx="41.604" fill="none"/>
        </g>
        <g id="Rectángulo_400907-2" data-name="Rectángulo 400907" transform="translate(0)" fill="none" stroke="#0f1f33" stroke-linecap="round" stroke-width="1">
          <rect width="84.208" height="84.207" rx="42.104" stroke="none"/>
          <rect x="0.5" y="0.5" width="83.208" height="83.207" rx="41.604" fill="none"/>
        </g>
      </g>
      <g id="man_5368264" transform="translate(304.198 6128.975)">
        <g id="Grupo_1205083" data-name="Grupo 1205083" transform="translate(0.86 0.86)">
          <g id="Grupo_1205068" data-name="Grupo 1205068" transform="translate(34.395 31.815)">
            <path id="Trazado_1280329" data-name="Trazado 1280329" d="M44.439,53.478v4.3H41V38h3.439V53.478Z" transform="translate(-41 -38)" fill="#b4dd7f"/>
          </g>
          <g id="Grupo_1205069" data-name="Grupo 1205069" transform="translate(37.834 32.124)">
            <path id="Trazado_1280330" data-name="Trazado 1280330" d="M55.851,38.36a21.515,21.515,0,0,1-3.973,9.158c-.12.172-.258.344-.4.516a.008.008,0,0,0-.009.009,21.432,21.432,0,0,1-5.546,4.918L45,53.528v4.3h6.879V50.948h6.879V45.531A10.269,10.269,0,0,0,55.851,38.36Z" transform="translate(-45 -38.36)" fill="#a0d468"/>
          </g>
          <g id="Grupo_1205070" data-name="Grupo 1205070" transform="translate(18.986 36.398)">
            <path id="Trazado_1280331" data-name="Trazado 1280331" d="M37.56,53.657a21.809,21.809,0,0,1-8.7-10.327c-.585,3.56-2.674,5.89-5.778,8.315h8.53v6.879h6.879v-4.3Z" transform="translate(-23.08 -43.33)" fill="#a0d468"/>
          </g>
          <g id="Grupo_1205071" data-name="Grupo 1205071" transform="translate(37.834 28.375)">
            <path id="Trazado_1280332" data-name="Trazado 1280332" d="M50.6,34.834,46.72,34l-1.212,1.212A1.725,1.725,0,0,0,45,36.433V52.917l.929-.568a21.432,21.432,0,0,0,5.546-4.918.008.008,0,0,1,.009-.009c.138-.172.275-.344.4-.516a21.515,21.515,0,0,0,3.973-9.158A10.236,10.236,0,0,0,50.6,34.834Z" transform="translate(-45 -34)" fill="#8cc152"/>
          </g>
          <g id="Grupo_1205072" data-name="Grupo 1205072" transform="translate(24.764 28.375)">
            <path id="Trazado_1280333" data-name="Trazado 1280333" d="M39.43,37.439V52.917l-.929-.568a21.809,21.809,0,0,1-8.7-10.327,12.274,12.274,0,0,0,.163-2h5.168l-.181-.361a5.578,5.578,0,0,0-4.979-3.078v-.043a10.242,10.242,0,0,1,3.861-1.7L37.711,34l1.212,1.212a1.725,1.725,0,0,1,.507,1.221Z" transform="translate(-29.8 -34)" fill="#8cc152"/>
          </g>
          <g id="Grupo_1205073" data-name="Grupo 1205073" transform="translate(44.713 44.713)">
            <path id="Trazado_1280334" data-name="Trazado 1280334" d="M53,53h6.879v6.879H53Z" transform="translate(-53 -53)" fill="#f0d0b4"/>
          </g>
          <g id="Grupo_1205074" data-name="Grupo 1205074" transform="translate(18.986 44.713)">
            <path id="Trazado_1280335" data-name="Trazado 1280335" d="M24.834,53.757A2.535,2.535,0,0,0,23.08,53h8.53v6.879H24.731V56.439a.862.862,0,0,0,.86-.86A2.573,2.573,0,0,0,24.834,53.757Z" transform="translate(-23.08 -53)" fill="#f0d0b4"/>
          </g>
          <g id="Grupo_1205075" data-name="Grupo 1205075" transform="translate(25.899)">
            <path id="Trazado_1280336" data-name="Trazado 1280336" d="M43.915,1l7.636,9.923L41.335,6.159,31.12,10.923,38.756,1Z" transform="translate(-31.12 -1)" fill="#d3a06c"/>
          </g>
          <g id="Grupo_1205076" data-name="Grupo 1205076" transform="translate(23.216 5.159)">
            <path id="Trazado_1280337" data-name="Trazado 1280337" d="M37.458,28.5H34.337A5.151,5.151,0,0,1,29.212,23.9L28,13.019l2.683-1.255L40.9,7l10.215,4.764L53.8,13.019,52.583,23.9A5.151,5.151,0,0,1,47.459,28.5H44.337V28.17a.862.862,0,0,1,.473-.774l.4-.2A7.746,7.746,0,0,0,49.5,20.276V14.739h-.516a11,11,0,0,1-4.385-.911A11.513,11.513,0,0,1,40.9,11.3a8.593,8.593,0,0,1-6.879,3.439H32.3v5.538A7.746,7.746,0,0,0,36.581,27.2l.4.2a.862.862,0,0,1,.473.774Z" transform="translate(-28 -7)" fill="#cf9e76"/>
          </g>
          <g id="Grupo_1205077" data-name="Grupo 1205077" transform="translate(27.516 9.458)">
            <path id="Trazado_1280338" data-name="Trazado 1280338" d="M45.038,29.2v1.72l-1.212,1.212a1.725,1.725,0,0,0-.507,1.221v1.006H39.879V33.35a1.725,1.725,0,0,0-.507-1.221l-1.212-1.212V28.871a.862.862,0,0,0-.473-.774l-.4-.2A7.746,7.746,0,0,1,33,20.977V15.439h1.72A8.593,8.593,0,0,0,41.6,12a11.513,11.513,0,0,0,3.7,2.528,11,11,0,0,0,4.385.911H50.2v5.538A7.746,7.746,0,0,1,45.915,27.9l-.4.2a.862.862,0,0,0-.473.774Z" transform="translate(-33 -12)" fill="#f0d0b4"/>
          </g>
          <g id="Grupo_1205078" data-name="Grupo 1205078" transform="translate(16.337 44.713)">
            <path id="Trazado_1280339" data-name="Trazado 1280339" d="M22.648,53a2.535,2.535,0,0,1,1.754.757,2.573,2.573,0,0,1,.757,1.823.862.862,0,0,1-.86.86H20.705a2.44,2.44,0,0,0-.6-.963.456.456,0,0,0-.1-.086l.009-.009a2.583,2.583,0,0,1,.817-1.694A2.545,2.545,0,0,1,22.58,53Z" transform="translate(-20 -53)" fill="#aab2bd"/>
          </g>
          <g id="Grupo_1205079" data-name="Grupo 1205079" transform="translate(12.038 46.433)">
            <path id="Trazado_1280340" data-name="Trazado 1280340" d="M20,56.72l.155.86a.862.862,0,0,1-.86.86H15.86a.862.862,0,0,1-.86-.86A2.576,2.576,0,0,1,17.58,55a2.516,2.516,0,0,1,1.72.671.456.456,0,0,1,.1.086,2.44,2.44,0,0,1,.6.963Z" transform="translate(-15 -55)" fill="#aab2bd"/>
          </g>
          <g id="Grupo_1205080" data-name="Grupo 1205080" transform="translate(0 26.656)">
            <path id="Trazado_1280341" data-name="Trazado 1280341" d="M25.936,36.3v3.276a.987.987,0,0,1-.009.163,12.274,12.274,0,0,1-.163,2c-.585,3.56-2.674,5.89-5.778,8.315h-.069a2.545,2.545,0,0,0-1.754.688,2.583,2.583,0,0,0-.817,1.694l-.009.009a2.516,2.516,0,0,0-1.72-.671,2.576,2.576,0,0,0-2.58,2.58v.9a1.68,1.68,0,0,1-3.078.929L8.739,54.356l-.516,1.556A1.5,1.5,0,0,1,5.3,55.44V54.356l-2.433.7a1.692,1.692,0,0,1-.3.052h-.1A1.461,1.461,0,0,1,1,53.643a3.012,3.012,0,0,1,1.668-2.7l1.771-.886,1.909-4.136,2.236,1.032a7.229,7.229,0,0,0-.705,3.1H9a15.642,15.642,0,0,0,10.138-3.749,4.7,4.7,0,0,0-2.657-8.263v-.026l.946-.318a2.383,2.383,0,0,0,1.634-2.261,3.439,3.439,0,0,1,6.879,0v.817Z" transform="translate(-1 -32)" fill="#d3a06c"/>
          </g>
          <g id="Grupo_1205081" data-name="Grupo 1205081" transform="translate(5.348 32.675)">
            <path id="Trazado_1280342" data-name="Trazado 1280342" d="M16.936,39a3.324,3.324,0,0,1,.413.026,4.708,4.708,0,0,1,2.657,8.263A15.642,15.642,0,0,1,9.868,51.038H8.751a7.229,7.229,0,0,1,.705-3.1L7.22,46.9l.705-1.522A11.173,11.173,0,0,1,16.489,39Z" transform="translate(-7.22 -39)" fill="#cf9e76"/>
          </g>
          <g id="Grupo_1205082" data-name="Grupo 1205082" transform="translate(24.927 30.955)">
            <path id="Trazado_1280343" data-name="Trazado 1280343" d="M30,40.276V37a5.578,5.578,0,0,1,4.979,3.078l.181.361H29.99A.987.987,0,0,0,30,40.276Z" transform="translate(-29.99 -37)" fill="#fcd770"/>
          </g>
        </g>
        <g id="Grupo_1205084" data-name="Grupo 1205084" transform="translate(0 0)">
          <circle id="Elipse_11522" data-name="Elipse 11522" cx="1" cy="1" r="1" transform="translate(31.656 14.655)"/>
          <ellipse id="Elipse_11523" data-name="Elipse 11523" cx="0.5" cy="1" rx="0.5" ry="1" transform="translate(40.656 14.655)"/>
          <path id="Trazado_1280344" data-name="Trazado 1280344" d="M42.322,23.069l.951-.476a1.726,1.726,0,0,0,.769-2.308l-.384-.769V18h-1.72v1.72a.862.862,0,0,0,.09.384l.476.95-.95.476Z" transform="translate(-5.823 -2.522)"/>
          <path id="Trazado_1280345" data-name="Trazado 1280345" d="M42.454,28.517A3.8,3.8,0,0,0,45.8,26.322l-1.538-.77a1.939,1.939,0,0,1-3.621,0l-1.538.77A3.8,3.8,0,0,0,42.454,28.517Z" transform="translate(-5.48 -3.581)"/>
          <path id="Trazado_1280346" data-name="Trazado 1280346" d="M44.476,29.227l-3.2-.687v-.164h2.261a6.013,6.013,0,0,0,5.982-5.355l1.278-11.5L47.743,10.1,39.976,0h-6L26.205,10.1,23.154,11.52l1.278,11.5a6.013,6.013,0,0,0,5.982,5.355h2.261v.164l-3.2.687a11.1,11.1,0,0,0-2.885,1.061,4.291,4.291,0,0,0-8.531.667A1.524,1.524,0,0,1,17.013,32.4l-.853.284c-.078,0-.156-.012-.235-.012h-.448l-.122.009A11.99,11.99,0,0,0,6.13,39.555L3.645,44.939l-1.5.75A3.858,3.858,0,0,0,0,49.159a2.334,2.334,0,0,0,.74,1.7,2.36,2.36,0,0,0,1.745.617,2.287,2.287,0,0,0,.476-.083l1.34-.382a2.359,2.359,0,0,0,4.556.8l.248.372a2.53,2.53,0,0,0,4.51-.6c.048,0,.095.015.144.015H17.2a1.721,1.721,0,0,0,1.72-1.72h1.72v3.439H53.312V40.156a11.236,11.236,0,0,0-8.836-10.93Zm7.116,15.486H46.433V42.418a22.393,22.393,0,0,0,3.558-7.5,9.413,9.413,0,0,1,1.6,5.237Zm-29.394,0a13.558,13.558,0,0,0,3.631-5,22.207,22.207,0,0,0,1.686,2.724v2.279Zm4.458-11.954a4.655,4.655,0,0,1,2.779,1.635H26.656Zm1.72,7.667a1.728,1.728,0,0,1,1.72-1.733h2.657a3.314,3.314,0,0,0,1.231-.242c-1.046,3.57-3.77,3.679-3.966,3.681a1.632,1.632,0,0,1-.685-.163q-.5-.641-.949-1.321C28.378,40.586,28.375,40.514,28.375,40.426ZM37.05,11.569a12.139,12.139,0,0,0,7.663,3.044v4.681a6.84,6.84,0,0,1-3.8,6.152l-.408.2a1.712,1.712,0,0,0-.949,1.538v1.692l-.964.964a2.565,2.565,0,0,0-.756,1.825v.147h-1.72v-.147a2.565,2.565,0,0,0-.756-1.825l-.964-.964V27.187a1.711,1.711,0,0,0-.951-1.538l-.4-.2a6.839,6.839,0,0,1-3.8-6.152V14.618H30.1a9.512,9.512,0,0,0,6.955-3.049Zm6.8,27.125a1.743,1.743,0,0,1,1.72,1.8,1.632,1.632,0,0,1-.019.183q-.441.664-.933,1.292a1.751,1.751,0,0,1-.768.167c-.138,0-2.862-.064-3.9-3.694a3.532,3.532,0,0,0,1.242.247v.008Zm-4.3,2.783a6.019,6.019,0,0,0,3.512,2.26A20.675,20.675,0,0,1,39.554,46.6ZM46.761,38.6a3.438,3.438,0,0,0-1.922-1.466,7.918,7.918,0,0,0,2.322-4.98,9.507,9.507,0,0,1,1.445,1.131A20.678,20.678,0,0,1,46.761,38.6Zm-12.367,7.99a20.686,20.686,0,0,1-3.521-2.846,6,6,0,0,0,3.521-2.265ZM29.235,44.5a22.367,22.367,0,0,0,4.642,3.812l.518.319v2.959H29.236Zm6.879-10.968h1.72V51.592h-1.72Zm3.439,15.1.518-.318a22.371,22.371,0,0,0,4.642-3.8v7.08H39.554Zm4.561-17.725a9.244,9.244,0,0,1,1.4.422c-.476,5.5-4.089,5.642-4.316,5.644a1.658,1.658,0,0,1-1.642-1.707,1.728,1.728,0,0,1,1.72-1.733,1.912,1.912,0,0,1,1.72,1.063l.09.181,1.538-.77-.09-.181a3.623,3.623,0,0,0-3.258-2.013,3.374,3.374,0,0,0-1.72.482v-.629a.855.855,0,0,1,.252-.609l.885-.885Zm3.693-8.077a4.294,4.294,0,0,1-4.273,3.825h-1.3a8.531,8.531,0,0,0,4.194-7.362V12.9H45.059a10.449,10.449,0,0,1-7.225-2.956V7.369l11.115,5.187ZM44.358,8.516,37.834,5.471V1.72h1.3Zm-9.54-6.8h1.3V5.471L29.59,8.516ZM26.141,22.831,25,12.557,36.114,7.369v2.637A7.771,7.771,0,0,1,30.1,12.9H27.516v6.4a8.534,8.534,0,0,0,4.2,7.362h-1.3a4.294,4.294,0,0,1-4.273-3.825Zm3.693,8.077,3.424-.733.885.885a.857.857,0,0,1,.252.609v.627a3.4,3.4,0,0,0-1.72-.48v1.72a1.743,1.743,0,0,1,1.72,1.8,1.662,1.662,0,0,1-1.72,1.642H30.1a3.407,3.407,0,0,0-2.905,1.641q-.368-.725-.68-1.485c.048-.329.087-.666.11-1.015h4.335a.861.861,0,0,0,.77-1.245l-.181-.363a6.388,6.388,0,0,0-3.348-3.081,9.638,9.638,0,0,1,1.639-.518Zm-17.8,19.864a.82.82,0,0,1-1.5.455l-2.2-3.294L7.265,51.154a.639.639,0,0,1-1.246-.2v-2.22L2.488,49.741a.557.557,0,0,1-.122.021.6.6,0,0,1-.454-.161.592.592,0,0,1-.193-.441,2.147,2.147,0,0,1,1.194-1.932l2.04-1.021,2.739-5.931a10.278,10.278,0,0,1,7.848-5.881h.385a3.852,3.852,0,0,1,2.507,6.776,14.727,14.727,0,0,1-4.408,2.6,6.308,6.308,0,0,1,2.1-3.115l1.614-1.291-1.075-1.344-1.614,1.292a8.036,8.036,0,0,0-2.9,5.012,14.61,14.61,0,0,1-3.286.389h-.2a6.26,6.26,0,0,1,2.305-4.057l1.614-1.291L11.5,38.021,9.888,39.313a7.978,7.978,0,0,0-3.009,6.26v.86H8.857a16.451,16.451,0,0,0,10.695-3.956,5.568,5.568,0,0,0-.9-9.081,3.23,3.23,0,0,0,1.12-2.44,2.58,2.58,0,0,1,5.159,0v4.139c0,4.44-1.992,6.927-5.428,9.645a3.45,3.45,0,0,0-2.826,1.923,3.415,3.415,0,0,0-4.644,3.211Zm1.72-.9a1.72,1.72,0,0,1,3.439,0Zm4.681-1.72a3.45,3.45,0,0,0-.32-.457,1.72,1.72,0,0,1,3.378.457Zm3.918,1.481a1.714,1.714,0,0,0,.86-1.481,3.4,3.4,0,0,0-.478-1.72h4.777v5.159H22.356Zm24.075,1.959V46.433h5.159v5.159Z" transform="translate(0 0)"/>
          <ellipse id="Elipse_11524" data-name="Elipse 11524" cx="0.5" cy="1" rx="0.5" ry="1" transform="translate(22.656 30.655)"/>
        </g>
      </g>
    </g>
  </g>
</svg>
