<svg xmlns="http://www.w3.org/2000/svg" width="84.208" height="84.207" viewBox="0 0 84.208 84.207">
  <g id="Grupo_1204928" data-name="Grupo 1204928" transform="translate(-872.726 -278.777)">
    <g id="Grupo_1188789" data-name="Grupo 1188789" transform="translate(583.726 -5835.222)">
      <rect id="Rectángulo_400898" data-name="Rectángulo 400898" width="75.49" height="75.489" rx="37.744" transform="translate(293.36 6118.358)" fill="#ffd907"/>
      <rect id="Rectángulo_400907" data-name="Rectángulo 400907" width="75.49" height="75.489" rx="37.744" transform="translate(293.36 6118.358)" fill="none"/>
      <g id="Grupo_1098742" data-name="Grupo 1098742" transform="translate(289 6114)">
        <g id="Rectángulo_400898-2" data-name="Rectángulo 400898" transform="translate(0)" fill="none" stroke="#fff" stroke-width="1" opacity="0.859">
          <rect width="84.208" height="84.207" rx="42.104" stroke="none"/>
          <rect x="0.5" y="0.5" width="83.208" height="83.207" rx="41.604" fill="none"/>
        </g>
        <g id="Rectángulo_400907-2" data-name="Rectángulo 400907" transform="translate(0)" fill="none" stroke="#0f1f33" stroke-linecap="round" stroke-width="1">
          <rect width="84.208" height="84.207" rx="42.104" stroke="none"/>
          <rect x="0.5" y="0.5" width="83.208" height="83.207" rx="41.604" fill="none"/>
        </g>
      </g>
      <g id="doctor_4787195" transform="translate(285.818 6119.126)">
        <path id="Trazado_1280360" data-name="Trazado 1280360" d="M55.549,346.2h0l-22.341-.016h0a5.387,5.387,0,0,0-3.767,5.051v10.554a.816.816,0,0,0,.816.817H58.473a.815.815,0,0,0,.814-.817V351.24A5.341,5.341,0,0,0,55.549,346.2Z" transform="translate(-5.343 -299.325)" fill="#a0eaea"/>
        <path id="Trazado_1280361" data-name="Trazado 1280361" d="M172.764,285.727A10.04,10.04,0,0,0,171.527,284l-.555-.634h0c-.113-.067-.227-.135-.342-.2l-.008-.018c-.219.14-.444.272-.675.392v0L165.82,289.2l.022.034-.022.014v17.235h2.963l4.252-11.727C174.216,291.5,174.331,288.546,172.764,285.727Z" transform="translate(-126.773 -243.196)" fill="#3d7ab2"/>
        <path id="Trazado_1280362" data-name="Trazado 1280362" d="M99.7,289.216h-.03l-4.209-5.684.007-.013q-.306-.163-.6-.351l-.01.015c-.116.067-.231.135-.345.2l-.554.633a10.034,10.034,0,0,0-1.237,1.727c-1.566,2.818-1.452,5.769-.271,9.026L96.713,306.5H99.7V289.264l.022-.014Z" transform="translate(-60.65 -243.214)" fill="#4689d3"/>
        <path id="Trazado_1280363" data-name="Trazado 1280363" d="M435.833,294.528a2.713,2.713,0,1,1,.01,5.426h-.01a2.713,2.713,0,0,1,0-5.426Z" transform="translate(-364.772 -253.328)" fill="#6d7486"/>
        <path id="Trazado_1280364" data-name="Trazado 1280364" d="M364.926,197.968A1.129,1.129,0,1,1,363.8,199.1,1.129,1.129,0,0,1,364.926,197.968Z" transform="translate(-303.051 -167.353)" fill="#6d7486"/>
        <path id="Trazado_1280365" data-name="Trazado 1280365" d="M312.836,197.968a1.129,1.129,0,1,1-1.126,1.129A1.129,1.129,0,0,1,312.836,197.968Z" transform="translate(-256.671 -167.353)" fill="#6d7486"/>
        <path id="Trazado_1280366" data-name="Trazado 1280366" d="M380.755,275.721a1.156,1.156,0,0,1,.48,1.508c-.216.676-.783,1.1-1.265.939a1.155,1.155,0,0,1-.479-1.508C379.708,275.985,380.274,275.565,380.755,275.721Z" transform="translate(-316.946 -236.554)" fill="#4ca987"/>
        <path id="Trazado_1280367" data-name="Trazado 1280367" d="M355.954,252.008c.559,0,1.013.623,1.013,1.391s-.454,1.39-1.013,1.39-1.014-.623-1.014-1.39S355.394,252.008,355.954,252.008Z" transform="translate(-295.162 -215.469)" fill="#4ca987"/>
        <path id="Trazado_1280368" data-name="Trazado 1280368" d="M324.574,251.358c.559,0,1.013.623,1.013,1.39s-.454,1.391-1.013,1.391-1.014-.623-1.014-1.391S324.014,251.358,324.574,251.358Z" transform="translate(-267.222 -214.891)" fill="#4ca987"/>
        <path id="Trazado_1280369" data-name="Trazado 1280369" d="M300.421,275.354a1.157,1.157,0,0,1-.4,1.531c-.474.181-1.059-.212-1.309-.876a1.156,1.156,0,0,1,.4-1.53C299.585,274.3,300.171,274.69,300.421,275.354Z" transform="translate(-244.993 -235.438)" fill="#4ca987"/>
        <path id="Trazado_1280370" data-name="Trazado 1280370" d="M325.269,288.033a1.492,1.492,0,0,1,.036,1.959,1.459,1.459,0,0,1-1.767.373l-.423-.208a1.457,1.457,0,0,0-1.228-.031l-.487.211a1.464,1.464,0,0,1-1.874-.657l-.031-.059a1.491,1.491,0,0,1,.238-1.735l1.475-1.535a1.726,1.726,0,0,1,2.51.02Z" transform="translate(-263.445 -245.574)" fill="#4ca987"/>
        <path id="Trazado_1280371" data-name="Trazado 1280371" d="M56.167,296.543l4.261,11.727h-3.2l-6.389-13.5a.378.378,0,0,1,.34-.54h3l-1.583-.817a1,1,0,0,1-.542-.889,1.02,1.02,0,0,1,.046-.3c.039-.126.082-.253.13-.38a13.822,13.822,0,0,1,6-6.69l-.554.633a10.034,10.034,0,0,0-1.237,1.727C54.871,290.335,54.985,293.286,56.167,296.543Z" transform="translate(-24.365 -244.986)" fill="#88ced8"/>
        <path id="Trazado_1280372" data-name="Trazado 1280372" d="M202.089,294.227a.377.377,0,0,1,.339.54l-6.466,13.5H192.85l4.252-11.727c1.181-3.257,1.3-6.208-.271-9.026a10.041,10.041,0,0,0-1.238-1.727l-.555-.634a13.812,13.812,0,0,1,6.006,6.708c.045.122.085.243.124.364a1.02,1.02,0,0,1,.046.3,1,1,0,0,1-.542.889l-1.583.817Z" transform="translate(-150.84 -244.978)" fill="#88ced8"/>
        <path id="Trazado_1280373" data-name="Trazado 1280373" d="M170.013,313l.528.727a5.625,5.625,0,0,1-.231,6.915l-.89,1.066a.762.762,0,0,1-1.226-.075l-2.352-3.641-.022-.034,1.881-1.048a4.49,4.49,0,0,0,2.3-3.923Z" transform="translate(-126.773 -269.765)" fill="#5498d1"/>
        <path id="Trazado_1280374" data-name="Trazado 1280374" d="M118.458,317.959l-2.374,3.674a.762.762,0,0,1-1.226.075l-.891-1.065a5.629,5.629,0,0,1-.231-6.915l.513-.706.025-.034a4.489,4.489,0,0,0,2.3,3.923Z" transform="translate(-79.441 -269.765)" fill="#5fa8ed"/>
        <path id="Trazado_1280375" data-name="Trazado 1280375" d="M135.516,286.41v0l-8.359-.039-.007.013v2.939l.025-.034a4.489,4.489,0,0,0,2.3,3.923l1.881,1.048h.03l1.881-1.048a4.49,4.49,0,0,0,2.3-3.923l.01.013Z" transform="translate(-92.342 -246.063)" fill="#efc597"/>
        <path id="Trazado_1280376" data-name="Trazado 1280376" d="M248.067,177.656a1.757,1.757,0,0,1-2.63,1.764H245.2v-2.774h.237a1.487,1.487,0,0,1,1.89-.192A1.761,1.761,0,0,1,248.067,177.656Z" transform="translate(-197.452 -147.972)" fill="#efc597"/>
        <path id="Trazado_1280377" data-name="Trazado 1280377" d="M62.586,176.645v2.774h-.255a1.756,1.756,0,0,1-2.629-1.764,1.781,1.781,0,0,1,.244-.681h0a1.73,1.73,0,0,1,.494-.522,1.485,1.485,0,0,1,1.889.192Z" transform="translate(-32.273 -147.972)" fill="#efc597"/>
        <path id="Trazado_1280378" data-name="Trazado 1280378" d="M155.281,52.666v2.681h-.124a3.564,3.564,0,0,1-2.278-.824q-.128-.106-.244-.223a4.6,4.6,0,0,1-1.343-3.251V48.256A3.248,3.248,0,0,0,148.049,45h-.31a3.229,3.229,0,0,0-2.18.844,3.493,3.493,0,0,1-4.217.431l-.091-.057V45c0-2.346,2.145-2.884,4.437-2.415l5.374,1.255q.233.054.457.128a5.5,5.5,0,0,1,3.787,5.232v3.461Z" transform="translate(-104.897 -28.869)" fill="#6d7486"/>
        <path id="Trazado_1280379" data-name="Trazado 1280379" d="M116.735,20.319l-.252.128q-.224-.074-.457-.128l-5.374-1.255c-2.292-.469-4.437.069-4.437,2.415V22.7a3.134,3.134,0,0,1-1.162.194,3.747,3.747,0,0,1-2.868-2.049,4.621,4.621,0,0,1-.281-1.408c-.054-1.377.556-3.286,4.295-3.417a11.274,11.274,0,0,1,2.658.235l5.478,1.121A3,3,0,0,1,116.735,20.319Z" transform="translate(-69.861 -5.343)" fill="#5e6472"/>
        <path id="Trazado_1280380" data-name="Trazado 1280380" d="M69.427,50.684H67.274a2.951,2.951,0,0,0-2.947,2.954l0,8.171H64.3a1.485,1.485,0,0,0-1.889-.192,1.73,1.73,0,0,0-.494.522h0l-.021-.013V51a3.763,3.763,0,0,1,3.759-3.769h.63a4.621,4.621,0,0,0,.281,1.408A3.747,3.747,0,0,0,69.427,50.684Z" transform="translate(-34.236 -33.137)" fill="#6d7486"/>
        <path id="Trazado_1280381" data-name="Trazado 1280381" d="M101.777,75.174a4.6,4.6,0,0,1-1.343-3.251V69.129a3.248,3.248,0,0,0-3.244-3.251h-.31a3.229,3.229,0,0,0-2.18.844,3.494,3.494,0,0,1-4.217.431l-.091-.057a3.134,3.134,0,0,1-1.162.194H87.077a2.951,2.951,0,0,0-2.947,2.954l0,11.9a8.972,8.972,0,0,0,4.124,7.55q.29.187.6.35a8.924,8.924,0,0,0,8.359.039c.231-.121.456-.252.675-.392a8.956,8.956,0,0,0,4.12-7.547V75.413l.014-.016C101.936,75.326,101.854,75.252,101.777,75.174Z" transform="translate(-54.038 -49.743)" fill="#ffd8b7"/>
        <ellipse id="Elipse_11526" data-name="Elipse 11526" cx="0.877" cy="0.879" rx="0.877" ry="0.879" transform="translate(70.184 43.034)" fill="#4a5160"/>
        <path id="Trazado_1280382" data-name="Trazado 1280382" d="M92.141,99.94q-.306-.163-.6-.351a8.972,8.972,0,0,1-4.123-7.55l0-11.9a2.951,2.951,0,0,1,2.947-2.954h.361c-.082-.043-.163-.088-.243-.138l-.091-.057a3.134,3.134,0,0,1-1.162.194H87.077a2.951,2.951,0,0,0-2.947,2.954l0,11.9a8.972,8.972,0,0,0,4.124,7.55q.29.187.6.35a8.944,8.944,0,0,0,5.862.907,8.868,8.868,0,0,1-2.574-.907Z" transform="translate(-54.038 -59.635)" fill="#e2bda1"/>
        <g id="Grupo_1205085" data-name="Grupo 1205085" transform="translate(23.439 10.011)">
          <path id="Trazado_1280383" data-name="Trazado 1280383" d="M297.345,202.548a3.371,3.371,0,0,0-.648,6.678v9.649a5.372,5.372,0,0,1-10.735,0v-6.554a7.59,7.59,0,0,0,7.064-7.455V194.9a1.813,1.813,0,0,0-1.81-1.812h-1.4a1.787,1.787,0,1,0,0,1.315h1.4a.5.5,0,0,1,.494.5v9.963a6.411,6.411,0,0,1-12.813,0V194.9a.5.5,0,0,1,.494-.5h1.4a1.787,1.787,0,1,0,0-1.315h-1.4a1.813,1.813,0,0,0-1.81,1.812v9.963a7.59,7.59,0,0,0,7.064,7.455v6.554a6.686,6.686,0,0,0,13.366,0v-9.652a3.371,3.371,0,0,0-.667-6.675Zm-9.186-8.328a.471.471,0,1,1,.468-.471.471.471,0,0,1-.468.471Zm-5.71-.942a.471.471,0,1,1-.468.471.471.471,0,0,1,.468-.471Zm14.9,14.7a2.055,2.055,0,1,1,2.048-2.055A2.055,2.055,0,0,1,297.345,207.975Z" transform="translate(-249.723 -172.017)" fill="#284268"/>
          <path id="Trazado_1280384" data-name="Trazado 1280384" d="M445.37,305.261A1.537,1.537,0,1,0,446.9,306.8,1.537,1.537,0,0,0,445.37,305.261Zm0,1.758a.222.222,0,1,1,.219-.221.222.222,0,0,1-.219.221Z" transform="translate(-397.748 -272.896)" fill="#284268"/>
          <path id="Trazado_1280385" data-name="Trazado 1280385" d="M313.588,284.642a2.111,2.111,0,0,0,2.716.95l.487-.211a.8.8,0,0,1,.674.017l.423.209a2.116,2.116,0,0,0,2.562-.54,2.157,2.157,0,0,0-.059-2.83l-1.549-1.663a2.383,2.383,0,0,0-3.466-.027l-1.476,1.535a2.142,2.142,0,0,0-.343,2.5Zm1.261-1.649,1.476-1.535a1.068,1.068,0,0,1,1.555.013l1.544,1.657a.834.834,0,0,1,.02,1.093.8.8,0,0,1-.974.207l-.423-.209a2.113,2.113,0,0,0-1.779-.044l-.487.211a.8.8,0,0,1-1.033-.365l-.031-.059a.829.829,0,0,1,.133-.969Z" transform="translate(-281.526 -250.237)" fill="#284268"/>
          <path id="Trazado_1280386" data-name="Trazado 1280386" d="M319.234,249.452a2.091,2.091,0,1,0-1.671-2.048A1.868,1.868,0,0,0,319.234,249.452Zm0-2.781c.125,0,.355.278.355.733s-.23.733-.355.733-.356-.278-.356-.733S319.109,246.671,319.234,246.671Z" transform="translate(-285.321 -219.557)" fill="#284268"/>
          <path id="Trazado_1280387" data-name="Trazado 1280387" d="M350.615,246.012a2.091,2.091,0,1,0,1.671,2.048A1.868,1.868,0,0,0,350.615,246.012Zm0,2.781c-.125,0-.356-.278-.356-.733s.23-.733.356-.733.355.278.355.733S350.74,248.793,350.615,248.793Z" transform="translate(-313.262 -220.141)" fill="#284268"/>
          <path id="Trazado_1280388" data-name="Trazado 1280388" d="M375.494,273.361a2.131,2.131,0,0,0,1.013-1.263,1.777,1.777,0,0,0-.9-2.335,1.408,1.408,0,0,0-1.082.1,2.13,2.13,0,0,0-1.013,1.263,1.777,1.777,0,0,0,.9,2.335,1.324,1.324,0,0,0,.411.065A1.473,1.473,0,0,0,375.494,273.361Zm-.732-1.831a.844.844,0,0,1,.359-.493.171.171,0,0,1,.071-.023h0c.048.016.185.281.057.682a.844.844,0,0,1-.359.493.143.143,0,0,1-.075.022c-.048-.015-.185-.281-.057-.682Z" transform="translate(-335.031 -241.233)" fill="#284268"/>
          <path id="Trazado_1280389" data-name="Trazado 1280389" d="M294.6,268.579a1.407,1.407,0,0,0-1.086-.048,1.777,1.777,0,0,0-.785,2.377,2.13,2.13,0,0,0,1.074,1.21,1.488,1.488,0,0,0,.61.134,1.328,1.328,0,0,0,.476-.087,1.777,1.777,0,0,0,.785-2.376A2.129,2.129,0,0,0,294.6,268.579Zm-.181,2.358a.136.136,0,0,1-.077-.018.843.843,0,0,1-.383-.474c-.148-.394-.023-.667.024-.684h.007a.18.18,0,0,1,.07.019.842.842,0,0,1,.383.474C294.6,270.646,294.471,270.919,294.424,270.937Z" transform="translate(-263.075 -240.115)" fill="#284268"/>
          <path id="Trazado_1280390" data-name="Trazado 1280390" d="M183.778,162.631a.658.658,0,0,0,.658-.658.884.884,0,1,1,1.768,0,.658.658,0,1,0,1.315,0,2.2,2.2,0,0,0-4.4,0,.658.658,0,0,0,.658.658Z" transform="translate(-165.616 -143.357)" fill="#284268"/>
          <path id="Trazado_1280391" data-name="Trazado 1280391" d="M109.434,161.973a.884.884,0,0,1,1.768,0,.658.658,0,1,0,1.315,0,2.2,2.2,0,0,0-4.4,0,.658.658,0,1,0,1.315,0Z" transform="translate(-98.836 -143.357)" fill="#284268"/>
          <path id="Trazado_1280392" data-name="Trazado 1280392" d="M136.431,226.839a.658.658,0,0,0,0,.93,4.285,4.285,0,0,0,6.071,0,.658.658,0,1,0-.932-.929,2.971,2.971,0,0,1-4.208,0A.658.658,0,0,0,136.431,226.839Z" transform="translate(-123.873 -202.899)" fill="#284268"/>
          <path id="Trazado_1280393" data-name="Trazado 1280393" d="M50.71,46.358a14.4,14.4,0,0,0-5.688-6.447,9.611,9.611,0,0,0,3.6-7.506v-.07a2.419,2.419,0,0,0,1.624-4.394,2.1,2.1,0,0,0-1.624-.328v-.806a4.209,4.209,0,0,0,1.635.328h.124a.658.658,0,0,0,.658-.658v-2.5a.66.66,0,0,0,.024-.178v-3.46a6.132,6.132,0,0,0-3.544-5.583,3.675,3.675,0,0,0-2.918-3.367l-5.478-1.121a11.987,11.987,0,0,0-2.813-.247c-2.136.075-3.607.711-4.373,1.893a3.508,3.508,0,0,0-.531,1.524A4.426,4.426,0,0,0,27,17.859V28.874a2.46,2.46,0,0,0-.217.715,2.417,2.417,0,0,0,2.394,2.76,2.38,2.38,0,0,0,.265-.016V32.4a9.611,9.611,0,0,0,3.6,7.506,14.41,14.41,0,0,0-5.682,6.43,6.021,6.021,0,0,0-3.921,5.573V62.468a1.476,1.476,0,0,0,1.473,1.475H53.13A1.476,1.476,0,0,0,54.6,62.468V51.914a6,6,0,0,0-3.892-5.556ZM49.7,47.439a.343.343,0,0,1-.17.409l-1.583.816a.654.654,0,0,0-.315.361,10.017,10.017,0,0,0-.561-5.77A10.71,10.71,0,0,1,49.7,47.439Zm-.2-18.417A1.1,1.1,0,0,1,48.625,31V29a.809.809,0,0,1,.875.019Zm.252-8.687v1.11a2.759,2.759,0,0,0-1.488-.434.658.658,0,1,0,0,1.315A1.468,1.468,0,0,1,49.728,23.8v1.975a2.886,2.886,0,0,1-1.523-.805,3.92,3.92,0,0,1-1.151-2.787V19.387a3.91,3.91,0,0,0-3.9-3.91h-.31a3.888,3.888,0,0,0-2.624,1.016,2.832,2.832,0,0,1-3.207.482v-.841a1.711,1.711,0,0,1,.572-1.42,3.818,3.818,0,0,1,3.067-.351l5.365,1.252a4.823,4.823,0,0,1,3.736,4.72ZM33.047,12.625c.519-.8,1.633-1.235,3.315-1.294a10.672,10.672,0,0,1,2.5.222l5.478,1.121a2.353,2.353,0,0,1,1.768,1.614L40.94,13.08l-.018,0a4.994,4.994,0,0,0-4.171.619A3.021,3.021,0,0,0,35.7,16.135v.716a2.2,2.2,0,0,1-1.9-.545,3.955,3.955,0,0,1-.876-1.077A3.232,3.232,0,0,1,33.047,12.625ZM28.753,30.951a1.105,1.105,0,0,1-.208-1.929.81.81,0,0,1,.892-.008V31a1.105,1.105,0,0,1-.684-.047ZM29.434,20.5l0,7.114a2.119,2.119,0,0,0-1.125.064V17.859a3.109,3.109,0,0,1,3.1-3.11h.039a5.019,5.019,0,0,0,.263,1c.006.014.012.029.019.043a5.2,5.2,0,0,0,.813,1.137A3.615,3.615,0,0,0,29.434,20.5Zm1.319,11.9,0-11.9a2.3,2.3,0,0,1,2.289-2.3H35.2l.08,0a3.732,3.732,0,0,0,.991-.139,4.128,4.128,0,0,0,4.837-.6,2.575,2.575,0,0,1,1.738-.673h.31a2.593,2.593,0,0,1,2.586,2.594V22.18A5.227,5.227,0,0,0,47.273,25.9l.037.035V32.4a8.278,8.278,0,1,1-16.557,0ZM28.362,47.439a10.709,10.709,0,0,1,2.628-4.184,10.015,10.015,0,0,0-.561,5.77.655.655,0,0,0-.315-.362l-1.583-.816a.343.343,0,0,1-.17-.408Zm-3.45,15.188a.159.159,0,0,1-.157-.16V51.914a4.747,4.747,0,0,1,2.322-3.982,1.656,1.656,0,0,0,.326.659h-.587a1.035,1.035,0,0,0-.934,1.48l5.944,12.556Zm8.369,0L27.259,49.906h2.554a.648.648,0,0,0,.655-.67,16.767,16.767,0,0,0,.715,2.545l3.94,10.845Zm5.108,0H36.523l-4.1-11.294c-1.209-3.333-1.136-6.028.227-8.482A9.315,9.315,0,0,1,33.8,41.238l.346-.395v2.2l-.387.532a6.283,6.283,0,0,0,.258,7.723l.891,1.066a1.405,1.405,0,0,0,1.087.51l.09,0a1.407,1.407,0,0,0,1.106-.647l1.194-1.848Zm-3.924-17.7a5.145,5.145,0,0,0,2.351,2.8l1.267.706L36.09,51.512a.1.1,0,0,1-.081.048.1.1,0,0,1-.087-.037l-.891-1.066a4.97,4.97,0,0,1-.566-5.53Zm2.991,1.647a3.834,3.834,0,0,1-1.965-3.349l-.025-1.892a9.572,9.572,0,0,0,7.073.024l.034,1.868a3.834,3.834,0,0,1-1.965,3.349l-1.576.878ZM43.6,44.925a4.97,4.97,0,0,1-.566,5.53l-.891,1.066a.1.1,0,0,1-.087.038.1.1,0,0,1-.081-.048L39.98,48.427l1.267-.706a5.145,5.145,0,0,0,2.351-2.8ZM39.7,62.627v-12.2l1.164,1.8a1.407,1.407,0,0,0,1.106.647l.09,0a1.405,1.405,0,0,0,1.087-.51l.891-1.066a6.283,6.283,0,0,0,.258-7.723l-.408-.56-.051-2.254.418.477a9.308,9.308,0,0,1,1.157,1.614c1.364,2.454,1.436,5.149.227,8.482l-4.1,11.293Zm3.243,0L46.88,51.782a16.766,16.766,0,0,0,.715-2.545.648.648,0,0,0,.655.669H50.8l-6.1,12.721Zm10.339-.16a.159.159,0,0,1-.157.16H46.165l6.016-12.554a1.035,1.035,0,0,0-.933-1.483h-.587a1.655,1.655,0,0,0,.324-.651,4.659,4.659,0,0,1,2.3,3.973Z" transform="translate(-23.439 -10.011)" fill="#284268"/>
        </g>
      </g>
    </g>
  </g>
</svg>
